<svg width="345" height="230" viewBox="0 0 345 230" fill="none" xmlns="http://www.w3.org/2000/svg">
<g clip-path="url(#clip0_4051_18445)">
<path d="M216.572 190.528H223.476C226.937 190.528 229.744 193.336 229.744 196.8C229.744 200.263 226.938 203.071 223.476 203.071H105.339C101.878 203.071 99.0703 200.263 99.0703 196.8C99.0703 193.336 101.876 190.528 105.339 190.528H216.573H216.572Z" fill="white"/>
<path d="M211.65 165.457H117.156V190.544H211.65V165.457Z" fill="white"/>
<path d="M211.649 190.821H117.156C117.002 190.821 116.879 190.696 116.879 190.544V165.457C116.879 165.303 117.003 165.18 117.156 165.18C117.308 165.18 117.432 165.305 117.432 165.457V190.267H211.373V165.457C211.373 165.303 211.497 165.18 211.649 165.18C211.802 165.18 211.926 165.305 211.926 165.457V190.544C211.926 190.698 211.802 190.821 211.649 190.821Z" fill="black"/>
<path d="M223.471 203.349H105.334C101.725 203.349 98.7891 200.412 98.7891 196.801C98.7891 193.19 101.725 190.251 105.334 190.251H111.686C111.839 190.251 111.963 190.376 111.963 190.528C111.963 190.68 111.838 190.804 111.686 190.804H105.334C102.03 190.804 99.3425 193.494 99.3425 196.8C99.3425 200.105 102.03 202.795 105.334 202.795H223.471C226.775 202.795 229.463 200.105 229.463 196.8C229.463 193.494 226.775 190.804 223.471 190.804H216.567C216.414 190.804 216.291 190.68 216.291 190.528C216.291 190.376 216.415 190.251 216.567 190.251H223.471C227.081 190.251 230.016 193.189 230.016 196.8C230.016 200.41 227.081 203.349 223.471 203.349Z" fill="black"/>
<path d="M208.133 171.626H120.679C120.526 171.626 120.402 171.501 120.402 171.349C120.402 171.197 120.527 171.072 120.679 171.072H208.133C208.287 171.072 208.41 171.197 208.41 171.349C208.41 171.501 208.286 171.626 208.133 171.626Z" fill="black"/>
<path d="M277.535 152.107C277.535 159.477 271.552 165.449 264.175 165.442L45.0544 165.211C40.6045 165.211 36.9961 161.601 36.9961 157.148V8.3393C36.9961 3.88635 40.6033 0.276733 45.0544 0.276733H269.476C273.926 0.276733 277.535 3.88635 277.535 8.3393V152.107Z" fill="white"/>
<path d="M277.538 13.045H36.9994C36.8459 13.045 36.7227 12.9205 36.7227 12.7683C36.7227 12.6162 36.8472 12.4916 36.9994 12.4916H277.537C277.69 12.4916 277.813 12.6162 277.813 12.7683C277.813 12.9205 277.689 13.045 277.537 13.045H277.538Z" fill="black"/>
<path d="M44.3702 9.55444C42.9917 9.55444 41.8711 8.43209 41.8711 7.05209C41.8711 5.67209 42.993 4.54974 44.3702 4.54974C45.7474 4.54974 46.8693 5.67209 46.8693 7.05209C46.8693 8.43209 45.7474 9.55444 44.3702 9.55444ZM44.3702 5.10401C43.2974 5.10401 42.4245 5.9775 42.4245 7.05209C42.4245 8.12668 43.2974 9.00018 44.3702 9.00018C45.4431 9.00018 46.3159 8.12668 46.3159 7.05209C46.3159 5.9775 45.4431 5.10401 44.3702 5.10401Z" fill="black"/>
<path d="M50.8546 9.55444C49.4761 9.55444 48.3555 8.43209 48.3555 7.05209C48.3555 5.67209 49.4774 4.54974 50.8546 4.54974C52.2318 4.54974 53.3537 5.67209 53.3537 7.05209C53.3537 8.43209 52.2318 9.55444 50.8546 9.55444ZM50.8546 5.10401C49.7817 5.10401 48.9089 5.9775 48.9089 7.05209C48.9089 8.12668 49.7817 9.00018 50.8546 9.00018C51.9274 9.00018 52.8003 8.12668 52.8003 7.05209C52.8003 5.9775 51.9274 5.10401 50.8546 5.10401Z" fill="black"/>
<path d="M57.339 9.55444C55.9605 9.55444 54.8398 8.43209 54.8398 7.05209C54.8398 5.67209 55.9617 4.54974 57.339 4.54974C58.7162 4.54974 59.8381 5.67209 59.8381 7.05209C59.8381 8.43209 58.7162 9.55444 57.339 9.55444ZM57.339 5.10401C56.2661 5.10401 55.3932 5.9775 55.3932 7.05209C55.3932 8.12668 56.2661 9.00018 57.339 9.00018C58.4118 9.00018 59.2847 8.12668 59.2847 7.05209C59.2847 5.9775 58.4118 5.10401 57.339 5.10401Z" fill="black"/>
<path d="M258.491 165.733L45.0577 165.488C40.4619 165.488 36.7227 161.747 36.7227 157.149V8.33907C36.7227 3.74033 40.4619 0 45.0577 0H269.48C274.075 0 277.815 3.74158 277.815 8.33907V84.4527C277.815 84.6061 277.69 84.7292 277.538 84.7292C277.386 84.7292 277.261 84.6048 277.261 84.4527V8.33907C277.261 4.04574 273.771 0.553005 269.481 0.553005H45.0577C40.7675 0.553005 37.2773 4.04574 37.2773 8.33907V157.148C37.2773 161.441 40.7675 164.934 45.0577 164.934L258.491 165.179C258.644 165.179 258.767 165.303 258.767 165.455C258.767 165.609 258.643 165.732 258.491 165.732V165.733Z" fill="black"/>
<path d="M216.855 134.337H101.714C101.561 134.337 101.438 134.212 101.438 134.06C101.438 133.908 101.562 133.783 101.714 133.783H216.855C217.008 133.783 217.132 133.908 217.132 134.06C217.132 134.212 217.007 134.337 216.855 134.337Z" fill="black"/>
<path d="M316.266 81.7971L317.008 82.6819C325.404 92.6913 330.163 105.25 330.511 118.312C331.321 148.737 332.716 204.85 332.543 224.295C332.516 227.236 330.125 229.604 327.186 229.604H296.698C294.634 229.604 293.481 227.221 294.76 225.601L299.233 219.938L305.06 150.846L281.56 226.025C280.802 228.17 278.774 229.605 276.499 229.605H243.987C241.855 229.605 240.724 227.085 242.141 225.492L248.153 218.73L291.597 102.293L316.265 81.7983L316.266 81.7971Z" fill="white"/>
<path d="M327.185 229.879H296.697C295.637 229.879 294.69 229.286 294.226 228.331C293.762 227.374 293.883 226.262 294.542 225.428L298.963 219.828L304.571 153.333L281.825 226.104C281.026 228.365 278.887 229.878 276.499 229.878H243.987C242.891 229.878 241.932 229.257 241.481 228.257C241.031 227.255 241.205 226.124 241.934 225.303L247.912 218.58L291.338 102.192C291.356 102.146 291.383 102.106 291.421 102.076L316.089 81.5809C316.207 81.4828 316.381 81.4992 316.479 81.6161L317.221 82.5009C325.622 92.5178 330.44 105.232 330.788 118.302C331.621 149.583 332.993 204.95 332.82 224.295C332.792 227.373 330.264 229.878 327.185 229.878V229.879ZM305.06 150.567C305.078 150.567 305.095 150.568 305.114 150.572C305.252 150.6 305.349 150.727 305.337 150.867L299.51 219.959C299.506 220.013 299.485 220.065 299.452 220.107L294.978 225.771C294.444 226.447 294.349 227.314 294.726 228.09C295.103 228.864 295.84 229.325 296.699 229.325H327.186C329.962 229.325 332.241 227.067 332.266 224.291C332.439 204.955 331.068 149.596 330.235 118.318C329.89 105.373 325.118 92.7792 316.797 82.8578L316.233 82.1854L291.834 102.457L248.415 218.824C248.404 218.856 248.386 218.886 248.362 218.911L242.351 225.673C241.768 226.328 241.63 227.231 241.99 228.032C242.348 228.83 243.114 229.326 243.989 229.326H276.502C278.655 229.326 280.584 227.961 281.301 225.93L304.797 150.762C304.834 150.645 304.942 150.567 305.061 150.567H305.06Z" fill="black"/>
<path d="M282.049 221.283C282.049 221.283 282.042 221.283 282.038 221.283C271.542 220.84 260.924 220.043 250.481 218.915C250.329 218.898 250.22 218.761 250.236 218.609C250.252 218.457 250.393 218.347 250.542 218.364C260.973 219.49 271.579 220.286 282.063 220.728C282.216 220.735 282.335 220.864 282.328 221.016C282.322 221.166 282.199 221.281 282.052 221.281L282.049 221.283Z" fill="black"/>
<path d="M321.939 221.04C314.988 221.04 308.017 220.85 301.114 220.47C300.96 220.461 300.844 220.331 300.852 220.178C300.861 220.025 300.995 219.901 301.144 219.916C311.352 220.477 321.709 220.623 331.928 220.353C332.069 220.348 332.209 220.47 332.212 220.622C332.216 220.775 332.095 220.902 331.943 220.906C328.62 220.994 325.282 221.038 321.94 221.038L321.939 221.04Z" fill="black"/>
<path d="M305.199 150.19C305.176 150.19 305.152 150.188 305.129 150.181C304.98 150.142 304.892 149.991 304.931 149.843L311.376 125.312C312.08 122.633 312.958 119.898 315.24 118.47C315.369 118.388 315.54 118.427 315.622 118.558C315.704 118.688 315.663 118.858 315.534 118.94C313.421 120.261 312.615 122.775 311.912 125.453L305.467 149.984C305.434 150.108 305.322 150.19 305.199 150.19Z" fill="black"/>
<path d="M289.306 33.8238C289.306 33.8238 285.474 46.2991 290.437 47.3674C294.269 48.1919 298.846 46.2715 298.967 45.9862C299.088 45.7009 300.785 37.8733 300.785 37.8733L289.305 33.8251L289.306 33.8238Z" fill="white"/>
<path d="M292.463 47.8438C291.756 47.8438 291.05 47.7822 290.381 47.6389C289.542 47.4579 288.883 46.969 288.421 46.1835C286.345 42.6455 288.932 34.1054 289.043 33.7434C289.065 33.6717 289.116 33.6114 289.182 33.5775C289.25 33.5435 289.328 33.5385 289.4 33.5637L300.879 37.6119C301.011 37.6584 301.087 37.7954 301.058 37.9311C300.774 39.242 299.349 45.7989 299.224 46.093C299.033 46.5442 295.723 47.8425 292.463 47.8425V47.8438ZM289.492 34.1833C289.063 35.689 287.145 42.9145 288.899 45.9032C289.284 46.558 289.806 46.9489 290.497 47.0972C294.056 47.8626 298.267 46.1659 298.726 45.8391C298.875 45.32 299.817 41.038 300.464 38.0531L289.492 34.1833Z" fill="black"/>
<path d="M291.984 44.3548L293.202 53.8866L303.096 53.4857L300.377 39.3149L291.984 44.3548Z" fill="white"/>
<path d="M293.2 54.1631C293.061 54.1631 292.943 54.0601 292.925 53.9218L291.709 44.3913C291.69 44.2392 291.797 44.1009 291.949 44.0808C292.1 44.0632 292.24 44.1688 292.26 44.3209L293.445 53.6001L302.765 53.223L300.106 39.3677C300.077 39.2169 300.175 39.0724 300.326 39.0434C300.477 39.0145 300.622 39.1126 300.65 39.2634L303.371 53.4342C303.386 53.5133 303.366 53.595 303.316 53.6579C303.265 53.7207 303.19 53.7597 303.109 53.7622L293.213 54.1631C293.213 54.1631 293.206 54.1631 293.202 54.1631H293.2Z" fill="black"/>
<path d="M299.228 28.9046C299.228 28.9046 297.918 25.5577 292.408 25.6155C290.335 25.6368 289.154 25.4647 288.488 25.2409C287.131 24.786 285.626 25.4596 285.169 26.8145C284.849 27.7596 285.055 28.9549 286.529 30.3613C286.529 30.3613 284.204 32.4388 287.883 34.3995C287.883 34.3995 286.863 37.3656 291.432 38.0204C291.432 38.0204 292.139 36.5361 293.58 37.3706C294.428 37.862 294.501 39.8353 292.987 41.5835C292.987 41.5835 295.394 46.3921 299.723 46.3406C304.052 46.2878 304.059 41.2102 304.091 39.5424C304.124 37.8746 306.506 33.3726 303.659 30.0408C301.948 28.0387 299.225 28.9059 299.225 28.9059L299.228 28.9046Z" fill="black"/>
<path d="M293.248 38.263C293.248 38.263 291.779 37.3606 292.014 40.1972L293.248 38.263Z" fill="white"/>
<path d="M292.017 40.4737C291.875 40.4737 291.753 40.3644 291.741 40.2199C291.641 39.0058 291.824 38.273 292.305 37.9777C292.704 37.7326 293.178 37.8935 293.395 38.0267C293.526 38.1071 293.566 38.2768 293.486 38.4075C293.405 38.537 293.237 38.5784 293.106 38.4993C293.1 38.4955 292.795 38.3233 292.592 38.4502C292.465 38.5294 292.182 38.8549 292.291 40.1734C292.304 40.3254 292.19 40.4599 292.038 40.4725C292.031 40.4725 292.023 40.4725 292.016 40.4725L292.017 40.4737Z" fill="black"/>
<path d="M272.222 67.7105L269.503 66.6397L265.395 71.0022C265.395 71.0022 252.19 61.9882 245.558 56.0283C238.925 50.0684 232.582 46.5995 231.002 46.9854C229.424 47.3712 230.018 49.5669 233.315 51.466C233.315 51.466 230.44 52.2565 231.002 54.6734C231.002 54.6734 228.954 54.7199 229.416 57.6534C229.416 57.6534 227.081 58.9089 228.124 61.5118C229.166 64.1147 232.061 64.1889 232.061 64.1889C232.061 64.1889 239.924 73.4618 248.193 81.5457C255.787 88.9685 267.279 90.757 276.726 85.9094C279.674 84.3962 282.407 81.596 284.295 79.5222L272.222 67.7118V67.7105Z" fill="white"/>
<path d="M265.504 88.8994C259.116 88.8994 252.802 86.4411 247.995 81.7418C240.245 74.1656 232.761 65.4394 231.922 64.4566C231.324 64.4101 228.845 64.067 227.862 61.6136C226.914 59.247 228.563 57.8871 229.113 57.5138C228.977 56.4644 229.144 55.6512 229.608 55.0944C229.954 54.6797 230.385 54.5113 230.675 54.4422C230.458 52.8334 231.668 51.8481 232.675 51.4006C230.823 50.2179 229.747 48.8203 229.899 47.7571C229.974 47.2292 230.341 46.8584 230.933 46.7139C232.67 46.2916 239.178 49.9251 245.739 55.8209C251.844 61.307 263.687 69.494 265.352 70.6377L269.297 66.4487C269.375 66.367 269.496 66.3393 269.6 66.3808L272.32 67.4529C272.354 67.4667 272.385 67.4868 272.412 67.5132L284.485 79.3224C284.591 79.4267 284.596 79.5964 284.496 79.707C282.646 81.7393 279.84 84.6199 276.848 86.1545C273.252 87.9995 269.363 88.8982 265.503 88.8982L265.504 88.8994ZM231.287 47.2305C231.203 47.2305 231.129 47.238 231.065 47.2543C230.697 47.3436 230.49 47.5396 230.448 47.8375C230.343 48.5753 231.237 49.9515 233.451 51.2259C233.547 51.2812 233.602 51.3893 233.586 51.5012C233.573 51.6118 233.493 51.7035 233.385 51.7337C233.278 51.7638 230.774 52.4853 231.268 54.6118C231.287 54.6935 231.268 54.779 231.217 54.8443C231.165 54.9097 231.087 54.9499 231.004 54.9512C230.983 54.9512 230.426 54.9763 230.028 55.4589C229.648 55.9189 229.534 56.6429 229.686 57.6119C229.705 57.7275 229.647 57.8431 229.544 57.8984C229.459 57.9449 227.441 59.0748 228.377 61.41C229.337 63.8068 231.954 63.9099 232.065 63.9124C232.143 63.9149 232.218 63.9501 232.268 64.0104C232.348 64.1034 240.217 73.3662 248.382 81.3484C255.924 88.7197 267.262 90.4541 276.595 85.6643C279.412 84.219 282.086 81.5193 283.906 79.5335L272.064 67.9506L269.572 66.9677L265.592 71.1932C265.499 71.2925 265.347 71.3088 265.234 71.2322C265.102 71.1417 251.938 62.139 245.368 56.2356C239.014 50.5259 233.025 47.2317 231.286 47.2317L231.287 47.2305Z" fill="black"/>
<path d="M232.149 64.5936C232.061 64.5936 231.975 64.5521 231.921 64.4754C231.077 63.2651 230.291 61.9932 229.584 60.6949C229.511 60.5604 229.562 60.3932 229.695 60.3191C229.83 60.2462 229.998 60.2952 230.071 60.4297C230.768 61.7091 231.543 62.9634 232.375 64.1574C232.462 64.2831 232.432 64.4553 232.306 64.5433C232.258 64.5772 232.203 64.5936 232.148 64.5936H232.149Z" fill="black"/>
<path d="M232.411 59.0685C232.347 59.0685 232.282 59.0459 232.229 59.0007C231.434 58.3094 230.381 57.9412 229.325 57.9889C229.321 57.9889 229.316 57.9889 229.312 57.9889C229.165 57.9889 229.043 57.8733 229.035 57.725C229.028 57.5729 229.147 57.4435 229.3 57.4359C230.487 57.3844 231.692 57.8004 232.592 58.5834C232.708 58.684 232.721 58.8587 232.62 58.9743C232.566 59.0371 232.488 59.0698 232.411 59.0698V59.0685Z" fill="black"/>
<path d="M234.664 56.7233C234.595 56.7233 234.527 56.6982 234.473 56.6466C233.529 55.7467 232.296 55.1586 231.003 54.9901C230.852 54.97 230.744 54.8318 230.764 54.6797C230.784 54.5289 230.923 54.4195 231.075 54.4409C232.483 54.6244 233.827 55.2654 234.856 56.2457C234.966 56.3513 234.97 56.526 234.866 56.6366C234.812 56.6944 234.739 56.722 234.666 56.722L234.664 56.7233Z" fill="black"/>
<path d="M236.531 53.8037C236.47 53.8037 236.41 53.7848 236.36 53.7446C235.365 52.9629 234.273 52.3068 233.115 51.7953C232.975 51.7337 232.911 51.5703 232.973 51.4295C233.034 51.29 233.198 51.2272 233.339 51.2888C234.539 51.8179 235.671 52.4979 236.702 53.3085C236.823 53.4028 236.843 53.5775 236.748 53.6969C236.694 53.766 236.613 53.8024 236.531 53.8024V53.8037Z" fill="black"/>
<path d="M302.069 25.432C300.815 24.7684 299.654 24.4692 299.04 25.2698C298.426 26.0704 298.899 27.5472 299.969 28.1706C299.227 27.6955 298.458 27.2091 297.635 27.0206C296.812 26.8308 295.913 27.0156 295.596 27.6641C295.317 28.2347 295.556 29.0215 296.007 29.6348C296.231 29.9377 296.499 30.2079 296.787 30.4606C296.239 30.2871 295.618 30.3663 295.279 30.727C294.703 31.3416 294.694 32.3131 295.278 33.1451C295.771 33.849 296.667 34.6119 297.523 35.2818C298.474 36.0736 299.212 36.6278 300.569 37.5755C299.03 37.3379 296.382 37.0715 296.602 38.9555C296.908 41.5785 308.623 43.1055 310.451 44.2254C313.874 46.3218 316.524 47.8551 316.524 47.8551C318.092 47.7407 324.115 40.0451 325.074 37.4812C323.635 36.2948 311.562 28.3968 306.622 25.4722C305.793 24.982 304.925 24.4818 304.026 24.3599C303.125 24.2392 302.191 24.6226 302.071 25.4332L302.069 25.432Z" fill="white"/>
<path d="M316.525 48.1303C316.476 48.1303 316.428 48.1178 316.387 48.0926C316.36 48.0776 313.694 46.5329 310.308 44.4591C309.723 44.1009 307.966 43.6749 305.93 43.1809C300.617 41.8927 296.536 40.7653 296.328 38.9844C296.267 38.449 296.401 38.0179 296.73 37.7024C297.322 37.1318 298.449 37.0753 299.513 37.1632C298.668 36.5549 298.065 36.0887 297.347 35.4917C296.567 34.8821 295.596 34.0777 295.052 33.3023C294.395 32.3647 294.405 31.2536 295.078 30.536C295.308 30.2909 295.652 30.1413 296.033 30.1036C295.942 30.0018 295.861 29.9 295.785 29.797C295.337 29.1886 294.988 28.2774 295.347 27.5397C295.752 26.7114 296.819 26.5443 297.698 26.7479C298.043 26.8271 298.377 26.9553 298.701 27.1099C298.628 26.9402 298.572 26.763 298.537 26.5845C298.424 26.0139 298.526 25.4873 298.823 25.1002C299.627 24.0495 301.122 24.6439 301.899 25.0298C302.232 24.2669 303.202 23.9665 304.062 24.0821C305.048 24.2154 305.999 24.7772 306.763 25.2296C311.758 28.187 323.799 36.066 325.25 37.2638C325.341 37.3392 325.375 37.4636 325.333 37.5742C324.361 40.1784 318.324 47.9984 316.544 48.1278C316.538 48.1278 316.53 48.1278 316.524 48.1278L316.525 48.1303ZM298.756 37.6823C298.099 37.6823 297.452 37.7778 297.115 38.1021C296.915 38.2944 296.838 38.5621 296.879 38.9215C297.059 40.4612 302.476 41.7746 306.061 42.643C308.228 43.1684 309.938 43.5831 310.597 43.9866C313.641 45.8505 316.101 47.2858 316.579 47.5635C317.985 47.2242 323.548 40.4059 324.741 37.5667C322.745 36.0371 311.314 28.5678 306.48 25.706C305.759 25.2799 304.862 24.7483 303.987 24.6301C303.255 24.5296 302.44 24.8186 302.343 25.4697C302.329 25.5589 302.274 25.6356 302.193 25.6758C302.113 25.716 302.017 25.7148 301.939 25.6733C300.571 24.9481 299.693 24.8689 299.26 25.4345C299.062 25.6934 298.997 26.0629 299.079 26.4752C299.186 27.0156 299.521 27.5233 299.968 27.8376C300.019 27.8702 300.069 27.9017 300.118 27.9331C300.245 28.0148 300.284 28.1819 300.205 28.3114C300.126 28.4396 299.96 28.4823 299.829 28.4069C299.772 28.3742 299.717 28.339 299.663 28.3013C299.019 27.8916 298.301 27.4542 297.571 27.2871C296.928 27.1388 296.113 27.2305 295.843 27.7823C295.635 28.2071 295.788 28.8682 296.229 29.4677C296.416 29.7228 296.659 29.9792 296.967 30.2482C297.067 30.3349 297.091 30.4782 297.026 30.5925C296.962 30.7069 296.825 30.7597 296.702 30.7207C296.228 30.5712 295.726 30.6503 295.479 30.9118C294.991 31.4333 295 32.2654 295.502 32.9818C296.01 33.7057 296.995 34.5138 297.692 35.0593C298.633 35.8423 299.368 36.3953 300.725 37.3442C300.831 37.4184 300.871 37.5554 300.824 37.6748C300.776 37.7942 300.653 37.8633 300.524 37.8457C300.176 37.7917 299.459 37.6811 298.751 37.6811L298.756 37.6823Z" fill="black"/>
<path d="M306.02 41.2404C305.971 41.2404 305.922 41.2278 305.877 41.2002C305.836 41.175 301.785 38.7204 300.416 37.8029C300.289 37.7175 300.255 37.5453 300.34 37.4184C300.426 37.2914 300.598 37.2575 300.725 37.3429C302.085 38.2529 306.125 40.7012 306.165 40.7263C306.296 40.8055 306.337 40.9764 306.258 41.1072C306.205 41.1926 306.114 41.2404 306.02 41.2404Z" fill="black"/>
<path d="M303.545 35.8084C303.485 35.8084 303.425 35.7895 303.375 35.7493C301.438 34.2386 298.955 32.4263 296.96 30.9696L296.598 30.7057C296.475 30.6152 296.447 30.4417 296.538 30.3186C296.628 30.1954 296.802 30.1677 296.925 30.2582L297.287 30.5222C299.286 31.9813 301.772 33.7962 303.716 35.3132C303.836 35.4075 303.858 35.5809 303.763 35.7016C303.709 35.7719 303.628 35.8084 303.545 35.8084Z" fill="black"/>
<path d="M305.869 32.4752C305.815 32.4752 305.759 32.4589 305.712 32.4262L299.951 28.432C299.825 28.3453 299.794 28.1719 299.882 28.0462C299.969 27.9205 300.142 27.8891 300.268 27.977L306.029 31.9713C306.154 32.058 306.186 32.2314 306.098 32.3571C306.044 32.435 305.958 32.4765 305.87 32.4765L305.869 32.4752Z" fill="black"/>
<path d="M307.618 29.4136C307.561 29.4136 307.505 29.396 307.456 29.3608C305.768 28.1367 304.011 26.9615 302.234 25.8668C302.103 25.7864 302.063 25.6155 302.143 25.486C302.224 25.3566 302.393 25.3151 302.524 25.3955C304.313 26.4965 306.081 27.6792 307.78 28.9121C307.905 29.0014 307.931 29.1748 307.842 29.2992C307.788 29.3734 307.703 29.4136 307.617 29.4136H307.618Z" fill="black"/>
<path d="M325.776 97.6029C325.666 97.6029 325.562 97.5376 325.519 97.4295L322.231 89.3141C322.174 89.1721 322.243 89.0112 322.385 88.9534C322.527 88.8956 322.688 88.9635 322.746 89.1068L326.034 97.2221C326.091 97.3641 326.022 97.525 325.88 97.5828C325.846 97.5967 325.811 97.6029 325.776 97.6029Z" fill="black"/>
<path d="M319.28 32.9905C319.28 32.9905 317.931 38.9152 311.131 44.9267C313.322 47.0117 321.847 53.727 321.847 53.727C321.847 53.727 302.761 52.993 297.313 52.7894C287.936 52.4387 280.338 54.8041 275.806 59.3186L265.026 69.4763L250.788 59.1879L238.469 71.9636L250.183 83.5729C258.839 91.7348 272.351 91.7411 281.014 83.5855L285.986 79.0886L287.285 106.403L329.383 100.324L323.528 72.0466C323.528 72.0466 343.816 73.2116 344.924 62.1276C346.564 45.7084 319.28 32.9893 319.28 32.9893V32.9905Z" fill="#5479F7"/>
<path d="M333.359 54.4567C333.359 54.4567 333.352 54.4567 333.348 54.4567L321.836 54.0039C321.682 53.9976 321.564 53.8693 321.571 53.7159C321.577 53.5624 321.718 53.4455 321.859 53.4505L333.371 53.9033C333.524 53.9096 333.642 54.0379 333.636 54.1913C333.63 54.341 333.508 54.458 333.359 54.458V54.4567Z" fill="black"/>
<path d="M285.987 79.3651C285.841 79.3651 285.718 79.2507 285.711 79.1024L285.504 75.0906C285.497 74.9373 285.614 74.8078 285.767 74.8003C285.919 74.7877 286.05 74.9096 286.058 75.0629L286.264 79.0747C286.271 79.2281 286.154 79.3575 286.001 79.3651C285.996 79.3651 285.991 79.3651 285.986 79.3651H285.987Z" fill="black"/>
<path d="M83.0241 229.723H33.712C33.712 229.723 16.769 223.42 28.3402 205.895C28.9879 204.914 30.5148 205.445 30.3991 206.615C29.8507 212.188 30.0733 221.445 36.8324 224.797V222.948C36.8324 218.691 38.1128 214.532 40.5063 211.013L56.7789 187.088C56.7789 187.088 43.6682 182.416 65.8736 167.728C65.8736 167.728 65.251 160.174 74.3784 163.456C74.3784 163.456 89.7366 153.801 92.6647 154.711C95.5927 155.621 99.8904 160.977 86.3194 177.955L83.7435 183.573C83.2958 184.55 83.0631 185.612 83.0631 186.688V221.491C83.0631 222.991 83.9963 224.304 85.3811 224.877C86.5118 225.346 87.4287 226.231 86.3974 227.893C85.6792 229.051 84.385 229.723 83.0228 229.723H83.0241Z" fill="white"/>
<path d="M83.0269 230H33.7148C33.6821 230 33.6494 229.994 33.6179 229.982C33.5488 229.957 26.6916 227.341 24.6188 221C23.1724 216.575 24.3472 211.442 28.1103 205.742C28.4738 205.191 29.1341 204.969 29.7542 205.189C30.3692 205.406 30.7402 205.991 30.6761 206.642C30.1692 211.802 30.2812 220.862 36.5573 224.338V222.947C36.5573 218.617 37.844 214.437 40.2789 210.856L56.3591 187.212C55.4611 186.809 53.0286 185.474 52.6966 182.746C52.2023 178.691 56.5402 173.591 65.5896 167.582C65.5695 166.932 65.6261 164.579 67.3643 163.248C68.8824 162.086 71.2306 162.051 74.3448 163.148C76.3873 161.868 89.8401 153.543 92.7467 154.444C93.4083 154.651 95.0194 155.364 95.6898 157.55C96.613 160.555 95.7754 166.56 86.5561 178.099L83.9941 183.686C83.5589 184.633 83.3388 185.643 83.3388 186.686V221.489C83.3388 222.85 84.1815 224.079 85.4871 224.62C86.326 224.966 86.8492 225.447 87.0416 226.044C87.229 226.627 87.0919 227.297 86.6329 228.037C85.8832 229.247 84.4997 229.997 83.0231 229.997L83.0269 230ZM33.7664 229.446H83.0269C84.3136 229.446 85.516 228.795 86.1662 227.747C86.536 227.151 86.6542 226.635 86.5184 226.214C86.3775 225.778 85.9612 225.415 85.2795 225.132C83.7677 224.506 82.7905 223.076 82.7905 221.49V186.687C82.7905 185.564 83.0282 184.476 83.4961 183.456L86.0719 177.838C86.082 177.818 86.0933 177.798 86.1071 177.78C95.1955 166.411 96.0495 160.592 95.1654 157.712C94.5717 155.779 93.1643 155.153 92.587 154.974C90.2841 154.252 78.772 161.023 74.5296 163.688C74.458 163.734 74.3686 163.744 74.2882 163.715C71.3023 162.641 69.0887 162.631 67.7077 163.686C65.9594 165.022 66.1519 167.676 66.1544 167.704C66.1619 167.804 66.1154 167.901 66.0311 167.958C54.8838 175.332 52.928 180.033 53.25 182.679C53.6097 185.629 56.8433 186.814 56.876 186.827C56.9565 186.856 57.0194 186.92 57.0458 187.001C57.0722 187.083 57.0597 187.172 57.0119 187.243L40.7393 211.168C38.3672 214.655 37.1132 218.729 37.1132 222.947V224.795C37.1132 224.891 37.0642 224.98 36.9824 225.031C36.9006 225.081 36.7988 225.086 36.7132 225.043C29.7441 221.587 29.5957 211.996 30.1265 206.587C30.1743 206.101 29.8573 205.81 29.5706 205.709C29.2813 205.607 28.8461 205.634 28.5744 206.046C24.9094 211.598 23.756 216.571 25.1458 220.826C27.05 226.652 33.1803 229.212 33.7664 229.444V229.446Z" fill="black"/>
<path d="M82.7052 229.585C82.6838 229.585 82.6612 229.583 82.6398 229.578C82.4914 229.541 82.3996 229.392 82.436 229.243C82.6863 228.222 81.8436 227.18 80.9205 226.8C79.9004 226.382 78.7194 226.488 77.5938 226.668L77.1699 226.737C76.136 226.908 75.067 227.085 74.0054 226.906C73.8947 226.887 73.8067 226.804 73.7816 226.695C73.7564 226.585 73.7992 226.472 73.8897 226.407C77.3472 223.926 79.8602 220.12 80.7846 215.964C81.1594 214.277 81.2097 212.829 80.9393 211.537C80.6174 210.003 79.7935 208.685 78.6804 207.921C76.5171 206.437 73.6092 207.04 71.5528 207.807C67.9243 209.16 64.7258 211.474 62.3022 214.497C62.2066 214.616 62.033 214.636 61.9123 214.54C61.7928 214.444 61.7739 214.269 61.8695 214.15C64.3548 211.049 67.6362 208.675 71.3591 207.288C73.5388 206.475 76.6328 205.845 78.9949 207.464C80.2249 208.307 81.1318 209.75 81.4827 211.423C81.7694 212.793 81.7191 214.317 81.3267 216.083C80.4249 220.135 78.0604 223.865 74.7915 226.423C75.5512 226.443 76.3247 226.315 77.0806 226.189L77.5082 226.119C78.7131 225.927 79.9872 225.813 81.133 226.285C82.2939 226.761 83.3001 228.047 82.9769 229.372C82.9454 229.499 82.8322 229.583 82.7077 229.583L82.7052 229.585Z" fill="black"/>
<path d="M75.8749 206.78C75.8385 206.78 75.8007 206.773 75.7655 206.757C75.6246 206.697 75.5605 206.534 75.6196 206.394L78.8533 198.875C78.9136 198.734 79.0771 198.67 79.2167 198.729C79.3576 198.789 79.4218 198.953 79.3626 199.092L76.129 206.612C76.0837 206.716 75.9818 206.779 75.8749 206.779V206.78Z" fill="black"/>
<path d="M94.7535 161.048C94.7409 161.048 94.7283 161.048 94.7157 161.045C93.4743 160.878 92.3021 160.23 91.501 159.267C90.6998 158.304 90.2734 157.035 90.3338 155.783C90.3413 155.63 90.4721 155.509 90.6243 155.519C90.7777 155.526 90.8947 155.656 90.8884 155.809C90.8343 156.924 91.2142 158.055 91.9273 158.912C92.6417 159.77 93.6844 160.346 94.7899 160.496C94.9409 160.516 95.0478 160.656 95.0276 160.808C95.0088 160.947 94.8906 161.048 94.7535 161.048Z" fill="black"/>
<path d="M72.5712 193.668C72.1926 193.668 71.8165 193.636 71.4493 193.573C69.0256 193.155 67.051 191.305 66.646 189.073C66.3026 187.179 67.0837 185.263 67.8031 183.806C69.4218 180.526 71.5675 177.565 74.1811 175.006C74.2905 174.899 74.4666 174.901 74.5722 175.01C74.6791 175.119 74.6779 175.295 74.5685 175.401C72.0002 177.916 69.8909 180.827 68.2999 184.05C67.6182 185.432 66.8774 187.239 67.1918 188.973C67.5503 190.949 69.3803 192.655 71.5436 193.028C73.5233 193.37 75.7495 192.691 77.5002 191.213C79.0032 189.944 80.1906 188.125 81.027 185.809C81.7766 183.731 82.1627 181.513 82.535 179.366C82.5614 179.215 82.7048 179.115 82.8557 179.141C83.0066 179.167 83.1073 179.311 83.0808 179.462C82.7035 181.631 82.3136 183.873 81.5477 185.997C80.6786 188.406 79.4372 190.304 77.8574 191.637C76.3054 192.947 74.3962 193.669 72.5712 193.669V193.668Z" fill="black"/>
<path d="M57.172 186.852C57.1154 186.852 57.0575 186.834 57.0072 186.798C56.8839 186.707 56.8575 186.534 56.9493 186.411L63.4179 177.668C63.5084 177.546 63.682 177.519 63.8053 177.61C63.9285 177.701 63.9549 177.874 63.8631 177.997L57.3946 186.74C57.3405 186.813 57.2562 186.852 57.172 186.852Z" fill="black"/>
<path d="M66.1147 176.196C66.1059 176.196 66.0984 176.196 66.0896 176.196C64.8557 176.086 63.7364 175.28 63.2383 174.145C62.7402 173.012 62.9037 171.642 63.6571 170.658C64.3011 169.815 65.3299 169.315 66.3814 169.304L65.8632 168.374C65.789 168.241 65.8368 168.072 65.9701 167.997C66.1034 167.924 66.272 167.97 66.3474 168.104L67.1134 169.479C67.165 169.57 67.1587 169.684 67.0996 169.771C67.0392 169.858 66.936 169.902 66.8304 169.888C65.8154 169.735 64.7199 170.18 64.0973 170.994C63.4748 171.808 63.3339 172.985 63.7464 173.923C64.1577 174.86 65.1199 175.553 66.1399 175.645C66.2921 175.658 66.4053 175.793 66.3914 175.945C66.3789 176.088 66.2581 176.196 66.116 176.196H66.1147Z" fill="black"/>
<path d="M78.7751 174.023C78.7663 174.023 78.7563 174.023 78.7475 174.022C78.5953 174.007 78.4833 173.871 78.4997 173.719C78.8581 170.121 77.3992 166.399 74.6913 164.006C74.5768 163.905 74.5655 163.73 74.6674 163.616C74.7692 163.501 74.9441 163.491 75.0585 163.592C77.8972 166.102 79.4266 170.003 79.0506 173.774C79.0367 173.918 78.916 174.023 78.7751 174.023Z" fill="black"/>
<path d="M76.0537 190.881C75.9027 190.881 75.7795 190.76 75.7769 190.61C75.6801 186.064 77.5919 181.48 80.8884 178.349C80.9991 178.244 81.1752 178.249 81.2796 178.359C81.3852 178.47 81.3802 178.646 81.2695 178.75C78.0836 181.775 76.2373 186.204 76.3304 190.597C76.3341 190.75 76.2121 190.876 76.0587 190.88H76.0524L76.0537 190.881Z" fill="black"/>
<path d="M150.066 10.7849L94.2881 107.394C90.4709 114.006 95.2465 122.27 102.886 122.27H214.444C222.083 122.27 226.859 114.006 223.042 107.394L167.262 10.7849C163.442 4.16892 153.887 4.16892 150.066 10.7849Z" fill="#5479F7"/>
<path d="M154.455 18.9166L103.529 107.12C101.659 110.359 103.998 114.406 107.74 114.406H209.592C213.333 114.406 215.672 110.359 213.803 107.12L162.877 18.9166C161.006 15.6765 156.326 15.6765 154.455 18.9166Z" fill="white"/>
<path d="M139.186 96.326H133.749V100.775H140.065V102.129H132.094V89.5743H139.979V90.9279H133.748V94.9712H139.185V96.3248L139.186 96.326Z" fill="black"/>
<path d="M146.724 97.05H143.777V102.129H142.113V89.5743H146.268C147.681 89.5743 148.768 89.8961 149.529 90.5396C150.29 91.1831 150.671 92.1207 150.671 93.3511C150.671 94.1329 150.46 94.8141 150.037 95.3947C149.614 95.9754 149.027 96.409 148.275 96.6968L151.222 102.026V102.129H149.447L146.724 97.05ZM143.777 95.6964H146.319C147.14 95.6964 147.794 95.4827 148.28 95.0566C148.765 94.6306 149.008 94.06 149.008 93.3461C149.008 92.5681 148.777 91.9724 148.314 91.5576C147.851 91.1429 147.183 90.933 146.31 90.9267H143.777V95.6951V95.6964Z" fill="black"/>
<path d="M157.595 97.05H154.648V102.129H152.984V89.5743H157.139C158.552 89.5743 159.639 89.8961 160.4 90.5396C161.161 91.1831 161.542 92.1207 161.542 93.3511C161.542 94.1329 161.331 94.8141 160.908 95.3947C160.486 95.9754 159.898 96.409 159.146 96.6968L162.093 102.026V102.129H160.318L157.595 97.05ZM154.648 95.6964H157.19C158.012 95.6964 158.666 95.4827 159.151 95.0566C159.637 94.6306 159.879 94.06 159.879 93.3461C159.879 92.5681 159.648 91.9724 159.185 91.5576C158.722 91.1429 158.054 90.933 157.181 90.9267H154.648V95.6951V95.6964Z" fill="black"/>
<path d="M173.513 96.2569C173.513 97.4873 173.306 98.5607 172.893 99.4769C172.479 100.394 171.893 101.093 171.134 101.577C170.376 102.06 169.492 102.301 168.48 102.301C167.469 102.301 166.617 102.058 165.852 101.572C165.087 101.087 164.495 100.394 164.072 99.4945C163.65 98.5946 163.433 97.5527 163.422 96.3687V95.4638C163.422 94.2573 163.631 93.1902 164.051 92.2652C164.47 91.3402 165.063 90.6313 165.83 90.1399C166.598 89.6485 167.474 89.4021 168.463 89.4021C169.451 89.4021 170.355 89.6447 171.122 90.1311C171.889 90.6175 172.479 91.3213 172.893 92.2438C173.306 93.1663 173.513 94.2397 173.513 95.4638V96.2569ZM171.866 95.4462C171.866 93.9581 171.568 92.8157 170.971 92.0189C170.373 91.2233 169.537 90.8249 168.463 90.8249C167.389 90.8249 166.594 91.2233 165.994 92.0189C165.394 92.8157 165.085 93.9204 165.067 95.3344V96.2569C165.067 97.6997 165.37 98.8334 165.976 99.6591C166.583 100.484 167.416 100.896 168.479 100.896C169.542 100.896 170.375 100.506 170.961 99.727C171.547 98.9478 171.849 97.8317 171.865 96.3775V95.4462H171.866Z" fill="black"/>
<path d="M180.595 97.05H177.648V102.129H175.984V89.5743H180.139C181.552 89.5743 182.639 89.8961 183.4 90.5396C184.161 91.1831 184.542 92.1207 184.542 93.3511C184.542 94.1329 184.331 94.8141 183.908 95.3947C183.486 95.9754 182.898 96.409 182.146 96.6968L185.093 102.026V102.129H183.318L180.595 97.05ZM177.648 95.6964H180.19C181.012 95.6964 181.666 95.4827 182.151 95.0566C182.637 94.6306 182.879 94.06 182.879 93.3461C182.879 92.5681 182.648 91.9724 182.185 91.5576C181.722 91.1429 181.054 90.933 180.181 90.9267H177.648V95.6951V95.6964Z" fill="black"/>
<path d="M78.693 25.5187H29.3909C24.1336 25.5187 19.8711 29.7831 19.8711 35.0442V50.4844C19.8711 55.7455 24.1336 60.0099 29.3909 60.0099H78.693C83.9516 60.0099 88.2128 55.7455 88.2128 50.4844V35.0442C88.2128 29.7831 83.9503 25.5187 78.693 25.5187Z" fill="#E2EAFF"/>
<path d="M54.0377 55.5507C61.0958 55.5507 66.8176 49.8257 66.8176 42.7637C66.8176 35.7016 61.0958 29.9767 54.0377 29.9767C46.9796 29.9767 41.2578 35.7016 41.2578 42.7637C41.2578 49.8257 46.9796 55.5507 54.0377 55.5507Z" fill="white"/>
<path d="M49.3165 40.9061C49.968 40.9061 50.4962 40.3777 50.4962 39.7259C50.4962 39.0741 49.968 38.5457 49.3165 38.5457C48.6649 38.5457 48.1367 39.0741 48.1367 39.7259C48.1367 40.3777 48.6649 40.9061 49.3165 40.9061Z" fill="black"/>
<path d="M58.7579 40.9061C59.4094 40.9061 59.9376 40.3777 59.9376 39.7259C59.9376 39.0741 59.4094 38.5457 58.7579 38.5457C58.1063 38.5457 57.5781 39.0741 57.5781 39.7259C57.5781 40.3777 58.1063 40.9061 58.7579 40.9061Z" fill="black"/>
<path d="M48.6861 48.3691C48.6471 48.3691 48.6081 48.3616 48.5704 48.344C48.432 48.2799 48.3717 48.1153 48.4358 47.977C48.4509 47.9443 49.9941 44.7042 53.9522 44.7042C57.9103 44.7042 59.5617 47.9167 59.5781 47.9494C59.6448 48.0864 59.5882 48.2523 59.4498 48.3189C59.3127 48.3867 59.1467 48.3289 59.08 48.1919C59.0209 48.0725 57.6009 45.2585 53.9522 45.2585C50.3035 45.2585 48.9955 48.0901 48.9389 48.2108C48.8924 48.3113 48.7917 48.3704 48.6873 48.3704L48.6861 48.3691Z" fill="black"/>
<path d="M89.0408 77.3605C80.5145 77.3605 73.5781 70.4202 73.5781 61.8889C73.5781 61.7355 73.7026 61.6124 73.8548 61.6124C74.007 61.6124 74.1315 61.7368 74.1315 61.8889C74.1315 70.1148 80.8189 76.8062 89.0395 76.8062C89.1929 76.8062 89.3162 76.9306 89.3162 77.0827C89.3162 77.2348 89.1917 77.3592 89.0395 77.3592L89.0408 77.3605Z" fill="black"/>
<path d="M247.961 46.0679C247.933 46.0679 247.904 46.0641 247.877 46.0541C247.731 46.0076 247.65 45.8517 247.697 45.7059L249.609 39.7297C249.631 39.6593 249.68 39.6015 249.746 39.5676C249.811 39.5336 249.887 39.5273 249.957 39.55C252.527 40.3757 255.262 40.1507 257.662 38.9178C260.064 37.6823 261.841 35.5847 262.667 33.0094C264.367 27.6968 261.431 21.987 256.123 20.2815C252.047 18.9719 247.572 20.382 244.987 23.7906C244.895 23.9112 244.72 23.9364 244.598 23.8433C244.476 23.7503 244.452 23.5769 244.545 23.455C247.273 19.8592 251.993 18.3724 256.292 19.7524C261.891 21.5509 264.987 27.5724 263.194 33.1753C262.324 35.8913 260.45 38.1046 257.916 39.4079C255.467 40.666 252.686 40.9287 250.054 40.1558L248.225 45.8718C248.187 45.99 248.079 46.0641 247.961 46.0641V46.0679Z" fill="black"/>
<path d="M246.312 51.2435C246.285 51.2435 246.256 51.2398 246.228 51.2297C246.082 51.1832 246.002 51.0274 246.048 50.8816L246.846 48.3918C246.892 48.246 247.047 48.1643 247.194 48.2121C247.34 48.2586 247.421 48.4144 247.374 48.5602L246.577 51.05C246.539 51.1681 246.431 51.2423 246.312 51.2423V51.2435Z" fill="black"/>
<path d="M212.331 52.6323C212.304 52.6323 212.275 52.6285 212.247 52.6185C212.101 52.572 212.021 52.4161 212.067 52.2703L213.685 47.2154C213.707 47.145 213.756 47.0872 213.822 47.0532C213.887 47.0193 213.963 47.013 214.033 47.0356C216.195 47.7306 218.498 47.5409 220.518 46.504C222.54 45.4646 224.036 43.6987 224.73 41.5307C226.161 37.0589 223.69 32.2528 219.222 30.8175C215.791 29.7152 212.026 30.9029 209.85 33.771C209.758 33.8917 209.583 33.9168 209.461 33.8238C209.339 33.7308 209.315 33.5574 209.408 33.4355C211.726 30.3788 215.741 29.1157 219.392 30.2896C224.15 31.8179 226.783 36.9357 225.258 41.6979C224.52 44.0067 222.927 45.8881 220.772 46.9954C218.703 48.0587 216.355 48.2862 214.13 47.6427L212.595 52.4375C212.558 52.5556 212.45 52.6298 212.331 52.6298V52.6323Z" fill="black"/>
<path d="M210.941 57.0111C210.914 57.0111 210.885 57.0073 210.857 56.9973C210.711 56.9508 210.631 56.7949 210.677 56.6491L211.351 54.5427C211.398 54.3969 211.553 54.3152 211.7 54.363C211.846 54.4095 211.926 54.5653 211.88 54.7111L211.206 56.8176C211.168 56.9357 211.06 57.0098 210.941 57.0098V57.0111Z" fill="black"/>
<path d="M251.354 138.045C251.325 138.045 251.295 138.04 251.266 138.03C251.121 137.981 251.043 137.824 251.092 137.68L253.059 131.85C253.083 131.78 253.133 131.723 253.199 131.691C253.264 131.658 253.341 131.653 253.41 131.677C255.919 132.523 258.607 132.342 260.979 131.165C263.352 129.99 265.125 127.96 265.972 125.452C267.721 120.272 264.928 114.639 259.75 112.892C255.773 111.551 251.364 112.868 248.777 116.169C248.682 116.29 248.509 116.311 248.388 116.217C248.267 116.122 248.246 115.949 248.34 115.828C251.072 112.343 255.729 110.952 259.928 112.368C265.396 114.213 268.343 120.162 266.498 125.629C265.604 128.278 263.732 130.42 261.227 131.662C258.804 132.862 256.07 133.081 253.498 132.286L251.618 137.857C251.579 137.972 251.471 138.045 251.355 138.045H251.354Z" fill="black"/>
<path d="M249.663 143.094C249.634 143.094 249.604 143.089 249.575 143.079C249.43 143.03 249.352 142.873 249.401 142.728L250.221 140.3C250.27 140.154 250.428 140.076 250.572 140.127C250.717 140.176 250.795 140.333 250.746 140.477L249.926 142.905C249.887 143.021 249.779 143.094 249.663 143.094Z" fill="black"/>
<path d="M35.6298 154.444C55.1545 154.444 70.9823 138.608 70.9823 119.072C70.9823 99.5366 55.1545 83.6999 35.6298 83.6999C16.1052 83.6999 0.277344 99.5366 0.277344 119.072C0.277344 138.608 16.1052 154.444 35.6298 154.444Z" fill="white"/>
<path d="M49.655 133.756C50.5304 133.127 51.3617 132.426 52.1403 131.655C52.3 131.781 52.466 131.902 52.6434 132.01C55.0293 133.465 58.1422 132.71 59.5961 130.323C61.0501 127.937 60.2954 124.822 57.9108 123.367C57.7334 123.259 57.5498 123.166 57.3649 123.081C57.9913 121.084 58.3044 119.033 58.3145 116.995C58.5157 116.971 58.7182 116.938 58.9207 116.889C61.6362 116.23 63.3039 113.494 62.6449 110.777C61.9871 108.06 59.2515 106.392 56.5361 107.051C56.3336 107.1 56.1399 107.164 55.9487 107.235C55.0066 105.428 53.7892 103.748 52.3176 102.259C52.4434 102.1 52.5641 101.934 52.6723 101.757C54.1262 99.37 53.3716 96.2556 50.9857 94.8002C48.5997 93.3448 45.4868 94.1001 44.0329 96.4869C43.9247 96.6653 43.8316 96.8476 43.7486 97.0323C41.7526 96.4052 39.7025 96.0922 37.665 96.0821C37.6411 95.8798 37.6096 95.6787 37.5606 95.4751C36.9015 92.7578 34.1672 91.09 31.4517 91.7486C28.7363 92.4072 27.0685 95.1433 27.7276 97.8606C27.7766 98.0629 27.8408 98.2577 27.9112 98.4475C26.905 98.9729 25.9391 99.5824 25.0234 100.275L26.6874 106.709L30.1663 107.093L31.8794 109.363C34.8652 107.11 39.0434 106.775 42.4305 108.843C46.8603 111.545 48.2627 117.33 45.561 121.762C44.9259 122.805 44.1197 123.68 43.2003 124.373L44.3574 129.861L47.2414 130.248L49.655 133.757V133.756Z" fill="white"/>
<path d="M49.6543 134.032C49.6379 134.032 49.6229 134.031 49.6065 134.028C49.5336 134.016 49.4682 133.974 49.4254 133.913L47.081 130.506L44.319 130.136C44.2033 130.121 44.1089 130.033 44.085 129.919L42.9279 124.431C42.9053 124.327 42.9468 124.218 43.0323 124.154C43.9492 123.461 44.7202 122.609 45.3226 121.618C47.94 117.323 46.5766 111.698 42.284 109.079C39.0692 107.118 35.0494 107.316 32.0434 109.584C31.9843 109.628 31.9101 109.648 31.8384 109.637C31.7655 109.627 31.7001 109.588 31.6561 109.529L30.016 107.353L26.6566 106.983C26.5421 106.97 26.4478 106.888 26.4188 106.777L24.7549 100.343C24.7272 100.235 24.7662 100.12 24.8555 100.053C25.712 99.4053 26.6239 98.8208 27.5697 98.3143C27.5244 98.1773 27.4867 98.0492 27.4577 97.9247C26.7647 95.0642 28.5268 92.1722 31.3857 91.4784C32.7717 91.1429 34.2042 91.3666 35.4217 92.1081C36.6392 92.8509 37.4932 94.0223 37.829 95.4086C37.8592 95.5342 37.8856 95.6637 37.907 95.8057C39.8377 95.8384 41.7507 96.1363 43.6021 96.6955C43.6662 96.5673 43.7304 96.4505 43.797 96.3411C44.5391 95.1232 45.7113 94.2674 47.0973 93.9318C48.4808 93.5949 49.9146 93.8199 51.1309 94.5614C53.6426 96.0935 54.44 99.3852 52.9093 101.899C52.8414 102.009 52.7685 102.119 52.6829 102.236C54.0274 103.627 55.1695 105.192 56.0813 106.893C56.2159 106.848 56.3442 106.812 56.47 106.782C57.8547 106.446 59.2886 106.67 60.5061 107.411C61.7235 108.154 62.5775 109.325 62.9134 110.712C63.6064 113.572 61.8443 116.464 58.9854 117.158C58.8597 117.188 58.7289 117.215 58.588 117.236C58.5553 119.168 58.2572 121.082 57.6988 122.934C57.8271 122.998 57.9428 123.063 58.0535 123.13C60.5652 124.663 61.3626 127.954 59.8319 130.467C59.0898 131.684 57.9176 132.54 56.5316 132.876C55.1468 133.213 53.7143 132.988 52.498 132.245C52.3886 132.178 52.2779 132.104 52.1622 132.02C51.429 132.729 50.6404 133.387 49.8165 133.981C49.7687 134.015 49.7121 134.032 49.6543 134.032ZM44.5881 129.612L47.2772 129.973C47.3551 129.983 47.4243 130.025 47.4683 130.091L49.721 133.365C50.5045 132.785 51.2516 132.146 51.9446 131.459C52.0453 131.361 52.2025 131.353 52.3119 131.438C52.4817 131.573 52.6376 131.682 52.7873 131.774C53.8778 132.439 55.1619 132.64 56.4021 132.339C57.6447 132.039 58.6949 131.271 59.3603 130.18C60.7324 127.927 60.0181 124.977 57.7667 123.604C57.6158 123.513 57.4523 123.427 57.251 123.335C57.124 123.278 57.0599 123.134 57.1014 123.001C57.7126 121.054 58.0283 119.033 58.0384 116.995C58.0384 116.855 58.144 116.737 58.2836 116.721C58.4962 116.695 58.6836 116.663 58.8572 116.621C61.4192 115.999 62.9989 113.408 62.3776 110.844C62.077 109.602 61.3097 108.551 60.2193 107.885C59.1288 107.22 57.8447 107.019 56.6033 107.321C56.431 107.362 56.2499 107.42 56.0486 107.495C55.9178 107.545 55.7707 107.488 55.7053 107.364C54.7632 105.557 53.5583 103.906 52.1232 102.454C52.0251 102.355 52.0163 102.198 52.1019 102.089C52.2389 101.914 52.3459 101.763 52.4377 101.612C53.8099 99.36 53.0955 96.409 50.8441 95.0353C49.7549 94.3704 48.4708 94.1693 47.2294 94.471C45.988 94.7713 44.9378 95.5393 44.2724 96.6302C44.1806 96.7798 44.0926 96.9494 44.0033 97.1468C43.9454 97.2737 43.8008 97.3378 43.6675 97.2963C41.7217 96.6842 39.7018 96.37 37.6655 96.3587C37.5259 96.3587 37.4077 96.2531 37.3913 96.1149C37.3649 95.8949 37.3335 95.7127 37.292 95.5418C36.9914 94.3 36.2242 93.2493 35.1337 92.5832C34.0433 91.9183 32.7591 91.7172 31.5177 92.0189C28.9544 92.641 27.376 95.2326 27.9973 97.7965C28.0388 97.9687 28.0942 98.1447 28.1721 98.352C28.2212 98.4828 28.1646 98.6298 28.0413 98.6952C27.1005 99.1853 26.1937 99.7547 25.3397 100.387L26.9094 106.456L30.1983 106.819C30.2738 106.828 30.343 106.867 30.3895 106.927L31.9365 108.98C35.0998 106.729 39.2453 106.575 42.5757 108.608C47.1288 111.385 48.5752 117.352 45.7993 121.908C45.1906 122.907 44.4208 123.774 43.509 124.489L44.5906 129.614L44.5881 129.612Z" fill="black"/>
<path d="M39.1269 127.605C36.141 129.858 31.9628 130.193 28.5757 128.125C24.146 125.423 22.7436 119.638 25.4452 115.206C26.0804 114.163 26.8866 113.288 27.806 112.594L26.2175 110.488L22.5625 109.978L20.9513 103.508C20.2218 104.058 19.525 104.661 18.866 105.314C18.7063 105.188 18.5402 105.067 18.3629 104.959C15.977 103.504 12.8641 104.259 11.4101 106.646C9.95617 109.033 10.7108 112.147 13.0967 113.602C13.2741 113.711 13.4577 113.804 13.6426 113.888C13.0162 115.885 12.7031 117.936 12.693 119.975C12.4918 119.998 12.2893 120.031 12.0868 120.08C9.37132 120.739 7.70356 123.475 8.36262 126.192C9.02167 128.909 11.756 130.577 14.4715 129.919C14.6739 129.87 14.8676 129.805 15.0588 129.734C16.0021 131.541 17.2184 133.222 18.6899 134.71C18.5641 134.869 18.4434 135.035 18.3352 135.212C16.8813 137.599 17.6359 140.714 20.0218 142.169C22.4078 143.624 25.5207 142.869 26.9746 140.482C27.0828 140.304 27.1759 140.122 27.2589 139.937C29.2549 140.564 31.305 140.877 33.3426 140.887C33.3664 141.089 33.3979 141.29 33.4469 141.494C34.1047 144.211 36.8403 145.879 39.5558 145.221C42.2712 144.562 43.939 141.826 43.2799 139.109C43.2309 138.906 43.1667 138.711 43.0963 138.522C43.9566 138.073 44.788 137.561 45.5841 136.99L43.0812 133.352L40.5192 133.333L39.1294 127.607L39.1269 127.605Z" fill="white"/>
<path d="M38.356 145.64C37.3875 145.64 36.4354 145.375 35.5877 144.857C34.3702 144.115 33.5162 142.943 33.1804 141.557C33.1502 141.432 33.1238 141.302 33.1024 141.16C31.1718 141.128 29.2588 140.829 27.4074 140.27C27.3433 140.398 27.2791 140.514 27.2124 140.624C26.4704 141.842 25.2982 142.698 23.9121 143.034C22.5274 143.37 21.0948 143.145 19.8786 142.403C17.3669 140.871 16.5682 137.579 18.1001 135.065C18.1681 134.955 18.241 134.844 18.3265 134.728C16.982 133.338 15.8412 131.774 14.9281 130.071C14.7923 130.116 14.664 130.154 14.5395 130.184C13.1547 130.519 11.7209 130.296 10.5034 129.554C9.28591 128.811 8.43191 127.64 8.09609 126.254C7.40308 123.393 9.16517 120.501 12.024 119.807C12.1485 119.777 12.2793 119.751 12.4215 119.729C12.4542 117.798 12.7522 115.884 13.3107 114.031C13.1824 113.967 13.0667 113.903 12.956 113.835C10.4443 112.303 9.64562 109.011 11.1775 106.498C11.9196 105.28 13.0918 104.424 14.4779 104.088C15.8614 103.753 17.2952 103.976 18.5114 104.719C18.6208 104.786 18.7315 104.86 18.8472 104.945C19.4598 104.353 20.1113 103.795 20.7879 103.284C20.8621 103.227 20.9602 103.212 21.047 103.244C21.1351 103.275 21.2017 103.348 21.2231 103.437L22.789 109.726L26.2591 110.212C26.332 110.222 26.3974 110.261 26.4415 110.32L28.03 112.426C28.1218 112.548 28.0979 112.721 27.9759 112.813C27.059 113.506 26.288 114.358 25.6856 115.348C23.0682 119.644 24.4316 125.268 28.7242 127.888C31.939 129.848 35.9588 129.65 38.9648 127.382C39.039 127.326 39.1371 127.311 39.2251 127.342C39.3131 127.374 39.3798 127.446 39.4012 127.538L40.7407 133.054L43.0864 133.072C43.1769 133.072 43.2612 133.117 43.3128 133.193L45.8157 136.83C45.9012 136.954 45.871 137.124 45.749 137.212C45.0132 137.74 44.2384 138.224 43.4398 138.652C43.4851 138.788 43.5215 138.916 43.5517 139.042C44.2447 141.902 42.4826 144.794 39.6238 145.488C39.2037 145.59 38.7786 145.64 38.356 145.64ZM27.2602 139.659C27.2879 139.659 27.3156 139.663 27.3433 139.672C29.2902 140.284 31.3089 140.599 33.3452 140.609C33.4848 140.609 33.603 140.715 33.6194 140.853C33.6445 141.069 33.6772 141.256 33.7187 141.426C34.0193 142.668 34.7865 143.719 35.877 144.385C36.9675 145.051 38.2529 145.251 39.493 144.949C42.0563 144.327 43.6347 141.735 43.0134 139.171C42.9719 138.999 42.914 138.818 42.8386 138.616C42.7895 138.485 42.8461 138.338 42.9694 138.273C43.7391 137.872 44.4887 137.417 45.2031 136.918L42.9379 133.624L40.5193 133.605C40.3923 133.605 40.2829 133.517 40.2527 133.394L38.9597 128.069C35.8129 130.242 31.7265 130.367 28.4362 128.36C23.8832 125.583 22.4368 119.616 25.2126 115.06C25.8038 114.09 26.5471 113.244 27.425 112.542L26.0692 110.744L22.5274 110.249C22.4154 110.234 22.3236 110.151 22.2972 110.042L20.7892 103.983C20.188 104.456 19.6094 104.968 19.0661 105.507C18.9667 105.606 18.8095 105.615 18.6988 105.527C18.529 105.393 18.3731 105.283 18.2234 105.192C17.1329 104.527 15.8488 104.326 14.6087 104.626C13.3673 104.927 12.3171 105.694 11.6517 106.785C10.2795 109.038 10.9939 111.989 13.2453 113.362C13.3949 113.454 13.5597 113.54 13.7609 113.631C13.888 113.689 13.9521 113.832 13.9106 113.966C13.2994 115.912 12.9837 117.933 12.9736 119.972C12.9736 120.112 12.8679 120.23 12.7296 120.246C12.5107 120.271 12.3284 120.304 12.1561 120.345C9.5928 120.967 8.01434 123.559 8.63566 126.123C8.93626 127.365 9.70348 128.415 10.7939 129.08C11.8844 129.745 13.1698 129.946 14.4099 129.645C14.5822 129.603 14.7583 129.547 14.9646 129.47C15.0954 129.421 15.2426 129.477 15.308 129.602C16.25 131.409 17.4549 133.061 18.89 134.511C18.9881 134.61 18.9969 134.767 18.9101 134.877C18.773 135.05 18.6661 135.201 18.5743 135.352C17.2009 137.605 17.9165 140.555 20.1679 141.929C21.2571 142.594 22.5412 142.794 23.7826 142.494C25.0252 142.194 26.0755 141.426 26.7408 140.335C26.8326 140.184 26.9181 140.02 27.01 139.819C27.0565 139.718 27.1558 139.657 27.2615 139.657L27.2602 139.659Z" fill="black"/>
<path d="M35.2656 154.723H35.2631C34.1336 154.713 32.9941 154.648 31.876 154.531C31.7238 154.515 31.6131 154.379 31.6295 154.227C31.6458 154.075 31.7829 153.966 31.9338 153.981C33.0343 154.096 34.1562 154.16 35.2668 154.17C35.4203 154.172 35.5423 154.297 35.541 154.449C35.5398 154.601 35.4152 154.723 35.2643 154.723H35.2656ZM38.6288 154.594C38.4866 154.594 38.3659 154.485 38.3533 154.341C38.3395 154.189 38.4527 154.055 38.6049 154.042C39.1482 153.996 39.7004 153.935 40.245 153.862C40.8047 153.788 41.3669 153.699 41.9152 153.6C42.0687 153.573 42.2095 153.673 42.2372 153.822C42.2649 153.973 42.1643 154.116 42.0146 154.144C41.4574 154.245 40.8864 154.335 40.3179 154.41C39.7632 154.485 39.2036 154.545 38.6514 154.593C38.6439 154.593 38.6351 154.593 38.6275 154.593L38.6288 154.594ZM28.5782 154.02C28.5593 154.02 28.5417 154.018 28.5228 154.013C27.4198 153.788 26.3143 153.508 25.2339 153.177C25.088 153.134 25.0049 152.978 25.0502 152.832C25.0942 152.686 25.2502 152.603 25.3961 152.648C26.4589 152.973 27.5481 153.249 28.6335 153.47C28.7832 153.5 28.88 153.646 28.8499 153.797C28.8234 153.929 28.7077 154.018 28.5782 154.018V154.02ZM45.2445 153.391C45.1237 153.391 45.013 153.312 44.9778 153.19C44.9363 153.043 45.0218 152.89 45.169 152.848C46.2381 152.548 47.3034 152.192 48.336 151.791C48.4794 151.737 48.6391 151.806 48.6944 151.95C48.7498 152.093 48.6793 152.252 48.536 152.308C47.487 152.715 46.4054 153.076 45.3187 153.381C45.2935 153.389 45.2684 153.391 45.2432 153.391H45.2445ZM22.1474 152.054C22.1122 152.054 22.0757 152.048 22.0417 152.033C21.0003 151.601 19.9677 151.115 18.9728 150.588C18.837 150.517 18.7867 150.35 18.8584 150.214C18.9301 150.078 19.0974 150.028 19.2332 150.1C20.213 150.619 21.2292 151.097 22.2543 151.522C22.3951 151.58 22.4631 151.742 22.4039 151.884C22.3599 151.991 22.2568 152.055 22.1486 152.055L22.1474 152.054ZM51.513 150.96C51.4112 150.96 51.3143 150.905 51.2653 150.808C51.1961 150.671 51.2514 150.505 51.3885 150.436C52.3784 149.939 53.3569 149.386 54.2951 148.795C54.4247 148.713 54.5957 148.752 54.6775 148.882C54.7593 149.011 54.7203 149.182 54.5907 149.264C53.6374 149.864 52.6437 150.426 51.6375 150.932C51.5973 150.952 51.5558 150.96 51.513 150.96ZM16.2058 148.906C16.153 148.906 16.1002 148.89 16.0536 148.86C15.1116 148.241 14.1897 147.568 13.313 146.863C13.1935 146.768 13.1747 146.593 13.2703 146.474C13.3671 146.355 13.5407 146.335 13.6602 146.431C14.523 147.125 15.4311 147.787 16.358 148.398C16.4863 148.482 16.5215 148.653 16.4372 148.781C16.3844 148.862 16.2951 148.906 16.2058 148.906ZM57.2018 147.378C57.1188 147.378 57.037 147.342 56.9829 147.27C56.8899 147.15 56.9112 146.975 57.0332 146.882C57.9099 146.205 58.7651 145.477 59.5751 144.719C59.6871 144.615 59.8619 144.62 59.9663 144.732C60.0707 144.843 60.0656 145.018 59.9537 145.122C59.1311 145.893 58.2621 146.632 57.3716 147.319C57.3213 147.358 57.2609 147.377 57.203 147.377L57.2018 147.378ZM10.9661 144.694C10.8956 144.694 10.8265 144.667 10.7724 144.616C9.96367 143.829 9.18513 142.996 8.45689 142.139C8.35753 142.022 8.37263 141.847 8.48834 141.748C8.60531 141.649 8.78013 141.664 8.87949 141.779C9.59641 142.624 10.3636 143.443 11.1585 144.218C11.2679 144.324 11.2705 144.499 11.1635 144.608C11.1095 144.664 11.0378 144.693 10.9648 144.693L10.9661 144.694ZM62.1082 142.785C62.0428 142.785 61.9774 142.762 61.9246 142.716C61.8101 142.614 61.7988 142.439 61.9007 142.325C62.6352 141.494 63.337 140.618 63.9898 139.721C64.0791 139.596 64.2527 139.57 64.3772 139.659C64.5017 139.748 64.5281 139.922 64.4388 140.046C63.776 140.957 63.0616 141.847 62.317 142.69C62.2617 142.752 62.1862 142.784 62.1095 142.784L62.1082 142.785ZM6.61557 139.572C6.52753 139.572 6.442 139.531 6.38792 139.454C5.7427 138.529 5.13647 137.564 4.58306 136.585C4.5076 136.452 4.55539 136.283 4.68871 136.208C4.82203 136.132 4.99057 136.18 5.06603 136.313C5.60938 137.277 6.2068 138.228 6.84196 139.139C6.92874 139.264 6.89856 139.437 6.77278 139.525C6.72499 139.558 6.66965 139.575 6.61431 139.575L6.61557 139.572ZM66.0625 137.35C66.0147 137.35 65.9657 137.338 65.9217 137.311C65.7896 137.233 65.7468 137.064 65.8248 136.932C66.3896 135.977 66.9153 134.984 67.3869 133.982C67.4523 133.844 67.6171 133.783 67.7555 133.849C67.8938 133.914 67.9529 134.079 67.8888 134.217C67.4096 135.235 66.8763 136.243 66.3015 137.213C66.2499 137.3 66.1581 137.349 66.0625 137.349V137.35ZM3.31526 133.719C3.20961 133.719 3.10774 133.658 3.06246 133.555C2.6059 132.527 2.19336 131.463 1.83742 130.394C1.78837 130.248 1.86761 130.092 2.01225 130.043C2.15689 129.995 2.3141 130.073 2.36316 130.218C2.71406 131.27 3.12031 132.317 3.56933 133.33C3.63096 133.469 3.56933 133.633 3.42846 133.695C3.39199 133.712 3.35425 133.719 3.31652 133.719H3.31526ZM68.9226 131.267C68.8912 131.267 68.8598 131.262 68.8296 131.251C68.6849 131.199 68.6107 131.041 68.6623 130.896C69.0371 129.852 69.3654 128.777 69.637 127.704C69.6748 127.556 69.8244 127.467 69.9741 127.504C70.1225 127.542 70.2118 127.693 70.1741 127.841C69.8974 128.931 69.5641 130.023 69.183 131.084C69.1427 131.197 69.0358 131.267 68.9226 131.267ZM1.18969 127.345C1.06391 127.345 0.949459 127.258 0.920531 127.13C0.667726 126.036 0.463972 124.914 0.315559 123.795C0.295435 123.644 0.402343 123.505 0.553272 123.485C0.7042 123.466 0.843809 123.572 0.863933 123.722C1.01109 124.825 1.21233 125.929 1.4601 127.007C1.49406 127.156 1.40099 127.304 1.25257 127.338C1.23119 127.343 1.21107 127.346 1.18969 127.346V127.345ZM70.5766 124.753C70.5627 124.753 70.5489 124.753 70.5338 124.749C70.3829 124.727 70.2785 124.585 70.3024 124.434C70.4709 123.339 70.5891 122.223 70.652 121.114C70.6608 120.961 70.7929 120.849 70.9438 120.854C71.0973 120.863 71.213 120.994 71.2042 121.146C71.14 122.271 71.0205 123.406 70.8495 124.518C70.8281 124.655 70.7099 124.753 70.5766 124.753ZM0.299209 120.685C0.150796 120.685 0.0287949 120.568 0.0225062 120.418C0.00489791 119.956 -0.00390625 119.487 -0.00390625 119.027C-0.00390625 118.362 0.0149598 117.69 0.0526919 117.027C0.0614961 116.874 0.193559 116.758 0.344487 116.767C0.496673 116.776 0.613643 116.907 0.606097 117.059C0.569622 117.71 0.550756 118.372 0.550756 119.027C0.550756 119.479 0.55956 119.941 0.577169 120.397C0.583457 120.55 0.463972 120.678 0.311786 120.685C0.308013 120.685 0.30424 120.685 0.300466 120.685H0.299209ZM70.9602 118.045C70.8118 118.045 70.6898 117.928 70.6835 117.779C70.6407 116.673 70.5451 115.554 70.3992 114.453L70.3917 114.39C70.3716 114.238 70.4785 114.1 70.6306 114.08C70.7816 114.06 70.9212 114.167 70.9413 114.319L70.9489 114.38C71.0973 115.499 71.1941 116.635 71.2369 117.757C71.2432 117.911 71.1237 118.039 70.9702 118.044C70.9665 118.044 70.9627 118.044 70.9589 118.044L70.9602 118.045ZM0.679045 113.976C0.66521 113.976 0.651375 113.976 0.636282 113.972C0.485354 113.949 0.380962 113.807 0.404858 113.656C0.575911 112.543 0.802304 111.424 1.07775 110.333C1.11548 110.185 1.26641 110.097 1.41482 110.132C1.56323 110.17 1.65253 110.321 1.61606 110.469C1.34439 111.544 1.12177 112.643 0.953232 113.741C0.931851 113.878 0.814881 113.976 0.680303 113.976H0.679045ZM70.0634 111.323C69.9376 111.323 69.8232 111.236 69.7943 111.108C69.544 110.025 69.2383 108.946 68.8874 107.896C68.8384 107.752 68.9176 107.595 69.0622 107.546C69.2081 107.497 69.3641 107.576 69.4132 107.72C69.7691 108.786 70.0798 109.883 70.3338 110.982C70.3678 111.131 70.276 111.28 70.1263 111.314C70.1049 111.319 70.0848 111.321 70.0634 111.321V111.323ZM2.32668 107.46C2.29524 107.46 2.26379 107.455 2.23361 107.444C2.08897 107.392 2.01476 107.234 2.06633 107.091C2.44491 106.03 2.88009 104.976 3.35803 103.956C3.42343 103.818 3.58819 103.758 3.72654 103.823C3.86489 103.888 3.92527 104.053 3.85986 104.191C3.38947 105.195 2.96058 106.234 2.58829 107.277C2.54804 107.39 2.44114 107.46 2.32794 107.46H2.32668ZM67.9315 104.95C67.8246 104.95 67.724 104.889 67.6775 104.786C67.2272 103.773 66.7216 102.77 66.177 101.805C66.1015 101.671 66.1493 101.503 66.2826 101.427C66.416 101.353 66.5845 101.4 66.66 101.533C67.2134 102.513 67.7265 103.531 68.1843 104.561C68.246 104.7 68.1843 104.864 68.0435 104.927C68.007 104.943 67.9693 104.95 67.9315 104.95ZM5.18049 101.375C5.13269 101.375 5.08364 101.362 5.03962 101.336C4.90756 101.258 4.86354 101.088 4.94152 100.956C5.51505 99.9859 6.14014 99.032 6.80171 98.122C6.89101 97.9989 7.06458 97.9699 7.1891 98.0604C7.31361 98.1497 7.34002 98.3231 7.25072 98.4475C6.59922 99.3449 5.98293 100.284 5.41946 101.239C5.36789 101.327 5.27482 101.375 5.18049 101.375ZM64.6262 99.0998C64.5394 99.0998 64.4526 99.0584 64.3986 98.9817C63.7647 98.0743 63.0779 97.1857 62.3585 96.3398C62.2591 96.2242 62.273 96.0483 62.3899 95.9502C62.5057 95.8509 62.6805 95.8648 62.7798 95.9816C63.5106 96.8401 64.2074 97.7425 64.8526 98.665C64.9394 98.7907 64.9092 98.9628 64.7834 99.0508C64.7356 99.0848 64.6803 99.1011 64.6249 99.1011L64.6262 99.0998ZM9.12979 95.9364C9.06438 95.9364 8.99898 95.9138 8.94616 95.8673C8.8317 95.7667 8.82038 95.5908 8.921 95.4764C9.66558 94.6318 10.4605 93.8124 11.2818 93.0419C11.3937 92.9376 11.5685 92.9426 11.6729 93.0545C11.7773 93.1663 11.7723 93.341 11.6604 93.4454C10.8516 94.2032 10.0693 95.0101 9.33605 95.8421C9.28197 95.9037 9.20525 95.9364 9.12853 95.9364H9.12979ZM60.2707 93.982C60.2015 93.982 60.1311 93.9556 60.077 93.9041C59.2821 93.1324 58.4394 92.3884 57.5741 91.6933C57.4546 91.5978 57.4357 91.4231 57.5313 91.3037C57.6269 91.1843 57.8017 91.1655 57.9212 91.261C58.8004 91.9661 59.6556 92.7214 60.4631 93.5057C60.5725 93.6125 60.575 93.7872 60.4681 93.8966C60.414 93.9519 60.3424 93.9808 60.2694 93.9808L60.2707 93.982ZM14.0337 91.3377C13.9507 91.3377 13.8689 91.3012 13.8149 91.2308C13.7218 91.1102 13.7432 90.9355 13.8639 90.8425C14.7556 90.1525 15.6901 89.4989 16.6423 88.8982C16.7718 88.8165 16.9429 88.8554 17.0246 88.9849C17.1064 89.1143 17.0674 89.2853 16.9378 89.3669C16.0008 89.9577 15.0801 90.6012 14.2035 91.2811C14.1532 91.3201 14.0928 91.3389 14.0337 91.3389V91.3377ZM55.0272 89.7742C54.9743 89.7742 54.9228 89.7591 54.875 89.7289C53.948 89.1194 52.9808 88.5475 52.001 88.0297C51.8652 87.958 51.8136 87.7909 51.8853 87.6551C51.957 87.5194 52.1243 87.4679 52.2601 87.5395C53.2563 88.0661 54.2385 88.6468 55.1793 89.2664C55.3076 89.3506 55.3428 89.5215 55.2586 89.6497C55.2057 89.7302 55.1165 89.7742 55.0272 89.7742ZM19.7187 87.7507C19.6168 87.7507 19.52 87.6954 19.4709 87.5986C19.4017 87.4616 19.4571 87.2957 19.5929 87.2266C20.6004 86.7188 21.643 86.255 22.692 85.8466C22.8341 85.79 22.9951 85.8616 23.0504 86.0037C23.1058 86.1457 23.0353 86.3066 22.8932 86.3619C21.8606 86.7641 20.8343 87.2203 19.8432 87.7205C19.8029 87.7406 19.7602 87.7507 19.7187 87.7507ZM49.0831 86.6308C49.0479 86.6308 49.0114 86.6245 48.9774 86.6095C47.9524 86.1859 46.8946 85.8076 45.8331 85.4846C45.6872 85.4406 45.6042 85.2848 45.6495 85.139C45.6935 84.9932 45.8482 84.9102 45.9953 84.9555C47.0732 85.2835 48.1486 85.6681 49.1887 86.0992C49.3296 86.157 49.3975 86.3191 49.3384 86.4612C49.2944 86.568 49.1912 86.6321 49.0831 86.6321V86.6308ZM25.9835 85.3137C25.8627 85.3137 25.752 85.2345 25.7168 85.1126C25.6753 84.9655 25.7609 84.8122 25.908 84.7707C26.9884 84.4653 28.1002 84.2077 29.2121 84.0053C29.363 83.9764 29.5064 84.0769 29.5341 84.2278C29.5617 84.3786 29.4624 84.5219 29.3114 84.5495C28.2172 84.7493 27.123 85.0032 26.0589 85.3036C26.0338 85.3112 26.0086 85.3137 25.9835 85.3137ZM42.651 84.6714C42.6334 84.6714 42.6145 84.6702 42.5957 84.6664C41.5077 84.4452 40.3971 84.2755 39.2941 84.1612C39.1419 84.1461 39.0312 84.0091 39.0476 83.857C39.0627 83.7049 39.1973 83.5906 39.352 83.6107C40.4726 83.7275 41.6008 83.8997 42.7063 84.1235C42.856 84.1536 42.9529 84.2994 42.9227 84.4502C42.8963 84.5822 42.7806 84.6727 42.651 84.6727V84.6714ZM32.5992 84.1059C32.457 84.1059 32.3363 83.9978 32.3237 83.8532C32.3099 83.7012 32.4231 83.5667 32.5753 83.5528C33.6041 83.4636 34.6468 83.4184 35.6756 83.4184H35.9661C36.1196 83.4209 36.2416 83.5453 36.2403 83.6986C36.2391 83.8507 36.1158 83.9726 35.9636 83.9726H35.6756C34.6631 83.9726 33.6355 84.0166 32.6231 84.1046C32.6155 84.1046 32.6067 84.1046 32.5992 84.1046V84.1059Z" fill="#5479F7"/>
<path d="M148.035 64.475H140.235V67.925C140.568 67.5583 141.035 67.2583 141.635 67.025C142.235 66.7917 142.885 66.675 143.585 66.675C144.835 66.675 145.868 66.9583 146.685 67.525C147.518 68.0917 148.127 68.825 148.51 69.725C148.893 70.625 149.085 71.6 149.085 72.65C149.085 74.6 148.535 76.15 147.435 77.3C146.335 78.4333 144.785 79 142.785 79C141.452 79 140.293 78.775 139.31 78.325C138.327 77.8583 137.568 77.2167 137.035 76.4C136.502 75.5833 136.21 74.6417 136.16 73.575H140.335C140.435 74.0917 140.677 74.525 141.06 74.875C141.443 75.2083 141.968 75.375 142.635 75.375C143.418 75.375 144.002 75.125 144.385 74.625C144.768 74.125 144.96 73.4583 144.96 72.625C144.96 71.8083 144.76 71.1833 144.36 70.75C143.96 70.3167 143.377 70.1 142.61 70.1C142.043 70.1 141.577 70.2417 141.21 70.525C140.843 70.7917 140.602 71.15 140.485 71.6H136.36V60.725H148.035V64.475Z" fill="black"/>
<path d="M151.445 69.625C151.445 66.7583 151.995 64.5 153.095 62.85C154.212 61.2 156.003 60.375 158.47 60.375C160.937 60.375 162.72 61.2 163.82 62.85C164.937 64.5 165.495 66.7583 165.495 69.625C165.495 72.525 164.937 74.8 163.82 76.45C162.72 78.1 160.937 78.925 158.47 78.925C156.003 78.925 154.212 78.1 153.095 76.45C151.995 74.8 151.445 72.525 151.445 69.625ZM161.295 69.625C161.295 67.9417 161.112 66.65 160.745 65.75C160.378 64.8333 159.62 64.375 158.47 64.375C157.32 64.375 156.562 64.8333 156.195 65.75C155.828 66.65 155.645 67.9417 155.645 69.625C155.645 70.7583 155.712 71.7 155.845 72.45C155.978 73.1833 156.245 73.7833 156.645 74.25C157.062 74.7 157.67 74.925 158.47 74.925C159.27 74.925 159.87 74.7 160.27 74.25C160.687 73.7833 160.962 73.1833 161.095 72.45C161.228 71.7 161.295 70.7583 161.295 69.625Z" fill="black"/>
<path d="M167.754 69.625C167.754 66.7583 168.304 64.5 169.404 62.85C170.52 61.2 172.312 60.375 174.779 60.375C177.245 60.375 179.029 61.2 180.129 62.85C181.245 64.5 181.804 66.7583 181.804 69.625C181.804 72.525 181.245 74.8 180.129 76.45C179.029 78.1 177.245 78.925 174.779 78.925C172.312 78.925 170.52 78.1 169.404 76.45C168.304 74.8 167.754 72.525 167.754 69.625ZM177.604 69.625C177.604 67.9417 177.42 66.65 177.054 65.75C176.687 64.8333 175.929 64.375 174.779 64.375C173.629 64.375 172.87 64.8333 172.504 65.75C172.137 66.65 171.954 67.9417 171.954 69.625C171.954 70.7583 172.02 71.7 172.154 72.45C172.287 73.1833 172.554 73.7833 172.954 74.25C173.37 74.7 173.979 74.925 174.779 74.925C175.579 74.925 176.179 74.7 176.579 74.25C176.995 73.7833 177.27 73.1833 177.404 72.45C177.537 71.7 177.604 70.7583 177.604 69.625Z" fill="black"/>
</g>
<defs>
<clipPath id="clip0_4051_18445">
<rect width="345" height="230" fill="white"/>
</clipPath>
</defs>
</svg>
