<svg width="345" height="230" viewBox="0 0 345 230" fill="none" xmlns="http://www.w3.org/2000/svg">
    <g clip-path="url(#clip0_344_15063)">
        <path d="M216.571 190.527H223.475C226.936 190.527 229.743 193.335 229.743 196.799C229.743 200.263 226.937 203.071 223.475 203.071H105.338C101.877 203.071 99.0693 200.263 99.0693 196.799C99.0693 193.335 101.875 190.527 105.338 190.527H216.572H216.571Z" fill="#333353"/>
        <path d="M211.65 165.457H117.156V190.545H211.65V165.457Z" fill="#2A2A4D"/>
        <path d="M211.65 190.82H117.157C117.003 190.82 116.88 190.696 116.88 190.544V165.456C116.88 165.303 117.004 165.18 117.157 165.18C117.309 165.18 117.433 165.304 117.433 165.456V190.266H211.374V165.456C211.374 165.303 211.498 165.18 211.65 165.18C211.803 165.18 211.927 165.304 211.927 165.456V190.544C211.927 190.697 211.803 190.82 211.65 190.82Z" fill="black"/>
        <path d="M223.473 203.347H105.336C101.727 203.347 98.791 200.41 98.791 196.799C98.791 193.188 101.727 190.25 105.336 190.25H111.688C111.841 190.25 111.965 190.374 111.965 190.526C111.965 190.679 111.84 190.803 111.688 190.803H105.336C102.032 190.803 99.3444 193.493 99.3444 196.798C99.3444 200.104 102.032 202.793 105.336 202.793H223.473C226.777 202.793 229.465 200.104 229.465 196.798C229.465 193.493 226.777 190.803 223.473 190.803H216.569C216.416 190.803 216.293 190.679 216.293 190.526C216.293 190.374 216.417 190.25 216.569 190.25H223.473C227.083 190.25 230.018 193.187 230.018 196.798C230.018 200.409 227.083 203.347 223.473 203.347Z" fill="black"/>
        <path d="M208.133 171.624H120.679C120.526 171.624 120.402 171.499 120.402 171.347C120.402 171.195 120.527 171.07 120.679 171.07H208.133C208.287 171.07 208.41 171.195 208.41 171.347C208.41 171.499 208.286 171.624 208.133 171.624Z" fill="white" fill-opacity="0.3"/>
        <path d="M277.535 152.107C277.535 159.478 271.552 165.45 264.175 165.442L45.0544 165.211C40.6045 165.211 36.9961 161.602 36.9961 157.149V8.33991C36.9961 3.88696 40.6033 0.277344 45.0544 0.277344H269.476C273.926 0.277344 277.535 3.88696 277.535 8.33991V152.107Z" fill="#333353"/>
        <path d="M277.536 13.0456H36.9974C36.844 13.0456 36.7207 12.9211 36.7207 12.7689C36.7207 12.6167 36.8452 12.4922 36.9974 12.4922H277.535C277.688 12.4922 277.811 12.6167 277.811 12.7689C277.811 12.9211 277.687 13.0456 277.535 13.0456H277.536Z" fill="white" fill-opacity="0.3"/>
        <path d="M44.3692 9.55548C42.9908 9.55548 41.8701 8.43313 41.8701 7.05313C41.8701 5.67313 42.992 4.55078 44.3692 4.55078C45.7465 4.55078 46.8684 5.67313 46.8684 7.05313C46.8684 8.43313 45.7465 9.55548 44.3692 9.55548ZM44.3692 5.10504C43.2964 5.10504 42.4235 5.97854 42.4235 7.05313C42.4235 8.12772 43.2964 9.00122 44.3692 9.00122C45.4421 9.00122 46.315 8.12772 46.315 7.05313C46.315 5.97854 45.4421 5.10504 44.3692 5.10504Z" fill="white" fill-opacity="0.3"/>
        <path d="M50.8526 9.55548C49.4742 9.55548 48.3535 8.43313 48.3535 7.05313C48.3535 5.67313 49.4754 4.55078 50.8526 4.55078C52.2299 4.55078 53.3518 5.67313 53.3518 7.05313C53.3518 8.43313 52.2299 9.55548 50.8526 9.55548ZM50.8526 5.10504C49.7798 5.10504 48.9069 5.97854 48.9069 7.05313C48.9069 8.12772 49.7798 9.00122 50.8526 9.00122C51.9255 9.00122 52.7984 8.12772 52.7984 7.05313C52.7984 5.97854 51.9255 5.10504 50.8526 5.10504Z" fill="white" fill-opacity="0.3"/>
        <path d="M57.339 9.55548C55.9605 9.55548 54.8398 8.43313 54.8398 7.05313C54.8398 5.67313 55.9617 4.55078 57.339 4.55078C58.7162 4.55078 59.8381 5.67313 59.8381 7.05313C59.8381 8.43313 58.7162 9.55548 57.339 9.55548ZM57.339 5.10504C56.2661 5.10504 55.3932 5.97854 55.3932 7.05313C55.3932 8.12772 56.2661 9.00122 57.339 9.00122C58.4118 9.00122 59.2847 8.12772 59.2847 7.05313C59.2847 5.97854 58.4118 5.10504 57.339 5.10504Z" fill="white" fill-opacity="0.3"/>
        <path d="M258.489 165.733L45.0557 165.488C40.46 165.488 36.7207 161.747 36.7207 157.149V8.33907C36.7207 3.74033 40.46 0 45.0557 0H269.478C274.073 0 277.813 3.74158 277.813 8.33907V84.4527C277.813 84.6061 277.688 84.7292 277.536 84.7292C277.384 84.7292 277.259 84.6048 277.259 84.4527V8.33907C277.259 4.04574 273.769 0.553005 269.479 0.553005H45.0557C40.7656 0.553005 37.2754 4.04574 37.2754 8.33907V157.148C37.2754 161.441 40.7656 164.934 45.0557 164.934L258.489 165.179C258.642 165.179 258.765 165.303 258.765 165.455C258.765 165.609 258.641 165.732 258.489 165.732V165.733Z" fill="black"/>
        <path d="M216.856 134.339H101.715C101.562 134.339 101.438 134.214 101.438 134.062C101.438 133.91 101.563 133.785 101.715 133.785H216.856C217.009 133.785 217.133 133.91 217.133 134.062C217.133 134.214 217.008 134.339 216.856 134.339Z" fill="white" fill-opacity="0.3"/>
        <path d="M316.265 81.7969L317.007 82.6817C325.403 92.6911 330.162 105.249 330.51 118.312C331.32 148.737 332.715 204.849 332.542 224.295C332.515 227.236 330.124 229.604 327.185 229.604H296.697C294.633 229.604 293.48 227.221 294.759 225.601L299.232 219.938L305.059 150.846L281.559 226.024C280.801 228.17 278.773 229.605 276.498 229.605H243.986C241.854 229.605 240.723 227.085 242.141 225.492L248.152 218.73L291.596 102.293L316.264 81.7981L316.265 81.7969Z" fill="#565674"/>
        <path d="M327.183 229.878H296.695C295.635 229.878 294.688 229.285 294.224 228.33C293.76 227.373 293.881 226.261 294.54 225.427L298.961 219.827L304.569 153.332L281.823 226.103C281.024 228.364 278.885 229.877 276.497 229.877H243.985C242.889 229.877 241.93 229.256 241.479 228.256C241.029 227.254 241.203 226.123 241.932 225.302L247.91 218.579L291.336 102.191C291.354 102.145 291.381 102.105 291.419 102.075L316.087 81.5798C316.205 81.4817 316.379 81.4981 316.477 81.615L317.219 82.4998C325.62 92.5167 330.438 105.231 330.786 118.301C331.619 149.582 332.991 204.949 332.818 224.294C332.79 227.372 330.262 229.877 327.183 229.877V229.878ZM305.058 150.566C305.076 150.566 305.093 150.567 305.112 150.571C305.251 150.599 305.347 150.726 305.335 150.866L299.508 219.958C299.504 220.012 299.483 220.064 299.45 220.106L294.976 225.77C294.442 226.446 294.347 227.313 294.725 228.089C295.101 228.863 295.838 229.324 296.697 229.324H327.184C329.96 229.324 332.239 227.065 332.264 224.29C332.437 204.954 331.066 149.594 330.233 118.317C329.888 105.372 325.117 92.7781 316.795 82.8567L316.231 82.1843L291.832 102.456L248.413 218.823C248.402 218.855 248.384 218.885 248.361 218.91L242.349 225.672C241.766 226.326 241.628 227.23 241.988 228.031C242.346 228.829 243.112 229.325 243.987 229.325H276.5C278.653 229.325 280.583 227.96 281.299 225.929L304.795 150.761C304.832 150.644 304.94 150.566 305.059 150.566H305.058Z" fill="black"/>
        <path d="M282.049 221.283C282.049 221.283 282.042 221.283 282.038 221.283C271.542 220.841 260.924 220.044 250.481 218.916C250.329 218.899 250.22 218.762 250.236 218.61C250.252 218.458 250.393 218.348 250.542 218.365C260.973 219.491 271.579 220.287 282.063 220.729C282.216 220.735 282.335 220.865 282.328 221.017C282.322 221.167 282.199 221.282 282.052 221.282L282.049 221.283Z" fill="white" fill-opacity="0.3"/>
        <path d="M321.941 221.038C314.99 221.038 308.019 220.849 301.115 220.469C300.962 220.46 300.846 220.33 300.854 220.177C300.863 220.023 300.997 219.9 301.146 219.915C311.353 220.476 321.711 220.622 331.93 220.352C332.071 220.347 332.211 220.469 332.214 220.621C332.218 220.774 332.097 220.901 331.945 220.905C328.622 220.993 325.284 221.037 321.942 221.037L321.941 221.038Z" fill="white" fill-opacity="0.3"/>
        <path d="M305.199 150.188C305.176 150.188 305.152 150.186 305.129 150.18C304.98 150.141 304.892 149.99 304.931 149.841L311.376 125.311C312.08 122.631 312.958 119.896 315.24 118.468C315.369 118.387 315.54 118.426 315.622 118.556C315.704 118.686 315.663 118.857 315.534 118.939C313.421 120.259 312.615 122.773 311.912 125.451L305.467 149.982C305.434 150.107 305.322 150.188 305.199 150.188Z" fill="white" fill-opacity="0.3"/>
        <path d="M289.305 33.8242C289.305 33.8242 285.473 46.2995 290.436 47.3678C294.268 48.1923 298.845 46.2719 298.966 45.9866C299.087 45.7013 300.784 37.8737 300.784 37.8737L289.304 33.8255L289.305 33.8242Z" fill="#F4D7D7"/>
        <path d="M292.461 47.8428C291.754 47.8428 291.048 47.7812 290.379 47.6379C289.54 47.4569 288.881 46.968 288.42 46.1825C286.343 42.6445 288.93 34.1044 289.041 33.7424C289.063 33.6708 289.114 33.6104 289.18 33.5765C289.248 33.5426 289.326 33.5375 289.398 33.5627L300.877 37.6109C301.009 37.6574 301.085 37.7944 301.056 37.9302C300.772 39.241 299.347 45.7979 299.222 46.092C299.031 46.5432 295.721 47.8415 292.461 47.8415V47.8428ZM289.49 34.1823C289.061 35.688 287.143 42.9135 288.897 45.9022C289.282 46.5571 289.804 46.9479 290.495 47.0962C294.054 47.8616 298.265 46.1649 298.724 45.8381C298.873 45.3191 299.815 41.037 300.462 38.0521L289.49 34.1823Z" fill="white"/>
        <path d="M291.984 44.3563L293.202 53.8881L303.096 53.4872L300.377 39.3164L291.984 44.3563Z" fill="#F4D7D7"/>
        <path d="M293.201 54.1638C293.062 54.1638 292.944 54.0607 292.926 53.9225L291.71 44.3919C291.691 44.2399 291.798 44.1016 291.95 44.0815C292.101 44.0639 292.241 44.1695 292.261 44.3215L293.446 53.6007L302.766 53.2237L300.107 39.3684C300.078 39.2176 300.176 39.073 300.327 39.0441C300.478 39.0152 300.622 39.1132 300.651 39.2641L303.372 53.4348C303.387 53.514 303.367 53.5957 303.317 53.6585C303.266 53.7214 303.191 53.7603 303.11 53.7629L293.214 54.1638C293.214 54.1638 293.207 54.1638 293.203 54.1638H293.201Z" fill="white"/>
        <path d="M299.228 28.9028C299.228 28.9028 297.918 25.5558 292.408 25.6136C290.335 25.635 289.154 25.4628 288.488 25.2391C287.131 24.7841 285.626 25.4578 285.169 26.8127C284.849 27.7578 285.055 28.953 286.529 30.3594C286.529 30.3594 284.204 32.437 287.883 34.3976C287.883 34.3976 286.863 37.3638 291.432 38.0186C291.432 38.0186 292.139 36.5343 293.58 37.3688C294.428 37.8602 294.501 39.8334 292.987 41.5817C292.987 41.5817 295.394 46.3903 299.723 46.3388C304.052 46.286 304.059 41.2084 304.091 39.5406C304.124 37.8728 306.506 33.3708 303.659 30.039C301.948 28.0368 299.225 28.904 299.225 28.904L299.228 28.9028Z" fill="#46487C"/>
        <path d="M293.249 38.2614C293.249 38.2614 291.78 37.359 292.015 40.1957L293.249 38.2614Z" fill="white"/>
        <path d="M292.016 40.475C291.874 40.475 291.752 40.3656 291.741 40.2211C291.64 39.007 291.824 38.2742 292.304 37.9789C292.703 37.7338 293.177 37.8947 293.394 38.0279C293.525 38.1083 293.565 38.278 293.485 38.4087C293.404 38.5382 293.236 38.5797 293.105 38.5005C293.099 38.4967 292.794 38.3245 292.591 38.4515C292.464 38.5306 292.181 38.8562 292.29 40.1746C292.303 40.3267 292.19 40.4611 292.037 40.4737C292.03 40.4737 292.022 40.4737 292.015 40.4737L292.016 40.475Z" fill="white"/>
        <path d="M272.22 67.7113L269.501 66.6405L265.393 71.0029C265.393 71.0029 252.188 61.989 245.556 56.0291C238.923 50.0692 232.58 46.6003 231.001 46.9862C229.422 47.372 230.016 49.5677 233.313 51.4668C233.313 51.4668 230.438 52.2573 231.001 54.6742C231.001 54.6742 228.952 54.7207 229.415 57.6542C229.415 57.6542 227.079 58.9097 228.122 61.5126C229.164 64.1155 232.06 64.1897 232.06 64.1897C232.06 64.1897 239.922 73.4626 248.191 81.5465C255.785 88.9693 267.277 90.7578 276.724 85.9102C279.672 84.397 282.405 81.5968 284.293 79.523L272.22 67.7126V67.7113Z" fill="#4B5A8A"/>
        <path d="M265.505 88.8984C259.117 88.8984 252.803 86.4401 247.996 81.7408C240.246 74.1646 232.762 65.4384 231.923 64.4556C231.325 64.4091 228.846 64.066 227.863 61.6127C226.915 59.246 228.564 57.8861 229.114 57.5129C228.978 56.4634 229.145 55.6502 229.609 55.0935C229.955 54.6787 230.386 54.5103 230.676 54.4412C230.459 52.8324 231.669 51.8471 232.676 51.3996C230.824 50.217 229.748 48.8194 229.9 47.7561C229.975 47.2282 230.342 46.8575 230.934 46.7129C232.671 46.2906 239.179 49.9241 245.74 55.8199C251.845 61.306 263.688 69.493 265.353 70.6367L269.298 66.4477C269.376 66.366 269.497 66.3383 269.601 66.3798L272.321 67.4519C272.355 67.4657 272.386 67.4858 272.413 67.5122L284.486 79.3214C284.592 79.4257 284.597 79.5954 284.497 79.706C282.647 81.7383 279.841 84.6189 276.849 86.1535C273.253 87.9986 269.364 88.8972 265.504 88.8972L265.505 88.8984ZM231.288 47.2295C231.204 47.2295 231.13 47.237 231.066 47.2534C230.698 47.3426 230.491 47.5387 230.449 47.8365C230.344 48.5743 231.238 49.9505 233.452 51.2249C233.548 51.2802 233.602 51.3883 233.587 51.5002C233.574 51.6108 233.494 51.7025 233.386 51.7327C233.279 51.7629 230.775 52.4843 231.269 54.6108C231.288 54.6925 231.269 54.778 231.218 54.8434C231.166 54.9087 231.088 54.9489 231.005 54.9502C230.984 54.9502 230.427 54.9753 230.029 55.458C229.649 55.918 229.535 56.6419 229.687 57.6109C229.706 57.7265 229.648 57.8422 229.545 57.8975C229.46 57.944 227.442 59.0738 228.378 61.409C229.338 63.8058 231.955 63.9089 232.066 63.9114C232.144 63.9139 232.219 63.9491 232.269 64.0094C232.349 64.1024 240.218 73.3653 248.383 81.3474C255.925 88.7187 267.263 90.4531 276.596 85.6634C279.413 84.218 282.087 81.5183 283.907 79.5325L272.065 67.9496L269.573 66.9667L265.593 71.1922C265.5 71.2915 265.348 71.3078 265.235 71.2312C265.103 71.1407 251.939 62.138 245.369 56.2347C239.015 50.5249 233.026 47.2307 231.287 47.2307L231.288 47.2295Z" fill="white" fill-opacity="0.3"/>
        <path d="M232.148 64.5934C232.06 64.5934 231.974 64.5519 231.92 64.4752C231.076 63.2649 230.29 61.993 229.583 60.6947C229.51 60.5602 229.561 60.393 229.694 60.3189C229.829 60.246 229.997 60.295 230.07 60.4295C230.767 61.7089 231.542 62.9633 232.374 64.1573C232.461 64.2829 232.431 64.4551 232.305 64.5431C232.257 64.577 232.202 64.5934 232.147 64.5934H232.148Z" fill="white" fill-opacity="0.3"/>
        <path d="M232.413 59.0666C232.349 59.0666 232.284 59.044 232.231 58.9987C231.436 58.3075 230.383 57.9392 229.327 57.987C229.323 57.987 229.318 57.987 229.314 57.987C229.167 57.987 229.045 57.8713 229.037 57.723C229.03 57.571 229.149 57.4415 229.302 57.434C230.489 57.3824 231.694 57.7984 232.594 58.5815C232.71 58.682 232.723 58.8567 232.622 58.9723C232.568 59.0352 232.49 59.0678 232.413 59.0678V59.0666Z" fill="white" fill-opacity="0.3"/>
        <path d="M234.663 56.7226C234.594 56.7226 234.526 56.6974 234.472 56.6459C233.528 55.746 232.295 55.1578 231.002 54.9894C230.851 54.9693 230.743 54.831 230.763 54.679C230.783 54.5281 230.922 54.4188 231.074 54.4402C232.482 54.6237 233.826 55.2646 234.855 56.245C234.965 56.3506 234.969 56.5253 234.865 56.6359C234.811 56.6937 234.738 56.7213 234.665 56.7213L234.663 56.7226Z" fill="white" fill-opacity="0.3"/>
        <path d="M236.529 53.8042C236.468 53.8042 236.408 53.7853 236.358 53.7451C235.363 52.9634 234.271 52.3073 233.113 51.7958C232.973 51.7342 232.909 51.5708 232.971 51.43C233.032 51.2905 233.196 51.2277 233.337 51.2893C234.537 51.8184 235.669 52.4983 236.7 53.309C236.821 53.4033 236.841 53.578 236.746 53.6974C236.692 53.7665 236.611 53.8029 236.529 53.8029V53.8042Z" fill="white" fill-opacity="0.3"/>
        <path d="M302.069 25.4337C300.815 24.7701 299.654 24.471 299.04 25.2716C298.426 26.0722 298.899 27.549 299.969 28.1724C299.227 27.6973 298.458 27.2109 297.635 27.0224C296.812 26.8326 295.913 27.0173 295.596 27.6658C295.317 28.2364 295.556 29.0232 296.007 29.6366C296.231 29.9395 296.499 30.2097 296.787 30.4623C296.239 30.2889 295.618 30.368 295.279 30.7287C294.703 31.3433 294.694 32.3149 295.278 33.1469C295.771 33.8507 296.667 34.6136 297.523 35.2835C298.474 36.0753 299.212 36.6296 300.569 37.5772C299.03 37.3397 296.382 37.0732 296.602 38.9572C296.908 41.5802 308.623 43.1073 310.451 44.2271C313.874 46.3235 316.524 47.8568 316.524 47.8568C318.092 47.7425 324.115 40.0469 325.074 37.483C323.635 36.2965 311.562 28.3986 306.622 25.4739C305.793 24.9838 304.925 24.4836 304.026 24.3616C303.125 24.241 302.191 24.6243 302.071 25.435L302.069 25.4337Z" fill="#4B5A8A"/>
        <path d="M316.524 48.1308C316.475 48.1308 316.427 48.1182 316.386 48.0931C316.359 48.078 313.693 46.5333 310.307 44.4596C309.722 44.1014 307.965 43.6753 305.929 43.1814C300.616 41.8931 296.535 40.7657 296.327 38.9848C296.266 38.4494 296.4 38.0183 296.729 37.7028C297.321 37.1322 298.448 37.0757 299.512 37.1637C298.667 36.5554 298.064 36.0891 297.346 35.4921C296.566 34.8825 295.595 34.0781 295.051 33.3027C294.394 32.3651 294.404 31.254 295.077 30.5364C295.307 30.2913 295.651 30.1418 296.032 30.104C295.941 30.0022 295.86 29.9004 295.784 29.7974C295.336 29.1891 294.987 28.2779 295.346 27.5401C295.751 26.7119 296.818 26.5447 297.697 26.7483C298.042 26.8275 298.376 26.9557 298.7 27.1103C298.627 26.9406 298.571 26.7634 298.536 26.5849C298.423 26.0143 298.525 25.4877 298.822 25.1006C299.626 24.0499 301.121 24.6444 301.898 25.0302C302.231 24.2673 303.201 23.9669 304.061 24.0826C305.047 24.2158 305.998 24.7776 306.762 25.2301C311.757 28.1874 323.798 36.0665 325.249 37.2642C325.34 37.3396 325.374 37.464 325.332 37.5746C324.36 40.1788 318.323 47.9988 316.543 48.1283C316.537 48.1283 316.529 48.1283 316.523 48.1283L316.524 48.1308ZM298.755 37.6827C298.098 37.6827 297.451 37.7783 297.114 38.1025C296.914 38.2948 296.837 38.5625 296.878 38.922C297.058 40.4616 302.475 41.775 306.06 42.6434C308.227 43.1688 309.937 43.5836 310.596 43.987C313.64 45.8509 316.1 47.2862 316.578 47.5639C317.984 47.2246 323.547 40.4063 324.74 37.5671C322.744 36.0375 311.313 28.5682 306.479 25.7064C305.758 25.2803 304.861 24.7487 303.986 24.6306C303.254 24.53 302.439 24.8191 302.342 25.4701C302.328 25.5593 302.273 25.636 302.192 25.6762C302.112 25.7165 302.016 25.7152 301.938 25.6737C300.57 24.9485 299.692 24.8693 299.259 25.4349C299.061 25.6938 298.996 26.0633 299.078 26.4756C299.185 27.016 299.52 27.5238 299.967 27.838C300.018 27.8707 300.068 27.9021 300.117 27.9335C300.244 28.0152 300.283 28.1824 300.204 28.3118C300.125 28.44 299.959 28.4827 299.828 28.4073C299.771 28.3747 299.716 28.3395 299.662 28.3018C299.018 27.892 298.3 27.4547 297.57 27.2875C296.927 27.1392 296.112 27.2309 295.842 27.7827C295.634 28.2075 295.787 28.8686 296.228 29.4681C296.415 29.7232 296.658 29.9796 296.966 30.2486C297.066 30.3353 297.09 30.4786 297.026 30.593C296.961 30.7073 296.824 30.7601 296.701 30.7212C296.227 30.5716 295.725 30.6508 295.478 30.9122C294.99 31.4338 294.999 32.2658 295.501 32.9822C296.009 33.7061 296.994 34.5143 297.691 35.0597C298.632 35.8427 299.367 36.3957 300.725 37.3447C300.83 37.4188 300.87 37.5558 300.823 37.6752C300.775 37.7946 300.652 37.8637 300.523 37.8461C300.175 37.7921 299.458 37.6815 298.75 37.6815L298.755 37.6827Z" fill="white" fill-opacity="0.3"/>
        <path d="M306.021 41.2415C305.972 41.2415 305.923 41.2289 305.878 41.2013C305.837 41.1761 301.786 38.7215 300.417 37.804C300.29 37.7186 300.256 37.5464 300.341 37.4195C300.427 37.2925 300.599 37.2586 300.726 37.344C302.086 38.254 306.125 40.7023 306.166 40.7274C306.297 40.8066 306.338 40.9775 306.259 41.1083C306.206 41.1937 306.115 41.2415 306.021 41.2415Z" fill="white" fill-opacity="0.3"/>
        <path d="M303.545 35.8066C303.485 35.8066 303.425 35.7878 303.375 35.7476C301.438 34.2368 298.955 32.4245 296.96 30.9678L296.598 30.7039C296.475 30.6134 296.447 30.44 296.538 30.3168C296.628 30.1936 296.802 30.166 296.925 30.2565L297.287 30.5204C299.286 31.9796 301.772 33.7944 303.716 35.3114C303.836 35.4057 303.858 35.5791 303.763 35.6998C303.709 35.7702 303.628 35.8066 303.545 35.8066Z" fill="white" fill-opacity="0.3"/>
        <path d="M305.867 32.4739C305.813 32.4739 305.757 32.4576 305.71 32.4249L299.949 28.4307C299.823 28.344 299.792 28.1705 299.88 28.0449C299.967 27.9192 300.14 27.8878 300.266 27.9757L306.027 31.9699C306.152 32.0567 306.184 32.2301 306.096 32.3558C306.042 32.4337 305.956 32.4752 305.868 32.4752L305.867 32.4739Z" fill="white" fill-opacity="0.3"/>
        <path d="M307.616 29.4147C307.559 29.4147 307.503 29.3971 307.454 29.3619C305.766 28.1377 304.009 26.9626 302.232 25.8679C302.101 25.7875 302.061 25.6165 302.141 25.4871C302.222 25.3576 302.391 25.3161 302.522 25.3966C304.311 26.4976 306.079 27.6802 307.778 28.9132C307.903 29.0024 307.929 29.1759 307.84 29.3003C307.786 29.3745 307.702 29.4147 307.615 29.4147H307.616Z" fill="white" fill-opacity="0.3"/>
        <path d="M325.776 97.6037C325.666 97.6037 325.562 97.5384 325.519 97.4303L322.231 89.3149C322.174 89.1729 322.243 89.012 322.385 88.9542C322.527 88.8964 322.688 88.9642 322.746 89.1075L326.034 97.2229C326.091 97.3649 326.022 97.5258 325.88 97.5836C325.846 97.5974 325.811 97.6037 325.776 97.6037Z" fill="white"/>
        <path d="M319.28 32.9895C319.28 32.9895 317.931 38.9142 311.131 44.9257C313.322 47.0107 321.847 53.726 321.847 53.726C321.847 53.726 302.761 52.992 297.313 52.7884C287.936 52.4377 280.338 54.8031 275.806 59.3176L265.026 69.4753L250.788 59.1869L238.469 71.9626L250.183 83.5719C258.839 91.7338 272.351 91.7401 281.014 83.5845L285.986 79.0876L287.285 106.402L329.383 100.323L323.528 72.0455C323.528 72.0455 343.816 73.2106 344.924 62.1266C346.564 45.7074 319.28 32.9883 319.28 32.9883V32.9895Z" fill="#C2D24B"/>
        <path d="M333.36 54.4556C333.36 54.4556 333.353 54.4556 333.349 54.4556L321.837 54.0028C321.683 53.9965 321.565 53.8682 321.572 53.7148C321.578 53.5613 321.719 53.4443 321.86 53.4494L333.372 53.9022C333.525 53.9085 333.643 54.0367 333.637 54.1902C333.631 54.3399 333.509 54.4568 333.36 54.4568V54.4556Z" fill="white" fill-opacity="0.3"/>
        <path d="M285.986 79.3665C285.84 79.3665 285.717 79.2521 285.71 79.1038L285.503 75.092C285.496 74.9387 285.613 74.8092 285.766 74.8017C285.918 74.7891 286.049 74.911 286.057 75.0643L286.263 79.0761C286.271 79.2295 286.154 79.3589 286 79.3665C285.995 79.3665 285.99 79.3665 285.985 79.3665H285.986Z" fill="white" fill-opacity="0.3"/>
        <path d="M83.0231 229.722H33.711C33.711 229.722 16.768 223.419 28.3392 205.893C28.9869 204.912 30.5138 205.443 30.3981 206.614C29.8497 212.186 30.0724 221.443 36.8315 224.795V222.946C36.8315 218.689 38.1118 214.53 40.5053 211.011L56.7779 187.086C56.7779 187.086 43.6673 182.415 65.8726 167.726C65.8726 167.726 65.25 160.172 74.3774 163.454C74.3774 163.454 89.7357 153.799 92.6637 154.709C95.5917 155.619 99.8894 160.976 86.3184 177.953L83.7426 183.571C83.2948 184.549 83.0621 185.611 83.0621 186.686V221.489C83.0621 222.989 83.9954 224.302 85.3801 224.875C86.5108 225.344 87.4277 226.229 86.3964 227.892C85.6782 229.049 84.384 229.722 83.0219 229.722H83.0231Z" fill="#565674"/>
        <path d="M83.025 229.999H33.7128C33.6801 229.999 33.6474 229.992 33.616 229.981C33.5468 229.956 26.6896 227.339 24.6169 220.999C23.1705 216.573 24.3452 211.44 28.1084 205.741C28.4718 205.19 29.1322 204.968 29.7522 205.188C30.3673 205.405 30.7383 205.989 30.6741 206.64C30.1673 211.801 30.2792 220.86 36.5553 224.337V222.945C36.5553 218.616 37.842 214.435 40.277 210.855L56.3572 187.211C55.4591 186.808 53.0267 185.473 52.6946 182.744C52.2003 178.69 56.5383 173.59 65.5877 167.581C65.5676 166.931 65.6242 164.578 67.3624 163.247C68.8804 162.085 71.2286 162.049 74.3428 163.147C76.3854 161.867 89.8381 153.542 92.7448 154.443C93.4063 154.649 95.0175 155.363 95.6879 157.549C96.6111 160.554 95.7734 166.559 86.5542 178.098L83.9922 183.684C83.557 184.632 83.3369 185.641 83.3369 186.685V221.487C83.3369 222.849 84.1796 224.078 85.4851 224.618C86.324 224.965 86.8472 225.445 87.0397 226.042C87.2271 226.625 87.09 227.295 86.6309 228.035C85.8813 229.246 84.4978 229.996 83.0212 229.996L83.025 229.999ZM33.7644 229.444H83.025C84.3116 229.444 85.514 228.793 86.1643 227.745C86.534 227.149 86.6523 226.634 86.5164 226.213C86.3756 225.777 85.9593 225.414 85.2776 225.131C83.7658 224.505 82.7885 223.075 82.7885 221.489V186.686C82.7885 185.562 83.0262 184.475 83.4941 183.454L86.0699 177.836C86.08 177.816 86.0913 177.796 86.1052 177.779C95.1936 166.409 96.0476 160.59 95.1634 157.711C94.5697 155.778 93.1623 155.152 92.585 154.972C90.2821 154.251 78.77 161.021 74.5277 163.687C74.456 163.732 74.3667 163.742 74.2862 163.713C71.3003 162.64 69.0867 162.63 67.7057 163.685C65.9575 165.021 66.1499 167.675 66.1524 167.703C66.16 167.803 66.1134 167.9 66.0292 167.956C54.8818 175.33 52.926 180.032 53.248 182.678C53.6077 185.628 56.8414 186.813 56.8741 186.825C56.9546 186.854 57.0175 186.918 57.0439 187C57.0703 187.082 57.0577 187.171 57.0099 187.241L40.7373 211.166C38.3652 214.654 37.1113 218.727 37.1113 222.945V224.794C37.1113 224.89 37.0622 224.979 36.9804 225.029C36.8987 225.079 36.7968 225.084 36.7113 225.042C29.7422 221.585 29.5938 211.995 30.1245 206.585C30.1723 206.1 29.8554 205.808 29.5686 205.708C29.2793 205.606 28.8441 205.633 28.5725 206.045C24.9074 211.596 23.7541 216.569 25.1439 220.825C27.0481 226.65 33.1783 229.211 33.7644 229.443V229.444Z" fill="white" fill-opacity="0.3"/>
        <path d="M82.7062 229.586C82.6848 229.586 82.6622 229.584 82.6408 229.579C82.4924 229.542 82.4005 229.393 82.437 229.244C82.6873 228.223 81.8446 227.181 80.9214 226.801C79.9014 226.383 78.7204 226.489 77.5947 226.669L77.1709 226.738C76.137 226.909 75.0679 227.086 74.0064 226.907C73.8957 226.888 73.8077 226.805 73.7825 226.695C73.7574 226.586 73.8001 226.473 73.8907 226.408C77.3482 223.927 79.8612 220.121 80.7856 215.965C81.1604 214.278 81.2107 212.83 80.9403 211.538C80.6183 210.004 79.7945 208.686 78.6814 207.922C76.5181 206.438 73.6102 207.041 71.5538 207.808C67.9252 209.161 64.7268 211.475 62.3032 214.498C62.2076 214.617 62.034 214.637 61.9133 214.541C61.7938 214.445 61.7749 214.27 61.8705 214.151C64.3558 211.05 67.6372 208.676 71.3601 207.289C73.5398 206.476 76.6338 205.846 78.9958 207.465C80.2259 208.308 81.1327 209.751 81.4837 211.424C81.7704 212.794 81.7201 214.318 81.3277 216.084C80.4259 220.136 78.0613 223.866 74.7925 226.424C75.5522 226.444 76.3257 226.316 77.0816 226.19L77.5092 226.12C78.7141 225.928 79.9882 225.814 81.134 226.286C82.2949 226.762 83.3011 228.048 82.9778 229.373C82.9464 229.499 82.8332 229.584 82.7087 229.584L82.7062 229.586Z" fill="white" fill-opacity="0.3"/>
        <path d="M75.874 206.78C75.8375 206.78 75.7997 206.773 75.7645 206.758C75.6237 206.697 75.5595 206.534 75.6186 206.394L78.8523 198.875C78.9127 198.734 79.0762 198.67 79.2158 198.729C79.3566 198.789 79.4208 198.953 79.3617 199.092L76.128 206.612C76.0827 206.716 75.9809 206.779 75.874 206.779V206.78Z" fill="white" fill-opacity="0.3"/>
        <path d="M94.7515 161.049C94.7389 161.049 94.7264 161.049 94.7138 161.046C93.4724 160.879 92.3002 160.231 91.499 159.268C90.6978 158.305 90.2714 157.036 90.3318 155.784C90.3394 155.631 90.4702 155.51 90.6224 155.52C90.7758 155.528 90.8928 155.657 90.8865 155.81C90.8324 156.925 91.2122 158.056 91.9254 158.914C92.6398 159.771 93.6824 160.348 94.788 160.497C94.9389 160.517 95.0458 160.657 95.0257 160.809C95.0068 160.948 94.8886 161.049 94.7515 161.049Z" fill="white" fill-opacity="0.3"/>
        <path d="M72.5702 193.666C72.1916 193.666 71.8156 193.635 71.4483 193.572C69.0246 193.154 67.05 191.304 66.645 189.071C66.3016 187.177 67.0827 185.262 67.8021 183.805C69.4208 180.525 71.5665 177.564 74.1801 175.005C74.2895 174.898 74.4656 174.899 74.5713 175.009C74.6782 175.118 74.6769 175.294 74.5675 175.4C71.9992 177.915 69.89 180.825 68.2989 184.049C67.6172 185.43 66.8764 187.238 67.1909 188.972C67.5493 190.948 69.3793 192.653 71.5426 193.027C73.5223 193.369 75.7485 192.69 77.4993 191.212C79.0023 189.942 80.1896 188.124 81.026 185.807C81.7756 183.73 82.1617 181.512 82.534 179.365C82.5604 179.214 82.7038 179.114 82.8547 179.14C83.0056 179.166 83.1063 179.31 83.0799 179.46C82.7025 181.63 82.3126 183.872 81.5467 185.996C80.6776 188.405 79.4362 190.303 77.8565 191.635C76.3044 192.946 74.3952 193.668 72.5702 193.668V193.666Z" fill="white" fill-opacity="0.3"/>
        <path d="M57.172 186.851C57.1154 186.851 57.0575 186.833 57.0072 186.797C56.8839 186.706 56.8575 186.533 56.9493 186.409L63.4179 177.667C63.5084 177.545 63.682 177.517 63.8053 177.609C63.9285 177.7 63.9549 177.873 63.8631 177.996L57.3946 186.739C57.3405 186.812 57.2562 186.851 57.172 186.851Z" fill="white" fill-opacity="0.3"/>
        <path d="M66.1128 176.195C66.104 176.195 66.0964 176.195 66.0876 176.195C64.8538 176.084 63.7344 175.279 63.2363 174.144C62.7383 173.01 62.9018 171.64 63.6552 170.656C64.2991 169.814 65.328 169.314 66.3794 169.302L65.8612 168.372C65.787 168.239 65.8348 168.071 65.9682 167.995C66.1015 167.922 66.27 167.969 66.3455 168.102L67.1114 169.477C67.163 169.569 67.1567 169.682 67.0976 169.77C67.0372 169.857 66.9341 169.901 66.8284 169.887C65.8134 169.733 64.718 170.178 64.0954 170.993C63.4728 171.806 63.3319 172.984 63.7445 173.921C64.1558 174.859 65.1179 175.551 66.1379 175.643C66.2901 175.657 66.4033 175.791 66.3895 175.944C66.3769 176.087 66.2562 176.195 66.114 176.195H66.1128Z" fill="white" fill-opacity="0.3"/>
        <path d="M78.7761 174.024C78.7673 174.024 78.7573 174.024 78.7484 174.023C78.5963 174.008 78.4843 173.872 78.5007 173.72C78.8591 170.122 77.4002 166.4 74.6922 164.007C74.5778 163.906 74.5665 163.731 74.6683 163.616C74.7702 163.502 74.945 163.492 75.0595 163.593C77.8982 166.102 79.4276 170.004 79.0516 173.775C79.0377 173.919 78.917 174.024 78.7761 174.024Z" fill="white" fill-opacity="0.3"/>
        <path d="M76.0537 190.881C75.9027 190.881 75.7795 190.761 75.7769 190.61C75.6801 186.064 77.5919 181.48 80.8884 178.35C80.9991 178.244 81.1752 178.249 81.2796 178.36C81.3852 178.47 81.3802 178.646 81.2695 178.75C78.0836 181.776 76.2373 186.205 76.3304 190.597C76.3341 190.751 76.2121 190.876 76.0587 190.88H76.0524L76.0537 190.881Z" fill="white" fill-opacity="0.3"/>
        <path d="M150.067 10.7862L94.2891 107.395C90.4719 114.007 95.2475 122.271 102.887 122.271H214.445C222.084 122.271 226.86 114.007 223.042 107.395L167.263 10.7862C163.443 4.17023 153.888 4.17023 150.067 10.7862Z" fill="#C2D24B"/>
        <path d="M154.454 18.9184L103.528 107.121C101.658 110.36 103.997 114.407 107.739 114.407H209.591C213.332 114.407 215.671 110.36 213.802 107.121L162.876 18.9184C161.005 15.6783 156.325 15.6783 154.454 18.9184Z" fill="#2A2A40"/>
        <path d="M148.035 64.475H140.235V67.925C140.568 67.5583 141.035 67.2583 141.635 67.025C142.235 66.7917 142.885 66.675 143.585 66.675C144.835 66.675 145.868 66.9583 146.685 67.525C147.518 68.0917 148.127 68.825 148.51 69.725C148.893 70.625 149.085 71.6 149.085 72.65C149.085 74.6 148.535 76.15 147.435 77.3C146.335 78.4333 144.785 79 142.785 79C141.452 79 140.293 78.775 139.31 78.325C138.327 77.8583 137.568 77.2167 137.035 76.4C136.502 75.5833 136.21 74.6417 136.16 73.575H140.335C140.435 74.0917 140.677 74.525 141.06 74.875C141.443 75.2083 141.968 75.375 142.635 75.375C143.418 75.375 144.002 75.125 144.385 74.625C144.768 74.125 144.96 73.4583 144.96 72.625C144.96 71.8083 144.76 71.1833 144.36 70.75C143.96 70.3167 143.377 70.1 142.61 70.1C142.043 70.1 141.577 70.2417 141.21 70.525C140.843 70.7917 140.602 71.15 140.485 71.6H136.36V60.725H148.035V64.475Z" fill="white"/>
        <path d="M151.445 69.625C151.445 66.7583 151.995 64.5 153.095 62.85C154.212 61.2 156.003 60.375 158.47 60.375C160.937 60.375 162.72 61.2 163.82 62.85C164.937 64.5 165.495 66.7583 165.495 69.625C165.495 72.525 164.937 74.8 163.82 76.45C162.72 78.1 160.937 78.925 158.47 78.925C156.003 78.925 154.212 78.1 153.095 76.45C151.995 74.8 151.445 72.525 151.445 69.625ZM161.295 69.625C161.295 67.9417 161.112 66.65 160.745 65.75C160.378 64.8333 159.62 64.375 158.47 64.375C157.32 64.375 156.562 64.8333 156.195 65.75C155.828 66.65 155.645 67.9417 155.645 69.625C155.645 70.7583 155.712 71.7 155.845 72.45C155.978 73.1833 156.245 73.7833 156.645 74.25C157.062 74.7 157.67 74.925 158.47 74.925C159.27 74.925 159.87 74.7 160.27 74.25C160.687 73.7833 160.962 73.1833 161.095 72.45C161.228 71.7 161.295 70.7583 161.295 69.625Z" fill="white"/>
        <path d="M167.754 69.625C167.754 66.7583 168.304 64.5 169.404 62.85C170.52 61.2 172.312 60.375 174.779 60.375C177.245 60.375 179.029 61.2 180.129 62.85C181.245 64.5 181.804 66.7583 181.804 69.625C181.804 72.525 181.245 74.8 180.129 76.45C179.029 78.1 177.245 78.925 174.779 78.925C172.312 78.925 170.52 78.1 169.404 76.45C168.304 74.8 167.754 72.525 167.754 69.625ZM177.604 69.625C177.604 67.9417 177.42 66.65 177.054 65.75C176.687 64.8333 175.929 64.375 174.779 64.375C173.629 64.375 172.87 64.8333 172.504 65.75C172.137 66.65 171.954 67.9417 171.954 69.625C171.954 70.7583 172.02 71.7 172.154 72.45C172.287 73.1833 172.554 73.7833 172.954 74.25C173.37 74.7 173.979 74.925 174.779 74.925C175.579 74.925 176.179 74.7 176.579 74.25C176.995 73.7833 177.27 73.1833 177.404 72.45C177.537 71.7 177.604 70.7583 177.604 69.625Z" fill="white"/>
        <path d="M139.185 96.3259H133.748V100.775H140.064V102.129H132.093V89.5742H139.978V90.9278H133.747V94.971H139.184V96.3247L139.185 96.3259Z" fill="white"/>
        <path d="M146.726 97.0498H143.779V102.129H142.115V89.5742H146.27C147.683 89.5742 148.77 89.896 149.531 90.5395C150.292 91.183 150.673 92.1206 150.673 93.351C150.673 94.1327 150.462 94.8139 150.039 95.3946C149.616 95.9753 149.029 96.4089 148.277 96.6967L151.224 102.026V102.129H149.449L146.726 97.0498ZM143.779 95.6962H146.321C147.142 95.6962 147.796 95.4826 148.282 95.0565C148.767 94.6304 149.01 94.0598 149.01 93.346C149.01 92.568 148.779 91.9722 148.316 91.5575C147.853 91.1427 147.185 90.9329 146.312 90.9266H143.779V95.695V95.6962Z" fill="white"/>
        <path d="M157.595 97.0498H154.648V102.129H152.984V89.5742H157.139C158.552 89.5742 159.639 89.896 160.4 90.5395C161.161 91.183 161.542 92.1206 161.542 93.351C161.542 94.1327 161.331 94.8139 160.908 95.3946C160.486 95.9753 159.898 96.4089 159.146 96.6967L162.093 102.026V102.129H160.318L157.595 97.0498ZM154.648 95.6962H157.19C158.012 95.6962 158.666 95.4826 159.151 95.0565C159.637 94.6304 159.879 94.0598 159.879 93.346C159.879 92.568 159.648 91.9722 159.185 91.5575C158.722 91.1427 158.054 90.9329 157.181 90.9266H154.648V95.695V95.6962Z" fill="white"/>
        <path d="M173.511 96.2571C173.511 97.4875 173.304 98.5609 172.891 99.4771C172.477 100.395 171.891 101.093 171.132 101.577C170.374 102.06 169.49 102.301 168.479 102.301C167.467 102.301 166.615 102.059 165.85 101.572C165.085 101.087 164.493 100.395 164.07 99.4947C163.648 98.5948 163.431 97.5529 163.42 96.369V95.464C163.42 94.2575 163.629 93.1904 164.049 92.2654C164.468 91.3404 165.061 90.6315 165.828 90.1401C166.596 89.6487 167.472 89.4023 168.461 89.4023C169.45 89.4023 170.353 89.6449 171.12 90.1313C171.887 90.6177 172.477 91.3215 172.891 92.244C173.304 93.1665 173.511 94.2399 173.511 95.464V96.2571ZM171.864 95.4464C171.864 93.9584 171.566 92.8159 170.969 92.0191C170.371 91.2235 169.535 90.8251 168.461 90.8251C167.387 90.8251 166.592 91.2235 165.992 92.0191C165.392 92.8159 165.083 93.9207 165.065 95.3346V96.2571C165.065 97.6999 165.368 98.8336 165.974 99.6593C166.581 100.484 167.414 100.896 168.477 100.896C169.54 100.896 170.373 100.506 170.959 99.7272C171.545 98.948 171.847 97.8319 171.863 96.3778V95.4464H171.864Z" fill="white"/>
        <path d="M180.596 97.0498H177.649V102.129H175.985V89.5742H180.14C181.553 89.5742 182.64 89.896 183.401 90.5395C184.162 91.183 184.543 92.1206 184.543 93.351C184.543 94.1327 184.332 94.8139 183.909 95.3946C183.486 95.9753 182.899 96.4089 182.147 96.6967L185.094 102.026V102.129H183.319L180.596 97.0498ZM177.649 95.6962H180.191C181.013 95.6962 181.667 95.4826 182.152 95.0565C182.638 94.6304 182.88 94.0598 182.88 93.346C182.88 92.568 182.649 91.9722 182.186 91.5575C181.723 91.1427 181.055 90.9329 180.182 90.9266H177.649V95.695V95.6962Z" fill="white"/>
        <path d="M78.692 25.5195H29.3899C24.1326 25.5195 19.8701 29.784 19.8701 35.0451V50.4852C19.8701 55.7463 24.1326 60.0107 29.3899 60.0107H78.692C83.9506 60.0107 88.2118 55.7463 88.2118 50.4852V35.0451C88.2118 29.784 83.9493 25.5195 78.692 25.5195Z" fill="#2A2A40"/>
        <path d="M54.0377 55.5506C61.0958 55.5506 66.8176 49.8256 66.8176 42.7636C66.8176 35.7015 61.0958 29.9766 54.0377 29.9766C46.9796 29.9766 41.2578 35.7015 41.2578 42.7636C41.2578 49.8256 46.9796 55.5506 54.0377 55.5506Z" fill="#565674"/>
        <path d="M49.3184 40.9072C49.97 40.9072 50.4982 40.3788 50.4982 39.727C50.4982 39.0753 49.97 38.5469 49.3184 38.5469C48.6669 38.5469 48.1387 39.0753 48.1387 39.727C48.1387 40.3788 48.6669 40.9072 49.3184 40.9072Z" fill="white"/>
        <path d="M58.7589 40.9072C59.4104 40.9072 59.9386 40.3788 59.9386 39.727C59.9386 39.0753 59.4104 38.5469 58.7589 38.5469C58.1073 38.5469 57.5791 39.0753 57.5791 39.727C57.5791 40.3788 58.1073 40.9072 58.7589 40.9072Z" fill="white"/>
        <path d="M48.6851 48.368C48.6461 48.368 48.6071 48.3605 48.5694 48.3429C48.431 48.2788 48.3707 48.1142 48.4348 47.9759C48.4499 47.9432 49.9932 44.7031 53.9513 44.7031C57.9094 44.7031 59.5608 47.9156 59.5771 47.9483C59.6438 48.0853 59.5872 48.2512 59.4488 48.3178C59.3117 48.3856 59.1457 48.3278 59.0791 48.1908C59.0199 48.0714 57.6 45.2574 53.9513 45.2574C50.3026 45.2574 48.9945 48.089 48.9379 48.2097C48.8914 48.3102 48.7908 48.3693 48.6864 48.3693L48.6851 48.368Z" fill="white"/>
        <path d="M89.0408 77.3614C80.5145 77.3614 73.5781 70.4212 73.5781 61.8898C73.5781 61.7365 73.7026 61.6133 73.8548 61.6133C74.007 61.6133 74.1315 61.7377 74.1315 61.8898C74.1315 70.1157 80.8189 76.8071 89.0395 76.8071C89.1929 76.8071 89.3162 76.9315 89.3162 77.0836C89.3162 77.2357 89.1917 77.3601 89.0395 77.3601L89.0408 77.3614Z" fill="white" fill-opacity="0.3"/>
        <path d="M247.959 46.067C247.931 46.067 247.903 46.0633 247.875 46.0532C247.729 46.0067 247.648 45.8509 247.695 45.7051L249.607 39.7288C249.629 39.6584 249.678 39.6006 249.744 39.5667C249.809 39.5328 249.885 39.5265 249.955 39.5491C252.525 40.3748 255.26 40.1499 257.66 38.9169C260.062 37.6815 261.84 35.5838 262.665 33.0086C264.365 27.6959 261.43 21.9862 256.121 20.2806C252.046 18.971 247.57 20.3812 244.985 23.7897C244.893 23.9104 244.718 23.9355 244.596 23.8425C244.474 23.7495 244.45 23.576 244.543 23.4541C247.271 19.8583 251.991 18.3715 256.29 19.7515C261.889 21.55 264.985 27.5715 263.192 33.1745C262.323 35.8905 260.448 38.1037 257.914 39.4071C255.465 40.6652 252.684 40.9278 250.052 40.1549L248.223 45.871C248.186 45.9891 248.077 46.0633 247.959 46.0633V46.067Z" fill="white" fill-opacity="0.2"/>
        <path d="M246.311 51.2444C246.284 51.2444 246.255 51.2406 246.227 51.2305C246.081 51.184 246.001 51.0282 246.047 50.8824L246.845 48.3926C246.891 48.2468 247.046 48.1651 247.193 48.2129C247.339 48.2594 247.42 48.4152 247.373 48.561L246.576 51.0508C246.538 51.1689 246.43 51.2431 246.311 51.2431V51.2444Z" fill="white" fill-opacity="0.2"/>
        <path d="M212.333 52.6317C212.306 52.6317 212.277 52.6279 212.249 52.6179C212.103 52.5714 212.023 52.4155 212.069 52.2697L213.687 47.2147C213.709 47.1444 213.758 47.0865 213.824 47.0526C213.889 47.0187 213.965 47.0124 214.035 47.035C216.197 47.73 218.5 47.5403 220.52 46.5034C222.542 45.464 224.038 43.6981 224.732 41.5301C226.163 37.0583 223.692 32.2522 219.224 30.8169C215.793 29.7146 212.028 30.9023 209.852 33.7704C209.76 33.8911 209.585 33.9162 209.463 33.8232C209.341 33.7302 209.317 33.5568 209.41 33.4348C211.728 30.3782 215.743 29.1151 219.394 30.289C224.152 31.8173 226.785 36.9351 225.26 41.6973C224.522 44.0061 222.928 45.8875 220.774 46.9948C218.705 48.0581 216.357 48.2856 214.132 47.6421L212.597 52.4369C212.56 52.555 212.452 52.6292 212.333 52.6292V52.6317Z" fill="white" fill-opacity="0.2"/>
        <path d="M210.94 57.0095C210.913 57.0095 210.884 57.0057 210.856 56.9956C210.71 56.9491 210.63 56.7933 210.676 56.6475L211.35 54.541C211.397 54.3952 211.552 54.3136 211.699 54.3613C211.845 54.4078 211.925 54.5637 211.879 54.7095L211.205 56.8159C211.167 56.934 211.059 57.0082 210.94 57.0082V57.0095Z" fill="white" fill-opacity="0.2"/>
        <path d="M251.354 138.045C251.325 138.045 251.295 138.04 251.266 138.03C251.121 137.981 251.043 137.824 251.092 137.68L253.059 131.85C253.083 131.78 253.133 131.723 253.199 131.691C253.264 131.658 253.341 131.653 253.41 131.677C255.919 132.523 258.607 132.342 260.979 131.165C263.352 129.99 265.125 127.961 265.972 125.452C267.721 120.272 264.928 114.639 259.75 112.892C255.773 111.551 251.364 112.868 248.777 116.169C248.682 116.29 248.509 116.311 248.388 116.217C248.267 116.122 248.246 115.949 248.34 115.828C251.072 112.343 255.729 110.952 259.928 112.368C265.396 114.213 268.343 120.162 266.498 125.629C265.604 128.278 263.732 130.42 261.227 131.662C258.804 132.862 256.07 133.081 253.498 132.287L251.618 137.857C251.579 137.972 251.471 138.045 251.355 138.045H251.354Z" fill="white" fill-opacity="0.2"/>
        <path d="M249.661 143.092C249.632 143.092 249.602 143.087 249.573 143.077C249.428 143.028 249.35 142.871 249.399 142.726L250.219 140.298C250.269 140.152 250.426 140.074 250.57 140.125C250.715 140.174 250.793 140.331 250.744 140.475L249.924 142.904C249.885 143.019 249.777 143.092 249.661 143.092Z" fill="white" fill-opacity="0.2"/>
        <path d="M35.6298 154.444C55.1545 154.444 70.9823 138.607 70.9823 119.071C70.9823 99.5359 55.1545 83.6992 35.6298 83.6992C16.1052 83.6992 0.277344 99.5359 0.277344 119.071C0.277344 138.607 16.1052 154.444 35.6298 154.444Z" fill="#2A2A40"/>
        <path d="M49.6559 133.756C50.5313 133.128 51.3627 132.426 52.1412 131.656C52.301 131.782 52.467 131.902 52.6443 132.01C55.0303 133.466 58.1432 132.711 59.5971 130.324C61.0511 127.937 60.2964 124.823 57.9117 123.367C57.7344 123.259 57.5508 123.166 57.3659 123.082C57.9922 121.085 58.3054 119.034 58.3155 116.995C58.5167 116.971 58.7192 116.939 58.9217 116.89C61.6372 116.231 63.3049 113.495 62.6459 110.778C61.9881 108.06 59.2525 106.392 56.537 107.051C56.3345 107.1 56.1408 107.164 55.9497 107.236C55.0076 105.428 53.7901 103.748 52.3186 102.26C52.4444 102.1 52.5651 101.935 52.6733 101.757C54.1272 99.3706 53.3726 96.2561 50.9866 94.8007C48.6007 93.3453 45.4878 94.1007 44.0339 96.4874C43.9257 96.6659 43.8326 96.8481 43.7496 97.0329C41.7536 96.4057 39.7035 96.0928 37.6659 96.0827C37.642 95.8803 37.6106 95.6793 37.5615 95.4757C36.9025 92.7584 34.1682 91.0906 31.4527 91.7491C28.7373 92.4077 27.0695 95.1438 27.7286 97.8611C27.7776 98.0635 27.8417 98.2583 27.9122 98.4481C26.906 98.9734 25.94 99.583 25.0244 100.275L26.6884 106.709L30.1673 107.094L31.8803 109.364C34.8662 107.11 39.0444 106.776 42.4315 108.843C46.8613 111.545 48.2636 117.331 45.562 121.762C44.9269 122.805 44.1206 123.68 43.2012 124.374L44.3584 129.861L47.2424 130.248L49.6559 133.757V133.756Z" fill="#565674"/>
        <path d="M49.6543 134.034C49.6379 134.034 49.6229 134.033 49.6065 134.03C49.5336 134.018 49.4682 133.976 49.4254 133.915L47.081 130.507L44.319 130.138C44.2033 130.123 44.1089 130.035 44.085 129.92L42.9279 124.433C42.9053 124.329 42.9468 124.219 43.0323 124.155C43.9492 123.463 44.7202 122.611 45.3226 121.62C47.94 117.324 46.5766 111.7 42.284 109.081C39.0692 107.12 35.0494 107.318 32.0434 109.586C31.9843 109.63 31.9101 109.65 31.8384 109.639C31.7655 109.629 31.7001 109.59 31.6561 109.531L30.016 107.355L26.6566 106.985C26.5421 106.972 26.4478 106.89 26.4188 106.778L24.7549 100.345C24.7272 100.237 24.7662 100.122 24.8555 100.054C25.712 99.4071 26.6239 98.8227 27.5697 98.3162C27.5244 98.1792 27.4867 98.051 27.4577 97.9266C26.7647 95.066 28.5268 92.174 31.3857 91.4803C32.7717 91.1447 34.2042 91.3684 35.4217 92.1099C36.6392 92.8527 37.4932 94.0241 37.829 95.4104C37.8592 95.5361 37.8856 95.6655 37.907 95.8075C39.8377 95.8402 41.7507 96.1381 43.6021 96.6974C43.6662 96.5692 43.7304 96.4523 43.797 96.3429C44.5391 95.1251 45.7113 94.2692 47.0973 93.9336C48.4808 93.5968 49.9146 93.8218 51.1309 94.5633C53.6426 96.0954 54.44 99.387 52.9093 101.901C52.8414 102.011 52.7685 102.121 52.6829 102.237C54.0274 103.629 55.1695 105.194 56.0813 106.895C56.2159 106.85 56.3442 106.814 56.47 106.783C57.8547 106.448 59.2886 106.672 60.5061 107.413C61.7235 108.156 62.5775 109.327 62.9134 110.714C63.6064 113.574 61.8443 116.466 58.9854 117.16C58.8597 117.19 58.7289 117.216 58.588 117.238C58.5553 119.17 58.2572 121.084 57.6988 122.936C57.8271 123 57.9428 123.064 58.0535 123.132C60.5652 124.664 61.3626 127.956 59.8319 130.468C59.0898 131.686 57.9176 132.542 56.5316 132.878C55.1468 133.215 53.7143 132.99 52.498 132.247C52.3886 132.18 52.2779 132.106 52.1622 132.022C51.429 132.731 50.6404 133.389 49.8165 133.983C49.7687 134.016 49.7121 134.034 49.6543 134.034ZM44.5881 129.614L47.2772 129.974C47.3551 129.985 47.4243 130.027 47.4683 130.093L49.721 133.367C50.5045 132.787 51.2516 132.148 51.9446 131.461C52.0453 131.363 52.2025 131.354 52.3119 131.44C52.4817 131.574 52.6376 131.684 52.7873 131.776C53.8778 132.44 55.1619 132.641 56.4021 132.341C57.6447 132.041 58.6949 131.273 59.3603 130.182C60.7324 127.928 60.0181 124.979 57.7667 123.606C57.6158 123.514 57.4523 123.429 57.251 123.337C57.124 123.279 57.0599 123.136 57.1014 123.003C57.7126 121.056 58.0283 119.035 58.0384 116.996C58.0384 116.857 58.144 116.739 58.2836 116.722C58.4962 116.697 58.6836 116.665 58.8572 116.623C61.4192 116.001 62.9989 113.409 62.3776 110.846C62.077 109.604 61.3097 108.553 60.2193 107.887C59.1288 107.222 57.8447 107.021 56.6033 107.323C56.431 107.364 56.2499 107.422 56.0486 107.497C55.9178 107.546 55.7707 107.49 55.7053 107.365C54.7632 105.559 53.5583 103.908 52.1232 102.456C52.0251 102.357 52.0163 102.2 52.1019 102.09C52.2389 101.916 52.3459 101.765 52.4377 101.614C53.8099 99.3619 53.0955 96.4108 50.8441 95.0371C49.7549 94.3722 48.4708 94.1711 47.2294 94.4728C45.988 94.7732 44.9378 95.5411 44.2724 96.632C44.1806 96.7816 44.0926 96.9513 44.0033 97.1486C43.9454 97.2755 43.8008 97.3396 43.6675 97.2981C41.7217 96.6861 39.7018 96.3719 37.6655 96.3605C37.5259 96.3605 37.4077 96.255 37.3913 96.1167C37.3649 95.8968 37.3335 95.7145 37.292 95.5436C36.9914 94.3019 36.2242 93.2512 35.1337 92.585C34.0433 91.9202 32.7591 91.7191 31.5177 92.0207C28.9544 92.6428 27.376 95.2344 27.9973 97.7984C28.0388 97.9705 28.0942 98.1465 28.1721 98.3539C28.2212 98.4846 28.1646 98.6316 28.0413 98.697C27.1005 99.1872 26.1937 99.7565 25.3397 100.389L26.9094 106.458L30.1983 106.821C30.2738 106.83 30.343 106.869 30.3895 106.929L31.9365 108.982C35.0998 106.731 39.2453 106.577 42.5757 108.61C47.1288 111.387 48.5752 117.353 45.7993 121.909C45.1906 122.909 44.4208 123.776 43.509 124.491L44.5906 129.616L44.5881 129.614Z" fill="white"/>
        <path d="M39.1288 127.605C36.143 129.859 31.9648 130.193 28.5777 128.125C24.1479 125.423 22.7455 119.638 25.4472 115.206C26.0823 114.163 26.8885 113.288 27.8079 112.595L26.2194 110.488L22.5644 109.978L20.9533 103.508C20.2238 104.058 19.527 104.662 18.8679 105.314C18.7082 105.188 18.5422 105.068 18.3648 104.959C15.9789 103.504 12.866 104.259 11.4121 106.646C9.95812 109.033 10.7128 112.147 13.0987 113.603C13.276 113.711 13.4597 113.804 13.6446 113.888C13.0182 115.885 12.705 117.936 12.695 119.975C12.4937 119.999 12.2912 120.031 12.0887 120.08C9.37328 120.739 7.70552 123.475 8.36457 126.192C9.02363 128.91 11.7579 130.577 14.4734 129.919C14.6759 129.87 14.8696 129.806 15.0608 129.734C16.0041 131.541 17.2203 133.222 18.6919 134.71C18.5661 134.869 18.4453 135.035 18.3372 135.213C16.8832 137.599 17.6379 140.714 20.0238 142.169C22.4097 143.625 25.5226 142.869 26.9766 140.483C27.0847 140.304 27.1778 140.122 27.2608 139.937C29.2569 140.564 31.307 140.877 33.3445 140.887C33.3684 141.09 33.3998 141.291 33.4489 141.494C34.1067 144.212 36.8423 145.879 39.5577 145.221C42.2732 144.562 43.9409 141.826 43.2819 139.109C43.2328 138.906 43.1687 138.712 43.0983 138.522C43.9586 138.073 44.7899 137.562 45.5861 136.99L43.0832 133.353L40.5212 133.334L39.1314 127.608L39.1288 127.605Z" fill="#565674"/>
        <path d="M38.355 145.639C37.3866 145.639 36.4345 145.374 35.5867 144.856C34.3693 144.114 33.5153 142.942 33.1794 141.556C33.1493 141.431 33.1228 141.301 33.1015 141.159C31.1708 141.127 29.2578 140.828 27.4064 140.269C27.3423 140.397 27.2781 140.513 27.2115 140.623C26.4694 141.841 25.2972 142.697 23.9112 143.033C22.5264 143.37 21.0938 143.145 19.8776 142.402C17.3659 140.87 16.5672 137.578 18.0992 135.064C18.1671 134.954 18.24 134.843 18.3256 134.728C16.981 133.337 15.8403 131.773 14.9271 130.07C14.7913 130.115 14.663 130.153 14.5385 130.183C13.1537 130.518 11.7199 130.295 10.5024 129.553C9.28493 128.81 8.43093 127.639 8.09511 126.253C7.4021 123.392 9.16419 120.5 12.023 119.806C12.1475 119.776 12.2783 119.75 12.4205 119.729C12.4532 117.797 12.7513 115.883 13.3097 114.03C13.1814 113.966 13.0657 113.902 12.955 113.834C10.4433 112.302 9.64465 109.01 11.1766 106.497C11.9186 105.279 13.0908 104.423 14.4769 104.087C15.8604 103.752 17.2942 103.975 18.5104 104.718C18.6199 104.785 18.7305 104.859 18.8463 104.944C19.4588 104.352 20.1103 103.794 20.7869 103.283C20.8612 103.226 20.9593 103.211 21.046 103.243C21.1341 103.274 21.2007 103.347 21.2221 103.436L22.788 109.725L26.2581 110.211C26.3311 110.221 26.3965 110.26 26.4405 110.319L28.029 112.425C28.1208 112.547 28.0969 112.72 27.9749 112.812C27.058 113.505 26.287 114.357 25.6846 115.347C23.0672 119.643 24.4306 125.267 28.7233 127.887C31.938 129.847 35.9578 129.649 38.9638 127.381C39.038 127.325 39.1361 127.31 39.2241 127.341C39.3122 127.373 39.3788 127.445 39.4002 127.537L40.7397 133.053L43.0854 133.071C43.1759 133.071 43.2602 133.116 43.3118 133.192L45.8147 136.829C45.9002 136.953 45.87 137.123 45.748 137.211C45.0122 137.739 44.2375 138.223 43.4388 138.651C43.4841 138.787 43.5206 138.915 43.5507 139.041C44.2438 141.902 42.4817 144.793 39.6228 145.487C39.2027 145.589 38.7776 145.639 38.355 145.639ZM27.2593 139.658C27.2869 139.658 27.3146 139.662 27.3423 139.671C29.2893 140.283 31.3079 140.598 33.3442 140.608C33.4838 140.608 33.602 140.714 33.6184 140.852C33.6435 141.068 33.6762 141.256 33.7177 141.425C34.0183 142.667 34.7856 143.718 35.876 144.384C36.9665 145.05 38.2519 145.25 39.492 144.948C42.0553 144.326 43.6338 141.734 43.0124 139.17C42.9709 138.998 42.9131 138.817 42.8376 138.615C42.7886 138.484 42.8452 138.337 42.9684 138.272C43.7381 137.871 44.4878 137.416 45.2022 136.917L42.937 133.623L40.5183 133.604C40.3913 133.604 40.2819 133.516 40.2517 133.393L38.9587 128.068C35.8119 130.241 31.7255 130.366 28.4352 128.359C23.8822 125.582 22.4358 119.615 25.2117 115.059C25.8028 114.089 26.5461 113.243 27.424 112.541L26.0682 110.743L22.5264 110.248C22.4145 110.233 22.3226 110.15 22.2962 110.041L20.7882 103.982C20.187 104.456 19.6084 104.967 19.0651 105.506C18.9657 105.606 18.8085 105.614 18.6978 105.526C18.528 105.392 18.3721 105.283 18.2224 105.191C17.132 104.526 15.8478 104.325 14.6077 104.625C13.3663 104.926 12.3161 105.694 11.6507 106.784C10.2785 109.037 10.9929 111.988 13.2443 113.361C13.394 113.453 13.5587 113.539 13.76 113.63C13.887 113.688 13.9511 113.831 13.9096 113.965C13.2984 115.912 12.9827 117.933 12.9726 119.971C12.9726 120.111 12.867 120.229 12.7286 120.245C12.5098 120.27 12.3274 120.303 12.1551 120.344C9.59182 120.967 8.01336 123.558 8.63468 126.122C8.93528 127.364 9.7025 128.414 10.793 129.079C11.8834 129.744 13.1688 129.945 14.409 129.644C14.5813 129.602 14.7574 129.546 14.9636 129.469C15.0944 129.42 15.2416 129.477 15.307 129.601C16.249 131.408 17.4539 133.06 18.889 134.51C18.9871 134.609 18.9959 134.767 18.9091 134.876C18.772 135.049 18.6651 135.2 18.5733 135.351C17.1999 137.604 17.9155 140.554 20.1669 141.928C21.2561 142.593 22.5402 142.793 23.7816 142.494C25.0243 142.193 26.0745 141.425 26.7398 140.334C26.8316 140.183 26.9172 140.019 27.009 139.818C27.0555 139.717 27.1549 139.656 27.2605 139.656L27.2593 139.658Z" fill="white"/>
        <path d="M35.2656 154.723H35.2631C34.1336 154.713 32.9941 154.648 31.876 154.531C31.7238 154.514 31.6131 154.379 31.6295 154.227C31.6458 154.074 31.7829 153.965 31.9338 153.98C33.0343 154.096 34.1562 154.16 35.2668 154.17C35.4203 154.171 35.5423 154.297 35.541 154.449C35.5398 154.601 35.4152 154.723 35.2643 154.723H35.2656ZM38.6288 154.594C38.4866 154.594 38.3659 154.484 38.3533 154.341C38.3395 154.189 38.4527 154.054 38.6049 154.042C39.1482 153.995 39.7004 153.935 40.245 153.862C40.8047 153.788 41.3669 153.699 41.9152 153.599C42.0687 153.573 42.2095 153.672 42.2372 153.822C42.2649 153.973 42.1643 154.116 42.0146 154.144C41.4574 154.244 40.8864 154.335 40.3179 154.41C39.7632 154.484 39.2036 154.545 38.6514 154.592C38.6439 154.592 38.6351 154.592 38.6275 154.592L38.6288 154.594ZM28.5782 154.019C28.5593 154.019 28.5417 154.018 28.5228 154.013C27.4198 153.788 26.3143 153.508 25.2339 153.177C25.088 153.133 25.0049 152.977 25.0502 152.831C25.0942 152.686 25.2502 152.603 25.3961 152.648C26.4589 152.972 27.5481 153.249 28.6335 153.47C28.7832 153.5 28.88 153.646 28.8499 153.797C28.8234 153.929 28.7077 154.018 28.5782 154.018V154.019ZM45.2445 153.391C45.1237 153.391 45.013 153.312 44.9778 153.19C44.9363 153.043 45.0218 152.889 45.169 152.848C46.2381 152.547 47.3034 152.192 48.336 151.791C48.4794 151.737 48.6391 151.806 48.6944 151.949C48.7498 152.092 48.6793 152.252 48.536 152.307C47.487 152.715 46.4054 153.075 45.3187 153.381C45.2935 153.388 45.2684 153.391 45.2432 153.391H45.2445ZM22.1474 152.053C22.1122 152.053 22.0757 152.047 22.0417 152.032C21.0003 151.601 19.9677 151.115 18.9728 150.588C18.837 150.516 18.7867 150.349 18.8584 150.213C18.9301 150.078 19.0974 150.027 19.2332 150.099C20.213 150.618 21.2292 151.097 22.2543 151.522C22.3951 151.58 22.4631 151.742 22.4039 151.884C22.3599 151.991 22.2568 152.055 22.1486 152.055L22.1474 152.053ZM51.513 150.96C51.4112 150.96 51.3143 150.905 51.2653 150.808C51.1961 150.671 51.2514 150.505 51.3885 150.436C52.3784 149.938 53.3569 149.385 54.2951 148.795C54.4247 148.713 54.5957 148.752 54.6775 148.881C54.7593 149.011 54.7203 149.182 54.5907 149.263C53.6374 149.864 52.6437 150.426 51.6375 150.931C51.5973 150.951 51.5558 150.96 51.513 150.96ZM16.2058 148.905C16.153 148.905 16.1002 148.89 16.0536 148.86C15.1116 148.24 14.1897 147.568 13.313 146.863C13.1935 146.767 13.1747 146.593 13.2703 146.473C13.3671 146.355 13.5407 146.335 13.6602 146.43C14.523 147.124 15.4311 147.787 16.358 148.397C16.4863 148.482 16.5215 148.653 16.4372 148.781C16.3844 148.861 16.2951 148.905 16.2058 148.905ZM57.2018 147.378C57.1188 147.378 57.037 147.342 56.9829 147.27C56.8899 147.149 56.9112 146.975 57.0332 146.882C57.9099 146.204 58.7651 145.476 59.5751 144.719C59.6871 144.614 59.8619 144.619 59.9663 144.731C60.0707 144.843 60.0656 145.018 59.9537 145.122C59.1311 145.893 58.2621 146.632 57.3716 147.319C57.3213 147.358 57.2609 147.377 57.203 147.377L57.2018 147.378ZM10.9661 144.693C10.8956 144.693 10.8265 144.667 10.7724 144.616C9.96367 143.829 9.18513 142.996 8.45689 142.138C8.35753 142.021 8.37263 141.847 8.48834 141.747C8.60531 141.648 8.78013 141.663 8.87949 141.779C9.59641 142.623 10.3636 143.443 11.1585 144.217C11.2679 144.324 11.2705 144.499 11.1635 144.608C11.1095 144.663 11.0378 144.692 10.9648 144.692L10.9661 144.693ZM62.1082 142.784C62.0428 142.784 61.9774 142.762 61.9246 142.715C61.8101 142.613 61.7988 142.439 61.9007 142.324C62.6352 141.494 63.337 140.618 63.9898 139.72C64.0791 139.596 64.2527 139.569 64.3772 139.659C64.5017 139.748 64.5281 139.921 64.4388 140.046C63.776 140.957 63.0616 141.847 62.317 142.69C62.2617 142.752 62.1862 142.783 62.1095 142.783L62.1082 142.784ZM6.61557 139.572C6.52753 139.572 6.442 139.53 6.38792 139.454C5.7427 138.529 5.13647 137.563 4.58306 136.584C4.5076 136.451 4.55539 136.283 4.68871 136.207C4.82203 136.132 4.99057 136.18 5.06603 136.313C5.60938 137.277 6.2068 138.227 6.84196 139.138C6.92874 139.264 6.89856 139.436 6.77278 139.524C6.72499 139.558 6.66965 139.574 6.61431 139.574L6.61557 139.572ZM66.0625 137.35C66.0147 137.35 65.9657 137.337 65.9217 137.311C65.7896 137.233 65.7468 137.063 65.8248 136.931C66.3896 135.976 66.9153 134.983 67.3869 133.982C67.4523 133.843 67.6171 133.783 67.7555 133.848C67.8938 133.914 67.9529 134.078 67.8888 134.217C67.4096 135.235 66.8763 136.243 66.3015 137.213C66.2499 137.3 66.1581 137.349 66.0625 137.349V137.35ZM3.31526 133.719C3.20961 133.719 3.10774 133.657 3.06246 133.554C2.6059 132.526 2.19336 131.463 1.83742 130.393C1.78837 130.247 1.86761 130.092 2.01225 130.043C2.15689 129.995 2.3141 130.073 2.36316 130.217C2.71406 131.269 3.12031 132.316 3.56933 133.329C3.63096 133.469 3.56933 133.632 3.42846 133.695C3.39199 133.711 3.35425 133.719 3.31652 133.719H3.31526ZM68.9226 131.267C68.8912 131.267 68.8598 131.262 68.8296 131.25C68.6849 131.199 68.6107 131.041 68.6623 130.896C69.0371 129.852 69.3654 128.777 69.637 127.704C69.6748 127.555 69.8244 127.466 69.9741 127.504C70.1225 127.542 70.2118 127.692 70.1741 127.841C69.8974 128.93 69.5641 130.023 69.183 131.083C69.1427 131.196 69.0358 131.267 68.9226 131.267ZM1.18969 127.344C1.06391 127.344 0.949459 127.257 0.920531 127.129C0.667726 126.036 0.463972 124.913 0.315559 123.795C0.295435 123.644 0.402343 123.505 0.553272 123.484C0.7042 123.466 0.843809 123.571 0.863933 123.722C1.01109 124.824 1.21233 125.929 1.4601 127.006C1.49406 127.156 1.40099 127.304 1.25257 127.338C1.23119 127.343 1.21107 127.345 1.18969 127.345V127.344ZM70.5766 124.753C70.5627 124.753 70.5489 124.753 70.5338 124.749C70.3829 124.726 70.2785 124.584 70.3024 124.433C70.4709 123.339 70.5891 122.223 70.652 121.114C70.6608 120.961 70.7929 120.849 70.9438 120.854C71.0973 120.863 71.213 120.993 71.2042 121.146C71.14 122.27 71.0205 123.405 70.8495 124.518C70.8281 124.655 70.7099 124.753 70.5766 124.753ZM0.299209 120.684C0.150796 120.684 0.0287949 120.567 0.0225062 120.418C0.00489791 119.955 -0.00390625 119.486 -0.00390625 119.026C-0.00390625 118.362 0.0149598 117.689 0.0526919 117.027C0.0614961 116.874 0.193559 116.758 0.344487 116.767C0.496673 116.776 0.613643 116.906 0.606097 117.058C0.569622 117.709 0.550756 118.372 0.550756 119.026C0.550756 119.479 0.55956 119.94 0.577169 120.396C0.583457 120.55 0.463972 120.678 0.311786 120.684C0.308013 120.684 0.30424 120.684 0.300466 120.684H0.299209ZM70.9602 118.045C70.8118 118.045 70.6898 117.928 70.6835 117.778C70.6407 116.672 70.5451 115.554 70.3992 114.453L70.3917 114.39C70.3716 114.238 70.4785 114.1 70.6306 114.08C70.7816 114.059 70.9212 114.166 70.9413 114.318L70.9489 114.38C71.0973 115.499 71.1941 116.635 71.2369 117.757C71.2432 117.91 71.1237 118.039 70.9702 118.044C70.9665 118.044 70.9627 118.044 70.9589 118.044L70.9602 118.045ZM0.679045 113.975C0.66521 113.975 0.651375 113.975 0.636282 113.972C0.485354 113.949 0.380962 113.807 0.404858 113.656C0.575911 112.543 0.802304 111.424 1.07775 110.333C1.11548 110.185 1.26641 110.097 1.41482 110.132C1.56323 110.17 1.65253 110.32 1.61606 110.469C1.34439 111.543 1.12177 112.643 0.953232 113.74C0.931851 113.877 0.814881 113.975 0.680303 113.975H0.679045ZM70.0634 111.322C69.9376 111.322 69.8232 111.235 69.7943 111.107C69.544 110.025 69.2383 108.945 68.8874 107.896C68.8384 107.751 68.9176 107.594 69.0622 107.545C69.2081 107.496 69.3641 107.576 69.4132 107.72C69.7691 108.786 70.0798 109.883 70.3338 110.982C70.3678 111.131 70.276 111.279 70.1263 111.313C70.1049 111.318 70.0848 111.321 70.0634 111.321V111.322ZM2.32668 107.46C2.29524 107.46 2.26379 107.455 2.23361 107.444C2.08897 107.392 2.01476 107.234 2.06633 107.09C2.44491 106.03 2.88009 104.975 3.35803 103.956C3.42343 103.818 3.58819 103.757 3.72654 103.823C3.86489 103.888 3.92527 104.053 3.85986 104.191C3.38947 105.195 2.96058 106.233 2.58829 107.276C2.54804 107.389 2.44114 107.46 2.32794 107.46H2.32668ZM67.9315 104.95C67.8246 104.95 67.724 104.888 67.6775 104.785C67.2272 103.772 66.7216 102.769 66.177 101.804C66.1015 101.671 66.1493 101.503 66.2826 101.427C66.416 101.353 66.5845 101.399 66.66 101.533C67.2134 102.513 67.7265 103.531 68.1843 104.56C68.246 104.7 68.1843 104.863 68.0435 104.926C68.007 104.942 67.9693 104.95 67.9315 104.95ZM5.18049 101.374C5.13269 101.374 5.08364 101.362 5.03962 101.335C4.90756 101.257 4.86354 101.088 4.94152 100.956C5.51505 99.9855 6.14014 99.0316 6.80171 98.1216C6.89101 97.9985 7.06458 97.9696 7.1891 98.06C7.31361 98.1493 7.34002 98.3227 7.25072 98.4472C6.59922 99.3445 5.98293 100.283 5.41946 101.239C5.36789 101.327 5.27482 101.374 5.18049 101.374ZM64.6262 99.0994C64.5394 99.0994 64.4526 99.058 64.3986 98.9813C63.7647 98.0739 63.0779 97.1853 62.3585 96.3395C62.2591 96.2238 62.273 96.0479 62.3899 95.9498C62.5057 95.8505 62.6805 95.8644 62.7798 95.9812C63.5106 96.8397 64.2074 97.7421 64.8526 98.6646C64.9394 98.7903 64.9092 98.9624 64.7834 99.0504C64.7356 99.0844 64.6803 99.1007 64.6249 99.1007L64.6262 99.0994ZM9.12979 95.936C9.06438 95.936 8.99898 95.9134 8.94616 95.8669C8.8317 95.7663 8.82038 95.5904 8.921 95.476C9.66558 94.6314 10.4605 93.812 11.2818 93.0415C11.3937 92.9372 11.5685 92.9422 11.6729 93.0541C11.7773 93.166 11.7723 93.3406 11.6604 93.445C10.8516 94.2028 10.0693 95.0097 9.33605 95.8417C9.28197 95.9033 9.20525 95.936 9.12853 95.936H9.12979ZM60.2707 93.9816C60.2015 93.9816 60.1311 93.9552 60.077 93.9037C59.2821 93.132 58.4394 92.388 57.5741 91.6929C57.4546 91.5974 57.4357 91.4227 57.5313 91.3033C57.6269 91.1839 57.8017 91.1651 57.9212 91.2606C58.8004 91.9657 59.6556 92.721 60.4631 93.5053C60.5725 93.6121 60.575 93.7868 60.4681 93.8962C60.414 93.9515 60.3424 93.9804 60.2694 93.9804L60.2707 93.9816ZM14.0337 91.3373C13.9507 91.3373 13.8689 91.3008 13.8149 91.2304C13.7218 91.1098 13.7432 90.9351 13.8639 90.8421C14.7556 90.1521 15.6901 89.4985 16.6423 88.8978C16.7718 88.8161 16.9429 88.855 17.0246 88.9845C17.1064 89.1139 17.0674 89.2849 16.9378 89.3665C16.0008 89.9573 15.0801 90.6008 14.2035 91.2807C14.1532 91.3197 14.0928 91.3385 14.0337 91.3385V91.3373ZM55.0272 89.7738C54.9743 89.7738 54.9228 89.7587 54.875 89.7285C53.948 89.119 52.9808 88.5471 52.001 88.0293C51.8652 87.9576 51.8136 87.7905 51.8853 87.6547C51.957 87.519 52.1243 87.4675 52.2601 87.5391C53.2563 88.0657 54.2385 88.6464 55.1793 89.266C55.3076 89.3502 55.3428 89.5211 55.2586 89.6493C55.2057 89.7298 55.1165 89.7738 55.0272 89.7738ZM19.7187 87.7503C19.6168 87.7503 19.52 87.695 19.4709 87.5982C19.4017 87.4612 19.4571 87.2953 19.5929 87.2262C20.6004 86.7184 21.643 86.2546 22.692 85.8462C22.8341 85.7896 22.9951 85.8612 23.0504 86.0033C23.1058 86.1453 23.0353 86.3062 22.8932 86.3615C21.8606 86.7637 20.8343 87.2199 19.8432 87.7201C19.8029 87.7402 19.7602 87.7503 19.7187 87.7503ZM49.0831 86.6304C49.0479 86.6304 49.0114 86.6241 48.9774 86.6091C47.9524 86.1855 46.8946 85.8072 45.8331 85.4842C45.6872 85.4402 45.6042 85.2844 45.6495 85.1386C45.6935 84.9928 45.8482 84.9098 45.9953 84.9551C47.0732 85.2831 48.1486 85.6677 49.1887 86.0988C49.3296 86.1566 49.3975 86.3187 49.3384 86.4608C49.2944 86.5676 49.1912 86.6317 49.0831 86.6317V86.6304ZM25.9835 85.3133C25.8627 85.3133 25.752 85.2341 25.7168 85.1122C25.6753 84.9651 25.7609 84.8118 25.908 84.7703C26.9884 84.4649 28.1002 84.2073 29.2121 84.0049C29.363 83.976 29.5064 84.0765 29.5341 84.2274C29.5617 84.3782 29.4624 84.5215 29.3114 84.5491C28.2172 84.749 27.123 85.0028 26.0589 85.3032C26.0338 85.3108 26.0086 85.3133 25.9835 85.3133ZM42.651 84.671C42.6334 84.671 42.6145 84.6698 42.5957 84.666C41.5077 84.4448 40.3971 84.2751 39.2941 84.1608C39.1419 84.1457 39.0312 84.0087 39.0476 83.8566C39.0627 83.7045 39.1973 83.5902 39.352 83.6103C40.4726 83.7272 41.6008 83.8993 42.7063 84.1231C42.856 84.1532 42.9529 84.299 42.9227 84.4498C42.8963 84.5818 42.7806 84.6723 42.651 84.6723V84.671ZM32.5992 84.1055C32.457 84.1055 32.3363 83.9974 32.3237 83.8528C32.3099 83.7008 32.4231 83.5663 32.5753 83.5525C33.6041 83.4632 34.6468 83.418 35.6756 83.418H35.9661C36.1196 83.4205 36.2416 83.5449 36.2403 83.6982C36.2391 83.8503 36.1158 83.9722 35.9636 83.9722H35.6756C34.6631 83.9722 33.6355 84.0162 32.6231 84.1042C32.6155 84.1042 32.6067 84.1042 32.5992 84.1042V84.1055Z" fill="#C2D24B"/>
    </g>
    <defs>
        <clipPath id="clip0_344_15063">
            <rect width="345" height="230" fill="white"/>
        </clipPath>
    </defs>
</svg>
