<svg width="244" height="34" viewBox="0 0 244 34" fill="none" xmlns="http://www.w3.org/2000/svg">
<path d="M32.5674 1.43258H1.43258V32.5674H32.5674V1.43258ZM0 0V34H34V0H0Z" fill="#4776E6"/>
<path d="M32.5674 1.43258H1.43258V32.5674H32.5674V1.43258ZM0 0V34H34V0H0Z" stroke="black"/>
<path d="M27.6007 6.39895H6.3984V27.6012H27.6007V6.39895ZM4.96582 4.96637V29.0338H29.0332V4.96637H4.96582Z" fill="#4776E6"/>
<path d="M27.6007 6.39895H6.3984V27.6012H27.6007V6.39895ZM4.96582 4.96637V29.0338H29.0332V4.96637H4.96582Z" stroke="black"/>
<path fill-rule="evenodd" clip-rule="evenodd" d="M6.80589 28.2945L1.59893 33.5014L0.585938 32.4884L5.7929 27.2815L6.80589 28.2945Z" fill="#4776E6"/>
<path fill-rule="evenodd" clip-rule="evenodd" d="M33.0487 1.81465L28.0791 6.78094L27.0664 5.76761L32.036 0.801315L33.0487 1.81465Z" fill="#4776E6"/>
<path fill-rule="evenodd" clip-rule="evenodd" d="M23.9714 6.30354L6.20733 24.0676L5.19434 23.0546L22.9584 5.29055L23.9714 6.30354Z" fill="#4776E6"/>
<path fill-rule="evenodd" clip-rule="evenodd" d="M29.0331 12.0339L12.3196 28.7474L11.3066 27.7344L28.0201 11.0209L29.0331 12.0339Z" fill="#4776E6"/>
<path fill-rule="evenodd" clip-rule="evenodd" d="M28.5561 27.41L34.0032 32.8572L32.9902 33.8702L27.5431 28.423L28.5561 27.41Z" fill="#4776E6"/>
<path fill-rule="evenodd" clip-rule="evenodd" d="M1.62344 0.381881L7.07061 5.82905L6.05762 6.84204L0.610447 1.39487L1.62344 0.381881Z" fill="#4776E6"/>
<path fill-rule="evenodd" clip-rule="evenodd" d="M16.2351 13.4662L6.20703 13.4662V12.0336L16.2351 12.0336V13.4662Z" fill="#4776E6"/>
<path fill-rule="evenodd" clip-rule="evenodd" d="M28.0781 22.3482H18.623V20.9156H28.0781V22.3482Z" fill="#4776E6"/>
<path d="M43.2871 30.4992V4.10098L45.1526 3.22104H56.3102V3.39703L54.8847 6.42403H46.8069V14.9067H56.3102V15.0827L54.8847 18.1097H46.8069V28.9153L43.4631 30.4992H43.2871Z" fill="#33353A"/>
<path d="M65.4363 26.6275H69.484C70.6573 26.6275 71.2439 25.9235 71.2439 24.5156V15.7162C71.2439 14.3083 70.6573 13.6044 69.484 13.6044H65.4363C64.263 13.6044 63.6764 14.3083 63.6764 15.7162V24.5156C63.6764 25.9235 64.263 26.6275 65.4363 26.6275ZM65.4363 29.7953C61.9165 29.7953 60.1566 28.0354 60.1566 24.5156V15.7162C60.1566 12.1964 61.9165 10.4366 65.4363 10.4366H69.484C73.0038 10.4366 74.7637 12.1964 74.7637 15.7162V24.5156C74.7637 28.0354 73.0038 29.7953 69.484 29.7953H65.4363Z" fill="#33353A"/>
<path d="M84.2417 29.7953C80.7219 29.7953 78.9621 28.0354 78.9621 24.5156V11.3165L82.3058 9.73261H82.4818V24.5156C82.4818 25.9235 83.0685 26.6275 84.2417 26.6275H88.2894C89.4627 26.6275 90.0493 25.9235 90.0493 24.5156V11.3165L93.3931 9.73261H93.5691V24.5156C93.5691 28.0354 91.8092 29.7953 88.2894 29.7953H84.2417Z" fill="#33353A"/>
<path d="M97.7675 30.4992V15.7162C97.7675 12.1964 99.5274 10.4366 103.047 10.4366H107.095C110.615 10.4366 112.374 12.1964 112.374 15.7162V28.9153L109.031 30.4992H108.855V15.7162C108.855 14.3083 108.268 13.6044 107.095 13.6044H103.047C101.874 13.6044 101.287 14.3083 101.287 15.7162V28.9153L97.9435 30.4992H97.7675Z" fill="#33353A"/>
<path d="M121.853 29.7953C118.333 29.7953 116.573 28.0354 116.573 24.5156V15.7162C116.573 12.1964 118.333 10.4366 121.853 10.4366H125.9C126.698 10.4366 127.285 10.6184 127.66 10.9821V4.10098L131.004 2.51709H131.18V24.5156C131.18 28.0354 129.42 29.7953 125.9 29.7953H121.853ZM121.853 26.6275H125.9C127.074 26.6275 127.66 25.9235 127.66 24.5156V15.7162C127.66 14.3083 127.074 13.6044 125.9 13.6044H121.853C120.679 13.6044 120.093 14.3083 120.093 15.7162V24.5156C120.093 25.9235 120.679 26.6275 121.853 26.6275Z" fill="#33353A"/>
<path d="M141.538 29.7953C138.018 29.7953 136.258 28.0354 136.258 24.5156V15.7162C136.258 12.1964 138.018 10.4366 141.538 10.4366H145.586C149.105 10.4366 150.865 12.1964 150.865 15.7162V16.649L139.831 25.1844C139.995 26.1465 140.564 26.6275 141.538 26.6275H145.586C146.759 26.6275 147.345 25.9235 147.345 24.5156V23.5829L150.689 21.999H150.865V24.5156C150.865 28.0354 149.105 29.7953 145.586 29.7953H141.538ZM139.778 21.5062L147.328 15.417C147.257 14.2086 146.677 13.6044 145.586 13.6044H141.538C140.365 13.6044 139.778 14.3083 139.778 15.7162V21.5062Z" fill="#33353A"/>
<path d="M155.064 30.4992V15.7162C155.064 12.1964 156.824 10.4366 160.343 10.4366H164.743V10.6126L163.335 13.6044H160.343C159.17 13.6044 158.583 14.3083 158.583 15.7162V28.9153L155.24 30.4992H155.064Z" fill="#33353A"/>
<path fill-rule="evenodd" clip-rule="evenodd" d="M42.5654 31.2198V3.64374L44.9903 2.49994H57.0303V3.55802L55.3412 7.14463H47.5269V14.1856H57.0303V15.2436L55.3412 18.8303H47.5269V29.3713L43.6244 31.2198H42.5654ZM46.806 18.1094H54.8839L56.3094 15.0824V14.9064H46.806V6.42378H54.8839L56.3094 3.39678V3.22079H45.1518L43.2863 4.10073V30.499H43.4623L46.806 28.9151V18.1094ZM65.4355 25.9064H69.4832C69.9207 25.9064 70.1296 25.7814 70.2493 25.6378C70.39 25.469 70.5222 25.137 70.5222 24.5154V15.716C70.5222 15.0944 70.39 14.7624 70.2493 14.5935C70.1296 14.4499 69.9207 14.325 69.4832 14.325H65.4355C64.998 14.325 64.789 14.4499 64.6693 14.5935C64.5287 14.7624 64.3964 15.0944 64.3964 15.716V24.5154C64.3964 25.137 64.5287 25.469 64.6693 25.6378C64.789 25.7814 64.998 25.9064 65.4355 25.9064ZM60.966 28.9848C59.9032 27.922 59.435 26.3864 59.435 24.5154V15.716C59.435 13.845 59.9032 12.3093 60.966 11.2465C62.0288 10.1837 63.5645 9.71547 65.4355 9.71547H69.4832C71.3542 9.71547 72.8898 10.1837 73.9527 11.2465C75.0155 12.3093 75.4837 13.845 75.4837 15.716V24.5154C75.4837 26.3864 75.0155 27.922 73.9527 28.9848C72.8898 30.0476 71.3542 30.5159 69.4832 30.5159H65.4355C63.5645 30.5159 62.0288 30.0476 60.966 28.9848ZM78.2404 10.8601L82.1429 9.01151H83.2018V24.5154C83.2018 25.137 83.3341 25.469 83.4747 25.6378C83.5944 25.7814 83.8034 25.9064 84.2409 25.9064H88.2886C88.7261 25.9064 88.9351 25.7814 89.0548 25.6378C89.1954 25.469 89.3276 25.137 89.3276 24.5154V10.8601L93.2302 9.01151H94.2891V24.5154C94.2891 26.3864 93.8209 27.922 92.7581 28.9848C91.6953 30.0476 90.1596 30.5159 88.2886 30.5159H84.2409C82.3699 30.5159 80.8342 30.0476 79.7714 28.9848C78.7086 27.922 78.2404 26.3864 78.2404 24.5154V10.8601ZM93.5683 24.5154C93.5683 28.0351 91.8084 29.795 88.2886 29.795H84.2409C80.7211 29.795 78.9612 28.0351 78.9612 24.5154V11.3163L82.305 9.73236H82.481V24.5154C82.481 25.9233 83.0676 26.6272 84.2409 26.6272H88.2886C89.4619 26.6272 90.0485 25.9233 90.0485 24.5154V11.3163L93.3923 9.73236H93.5683V24.5154ZM97.0458 31.2198V15.716C97.0458 13.845 97.514 12.3093 98.5768 11.2465C99.6396 10.1837 101.175 9.71547 103.046 9.71547H107.094C108.965 9.71547 110.501 10.1837 111.563 11.2465C112.626 12.3093 113.095 13.845 113.095 15.716V29.3713L109.192 31.2198H108.133V15.716C108.133 15.0944 108.001 14.7624 107.86 14.5935C107.74 14.4499 107.531 14.325 107.094 14.325H103.046C102.609 14.325 102.4 14.4499 102.28 14.5935C102.139 14.7624 102.007 15.0944 102.007 15.716V29.3713L98.1047 31.2198H97.0458ZM97.7666 15.716C97.7666 12.1962 99.5265 10.4363 103.046 10.4363H107.094C110.614 10.4363 112.374 12.1962 112.374 15.716V28.9151L109.03 30.499H108.854V15.716C108.854 14.3081 108.267 13.6041 107.094 13.6041H103.046C101.873 13.6041 101.286 14.3081 101.286 15.716V28.9151L97.9426 30.499H97.7666V15.716ZM131.179 24.5154C131.179 28.0351 129.419 29.795 125.899 29.795H121.852C118.332 29.795 116.572 28.0351 116.572 24.5154V15.716C116.572 12.1962 118.332 10.4363 121.852 10.4363H125.899C126.299 10.4363 126.645 10.4818 126.938 10.5729C127.231 10.6639 127.472 10.8002 127.659 10.9819V4.10073L131.003 2.51684H131.179V24.5154ZM126.938 9.82624V3.64456L130.841 1.79599H131.9V24.5154C131.9 26.3864 131.432 27.922 130.369 28.9848C129.306 30.0476 127.77 30.5159 125.899 30.5159H121.852C119.981 30.5159 118.445 30.0476 117.382 28.9848C116.319 27.922 115.851 26.3864 115.851 24.5154V15.716C115.851 13.845 116.319 12.3093 117.382 11.2465C118.445 10.1837 119.981 9.71547 121.852 9.71547H125.899C126.263 9.71547 126.613 9.74902 126.938 9.82624ZM121.852 25.9064H125.899C126.337 25.9064 126.546 25.7814 126.666 25.6378C126.806 25.469 126.938 25.137 126.938 24.5154V15.716C126.938 15.0944 126.806 14.7624 126.666 14.5935C126.546 14.4499 126.337 14.325 125.899 14.325H121.852C121.414 14.325 121.205 14.4499 121.086 14.5935C120.945 14.7624 120.813 15.0944 120.813 15.716V24.5154C120.813 25.137 120.945 25.469 121.086 25.6378C121.205 25.7814 121.414 25.9064 121.852 25.9064ZM151.585 17.0024L140.656 25.4566C140.713 25.5794 140.78 25.6606 140.845 25.716C140.964 25.8165 141.167 25.9064 141.537 25.9064H145.585C146.022 25.9064 146.231 25.7814 146.351 25.6378C146.492 25.469 146.624 25.137 146.624 24.5154V23.1265L150.526 21.2779H151.585V24.5154C151.585 26.3864 151.117 27.922 150.054 28.9848C148.991 30.0476 147.456 30.5159 145.585 30.5159H141.537C139.666 30.5159 138.13 30.0476 137.068 28.9848C136.005 27.922 135.537 26.3864 135.537 24.5154V15.716C135.537 13.845 136.005 12.3093 137.068 11.2465C138.13 10.1837 139.666 9.71547 141.537 9.71547H145.585C147.456 9.71547 148.991 10.1837 150.054 11.2465C151.117 12.3093 151.585 13.845 151.585 15.716V17.0024ZM139.83 25.1841L150.864 16.6487V15.716C150.864 12.1962 149.105 10.4363 145.585 10.4363H141.537C138.017 10.4363 136.257 12.1962 136.257 15.716V24.5154C136.257 28.0351 138.017 29.795 141.537 29.795H145.585C149.105 29.795 150.864 28.0351 150.864 24.5154V21.9987H150.688L147.345 23.5826V24.5154C147.345 25.9233 146.758 26.6272 145.585 26.6272H141.537C140.563 26.6272 139.994 26.1462 139.83 25.1841ZM146.565 15.1056L140.498 19.9985V15.716C140.498 15.0944 140.63 14.7624 140.771 14.5935C140.891 14.4499 141.1 14.325 141.537 14.325H145.585C145.996 14.325 146.202 14.4353 146.319 14.5568C146.413 14.6548 146.509 14.8221 146.565 15.1056ZM139.777 21.506V15.716C139.777 14.3081 140.364 13.6041 141.537 13.6041H145.585C146.676 13.6041 147.257 14.2083 147.327 15.4168L139.777 21.506ZM154.342 31.2198V15.716C154.342 13.845 154.81 12.3093 155.873 11.2465C156.936 10.1837 158.471 9.71547 160.342 9.71547H165.463V10.7734L163.792 14.325H160.342C159.905 14.325 159.696 14.4499 159.576 14.5935C159.436 14.7624 159.303 15.0944 159.303 15.716V29.3713L155.401 31.2198H154.342ZM155.063 15.716C155.063 12.1962 156.823 10.4363 160.342 10.4363H164.742V10.6123L163.334 13.6041H160.342C159.169 13.6041 158.583 14.3081 158.583 15.716V28.9151L155.239 30.499H155.063V15.716ZM69.4832 26.6272H65.4355C64.2622 26.6272 63.6756 25.9233 63.6756 24.5154V15.716C63.6756 14.3081 64.2622 13.6041 65.4355 13.6041H69.4832C70.6565 13.6041 71.2431 14.3081 71.2431 15.716V24.5154C71.2431 25.9233 70.6565 26.6272 69.4832 26.6272ZM60.1558 24.5154C60.1558 28.0351 61.9157 29.795 65.4355 29.795H69.4832C73.003 29.795 74.7629 28.0351 74.7629 24.5154V15.716C74.7629 12.1962 73.003 10.4363 69.4832 10.4363H65.4355C61.9157 10.4363 60.1558 12.1962 60.1558 15.716V24.5154ZM125.899 26.6272H121.852C120.678 26.6272 120.092 25.9233 120.092 24.5154V15.716C120.092 14.3081 120.678 13.6041 121.852 13.6041H125.899C127.073 13.6041 127.659 14.3081 127.659 15.716V24.5154C127.659 25.9233 127.073 26.6272 125.899 26.6272Z" fill="#33353A"/>
<path d="M173.594 30.3956C170.074 30.3956 168.314 28.6357 168.314 25.1159V16.3165C168.314 12.7968 170.074 11.0369 173.594 11.0369H177.642C181.162 11.0369 182.921 12.7968 182.921 16.3165V17.2493L179.578 18.8332H179.402V16.3165C179.402 14.9086 178.815 14.2047 177.642 14.2047H173.594C172.421 14.2047 171.834 14.9086 171.834 16.3165V25.1159C171.834 26.5239 172.421 27.2278 173.594 27.2278H177.642C178.815 27.2278 179.402 26.5239 179.402 25.1159V24.1832L182.745 22.5993H182.921V25.1159C182.921 28.6357 181.162 30.3956 177.642 30.3956H173.594Z" fill="#33353A"/>
<path d="M187.12 31.0995V16.3165C187.12 12.7968 188.88 11.0369 192.4 11.0369H196.799V11.2129L195.391 14.2047H192.4C191.226 14.2047 190.64 14.9086 190.64 16.3165V29.5157L187.296 31.0995H187.12Z" fill="#33353A"/>
<path d="M203.109 27.2278H206.805C207.978 27.2278 208.565 26.5239 208.565 25.1159V22.7049C208.565 21.297 207.978 20.593 206.805 20.593H203.109C201.936 20.593 201.35 21.297 201.35 22.7049V25.1159C201.35 26.5239 201.936 27.2278 203.109 27.2278ZM203.109 30.3956C199.59 30.3956 197.83 28.6357 197.83 25.1159V22.7049C197.83 19.1851 199.59 17.4253 203.109 17.4253H206.805C207.415 17.4253 208.002 17.6012 208.565 17.9532V16.3165C208.565 14.9086 207.978 14.2047 206.805 14.2047H200.505V14.0287L201.913 11.0369H206.805C210.325 11.0369 212.085 12.7968 212.085 16.3165V29.5157L208.741 31.0995H208.565V29.8676C208.119 30.2196 207.533 30.3956 206.805 30.3956H203.109Z" fill="#33353A"/>
<path d="M218.606 31.0995V14.2399H214.083V14.0639L215.509 11.0369H218.606V4.7013L221.95 3.1174H222.126V11.0369H226.649V11.2129L225.223 14.2399H222.126V29.5157L218.782 31.0995H218.606Z" fill="#33353A"/>
<path d="M233.927 30.3956C230.407 30.3956 228.647 28.6357 228.647 25.1159V16.3165C228.647 12.7968 230.407 11.0369 233.927 11.0369H237.975C241.495 11.0369 243.255 12.7968 243.255 16.3165V17.2493L232.22 25.7847C232.384 26.7468 232.953 27.2278 233.927 27.2278H237.975C239.148 27.2278 239.735 26.5239 239.735 25.1159V24.1832L243.079 22.5993H243.255V25.1159C243.255 28.6357 241.495 30.3956 237.975 30.3956H233.927ZM232.167 22.1065L239.717 16.0173C239.647 14.8089 239.066 14.2047 237.975 14.2047H233.927C232.754 14.2047 232.167 14.9086 232.167 16.3165V22.1065Z" fill="#33353A"/>
</svg>
