<svg width="73" height="11" viewBox="0 0 73 11" fill="none" xmlns="http://www.w3.org/2000/svg">
<path d="M9.324 10H7.364L2.926 3.294V10H0.966V0.213999H2.926L7.364 6.934V0.213999H9.324V10ZM17.2949 0.228V1.81H13.2209V4.316H16.3429V5.87H13.2209V10H11.2609V0.228H17.2949ZM25.3348 0.228V1.81H22.7308V10H20.7708V1.81H18.1668V0.228H25.3348ZM28.7248 0.228V10H26.7648V0.228H28.7248ZM30.1853 5.1C30.1853 4.13867 30.4 3.28 30.8293 2.524C31.268 1.75867 31.8606 1.166 32.6073 0.746C33.3633 0.316666 34.208 0.102 35.1413 0.102C36.2333 0.102 37.19 0.382 38.0113 0.942C38.8326 1.502 39.4066 2.27667 39.7333 3.266H37.4793C37.2553 2.79933 36.938 2.44933 36.5273 2.216C36.126 1.98267 35.6593 1.866 35.1273 1.866C34.558 1.866 34.0493 2.00133 33.6013 2.272C33.1626 2.53333 32.8173 2.90667 32.5653 3.392C32.3226 3.87733 32.2013 4.44667 32.2013 5.1C32.2013 5.744 32.3226 6.31333 32.5653 6.808C32.8173 7.29333 33.1626 7.67133 33.6013 7.942C34.0493 8.20333 34.558 8.334 35.1273 8.334C35.6593 8.334 36.126 8.21733 36.5273 7.984C36.938 7.74133 37.2553 7.38667 37.4793 6.92H39.7333C39.4066 7.91867 38.8326 8.698 38.0113 9.258C37.1993 9.80867 36.2426 10.084 35.1413 10.084C34.208 10.084 33.3633 9.874 32.6073 9.454C31.8606 9.02467 31.268 8.432 30.8293 7.676C30.4 6.92 30.1853 6.06133 30.1853 5.1ZM47.3994 8.138H43.5074L42.8634 10H40.8054L44.3194 0.213999H46.6014L50.1154 10H48.0434L47.3994 8.138ZM46.8674 6.57L45.4534 2.482L44.0394 6.57H46.8674ZM53.3889 8.446H56.6089V10H51.4289V0.228H53.3889V8.446ZM59.8147 8.446H63.0347V10H57.8547V0.228H59.8147V8.446ZM72.0505 0.228L68.7465 6.598V10H66.7865V6.598L63.4685 0.228H65.6805L67.7805 4.694L69.8665 0.228H72.0505Z" fill="#383940"/>
</svg>
