<svg width="32" height="32" viewBox="0 0 32 32" fill="none" xmlns="http://www.w3.org/2000/svg">
<path d="M16.1548 4.65193C16.0789 4.45909 15.9432 4.29321 15.766 4.17666C15.5888 4.06011 15.3786 3.99849 15.1638 4.0001H8.06561C7.8928 3.99773 7.72204 4.03629 7.56848 4.11238C7.41492 4.18848 7.2833 4.29975 7.18528 4.43633C7.08727 4.57291 7.02588 4.73058 7.00658 4.89537C6.98727 5.06016 7.01063 5.22697 7.0746 5.38103L15.8536 27.3481C15.9295 27.5409 16.0652 27.7068 16.2424 27.8234C16.4196 27.9399 16.6298 28.0015 16.8446 27.9999H23.9358C24.1082 28.0021 24.2784 27.9635 24.4316 27.8876C24.5848 27.8117 24.7161 27.7007 24.814 27.5646C24.912 27.4285 24.9735 27.2713 24.9931 27.107C25.0128 26.9427 24.99 26.7762 24.9268 26.6224L16.1548 4.65193Z" fill="#1C76DC"/>
<path d="M6.92024 4.75942C6.97705 4.54102 7.10704 4.34754 7.28944 4.2099C7.47184 4.07225 7.69613 3.99838 7.92648 4.00008H14.9564C15.1163 3.99807 15.2744 4.03247 15.4183 4.10058C15.5623 4.16868 15.688 4.26862 15.7856 4.39249C15.8832 4.51635 15.9501 4.66074 15.9808 4.81423C16.0115 4.96773 16.0053 5.12611 15.9627 5.27685L10.0798 27.2406C10.0229 27.459 9.89296 27.6525 9.71056 27.7901C9.52816 27.9277 9.30387 28.0016 9.07352 27.9999H2.04357C1.88372 28.0019 1.72557 27.9675 1.58165 27.8994C1.43774 27.8313 1.31199 27.7314 1.21437 27.6075C1.11676 27.4836 1.04994 27.3393 1.01921 27.1858C0.988482 27.0323 0.994686 26.8739 1.03733 26.7232L6.92024 4.75942Z" fill="#3F99FF"/>
<path d="M21.936 4.75942C21.9928 4.54102 22.1228 4.34754 22.3052 4.2099C22.4875 4.07225 22.7118 3.99838 22.9421 4.00008H29.9567C30.1165 3.99807 30.2746 4.03247 30.4185 4.10058C30.5624 4.16868 30.6881 4.26862 30.7857 4.39249C30.8833 4.51635 30.9501 4.66074 30.9808 4.81423C31.0115 4.96773 31.0053 5.12611 30.9627 5.27685L25.0811 27.2406C25.0243 27.459 24.8944 27.6525 24.712 27.7901C24.5296 27.9277 24.3054 28.0016 24.0751 27.9999H17.0433C16.8835 28.0019 16.7254 27.9675 16.5815 27.8994C16.4376 27.8313 16.3119 27.7314 16.2143 27.6075C16.1167 27.4836 16.0499 27.3393 16.0192 27.1858C15.9885 27.0323 15.9947 26.8739 16.0373 26.7232L21.936 4.75942Z" fill="#3F99FF"/>
</svg>
