<svg width="20" height="20" viewBox="0 0 20 20" fill="none" xmlns="http://www.w3.org/2000/svg">
<g clip-path="url(#clip0_3521_8602)">
<path d="M13.4375 5.15625C13.4375 5.07031 13.3672 5 13.2813 5H5.78125C5.69531 5 5.625 5.07031 5.625 5.15625V6.09375C5.625 6.17969 5.69531 6.25 5.78125 6.25H13.2813C13.3672 6.25 13.4375 6.17969 13.4375 6.09375V5.15625ZM13.2813 7.8125H5.78125C5.69531 7.8125 5.625 7.88281 5.625 7.96875V8.90625C5.625 8.99219 5.69531 9.0625 5.78125 9.0625H13.2813C13.3672 9.0625 13.4375 8.99219 13.4375 8.90625V7.96875C13.4375 7.88281 13.3672 7.8125 13.2813 7.8125ZM9.375 10.625H5.78125C5.69531 10.625 5.625 10.6953 5.625 10.7812V11.7188C5.625 11.8047 5.69531 11.875 5.78125 11.875H9.375C9.46094 11.875 9.53125 11.8047 9.53125 11.7188V10.7812C9.53125 10.6953 9.46094 10.625 9.375 10.625ZM8.4375 16.6406H4.0625V2.89062H15V9.60938C15 9.69531 15.0703 9.76562 15.1563 9.76562H16.25C16.3359 9.76562 16.4063 9.69531 16.4063 9.60938V2.10938C16.4063 1.76367 16.127 1.48438 15.7813 1.48438H3.28125C2.93555 1.48438 2.65625 1.76367 2.65625 2.10938V17.4219C2.65625 17.7676 2.93555 18.0469 3.28125 18.0469H8.4375C8.52344 18.0469 8.59375 17.9766 8.59375 17.8906V16.7969C8.59375 16.7109 8.52344 16.6406 8.4375 16.6406ZM15.4063 15.1875C15.9727 14.6738 16.3281 13.9316 16.3281 13.1055C16.3281 11.5527 15.0684 10.293 13.5156 10.293C11.9629 10.293 10.7031 11.5527 10.7031 13.1055C10.7031 13.9316 11.0586 14.6738 11.625 15.1875C10.5117 15.8223 9.74609 16.998 9.6875 18.3535C9.68359 18.4414 9.75586 18.5156 9.84375 18.5156H10.7832C10.8652 18.5156 10.9336 18.4512 10.9395 18.3672C11.0156 17.0156 12.1426 15.9375 13.5156 15.9375C14.8887 15.9375 16.0156 17.0156 16.0918 18.3672C16.0957 18.4492 16.1641 18.5156 16.248 18.5156H17.1875C17.2773 18.5156 17.3477 18.4414 17.3438 18.3535C17.2871 16.9961 16.5195 15.8223 15.4063 15.1875ZM13.5156 11.543C14.3789 11.543 15.0781 12.2422 15.0781 13.1055C15.0781 13.9688 14.3789 14.668 13.5156 14.668C12.6523 14.668 11.9531 13.9688 11.9531 13.1055C11.9531 12.2422 12.6523 11.543 13.5156 11.543Z" fill="#8898A6"/>
</g>
<defs>
<clipPath id="clip0_3521_8602">
<rect width="20" height="20" fill="white"/>
</clipPath>
</defs>
</svg>
