<svg width="18" height="17" viewBox="0 0 18 17" fill="none" xmlns="http://www.w3.org/2000/svg">
<path d="M16.5 4.25H13.375V1.75C13.3747 1.41858 13.2429 1.10083 13.0085 0.866482C12.7742 0.632133 12.4564 0.500331 12.125 0.5H5.875C5.54358 0.500331 5.22583 0.632133 4.99148 0.866482C4.75713 1.10083 4.62533 1.41858 4.625 1.75V4.25H1.5C1.16858 4.25033 0.850831 4.38213 0.616482 4.61648C0.382133 4.85083 0.250331 5.16858 0.25 5.5V15.5C0.250331 15.8314 0.382133 16.1492 0.616482 16.3835C0.850831 16.6179 1.16858 16.7497 1.5 16.75H16.5C16.8314 16.7497 17.1492 16.6179 17.3835 16.3835C17.6179 16.1492 17.7497 15.8314 17.75 15.5V5.5C17.7497 5.16858 17.6179 4.85083 17.3835 4.61648C17.1492 4.38213 16.8314 4.25033 16.5 4.25ZM1.5 15.5V5.5H4.625V6.75H3.375V8H4.625V9.25H3.375V10.5H4.625V11.75H3.375V13H4.625V15.5H1.5ZM12.125 15.5H5.875V1.75H12.125V15.5ZM16.5 15.5H13.375V13H14.625V11.75H13.375V10.5H14.625V9.25H13.375V8H14.625V6.75H13.375V5.5H16.5V15.5Z" fill="#8898A6"/>
</svg>
