<svg width="20" height="20" viewBox="0 0 20 20" fill="none" xmlns="http://www.w3.org/2000/svg">
<g clip-path="url(#clip0_753_6001)">
<path d="M17.5 7.5H12.5V2.5H17.5V7.5ZM13.75 6.25H16.25V3.75H13.75V6.25Z" fill="#8898A6"/>
<path d="M10.625 9.375V5.625H5.625V14.375H14.375V9.375H10.625ZM6.875 6.875H9.375V9.375H6.875V6.875ZM9.375 13.125H6.875V10.625H9.375V13.125ZM13.125 13.125H10.625V10.625H13.125V13.125Z" fill="#8898A6"/>
<path d="M16.25 17.5H3.75C3.41858 17.4997 3.10083 17.3679 2.86648 17.1335C2.63213 16.8992 2.50033 16.5814 2.5 16.25V3.75C2.50033 3.41858 2.63213 3.10083 2.86648 2.86648C3.10083 2.63213 3.41858 2.50033 3.75 2.5H10V3.75H3.75V16.25H16.25V10H17.5V16.25C17.4997 16.5814 17.3679 16.8992 17.1335 17.1335C16.8992 17.3679 16.5814 17.4997 16.25 17.5Z" fill="#8898A6"/>
</g>
<defs>
<clipPath id="clip0_753_6001">
<rect width="20" height="20" fill="white"/>
</clipPath>
</defs>
</svg>
