<svg width="18" height="18" viewBox="0 0 18 18" fill="none" xmlns="http://www.w3.org/2000/svg">
<path d="M16.6562 2.125H9.70312V0.875C9.70312 0.789062 9.63281 0.71875 9.54688 0.71875H8.45312C8.36719 0.71875 8.29688 0.789062 8.29688 0.875V2.125H1.34375C0.998047 2.125 0.71875 2.4043 0.71875 2.75V12.9062C0.71875 13.252 0.998047 13.5312 1.34375 13.5312H8.30469V14.1562L5.08594 16.2676C5.01367 16.3144 4.99414 16.4102 5.04102 16.4824L5.63281 17.4043V17.4062C5.67969 17.4785 5.77734 17.498 5.84961 17.4512L9 15.3848L12.1504 17.4512C12.2227 17.498 12.3203 17.4785 12.3672 17.4062V17.4043L12.959 16.4824C13.0059 16.4102 12.9844 16.3144 12.9141 16.2676L9.70312 14.1621V13.5312H16.6562C17.002 13.5312 17.2812 13.252 17.2812 12.9062V2.75C17.2812 2.4043 17.002 2.125 16.6562 2.125ZM15.875 12.125H2.125V3.53125H15.875V12.125Z" fill="#8898A6"/>
</svg>
