<svg width="16" height="18" viewBox="0 0 16 18" fill="none" xmlns="http://www.w3.org/2000/svg">
<path d="M11.4375 4.15625C11.4375 4.07031 11.3672 4 11.2813 4H3.78125C3.69531 4 3.625 4.07031 3.625 4.15625V5.09375C3.625 5.17969 3.69531 5.25 3.78125 5.25H11.2813C11.3672 5.25 11.4375 5.17969 11.4375 5.09375V4.15625ZM11.2813 6.8125H3.78125C3.69531 6.8125 3.625 6.88281 3.625 6.96875V7.90625C3.625 7.99219 3.69531 8.0625 3.78125 8.0625H11.2813C11.3672 8.0625 11.4375 7.99219 11.4375 7.90625V6.96875C11.4375 6.88281 11.3672 6.8125 11.2813 6.8125ZM7.375 9.625H3.78125C3.69531 9.625 3.625 9.69531 3.625 9.78125V10.7188C3.625 10.8047 3.69531 10.875 3.78125 10.875H7.375C7.46094 10.875 7.53125 10.8047 7.53125 10.7188V9.78125C7.53125 9.69531 7.46094 9.625 7.375 9.625ZM6.4375 15.6406H2.0625V1.89062H13V8.60938C13 8.69531 13.0703 8.76562 13.1563 8.76562H14.25C14.3359 8.76562 14.4063 8.69531 14.4063 8.60938V1.10938C14.4063 0.763672 14.127 0.484375 13.7813 0.484375H1.28125C0.935547 0.484375 0.65625 0.763672 0.65625 1.10938V16.4219C0.65625 16.7676 0.935547 17.0469 1.28125 17.0469H6.4375C6.52344 17.0469 6.59375 16.9766 6.59375 16.8906V15.7969C6.59375 15.7109 6.52344 15.6406 6.4375 15.6406ZM13.4063 14.1875C13.9727 13.6738 14.3281 12.9316 14.3281 12.1055C14.3281 10.5527 13.0684 9.29297 11.5156 9.29297C9.96289 9.29297 8.70313 10.5527 8.70313 12.1055C8.70313 12.9316 9.05859 13.6738 9.625 14.1875C8.51172 14.8223 7.74609 15.998 7.6875 17.3535C7.68359 17.4414 7.75586 17.5156 7.84375 17.5156H8.7832C8.86523 17.5156 8.93359 17.4512 8.93945 17.3672C9.01562 16.0156 10.1426 14.9375 11.5156 14.9375C12.8887 14.9375 14.0156 16.0156 14.0918 17.3672C14.0957 17.4492 14.1641 17.5156 14.248 17.5156H15.1875C15.2773 17.5156 15.3477 17.4414 15.3438 17.3535C15.2871 15.9961 14.5195 14.8223 13.4063 14.1875ZM11.5156 10.543C12.3789 10.543 13.0781 11.2422 13.0781 12.1055C13.0781 12.9688 12.3789 13.668 11.5156 13.668C10.6523 13.668 9.95313 12.9688 9.95313 12.1055C9.95313 11.2422 10.6523 10.543 11.5156 10.543Z" fill="#8898A6"/>
</svg>
