<svg width="24" height="24" viewBox="0 0 24 24" fill="none" xmlns="http://www.w3.org/2000/svg">
<path d="M20 10.6667C20 10.618 19.9947 10.5695 19.984 10.522L19.1173 6.61005C18.9563 5.86754 18.5449 5.20297 17.9521 4.72777C17.3593 4.25258 16.6211 3.99564 15.8613 4.00006H8.13867C7.37937 3.99626 6.64182 4.25347 6.04955 4.72862C5.45728 5.20377 5.04626 5.86799 4.88533 6.61005L4.016 10.522C4.00534 10.5695 3.99997 10.618 4 10.6667V11.3334C3.99946 11.9824 4.23662 12.6092 4.66667 13.0954V16.6667C4.66773 17.5504 5.01926 18.3976 5.64415 19.0225C6.26904 19.6474 7.11627 19.9989 8 20H16C16.8837 19.9989 17.731 19.6474 18.3559 19.0225C18.9807 18.3976 19.3323 17.5504 19.3333 16.6667V13.0954C19.7634 12.6092 20.0005 11.9824 20 11.3334V10.6667ZM5.33333 10.7394L6.18667 6.89938C6.28336 6.45422 6.53001 6.05576 6.88534 5.7707C7.24067 5.48564 7.68313 5.33125 8.13867 5.33338H8.66667V7.33338C8.66667 7.51019 8.73691 7.67976 8.86193 7.80478C8.98695 7.9298 9.15652 8.00004 9.33333 8.00004C9.51014 8.00004 9.67971 7.9298 9.80474 7.80478C9.92976 7.67976 10 7.51019 10 7.33338V5.33338H14V7.33338C14 7.51019 14.0702 7.67976 14.1953 7.80478C14.3203 7.9298 14.4899 8.00004 14.6667 8.00004C14.8435 8.00004 15.013 7.9298 15.1381 7.80478C15.2631 7.67976 15.3333 7.51019 15.3333 7.33338V5.33338H15.8613C16.3169 5.33125 16.7593 5.48564 17.1147 5.7707C17.47 6.05576 17.7166 6.45422 17.8133 6.89938L18.6667 10.7394V11.3334C18.6667 11.687 18.5262 12.0261 18.2761 12.2762C18.0261 12.5262 17.687 12.6667 17.3333 12.6667H16.6667C16.313 12.6667 15.9739 12.5262 15.7239 12.2762C15.4738 12.0261 15.3333 11.687 15.3333 11.3334C15.3333 11.1566 15.2631 10.987 15.1381 10.862C15.013 10.7369 14.8435 10.6667 14.6667 10.6667C14.4899 10.6667 14.3203 10.7369 14.1953 10.862C14.0702 10.987 14 11.1566 14 11.3334C14 11.687 13.8595 12.0261 13.6095 12.2762C13.3594 12.5262 13.0203 12.6667 12.6667 12.6667H11.3333C10.9797 12.6667 10.6406 12.5262 10.3905 12.2762C10.1405 12.0261 10 11.687 10 11.3334C10 11.1566 9.92976 10.987 9.80474 10.862C9.67971 10.7369 9.51014 10.6667 9.33333 10.6667C9.15652 10.6667 8.98695 10.7369 8.86193 10.862C8.73691 10.987 8.66667 11.1566 8.66667 11.3334C8.66667 11.687 8.52619 12.0261 8.27614 12.2762C8.02609 12.5262 7.68696 12.6667 7.33333 12.6667H6.66667C6.31305 12.6667 5.97391 12.5262 5.72386 12.2762C5.47381 12.0261 5.33333 11.687 5.33333 11.3334V10.7394ZM16 18.6667H8C7.46957 18.6667 6.96086 18.456 6.58579 18.0809C6.21071 17.7058 6 17.1971 6 16.6667V13.9154C6.21773 13.9717 6.44175 14.0002 6.66667 14H7.33333C7.71188 14.0002 8.0861 13.9196 8.431 13.7636C8.7759 13.6076 9.08353 13.3798 9.33333 13.0954C9.58313 13.3798 9.89076 13.6076 10.2357 13.7636C10.5806 13.9196 10.9548 14.0002 11.3333 14H12.6667C13.0452 14.0002 13.4194 13.9196 13.7643 13.7636C14.1092 13.6076 14.4169 13.3798 14.6667 13.0954C14.9165 13.3798 15.2241 13.6076 15.569 13.7636C15.9139 13.9196 16.2881 14.0002 16.6667 14H17.3333C17.5582 14.0002 17.7823 13.9717 18 13.9154V16.6667C18 17.1971 17.7893 17.7058 17.4142 18.0809C17.0391 18.456 16.5304 18.6667 16 18.6667Z" fill="#8898A6"/>
</svg>
