<svg width="24" height="24" viewBox="0 0 24 24" fill="none" xmlns="http://www.w3.org/2000/svg">
    <path d="M12 13C12.9889 13 13.9556 12.7068 14.7778 12.1573C15.6001 11.6079 16.241 10.827 16.6194 9.91342C16.9978 8.99979 17.0969 7.99445 16.9039 7.02455C16.711 6.05465 16.2348 5.16373 15.5355 4.46447C14.8363 3.76521 13.9454 3.289 12.9755 3.09608C12.0055 2.90315 11.0002 3.00217 10.0866 3.3806C9.17295 3.75904 8.39206 4.3999 7.84265 5.22215C7.29324 6.0444 7 7.01109 7 8C7.00132 9.32568 7.52853 10.5967 8.46593 11.5341C9.40332 12.4715 10.6743 12.9987 12 13ZM12 4.66667C12.6593 4.66667 13.3037 4.86217 13.8519 5.22844C14.4001 5.59471 14.8273 6.1153 15.0796 6.72439C15.3319 7.33348 15.3979 8.0037 15.2693 8.6503C15.1407 9.29691 14.8232 9.89085 14.357 10.357C13.8908 10.8232 13.2969 11.1407 12.6503 11.2693C12.0037 11.3979 11.3335 11.3319 10.7244 11.0796C10.1153 10.8273 9.59471 10.4001 9.22843 9.8519C8.86216 9.30374 8.66667 8.65927 8.66667 8C8.66667 7.11595 9.01786 6.2681 9.64298 5.64298C10.2681 5.01786 11.1159 4.66667 12 4.66667Z" fill="#8898A6"/>
    <path d="M12 14C9.87899 14.0019 7.84553 14.6662 6.34574 15.8473C4.84596 17.0284 4.00235 18.6297 4 20.3C4 20.4857 4.09365 20.6637 4.26035 20.795C4.42705 20.9263 4.65314 21 4.88889 21C5.12464 21 5.35073 20.9263 5.51743 20.795C5.68413 20.6637 5.77778 20.4857 5.77778 20.3C5.77778 19.0004 6.43333 17.7541 7.60022 16.8352C8.76712 15.9162 10.3498 15.4 12 15.4C13.6502 15.4 15.2329 15.9162 16.3998 16.8352C17.5667 17.7541 18.2222 19.0004 18.2222 20.3C18.2222 20.4857 18.3159 20.6637 18.4826 20.795C18.6493 20.9263 18.8754 21 19.1111 21C19.3469 21 19.573 20.9263 19.7397 20.795C19.9064 20.6637 20 20.4857 20 20.3C19.9976 18.6297 19.154 17.0284 17.6543 15.8473C16.1545 14.6662 14.121 14.0019 12 14Z" fill="#8898A6"/>
</svg>
