<svg width="20" height="20" viewBox="0 0 20 20" fill="none" xmlns="http://www.w3.org/2000/svg">
<g clip-path="url(#clip0_753_5988)">
<path d="M18.125 15.625H16.875V14.375H17.5V11.875H15V12.5H13.75V11.25C13.75 11.0842 13.8158 10.9253 13.9331 10.8081C14.0503 10.6908 14.2092 10.625 14.375 10.625H18.125C18.2908 10.625 18.4497 10.6908 18.5669 10.8081C18.6842 10.9253 18.75 11.0842 18.75 11.25V15C18.75 15.1658 18.6842 15.3247 18.5669 15.4419C18.4497 15.5592 18.2908 15.625 18.125 15.625Z" fill="#8898A6"/>
<path d="M15 18.75H11.25C11.0842 18.75 10.9253 18.6842 10.8081 18.567C10.6908 18.4498 10.625 18.2908 10.625 18.125V14.375C10.625 14.2093 10.6908 14.0503 10.8081 13.9331C10.9253 13.8159 11.0842 13.75 11.25 13.75H15C15.1658 13.75 15.3247 13.8159 15.4419 13.9331C15.5592 14.0503 15.625 14.2093 15.625 14.375V18.125C15.625 18.2908 15.5592 18.4498 15.4419 18.567C15.3247 18.6842 15.1658 18.75 15 18.75ZM11.875 17.5H14.375V15H11.875V17.5ZM9.375 12.4113C8.9234 12.2936 8.51385 12.0516 8.19285 11.7129C7.87186 11.3741 7.65228 10.9521 7.55905 10.4948C7.46583 10.0376 7.50269 9.56332 7.66545 9.12593C7.82821 8.68855 8.11035 8.30557 8.47983 8.02048C8.84931 7.73539 9.29133 7.55961 9.75569 7.51311C10.22 7.4666 10.6881 7.55123 11.1068 7.75739C11.5255 7.96355 11.878 8.28297 12.1243 8.67939C12.3705 9.07581 12.5007 9.53334 12.5 10H13.75C13.7507 9.2849 13.547 8.58448 13.1627 7.98135C12.7785 7.37822 12.2298 6.89753 11.5814 6.59596C10.933 6.29439 10.2118 6.18452 9.503 6.2793C8.79419 6.37407 8.12726 6.66955 7.58084 7.13088C7.03442 7.59221 6.63131 8.20017 6.41903 8.88306C6.20675 9.56595 6.19416 10.2953 6.38274 10.9851C6.57132 11.6749 6.9532 12.2964 7.48337 12.7763C8.01354 13.2563 8.66988 13.5746 9.375 13.6938V12.4113Z" fill="#8898A6"/>
<path d="M18.056 8.46875L16.6123 9.7375L15.7248 8.85L17.231 7.525L15.756 4.975L13.606 5.7C13.1024 5.28079 12.532 4.9491 11.9185 4.71875L11.4748 2.5H8.52478L8.08103 4.71875C7.46265 4.94266 6.88911 5.27493 6.38728 5.7L4.24352 4.975L2.76852 7.525L4.46852 9.01875C4.35289 9.66571 4.35289 10.328 4.46852 10.975L2.76852 12.475L4.24352 15.025L6.39352 14.3C6.89715 14.7192 7.46758 15.0509 8.08103 15.2813L8.52478 17.5H9.37478V18.75H8.52478C8.23573 18.7498 7.9557 18.6494 7.73235 18.4659C7.509 18.2824 7.35614 18.0272 7.29978 17.7437L6.98103 16.1688C6.69806 16.0307 6.42455 15.8741 6.16227 15.7L4.64352 16.2125C4.51438 16.2545 4.37934 16.2756 4.24352 16.275C4.02398 16.2765 3.80801 16.2194 3.61793 16.1095C3.42784 15.9996 3.27054 15.841 3.16227 15.65L1.68727 13.1C1.54139 12.8494 1.48718 12.5558 1.53393 12.2696C1.58068 11.9835 1.72548 11.7224 1.94352 11.5313L3.14352 10.4813C3.13102 10.3188 3.12477 10.1625 3.12477 10C3.12477 9.8375 3.13727 9.68125 3.14977 9.525L1.94352 8.46875C1.72548 8.27758 1.58068 8.01654 1.53393 7.73035C1.48718 7.44416 1.54139 7.15062 1.68727 6.9L3.16227 4.35C3.27054 4.159 3.42784 4.00037 3.61793 3.89049C3.80801 3.78062 4.02398 3.72349 4.24352 3.725C4.37934 3.72438 4.51438 3.74547 4.64352 3.7875L6.15603 4.3C6.42044 4.12581 6.69604 3.96922 6.98103 3.83125L7.29978 2.25625C7.35614 1.97276 7.509 1.71756 7.73235 1.53409C7.9557 1.35063 8.23573 1.25023 8.52478 1.25H11.4748C11.7638 1.25023 12.0438 1.35063 12.2672 1.53409C12.4905 1.71756 12.6434 1.97276 12.6998 2.25625L13.0185 3.83125C13.3015 3.96926 13.575 4.12585 13.8373 4.3L15.356 3.7875C15.4852 3.74547 15.6202 3.72438 15.756 3.725C15.9756 3.72349 16.1915 3.78062 16.3816 3.89049C16.5717 4.00037 16.729 4.159 16.8373 4.35L18.3123 6.9C18.4582 7.15062 18.5124 7.44416 18.4656 7.73035C18.4189 8.01654 18.2741 8.27758 18.056 8.46875V8.46875Z" fill="#8898A6"/>
</g>
<defs>
<clipPath id="clip0_753_5988">
<rect width="20" height="20" fill="white"/>
</clipPath>
</defs>
</svg>
