<svg width="24" height="24" viewBox="0 0 24 24" fill="none" xmlns="http://www.w3.org/2000/svg">
<path d="M18.0075 12.2968V11.3C18.0075 9.62914 17.3746 8.02671 16.2479 6.84523C15.1213 5.66375 13.5933 5 12 5C10.4067 5 8.87869 5.66375 7.75207 6.84523C6.62545 8.02671 5.99252 9.62914 5.99252 11.3V12.2968C5.29242 12.6201 4.71947 13.1858 4.36958 13.8991C4.01969 14.6125 3.91411 15.4303 4.0705 16.2156C4.22689 17.0008 4.63577 17.7059 5.22868 18.2128C5.8216 18.7197 6.56255 18.9976 7.32752 19C7.68158 19 8.02114 18.8525 8.2715 18.5899C8.52186 18.3274 8.66251 17.9713 8.66251 17.6V13.4C8.66251 13.0287 8.52186 12.6726 8.2715 12.4101C8.02114 12.1475 7.68158 12 7.32752 12V11.3C7.32752 10.0004 7.81979 8.7541 8.69605 7.83518C9.57232 6.91625 10.7608 6.4 12 6.4C13.2392 6.4 14.4277 6.91625 15.3039 7.83518C16.1802 8.7541 16.6725 10.0004 16.6725 11.3V12C16.3184 12 15.9789 12.1475 15.7285 12.4101C15.4781 12.6726 15.3375 13.0287 15.3375 13.4V17.6H13.335C13.158 17.6 12.9882 17.6737 12.863 17.805C12.7378 17.9363 12.6675 18.1143 12.6675 18.3C12.6675 18.4857 12.7378 18.6637 12.863 18.795C12.9882 18.9263 13.158 19 13.335 19H16.6725C17.4374 18.9976 18.1784 18.7197 18.7713 18.2128C19.3642 17.7059 19.7731 17.0008 19.9295 16.2156C20.0859 15.4303 19.9803 14.6125 19.6304 13.8991C19.2805 13.1858 18.7076 12.6201 18.0075 12.2968ZM7.32752 17.6C6.79642 17.6 6.28708 17.3788 5.91154 16.9849C5.536 16.5911 5.32502 16.057 5.32502 15.5C5.32502 14.943 5.536 14.4089 5.91154 14.0151C6.28708 13.6212 6.79642 13.4 7.32752 13.4V17.6ZM16.6725 17.6V13.4C17.2036 13.4 17.7129 13.6212 18.0885 14.0151C18.464 14.4089 18.675 14.943 18.675 15.5C18.675 16.057 18.464 16.5911 18.0885 16.9849C17.7129 17.3788 17.2036 17.6 16.6725 17.6Z" fill="#C2D24B"/>
</svg>
