<svg width="24" height="24" viewBox="0 0 24 24" fill="none" xmlns="http://www.w3.org/2000/svg">
<path d="M18.989 11.0994L11.9993 15.489L5.00963 11.0994C4.85802 11.0042 4.67649 10.976 4.50496 11.0208C4.33343 11.0657 4.18597 11.1801 4.095 11.3387C4.00404 11.4974 3.97702 11.6874 4.01991 11.8669C4.06279 12.0464 4.17205 12.2007 4.32366 12.2959L11.6567 16.9004C11.7604 16.9656 11.879 17 12 17C12.121 17 12.2396 16.9656 12.3433 16.9004L19.6763 12.2959C19.8279 12.2007 19.9372 12.0464 19.9801 11.8669C20.023 11.6874 19.996 11.4974 19.905 11.3387C19.814 11.1801 19.6666 11.0657 19.495 11.0208C19.3235 10.976 19.142 11.0042 18.9904 11.0994H18.989Z" fill="#8898A6"/>
<path d="M18.989 14.0994L11.9993 18.4883L5.00963 14.0994C4.93456 14.0523 4.85135 14.0211 4.76476 14.0076C4.67817 13.9941 4.58989 13.9986 4.50496 14.0208C4.42003 14.0431 4.34011 14.0826 4.26977 14.1371C4.19943 14.1916 4.14004 14.2602 4.095 14.3387C4.04996 14.4173 4.02015 14.5044 4.00726 14.595C3.99438 14.6856 3.99867 14.778 4.0199 14.8669C4.06279 15.0464 4.17205 15.2007 4.32366 15.2959L11.6567 19.9004C11.7604 19.9656 11.879 20 12 20C12.121 20 12.2396 19.9656 12.3433 19.9004L19.6763 15.2959C19.8279 15.2007 19.9372 15.0464 19.9801 14.8669C20.023 14.6874 19.996 14.4974 19.905 14.3387C19.814 14.1801 19.6666 14.0657 19.495 14.0208C19.3235 13.976 19.142 14.0042 18.9904 14.0994H18.989Z" fill="#8898A6"/>
<path d="M12 14C11.6404 13.9998 11.2876 13.8988 10.9793 13.7078L4.32313 9.58902C4.22456 9.5279 4.143 9.44152 4.08638 9.33828C4.02976 9.23503 4 9.11844 4 8.99983C4 8.88122 4.02976 8.76463 4.08638 8.66139C4.143 8.55815 4.22456 8.47177 4.32313 8.41065L10.9793 4.29185C11.2876 4.10089 11.6404 4 12 4C12.3596 4 12.7124 4.10089 13.0207 4.29185L19.6769 8.41065C19.7754 8.47177 19.857 8.55815 19.9136 8.66139C19.9702 8.76463 20 8.88122 20 8.99983C20 9.11844 19.9702 9.23503 19.9136 9.33828C19.857 9.44152 19.7754 9.5279 19.6769 9.58902L13.0207 13.7078C12.7124 13.8988 12.3596 13.9998 12 14ZM5.96251 8.99983L11.6667 12.5288C11.7674 12.5909 11.8826 12.6237 12 12.6237C12.1174 12.6237 12.2326 12.5909 12.3333 12.5288L18.0375 8.99983L12.3333 5.47091C12.2326 5.40877 12.1174 5.37595 12 5.37595C11.8826 5.37595 11.7674 5.40877 11.6667 5.47091L5.96251 8.99983Z" fill="#8898A6"/>
</svg>
