<svg width="24" height="24" viewBox="0 0 24 24" fill="none" xmlns="http://www.w3.org/2000/svg">
<g clip-path="url(#clip0_344_30736)">
<path d="M5.875 2C4.83984 2 4 2.83984 4 3.875V20.125C4 21.1602 4.83984 22 5.875 22H9.625V18.875C9.625 17.8398 10.4648 17 11.5 17C12.5352 17 13.375 17.8398 13.375 18.875V22H17.125C18.1602 22 19 21.1602 19 20.125V3.875C19 2.83984 18.1602 2 17.125 2H5.875ZM6.5 11.375C6.5 11.0312 6.78125 10.75 7.125 10.75H8.375C8.71875 10.75 9 11.0312 9 11.375V12.625C9 12.9688 8.71875 13.25 8.375 13.25H7.125C6.78125 13.25 6.5 12.9688 6.5 12.625V11.375ZM10.875 10.75H12.125C12.4688 10.75 12.75 11.0312 12.75 11.375V12.625C12.75 12.9688 12.4688 13.25 12.125 13.25H10.875C10.5312 13.25 10.25 12.9688 10.25 12.625V11.375C10.25 11.0312 10.5312 10.75 10.875 10.75ZM14 11.375C14 11.0312 14.2812 10.75 14.625 10.75H15.875C16.2188 10.75 16.5 11.0312 16.5 11.375V12.625C16.5 12.9688 16.2188 13.25 15.875 13.25H14.625C14.2812 13.25 14 12.9688 14 12.625V11.375ZM7.125 5.75H8.375C8.71875 5.75 9 6.03125 9 6.375V7.625C9 7.96875 8.71875 8.25 8.375 8.25H7.125C6.78125 8.25 6.5 7.96875 6.5 7.625V6.375C6.5 6.03125 6.78125 5.75 7.125 5.75ZM10.25 6.375C10.25 6.03125 10.5312 5.75 10.875 5.75H12.125C12.4688 5.75 12.75 6.03125 12.75 6.375V7.625C12.75 7.96875 12.4688 8.25 12.125 8.25H10.875C10.5312 8.25 10.25 7.96875 10.25 7.625V6.375ZM14.625 5.75H15.875C16.2188 5.75 16.5 6.03125 16.5 6.375V7.625C16.5 7.96875 16.2188 8.25 15.875 8.25H14.625C14.2812 8.25 14 7.96875 14 7.625V6.375C14 6.03125 14.2812 5.75 14.625 5.75Z" fill="white" fill-opacity="0.4"/>
</g>
<defs>
<clipPath id="clip0_344_30736">
<rect width="24" height="24" fill="white"/>
</clipPath>
</defs>
</svg>
