<svg width="24" height="24" viewBox="0 0 24 24" fill="none" xmlns="http://www.w3.org/2000/svg">
<g clip-path="url(#clip0_344_30724)">
<path d="M12.0003 3C11.7218 3 11.4468 3.05624 11.1856 3.1647L1.54364 7.23399C1.21709 7.37459 1.00053 7.73613 1.00053 8.14185C1.00053 8.54757 1.21709 8.90911 1.54364 9.04971L3.53391 9.88928C2.97017 10.9257 2.65049 12.1509 2.65049 13.4404V14.5692C2.65049 15.71 2.27925 16.887 1.88395 17.815C1.66051 18.3372 1.40614 18.8514 1.11053 19.3254C1.00053 19.4981 0.969592 19.7231 1.03147 19.9279C1.09334 20.1328 1.23771 20.2855 1.41646 20.3377L3.6164 20.9804C3.76078 21.0246 3.91546 20.9925 4.04264 20.9001C4.16983 20.8077 4.2592 20.655 4.2867 20.4823C4.58232 18.763 4.43451 17.2204 4.21451 16.1157C4.10452 15.5453 3.95671 14.9628 3.75046 14.4286V13.4404C3.75046 12.2272 4.10108 11.0823 4.7095 10.1665C5.15293 9.54381 5.72698 9.04167 6.40071 8.73236L11.7975 6.25383C12.0793 6.12528 12.399 6.28596 12.509 6.61536C12.619 6.94476 12.4815 7.31835 12.1996 7.4469L6.80289 9.92543C6.37665 10.1223 6.00197 10.4235 5.69604 10.7931L11.1822 13.1069C11.4434 13.2154 11.7184 13.2716 11.9968 13.2716C12.2753 13.2716 12.5503 13.2154 12.8115 13.1069L22.4569 9.04971C22.7834 8.91313 23 8.54757 23 8.14185C23 7.73613 22.7834 7.37459 22.4569 7.23399L12.8149 3.1647C12.5537 3.05624 12.2787 3 12.0003 3ZM5.40042 18.1042C5.40042 19.5222 8.3566 20.9965 12.0003 20.9965C15.6439 20.9965 18.6001 19.5222 18.6001 18.1042L18.0742 12.2634L13.1862 14.3281C12.8046 14.4888 12.4024 14.5692 12.0003 14.5692C11.5981 14.5692 11.1925 14.4888 10.8144 14.3281L5.92635 12.2634L5.40042 18.1042Z" fill="white" fill-opacity="0.4"/>
</g>
<defs>
<clipPath id="clip0_344_30724">
<rect width="24" height="24" fill="white"/>
</clipPath>
</defs>
</svg>
