<svg width="24" height="24" viewBox="0 0 24 24" fill="none" xmlns="http://www.w3.org/2000/svg">
<g clip-path="url(#clip0_344_30712)">
<path d="M13.2675 3.32607L12.3825 1.27232C12.2363 0.915702 11.7788 0.902812 11.6175 1.27232L10.7325 3.32607L8.77125 3.64831C8.4225 3.70846 8.2725 4.20257 8.53125 4.49903L9.95625 6.08875L9.61875 8.32726C9.56625 8.72684 9.92625 9.03619 10.2487 8.85144L12.0075 7.78589L13.755 8.83425C14.0775 9.01901 14.4413 8.70965 14.385 8.31007L14.0475 6.07157L15.4725 4.49903C15.7275 4.20686 15.5813 3.71276 15.2325 3.64831L13.2713 3.32607H13.2675ZM9.6 12.0008C8.93625 12.0008 8.4 12.6152 8.4 13.3757V21.6251C8.4 22.3856 8.93625 23 9.6 23H14.4C15.0638 23 15.6 22.3856 15.6 21.6251V13.3757C15.6 12.6152 15.0638 12.0008 14.4 12.0008H9.6ZM1.2 14.7506C0.53625 14.7506 0 15.365 0 16.1255V21.6251C0 22.3856 0.53625 23 1.2 23H6C6.66375 23 7.2 22.3856 7.2 21.6251V16.1255C7.2 15.365 6.66375 14.7506 6 14.7506H1.2ZM16.8 18.8753V21.6251C16.8 22.3856 17.3363 23 18 23H22.8C23.4638 23 24 22.3856 24 21.6251V18.8753C24 18.1148 23.4638 17.5004 22.8 17.5004H18C17.3363 17.5004 16.8 18.1148 16.8 18.8753Z" fill="white" fill-opacity="0.4"/>
</g>
<defs>
<clipPath id="clip0_344_30712">
<rect width="24" height="24" fill="white"/>
</clipPath>
</defs>
</svg>
