<svg width="29" height="20" viewBox="0 0 29 20" fill="none" xmlns="http://www.w3.org/2000/svg">
<path d="M27.0525 0.0410156H2.79746C1.72169 0.0410156 0.849609 0.913098 0.849609 1.98887V17.4309C0.849609 18.5067 1.72169 19.3788 2.79746 19.3788H27.0525C28.1283 19.3788 29.0004 18.5067 29.0004 17.4309V1.98887C29.0004 0.913098 28.1283 0.0410156 27.0525 0.0410156Z" fill="#488FCC"/>
<path d="M14.8152 0.767578L1.34375 18.7159C1.52594 18.9218 1.74954 19.0868 1.99992 19.2003C2.2503 19.3137 2.52181 19.373 2.79669 19.3743H27.0517C27.3256 19.3738 27.5963 19.3153 27.846 19.2026C28.0957 19.0899 28.3186 18.9256 28.5001 18.7205L14.8152 0.767578Z" fill="#3374BA"/>
<path d="M27.0533 0.0410843H2.79821C2.53852 0.0406236 2.28137 0.0922182 2.04196 0.192819C1.80254 0.29342 1.58572 0.440987 1.4043 0.626801L11.3933 11.2878C11.5686 11.4729 11.7798 11.6203 12.014 11.721C12.2482 11.8217 12.5005 11.8736 12.7554 11.8735H17.4775C17.7345 11.8709 17.9883 11.8151 18.2227 11.7096C18.4571 11.6041 18.6672 11.4512 18.8396 11.2605L28.4563 0.626801C28.2741 0.439466 28.0558 0.290983 27.8147 0.190316C27.5736 0.0896481 27.3146 0.0388829 27.0533 0.0410843Z" fill="#71B2E2"/>
</svg>
