<svg width="32" height="32" viewBox="0 0 32 32" fill="none" xmlns="http://www.w3.org/2000/svg">
<g clip-path="url(#clip0_458_12746)">
<path d="M29.3327 17.788C27.9083 17.2835 26.3702 17.1927 24.8963 17.5261C23.4225 17.8595 22.0732 18.6036 21.0047 19.672C19.9362 20.7405 19.1922 22.0898 18.8588 23.5637C18.5253 25.0375 18.6161 26.5756 19.1207 28H3.99935C3.64573 28 3.30659 27.8595 3.05654 27.6095C2.80649 27.3594 2.66602 27.0203 2.66602 26.6667V5.33333C2.66602 4.97971 2.80649 4.64057 3.05654 4.39052C3.30659 4.14048 3.64573 4 3.99935 4H27.9993C28.353 4 28.6921 4.14048 28.9422 4.39052C29.1922 4.64057 29.3327 4.97971 29.3327 5.33333V17.788ZM16.0793 15.5773L7.53001 8.31733L5.80335 10.3493L16.0967 19.0893L26.2047 10.3427L24.4607 8.32533L16.0807 15.5773H16.0793ZM22.7327 26.064C22.6435 25.581 22.6435 25.0857 22.7327 24.6027L21.3807 23.8213L22.714 21.512L24.066 22.2933C24.4367 21.976 24.8647 21.7267 25.3327 21.56V20H27.9993V21.56C28.4673 21.7267 28.8953 21.976 29.266 22.2933L30.618 21.512L31.9513 23.8213L30.5993 24.6027C30.6886 25.0857 30.6886 25.581 30.5993 26.064L31.9513 26.8453L30.618 29.1547L29.266 28.3733C28.8925 28.6937 28.4631 28.9423 27.9993 29.1067V30.6667H25.3327V29.1067C24.8689 28.9423 24.4395 28.6937 24.066 28.3733L22.714 29.1547L21.3807 26.8453L22.7327 26.064ZM26.666 26.6667C27.0196 26.6667 27.3588 26.5262 27.6088 26.2761C27.8589 26.0261 27.9993 25.687 27.9993 25.3333C27.9993 24.9797 27.8589 24.6406 27.6088 24.3905C27.3588 24.1405 27.0196 24 26.666 24C26.3124 24 25.9733 24.1405 25.7232 24.3905C25.4732 24.6406 25.3327 24.9797 25.3327 25.3333C25.3327 25.687 25.4732 26.0261 25.7232 26.2761C25.9733 26.5262 26.3124 26.6667 26.666 26.6667Z" fill="url(#paint0_linear_458_12746)"/>
</g>
<defs>
<linearGradient id="paint0_linear_458_12746" x1="17.3087" y1="4" x2="17.3087" y2="30.6667" gradientUnits="userSpaceOnUse">
<stop stop-color="#5AABFF"/>
<stop offset="1" stop-color="#3431DC"/>
</linearGradient>
<clipPath id="clip0_458_12746">
<rect width="32" height="32" fill="white"/>
</clipPath>
</defs>
</svg>
