<svg width="31" height="26" viewBox="0 0 31 26" fill="none" xmlns="http://www.w3.org/2000/svg">
<path d="M11.4387 13.3327H14.332C15.9233 13.3327 17.4495 13.9648 18.5747 15.09C19.6999 16.2153 20.332 17.7414 20.332 19.3327H10.9974L10.9987 20.666H21.6654V19.3327C21.6612 17.914 21.2513 16.5261 20.484 15.3327H24.332C25.5924 15.3323 26.827 15.6893 27.8927 16.3621C28.9585 17.0349 29.8117 17.996 30.3534 19.134C27.2 23.2953 22.0947 25.9993 16.332 25.9993C12.6507 25.9993 9.53203 25.2127 6.9987 23.8327V11.4273C8.62085 11.6597 10.1527 12.3171 11.4387 13.3327ZM5.66536 23.3327C5.66536 23.6863 5.52489 24.0254 5.27484 24.2755C5.02479 24.5255 4.68565 24.666 4.33203 24.666H1.66536C1.31174 24.666 0.972604 24.5255 0.722555 24.2755C0.472507 24.0254 0.332031 23.6863 0.332031 23.3327V11.3327C0.332031 10.9791 0.472507 10.6399 0.722555 10.3899C0.972604 10.1398 1.31174 9.99935 1.66536 9.99935H4.33203C4.68565 9.99935 5.02479 10.1398 5.27484 10.3899C5.52489 10.6399 5.66536 10.9791 5.66536 11.3327V23.3327ZM22.9987 4.66602C24.0596 4.66602 25.077 5.08744 25.8271 5.83759C26.5773 6.58773 26.9987 7.60515 26.9987 8.66602C26.9987 9.72688 26.5773 10.7443 25.8271 11.4944C25.077 12.2446 24.0596 12.666 22.9987 12.666C21.9378 12.666 20.9204 12.2446 20.1703 11.4944C19.4201 10.7443 18.9987 9.72688 18.9987 8.66602C18.9987 7.60515 19.4201 6.58773 20.1703 5.83759C20.9204 5.08744 21.9378 4.66602 22.9987 4.66602ZM13.6654 0.666016C14.7262 0.666016 15.7436 1.08744 16.4938 1.83759C17.2439 2.58773 17.6654 3.60515 17.6654 4.66602C17.6654 5.72688 17.2439 6.7443 16.4938 7.49444C15.7436 8.24459 14.7262 8.66602 13.6654 8.66602C12.6045 8.66602 11.5871 8.24459 10.8369 7.49444C10.0868 6.7443 9.66536 5.72688 9.66536 4.66602C9.66536 3.60515 10.0868 2.58773 10.8369 1.83759C11.5871 1.08744 12.6045 0.666016 13.6654 0.666016Z" fill="#8898A6"/>
</svg>
