<svg width="30" height="32" viewBox="0 0 30 32" fill="none" xmlns="http://www.w3.org/2000/svg">
<g clip-path="url(#clip0_458_12948)">
<path d="M22.6623 6.32434L17.6569 3.37594L15.0002 0.716247C13.31 0.46327 11.5885 0.885277 10.204 1.89195C7.86445 3.59018 0.497359 10.455 0.476562 15.1225C0.694924 16.2251 2.56399 17.8802 2.56399 17.8802C2.56399 17.8802 1.56967 20.583 2.83175 22.0147C4.09382 23.4465 6.23324 24.7528 7.82936 24.7528C9.42548 24.7528 14.9781 33.1878 22.6623 30.0827C26.8606 28.1806 30.1529 23.7208 29.4718 22.0174C28.7908 20.3139 27.621 19.5275 27.621 19.5275C27.621 19.5275 28.7193 16.7842 28.1708 16.4576C27.6223 16.131 26.394 15.1578 24.7914 15.1225C23.1887 15.0872 25.1514 12.212 24.3715 10.6444C23.5917 9.07679 21.993 6.83773 22.6623 6.32434Z" fill="#FFE10B"/>
<path d="M22.5662 15.1219C22.7853 15.0925 23.0074 15.0925 23.2265 15.1219C23.3448 14.8489 23.3643 14.3773 23.259 13.8653C23.1004 13.1037 22.886 12.6425 22.4427 12.7144C21.9995 12.7862 21.9839 13.3388 22.1425 14.1004C22.2081 14.4678 22.3527 14.8165 22.5662 15.1219Z" fill="black"/>
<path d="M18.7644 15.7247C19.0802 15.8644 19.2752 15.9572 19.3519 15.8762C19.4013 15.8253 19.3857 15.7286 19.3103 15.6045C19.1061 15.3094 18.8219 15.0795 18.4914 14.9422C18.1375 14.7949 17.7518 14.7416 17.3715 14.7874C16.9911 14.8332 16.6289 14.9764 16.3195 15.2034C16.1077 15.3589 15.9062 15.5757 15.9296 15.7064C15.9387 15.7495 15.9712 15.7808 16.0453 15.7913C16.2194 15.8122 16.8251 15.5013 17.5335 15.4582C17.9594 15.4437 18.3822 15.5353 18.7644 15.7247Z" fill="black"/>
<path d="M18.1312 16.09C17.8428 16.1205 17.5695 16.2349 17.3449 16.4192C17.2402 16.4942 17.1685 16.607 17.1447 16.734C17.1439 16.7482 17.1462 16.7624 17.1516 16.7755C17.157 16.7886 17.1653 16.8003 17.1759 16.8098C17.1942 16.8269 17.2184 16.8362 17.2435 16.8359C17.3475 16.8207 17.4492 16.7926 17.5463 16.7523C17.9698 16.5919 18.4274 16.5442 18.8747 16.6138C19.0813 16.6373 19.1801 16.6491 19.2256 16.5785C19.2363 16.5578 19.2407 16.5345 19.2384 16.5113C19.2361 16.4881 19.2272 16.4661 19.2126 16.4479C19.1112 16.2885 18.6953 16.022 18.1312 16.09Z" fill="black"/>
<path d="M21.2817 17.4373C21.5611 17.5758 21.8705 17.5209 21.9705 17.3158C22.0706 17.1107 21.925 16.8312 21.6443 16.6927C21.3635 16.5542 21.0555 16.6091 20.9554 16.8142C20.8553 17.0193 21.0009 17.2936 21.2817 17.4373Z" fill="black"/>
<path d="M23.0833 15.8496C22.8559 15.8496 22.6674 16.0965 22.6622 16.41C22.657 16.7235 22.8377 16.9809 23.0651 16.9848C23.2926 16.9887 23.4811 16.7379 23.4863 16.4244C23.4915 16.1109 23.3121 15.8535 23.0833 15.8496Z" fill="black"/>
<path d="M7.79611 21.5063C7.73892 21.4344 7.64664 21.4566 7.55565 21.4775C7.48654 21.4963 7.41537 21.5064 7.34379 21.5076C7.26753 21.5095 7.192 21.4923 7.12395 21.4577C7.0559 21.423 6.99746 21.3719 6.95386 21.309C6.84988 21.1496 6.85638 20.9171 6.97076 20.6376L7.02405 20.5148C7.20602 20.1033 7.51146 19.4148 7.16832 18.7577C7.05729 18.5262 6.89092 18.3259 6.68406 18.1748C6.47721 18.0236 6.23632 17.9264 5.98293 17.8916C5.74452 17.8618 5.50246 17.889 5.27655 17.9712C5.05064 18.0534 4.8473 18.1882 4.68316 18.3645C4.18015 18.9236 4.10086 19.6826 4.19835 19.9517C4.23344 20.0497 4.28933 20.0824 4.32832 20.0824C4.41411 20.0941 4.54148 20.0314 4.62077 19.8211C4.62077 19.8054 4.63377 19.7819 4.64287 19.7506C4.69192 19.5779 4.76221 19.412 4.85213 19.2568C4.91661 19.1567 5.00028 19.0705 5.09824 19.0032C5.1962 18.9359 5.30651 18.8889 5.42273 18.8649C5.54164 18.8387 5.66458 18.8368 5.78424 18.8592C5.90391 18.8816 6.01788 18.928 6.11941 18.9955C6.29105 19.1088 6.41846 19.2782 6.48005 19.4751C6.54164 19.672 6.53362 19.8842 6.45735 20.0758C6.33692 20.3818 6.27688 20.7083 6.28058 21.0373C6.33777 21.7192 6.755 21.9922 7.12933 22.0223C7.26365 22.0345 7.3987 22.009 7.51942 21.9485C7.64014 21.8881 7.74179 21.7951 7.81301 21.68C7.82914 21.6531 7.83621 21.6216 7.83316 21.5903C7.83012 21.559 7.81713 21.5296 7.79611 21.5063Z" fill="black"/>
<path d="M28.8277 20.2588C28.8134 20.2104 28.7237 19.8786 28.599 19.475C28.5283 19.2433 28.4441 19.0161 28.3468 18.7944C28.8446 18.0445 28.8537 17.3744 28.7874 16.9955C28.713 16.506 28.4816 16.0542 28.1284 15.7088C27.7385 15.2947 26.9327 14.8701 25.8045 14.5514L25.2118 14.3868C25.2118 14.362 25.1806 12.9825 25.1546 12.3907C25.1432 11.7995 25.0549 11.2123 24.892 10.6441C24.6464 9.75322 24.2174 8.97334 23.6832 8.47432C25.1585 6.93807 26.0787 5.24505 26.0774 3.79241C26.0774 0.99946 22.6603 0.154263 18.4542 1.90475L17.5639 2.28359C17.5639 2.28359 15.9535 0.692473 15.9236 0.671572C11.1287 -3.53222 -3.86412 13.2124 0.929435 17.2856L1.97705 18.1765C1.69406 18.9392 1.59387 19.7582 1.6846 20.5671C1.79768 21.6866 2.37218 22.7591 3.30281 23.5886C4.18666 24.3724 5.34995 24.8741 6.47815 24.8728C8.34852 29.1941 12.6105 31.8434 17.6133 31.9936C22.9735 32.153 27.4734 29.6252 29.3593 25.0844C29.4828 24.7656 30.0092 23.3287 30.0092 22.0615C30.0092 20.7944 29.2839 20.2588 28.8277 20.2588ZM6.89538 23.6552C6.73143 23.6834 6.56512 23.6952 6.39887 23.6905C4.77935 23.6474 3.02986 22.1817 2.85699 20.4443C2.66463 18.524 3.63685 17.0478 5.36945 16.6964C5.60811 16.6488 5.85174 16.6312 6.09472 16.6441C7.06305 16.6977 8.4902 17.4449 8.81644 19.5651C9.10499 21.4475 8.64487 23.36 6.89538 23.6592V23.6552ZM5.0874 15.5468C4.03822 15.7442 3.10624 16.3432 2.48786 17.2176C2.14082 16.9263 1.49483 16.3646 1.38045 16.1451C0.455015 14.3776 2.39167 10.942 3.74473 9.00207C7.08775 4.20782 12.3232 0.57882 14.7473 1.23721C15.1372 1.34825 16.4461 2.87013 16.4461 2.87013C14.8028 3.81617 13.2407 4.89807 11.776 6.10462C8.74365 8.4508 6.45736 11.8564 5.0874 15.5507V15.5468ZM22.0819 22.9381C22.0996 22.9296 22.1143 22.916 22.124 22.899C22.1338 22.8819 22.1381 22.8623 22.1365 22.8427C22.1355 22.8309 22.1322 22.8194 22.1268 22.8089C22.1213 22.7984 22.1138 22.7891 22.1047 22.7816C22.0956 22.774 22.0852 22.7684 22.0739 22.765C22.0626 22.7616 22.0507 22.7605 22.039 22.7617C22.039 22.7617 19.5032 23.1392 17.1064 22.2575C17.3663 21.4057 18.0617 21.7127 19.1106 21.7976C20.7409 21.8961 22.3761 21.7195 23.9484 21.2751C25.0324 20.9616 26.4582 20.345 27.5656 19.4671C27.8041 20.021 27.9735 20.6024 28.07 21.198C28.253 21.1717 28.4397 21.2061 28.6016 21.296C28.829 21.4371 28.9915 21.731 28.8823 22.4887C28.6496 23.9074 28.0505 25.0569 27.0431 26.1151C26.4137 26.7996 25.6648 27.3623 24.8335 27.7754C24.3701 28.0199 23.887 28.2248 23.3895 28.3881C19.5915 29.6343 15.7039 28.2575 14.451 25.3208C14.3495 25.0959 14.2652 24.8636 14.1988 24.6259C13.6659 22.6859 14.1182 20.3581 15.5363 18.8937C15.6362 18.8067 15.6994 18.6848 15.713 18.5527C15.702 18.4343 15.6568 18.3217 15.5831 18.2287C15.0865 17.5063 13.3734 16.2692 13.714 13.8904C13.9609 12.1778 15.4518 10.972 16.8412 11.0439L17.1935 11.0635C17.7953 11.1 18.3204 11.1771 18.8156 11.1941C19.6448 11.2307 20.3909 11.1092 21.2747 10.3698C21.5724 10.119 21.8115 9.90345 22.2158 9.83421C22.3332 9.80376 22.4547 9.79186 22.5758 9.79894C22.7916 9.8071 23.0011 9.87441 23.1815 9.99358C23.8899 10.4678 23.99 11.6147 24.0264 12.4534C24.0472 12.9328 24.1056 14.0916 24.1251 14.4247C24.1693 15.185 24.3682 15.2921 24.775 15.4253C25.0012 15.5011 25.2118 15.556 25.5211 15.6435C26.4595 15.9048 27.0145 16.1765 27.3655 16.5213C27.5468 16.6996 27.6651 16.9327 27.7021 17.185C27.8126 17.9949 27.0756 18.9969 25.1247 19.9061C22.993 20.9002 20.4065 21.1523 18.6258 20.9511L17.9993 20.8806C16.5696 20.6859 15.7546 22.5436 16.6125 23.8146C17.1649 24.635 18.6713 25.168 20.1777 25.1693C23.6325 25.1693 26.2867 23.6866 27.2758 22.4064C27.3057 22.3672 27.3083 22.3633 27.3551 22.2927C27.4019 22.2222 27.3629 22.1791 27.3031 22.2196C26.4959 22.7748 22.9112 24.9786 19.0768 24.3097C18.7732 24.2565 18.4752 24.1752 18.1865 24.0667C17.8485 23.9361 17.1467 23.6082 17.0544 22.878C20.1336 23.8512 22.0819 22.942 22.0819 22.942V22.9381ZM11.2613 8.9864C12.4493 7.60691 13.9128 6.40639 15.223 5.73232C15.2328 5.72763 15.2438 5.72613 15.2544 5.72802C15.2651 5.72991 15.2749 5.7351 15.2825 5.74287C15.2901 5.75064 15.2951 5.7606 15.2968 5.77135C15.2984 5.78211 15.2968 5.79312 15.2919 5.80286C15.1318 6.08692 15.0082 6.39023 14.9241 6.70554C14.9213 6.71611 14.9219 6.72727 14.9257 6.73752C14.9294 6.74776 14.9362 6.75661 14.9451 6.76286C14.9541 6.76912 14.9647 6.77249 14.9755 6.77251C14.9864 6.77254 14.997 6.76923 15.006 6.76302C15.8222 6.2039 17.2403 5.6056 18.4841 5.52853C18.4957 5.52795 18.5072 5.53109 18.5169 5.53749C18.5265 5.54389 18.5339 5.55322 18.538 5.56414C18.542 5.57505 18.5425 5.58697 18.5394 5.59819C18.5363 5.6094 18.5297 5.61932 18.5205 5.6265C18.3151 5.78614 18.1312 5.97189 17.9733 6.17908C17.9677 6.18697 17.9642 6.19626 17.9634 6.20595C17.9626 6.21565 17.9644 6.22539 17.9687 6.23412C17.973 6.24285 17.9795 6.25024 17.9877 6.2555C17.9958 6.26077 18.0052 6.2637 18.0149 6.264C19.0291 6.29874 20.0228 6.56025 20.9238 7.02951C20.9771 7.06086 20.9394 7.16014 20.8783 7.1523C19.1436 6.75901 17.3429 6.76393 15.6103 7.16667C13.7673 7.61867 12.3609 8.31625 11.3328 9.06609C11.3223 9.07561 11.3084 9.08055 11.2943 9.07982C11.2802 9.07908 11.2669 9.07274 11.2574 9.06217C11.2479 9.0516 11.243 9.03768 11.2437 9.02347C11.2445 9.00926 11.2508 8.99593 11.2613 8.9864V8.9864Z" fill="black"/>
</g>
<defs>
<clipPath id="clip0_458_12948">
<rect width="30" height="32" fill="white"/>
</clipPath>
</defs>
</svg>
