<svg width="28" height="24" viewBox="0 0 28 24" fill="none" xmlns="http://www.w3.org/2000/svg">
<path d="M3.99994 5.07692C3.99994 3.73044 4.57939 2.4391 5.61083 1.487C6.64226 0.534888 8.04119 0 9.49986 0C10.9585 0 12.3575 0.534888 13.3889 1.487C14.4203 2.4391 14.9998 3.73044 14.9998 5.07692C14.9998 6.4234 14.4203 7.71474 13.3889 8.66684C12.3575 9.61895 10.9585 10.1538 9.49986 10.1538C8.04119 10.1538 6.64226 9.61895 5.61083 8.66684C4.57939 7.71474 3.99994 6.4234 3.99994 5.07692ZM16.9997 7.84615C16.9997 7.30066 17.1161 6.76051 17.3423 6.25654C17.5684 5.75257 17.8999 5.29466 18.3177 4.90894C18.7356 4.52322 19.2317 4.21725 19.7776 4.0085C20.3236 3.79975 20.9087 3.69231 21.4997 3.69231C22.0906 3.69231 22.6758 3.79975 23.2217 4.0085C23.7677 4.21725 24.2638 4.52322 24.6816 4.90894C25.0995 5.29466 25.4309 5.75257 25.6571 6.25654C25.8832 6.76051 25.9996 7.30066 25.9996 7.84615C25.9996 8.94782 25.5255 10.0044 24.6816 10.7834C23.8377 11.5624 22.6931 12 21.4997 12C20.3062 12 19.1616 11.5624 18.3177 10.7834C17.4738 10.0044 16.9997 8.94782 16.9997 7.84615ZM0 20.7692C3.75438e-08 18.4435 1.00088 16.213 2.78244 14.5684C4.56401 12.9239 6.98034 12 9.49986 12C12.0194 12 14.4357 12.9239 16.2173 14.5684C17.9988 16.213 18.9997 18.4435 18.9997 20.7692V20.7729L18.9984 20.9194C18.9956 21.0759 18.9497 21.2292 18.865 21.3648C18.7803 21.5005 18.6597 21.614 18.5144 21.6948C15.7934 23.2073 12.6762 24.0045 9.49986 24C6.20391 24 3.11862 23.1581 0.486659 21.6948C0.34113 21.6141 0.220219 21.5007 0.135313 21.365C0.0504076 21.2294 0.00430039 21.076 0.00133338 20.9194L0 20.7692ZM20.9997 20.7729L20.9984 20.9501C20.9909 21.3604 20.8848 21.7639 20.6877 22.1317C23.0153 22.2642 25.3402 21.8358 27.4343 20.8886C27.5962 20.8155 27.7337 20.7034 27.8323 20.5641C27.9309 20.4248 27.9868 20.2635 27.9942 20.0972C28.0413 19.0649 27.7988 18.0388 27.2902 17.1185C26.7815 16.1981 26.024 15.4145 25.091 14.8437C24.158 14.2729 23.0811 13.9341 21.9647 13.8603C20.8482 13.7864 19.73 13.98 18.7184 14.4221C20.2026 16.2542 21.0027 18.4815 20.9984 20.7692L20.9997 20.7729Z" fill="#8898A6"/>
</svg>
