<svg width="16" height="20" viewBox="0 0 16 20" fill="none" xmlns="http://www.w3.org/2000/svg">
<path fill-rule="evenodd" clip-rule="evenodd" d="M6.33346 0.966797C5.70578 0.966797 5.10381 1.21614 4.65998 1.65998C4.21614 2.10381 3.9668 2.70578 3.9668 3.33346V5.13345H2.99948C2.3718 5.13345 1.76983 5.3828 1.32599 5.82663C0.882157 6.27047 0.632812 6.87244 0.632812 7.50012V16.6668C0.632812 17.2945 0.882157 17.8964 1.32599 18.3403C1.76983 18.7841 2.3718 19.0335 2.99948 19.0335H9.66615C10.2938 19.0335 10.8958 18.7841 11.3396 18.3403C11.7835 17.8964 12.0328 17.2945 12.0328 16.6668V15.7001H13.0001C13.6278 15.7001 14.2298 15.4508 14.6736 15.007C15.1175 14.5631 15.3668 13.9611 15.3668 13.3335V6.03505C15.3668 5.71976 15.3037 5.40766 15.1814 5.11707C15.0591 4.82648 14.8799 4.56327 14.6544 4.34288L11.892 1.6413C11.4499 1.20898 10.856 0.966874 10.2376 0.966797H6.33346ZM11.3372 14.3001C11.3357 14.3001 11.3343 14.3001 11.3328 14.3001C11.3314 14.3001 11.3299 14.3001 11.3284 14.3001H6.33346C6.07709 14.3001 5.83121 14.1983 5.64993 14.017C5.46864 13.8357 5.3668 13.5898 5.3668 13.3335V3.33346C5.3668 3.07709 5.46864 2.83121 5.64993 2.64993C5.83121 2.46864 6.07709 2.3668 6.33346 2.3668H10.2376C10.4902 2.36685 10.7327 2.46576 10.9132 2.6423L13.6758 5.34405C13.7679 5.43406 13.8411 5.54158 13.8911 5.66027C13.941 5.77893 13.9668 5.90647 13.9668 6.03522V13.3335C13.9668 13.5898 13.865 13.8357 13.6837 14.017C13.5024 14.1983 13.2565 14.3001 13.0001 14.3001H11.3372ZM10.6328 15.7001V16.6668C10.6328 16.9232 10.531 17.169 10.3497 17.3503C10.1684 17.5316 9.92252 17.6335 9.66615 17.6335H2.99948C2.7431 17.6335 2.49723 17.5316 2.31594 17.3503C2.13466 17.169 2.03281 16.9232 2.03281 16.6668V7.50012C2.03281 7.24374 2.13466 6.99787 2.31594 6.81658C2.49723 6.6353 2.7431 6.53345 2.99948 6.53345H3.9668V13.3335C3.9668 13.9611 4.21614 14.5631 4.65998 15.007C5.10381 15.4508 5.70578 15.7001 6.33346 15.7001H10.6328Z" fill="#4776E6"/>
</svg>
