<svg width="32" height="32" viewBox="0 0 32 32" fill="none" xmlns="http://www.w3.org/2000/svg">
<rect width="32" height="32" rx="4" fill="#F5F8FA"/>
<g clip-path="url(#clip0_2434_16202)">
<path d="M11 8V6H21V8H26V10H24V25C24 25.2652 23.8946 25.5196 23.7071 25.7071C23.5196 25.8946 23.2652 26 23 26H9C8.73478 26 8.48043 25.8946 8.29289 25.7071C8.10536 25.5196 8 25.2652 8 25V10H6V8H11ZM10 10V24H22V10H10ZM13 13H15V21H13V13ZM17 13H19V21H17V13Z" fill="#8898A6"/>
</g>
<defs>
<clipPath id="clip0_2434_16202">
<rect width="24" height="24" fill="white" transform="translate(4 4)"/>
</clipPath>
</defs>
</svg>
