<svg width="48" height="48" viewBox="0 0 48 48" fill="none" xmlns="http://www.w3.org/2000/svg">
<g filter="url(#filter0_d_458_15094)">
<circle cx="24" cy="23" r="20" fill="white"/>
</g>
<g clip-path="url(#clip0_458_15094)">
<path d="M31.5 33.5H20.25C19.8523 33.4996 19.471 33.3414 19.1898 33.0602C18.9086 32.779 18.7504 32.3977 18.75 32V27.5H20.25V32H31.5V15.5H24.75V14H31.5C31.8977 14.0004 32.279 14.1586 32.5602 14.4398C32.8414 14.721 32.9996 15.1023 33 15.5V32C32.9996 32.3977 32.8414 32.779 32.5602 33.0602C32.279 33.3414 31.8977 33.4996 31.5 33.5Z" fill="#50BEE8"/>
<path d="M24.75 18.5H30V20H24.75V18.5ZM24 22.25H30V23.75H24V22.25ZM23.25 26H30V27.5H23.25V26ZM18.75 25.25C17.7557 25.249 16.8025 24.8536 16.0994 24.1506C15.3964 23.4475 15.001 22.4943 15 21.5V13.25H16.5V21.5C16.5 22.0967 16.7371 22.669 17.159 23.091C17.581 23.5129 18.1533 23.75 18.75 23.75C19.3467 23.75 19.919 23.5129 20.341 23.091C20.7629 22.669 21 22.0967 21 21.5V14.75C21 14.5511 20.921 14.3603 20.7803 14.2197C20.6397 14.079 20.4489 14 20.25 14C20.0511 14 19.8603 14.079 19.7197 14.2197C19.579 14.3603 19.5 14.5511 19.5 14.75V22.25H18V14.75C18 14.1533 18.2371 13.581 18.659 13.159C19.081 12.7371 19.6533 12.5 20.25 12.5C20.8467 12.5 21.419 12.7371 21.841 13.159C22.2629 13.581 22.5 14.1533 22.5 14.75V21.5C22.499 22.4943 22.1036 23.4475 21.4006 24.1506C20.6975 24.8536 19.7443 25.249 18.75 25.25Z" fill="#50BEE8"/>
</g>
<defs>
<filter id="filter0_d_458_15094" x="0" y="0" width="48" height="48" filterUnits="userSpaceOnUse" color-interpolation-filters="sRGB">
<feFlood flood-opacity="0" result="BackgroundImageFix"/>
<feColorMatrix in="SourceAlpha" type="matrix" values="0 0 0 0 0 0 0 0 0 0 0 0 0 0 0 0 0 0 127 0" result="hardAlpha"/>
<feOffset dy="1"/>
<feGaussianBlur stdDeviation="2"/>
<feComposite in2="hardAlpha" operator="out"/>
<feColorMatrix type="matrix" values="0 0 0 0 0 0 0 0 0 0 0 0 0 0 0 0 0 0 0.1 0"/>
<feBlend mode="normal" in2="BackgroundImageFix" result="effect1_dropShadow_458_15094"/>
<feBlend mode="normal" in="SourceGraphic" in2="effect1_dropShadow_458_15094" result="shape"/>
</filter>
<clipPath id="clip0_458_15094">
<rect width="24" height="24" fill="white" transform="translate(12 11)"/>
</clipPath>
</defs>
</svg>
