<?xml version="1.0" standalone="no"?>
<!DOCTYPE svg PUBLIC "-//W3C//DTD SVG 20010904//EN"
 "http://www.w3.org/TR/2001/REC-SVG-20010904/DTD/svg10.dtd">
<svg version="1.0" xmlns="http://www.w3.org/2000/svg"
 width="512.000000pt" height="512.000000pt" viewBox="0 0 512.000000 512.000000"
 preserveAspectRatio="xMidYMid meet">

<g transform="translate(0.000000,512.000000) scale(0.100000,-0.100000)"
fill="#000000" stroke="none">
<path d="M3670 3133 c-765 -798 -807 -840 -870 -877 -152 -89 -329 -89 -489
-1 -43 24 -41 21 45 -65 l90 -91 75 -6 c97 -7 202 16 299 64 64 32 96 58 221
186 l145 148 488 -508 488 -508 -1601 -5 -1601 -5 734 -734 735 -734 183 6
c694 24 1276 274 1754 751 476 477 726 1059 751 1749 l6 178 -479 480 c-263
263 -481 479 -484 479 -3 -1 -223 -228 -490 -507z m570 -573 c0 -545 -2 -990
-4 -990 -2 0 -221 223 -486 495 l-482 495 265 273 c145 149 360 372 478 494
118 122 217 222 222 222 4 1 7 -444 7 -989z"/>
<path d="M1367 2062 l-486 -499 40 -39 39 -38 69 69 c62 63 774 807 860 898
l35 37 -35 36 -36 35 -486 -499z"/>
</g>
</svg>
