<svg width="48" height="48" viewBox="0 0 48 48" fill="none" xmlns="http://www.w3.org/2000/svg">
<g filter="url(#filter0_d_3986_16150)">
<circle cx="24" cy="23" r="20" fill="white"/>
</g>
<g clip-path="url(#clip0_3986_16150)">
<path d="M31.95 32C29.8 32 27.7043 31.525 25.663 30.575C23.621 29.625 21.8127 28.3583 20.238 26.775C18.6627 25.1917 17.396 23.379 16.438 21.337C15.4793 19.2957 15 17.2 15 15.05V14.525C15 14.3417 15.0167 14.1667 15.05 14H20.9L21.825 19.025L18.975 21.9C19.675 23.1 20.5543 24.225 21.613 25.275C22.671 26.325 23.8333 27.2333 25.1 28L28 25.1L33 26.1V31.95C32.8333 31.9667 32.6583 31.9793 32.475 31.988C32.2917 31.996 32.1167 32 31.95 32Z" fill="#4776E6"/>
</g>
<defs>
<filter id="filter0_d_3986_16150" x="0" y="0" width="48" height="48" filterUnits="userSpaceOnUse" color-interpolation-filters="sRGB">
<feFlood flood-opacity="0" result="BackgroundImageFix"/>
<feColorMatrix in="SourceAlpha" type="matrix" values="0 0 0 0 0 0 0 0 0 0 0 0 0 0 0 0 0 0 127 0" result="hardAlpha"/>
<feOffset dy="1"/>
<feGaussianBlur stdDeviation="2"/>
<feComposite in2="hardAlpha" operator="out"/>
<feColorMatrix type="matrix" values="0 0 0 0 0 0 0 0 0 0 0 0 0 0 0 0 0 0 0.1 0"/>
<feBlend mode="normal" in2="BackgroundImageFix" result="effect1_dropShadow_3986_16150"/>
<feBlend mode="normal" in="SourceGraphic" in2="effect1_dropShadow_3986_16150" result="shape"/>
</filter>
<clipPath id="clip0_3986_16150">
<rect width="24" height="24" fill="white" transform="translate(12 11)"/>
</clipPath>
</defs>
</svg>
