<svg width="20" height="20" viewBox="0 0 20 20" fill="none" xmlns="http://www.w3.org/2000/svg">
<g clip-path="url(#clip0_458_19278)">
<path d="M14.0055 6.89619C14.5025 6.89619 14.9055 6.49325 14.9055 5.99619C14.9055 5.49913 14.5025 5.09619 14.0055 5.09619C13.5084 5.09619 13.1055 5.49913 13.1055 5.99619C13.1055 6.49325 13.5084 6.89619 14.0055 6.89619Z" fill="#A1A5B7"/>
<path d="M9.99969 6.14868C9.23798 6.14868 8.49338 6.37455 7.86005 6.79773C7.22671 7.22091 6.73309 7.8224 6.4416 8.52612C6.15011 9.22985 6.07384 10.0042 6.22244 10.7513C6.37104 11.4983 6.73784 12.1846 7.27644 12.7232C7.81505 13.2618 8.50128 13.6286 9.24835 13.7772C9.99542 13.9258 10.7698 13.8495 11.4735 13.558C12.1772 13.2665 12.7787 12.7729 13.2019 12.1396C13.6251 11.5062 13.8509 10.7616 13.8509 9.99993C13.8509 8.97852 13.4452 7.99894 12.7229 7.27669C12.0007 6.55444 11.0211 6.14868 9.99969 6.14868ZM9.99969 12.4999C9.50524 12.4999 9.02189 12.3533 8.61076 12.0786C8.19964 11.8039 7.87921 11.4135 7.68999 10.9566C7.50077 10.4998 7.45126 9.99716 7.54773 9.51221C7.64419 9.02725 7.88229 8.5818 8.23192 8.23216C8.58155 7.88253 9.02701 7.64443 9.51196 7.54797C9.99692 7.4515 10.4996 7.50101 10.9564 7.69023C11.4132 7.87945 11.8037 8.19988 12.0784 8.61101C12.3531 9.02213 12.4997 9.50548 12.4997 9.99993C12.4997 10.663 12.2363 11.2989 11.7675 11.7677C11.2986 12.2365 10.6627 12.4999 9.99969 12.4999Z" fill="#A1A5B7"/>
<path d="M10 3.85125C12.0025 3.85125 12.24 3.85875 13.0306 3.895C13.5062 3.90065 13.9772 3.98796 14.4231 4.15313C14.7467 4.27793 15.0405 4.46909 15.2857 4.7143C15.5309 4.95951 15.7221 5.25334 15.8469 5.57688C16.012 6.02283 16.0994 6.49385 16.105 6.96938C16.1412 7.76 16.1487 7.9975 16.1487 10.0006C16.1487 12.0037 16.1412 12.24 16.105 13.0306C16.0994 13.5062 16.012 13.9772 15.8469 14.4231C15.7221 14.7467 15.5309 15.0405 15.2857 15.2857C15.0405 15.5309 14.7467 15.7221 14.4231 15.8469C13.9772 16.012 13.5062 16.0994 13.0306 16.105C12.24 16.1412 12.0025 16.1487 10 16.1487C7.9975 16.1487 7.76 16.1412 6.96938 16.105C6.49385 16.0994 6.02283 16.012 5.57688 15.8469C5.25334 15.7221 4.95951 15.5309 4.7143 15.2857C4.46909 15.0405 4.27793 14.7467 4.15313 14.4231C3.98796 13.9772 3.90065 13.5062 3.895 13.0306C3.85875 12.24 3.85125 12.0025 3.85125 10C3.85125 7.9975 3.85875 7.76 3.895 6.96938C3.90065 6.49385 3.98796 6.02283 4.15313 5.57688C4.27793 5.25334 4.46909 4.95951 4.7143 4.7143C4.95951 4.46909 5.25334 4.27793 5.57688 4.15313C6.02283 3.98796 6.49385 3.90065 6.96938 3.895C7.76 3.85875 7.9975 3.85125 10 3.85125ZM10 2.5C7.96312 2.5 7.7075 2.50875 6.9075 2.545C6.28548 2.55756 5.6701 2.67548 5.0875 2.89375C4.5892 3.08644 4.13666 3.38111 3.75889 3.75889C3.38111 4.13666 3.08644 4.5892 2.89375 5.0875C2.67541 5.6703 2.55749 6.2859 2.545 6.90813C2.50875 7.70813 2.5 7.9625 2.5 10C2.5 12.0375 2.50875 12.2925 2.545 13.0925C2.55756 13.7145 2.67548 14.3299 2.89375 14.9125C3.08644 15.4108 3.38111 15.8633 3.75889 16.2411C4.13666 16.6189 4.5892 16.9136 5.0875 17.1063C5.6703 17.3246 6.2859 17.4425 6.90813 17.455C7.70813 17.4913 7.96312 17.5 10 17.5C12.0369 17.5 12.2925 17.4913 13.0925 17.455C13.7147 17.4425 14.3303 17.3246 14.9131 17.1063C15.4114 16.9136 15.864 16.6189 16.2417 16.2411C16.6195 15.8633 16.9142 15.4108 17.1069 14.9125C17.325 14.3297 17.4427 13.7141 17.455 13.0919C17.4913 12.2919 17.5 12.0375 17.5 10C17.5 7.9625 17.4913 7.7075 17.455 6.9075C17.4424 6.28548 17.3245 5.6701 17.1063 5.0875C16.9136 4.5892 16.6189 4.13666 16.2411 3.75889C15.8633 3.38111 15.4108 3.08644 14.9125 2.89375C14.3297 2.67562 13.7141 2.55791 13.0919 2.54562C12.2919 2.50812 12.0375 2.5 10 2.5Z" fill="#A1A5B7"/>
</g>
<defs>
<clipPath id="clip0_458_19278">
<rect width="20" height="20" fill="white"/>
</clipPath>
</defs>
</svg>
