<svg width="20" height="20" viewBox="0 0 20 20" fill="none" xmlns="http://www.w3.org/2000/svg">
<g clip-path="url(#clip0_458_19274)">
<path d="M18.2826 4.22503C17.9343 3.87543 17.5203 3.59804 17.0645 3.40877C16.6086 3.2195 16.1199 3.12207 15.6264 3.12207C15.1328 3.12207 14.6441 3.2195 14.1883 3.40877C13.7325 3.59804 13.3185 3.87543 12.9701 4.22503L13.8576 5.11253C14.0903 4.87984 14.3666 4.69526 14.6706 4.56934C14.9746 4.44341 15.3005 4.37859 15.6295 4.37859C15.9586 4.37859 16.2844 4.44341 16.5885 4.56934C16.8925 4.69526 17.1687 4.87984 17.4014 5.11253C17.6341 5.34521 17.8187 5.62145 17.9446 5.92547C18.0705 6.22949 18.1353 6.55534 18.1353 6.8844C18.1353 7.21347 18.0705 7.53932 17.9446 7.84333C17.8187 8.14735 17.6341 8.42359 17.4014 8.65628L12.4014 13.6563C11.9323 14.1262 11.2957 14.3905 10.6317 14.3911C9.96773 14.3917 9.3307 14.1285 8.86077 13.6594C8.39084 13.1903 8.12651 12.5537 8.12592 11.8897C8.12533 11.2257 8.38854 10.5887 8.85764 10.1188L9.73889 9.23128L8.85764 8.34378L7.97014 9.23128C7.62054 9.57967 7.34316 9.99364 7.15389 10.4495C6.96462 10.9053 6.86719 11.394 6.86719 11.8875C6.86719 12.3811 6.96462 12.8698 7.15389 13.3256C7.34316 13.7814 7.62054 14.1954 7.97014 14.5438C8.67733 15.2419 9.63269 15.6308 10.6264 15.625C11.1218 15.6271 11.6128 15.5309 12.0708 15.3421C12.5289 15.1533 12.945 14.8756 13.2951 14.525L18.2951 9.52503C18.9957 8.82025 19.3879 7.8662 19.3856 6.87244C19.3833 5.87869 18.9866 4.9265 18.2826 4.22503Z" fill="#A1A5B7"/>
<path d="M2.61782 15.5124C2.38444 15.2801 2.19925 15.004 2.07288 14.6999C1.94652 14.3958 1.88146 14.0698 1.88146 13.7405C1.88146 13.4112 1.94652 13.0852 2.07288 12.7811C2.19925 12.477 2.38444 12.2009 2.61782 11.9686L7.61782 6.96864C7.85011 6.73526 8.12622 6.55007 8.4303 6.4237C8.73437 6.29734 9.06041 6.23229 9.38969 6.23229C9.71897 6.23229 10.045 6.29734 10.3491 6.4237C10.6532 6.55007 10.9293 6.73526 11.1616 6.96864C11.3935 7.20276 11.576 7.48106 11.6984 7.78702C11.8208 8.09299 11.8805 8.42041 11.8741 8.74989C11.876 9.08039 11.8123 9.40799 11.6868 9.71374C11.5613 10.0195 11.3764 10.2973 11.1428 10.5311L9.81782 11.8749L10.7053 12.7624L12.0303 11.4374C12.7356 10.7321 13.1319 9.77547 13.1319 8.77801C13.1319 7.78056 12.7356 6.82395 12.0303 6.11864C11.325 5.41333 10.3684 5.01709 9.37094 5.01709C8.37348 5.01709 7.41688 5.41333 6.71157 6.11864L1.71157 11.1186C1.36103 11.4671 1.08284 11.8815 0.893018 12.3379C0.703192 12.7943 0.605469 13.2837 0.605469 13.778C0.605469 14.2723 0.703192 14.7617 0.893018 15.2181C1.08284 15.6745 1.36103 16.0889 1.71157 16.4374C2.42333 17.1302 3.38088 17.5123 4.37407 17.4999C5.376 17.5008 6.33764 17.1054 7.04907 16.3999L6.16157 15.5124C5.92927 15.7458 5.65316 15.931 5.34909 16.0573C5.04501 16.1837 4.71897 16.2487 4.38969 16.2487C4.06041 16.2487 3.73437 16.1837 3.4303 16.0573C3.12622 15.931 2.85011 15.7458 2.61782 15.5124Z" fill="#A1A5B7"/>
</g>
<defs>
<clipPath id="clip0_458_19274">
<rect width="20" height="20" fill="white"/>
</clipPath>
</defs>
</svg>
