<svg width="48" height="48" viewBox="0 0 48 48" fill="none" xmlns="http://www.w3.org/2000/svg">
<g filter="url(#filter0_d_458_15079)">
<circle cx="24" cy="23" r="20" fill="white"/>
</g>
<g clip-path="url(#clip0_458_15079)">
<path d="M16.5 26.75V26H15V26.75C15 28.1424 15.5531 29.4777 16.5377 30.4623C17.5223 31.4469 18.8576 32 20.25 32H22.5V30.5H20.25C19.2554 30.5 18.3016 30.1049 17.5983 29.4017C16.8951 28.6984 16.5 27.7446 16.5 26.75ZM30 19.25V20H31.5V19.25C31.5 17.8576 30.9469 16.5223 29.9623 15.5377C28.9777 14.5531 27.6424 14 26.25 14H24V15.5H26.25C26.7425 15.5 27.2301 15.597 27.6851 15.7855C28.14 15.9739 28.5534 16.2501 28.9017 16.5984C29.2499 16.9466 29.5261 17.36 29.7145 17.8149C29.903 18.2699 30 18.7575 30 19.25ZM20.25 19.25H15.75C15.1533 19.25 14.581 19.4871 14.159 19.909C13.7371 20.331 13.5 20.9033 13.5 21.5V23H15V21.5C15 21.3011 15.079 21.1103 15.2197 20.9697C15.3603 20.829 15.5511 20.75 15.75 20.75H20.25C20.4489 20.75 20.6397 20.829 20.7803 20.9697C20.921 21.1103 21 21.3011 21 21.5V23H22.5V21.5C22.5 20.9033 22.2629 20.331 21.841 19.909C21.419 19.4871 20.8467 19.25 20.25 19.25ZM18 18.5C18.5933 18.5 19.1734 18.3241 19.6667 17.9944C20.1601 17.6648 20.5446 17.1962 20.7716 16.6481C20.9987 16.0999 21.0581 15.4967 20.9424 14.9147C20.8266 14.3328 20.5409 13.7982 20.1213 13.3787C19.7018 12.9591 19.1672 12.6734 18.5853 12.5576C18.0033 12.4419 17.4001 12.5013 16.8519 12.7284C16.3038 12.9554 15.8352 13.3399 15.5056 13.8333C15.1759 14.3266 15 14.9067 15 15.5C15 16.2957 15.3161 17.0587 15.8787 17.6213C16.4413 18.1839 17.2044 18.5 18 18.5ZM18 14C18.2967 14 18.5867 14.088 18.8334 14.2528C19.08 14.4176 19.2723 14.6519 19.3858 14.926C19.4994 15.2001 19.5291 15.5017 19.4712 15.7926C19.4133 16.0836 19.2704 16.3509 19.0607 16.5607C18.8509 16.7704 18.5836 16.9133 18.2926 16.9712C18.0017 17.0291 17.7001 16.9994 17.426 16.8858C17.1519 16.7723 16.9176 16.58 16.7528 16.3334C16.588 16.0867 16.5 15.7967 16.5 15.5C16.5 15.1022 16.658 14.7206 16.9393 14.4393C17.2206 14.158 17.6022 14 18 14ZM32.25 29.75H27.75C27.1533 29.75 26.581 29.9871 26.159 30.409C25.7371 30.831 25.5 31.4033 25.5 32V33.5H27V32C27 31.8011 27.079 31.6103 27.2197 31.4697C27.3603 31.329 27.5511 31.25 27.75 31.25H32.25C32.4489 31.25 32.6397 31.329 32.7803 31.4697C32.921 31.6103 33 31.8011 33 32V33.5H34.5V32C34.5 31.4033 34.2629 30.831 33.841 30.409C33.419 29.9871 32.8467 29.75 32.25 29.75ZM27 26C27 26.5933 27.1759 27.1734 27.5056 27.6667C27.8352 28.1601 28.3038 28.5446 28.8519 28.7716C29.4001 28.9987 30.0033 29.0581 30.5853 28.9424C31.1672 28.8266 31.7018 28.5409 32.1213 28.1213C32.5409 27.7018 32.8266 27.1672 32.9424 26.5853C33.0581 26.0033 32.9987 25.4001 32.7716 24.852C32.5446 24.3038 32.1601 23.8352 31.6667 23.5056C31.1734 23.1759 30.5933 23 30 23C29.2044 23 28.4413 23.3161 27.8787 23.8787C27.3161 24.4413 27 25.2044 27 26ZM31.5 26C31.5 26.2967 31.412 26.5867 31.2472 26.8334C31.0824 27.08 30.8481 27.2723 30.574 27.3858C30.2999 27.4994 29.9983 27.5291 29.7074 27.4712C29.4164 27.4133 29.1491 27.2704 28.9393 27.0607C28.7296 26.8509 28.5867 26.5836 28.5288 26.2926C28.4709 26.0017 28.5006 25.7001 28.6142 25.426C28.7277 25.1519 28.92 24.9176 29.1666 24.7528C29.4133 24.588 29.7033 24.5 30 24.5C30.3978 24.5 30.7794 24.658 31.0607 24.9393C31.342 25.2206 31.5 25.6022 31.5 26Z" fill="#F64E60"/>
</g>
<defs>
<filter id="filter0_d_458_15079" x="0" y="0" width="48" height="48" filterUnits="userSpaceOnUse" color-interpolation-filters="sRGB">
<feFlood flood-opacity="0" result="BackgroundImageFix"/>
<feColorMatrix in="SourceAlpha" type="matrix" values="0 0 0 0 0 0 0 0 0 0 0 0 0 0 0 0 0 0 127 0" result="hardAlpha"/>
<feOffset dy="1"/>
<feGaussianBlur stdDeviation="2"/>
<feComposite in2="hardAlpha" operator="out"/>
<feColorMatrix type="matrix" values="0 0 0 0 0 0 0 0 0 0 0 0 0 0 0 0 0 0 0.1 0"/>
<feBlend mode="normal" in2="BackgroundImageFix" result="effect1_dropShadow_458_15079"/>
<feBlend mode="normal" in="SourceGraphic" in2="effect1_dropShadow_458_15079" result="shape"/>
</filter>
<clipPath id="clip0_458_15079">
<rect width="24" height="24" fill="white" transform="translate(12 11)"/>
</clipPath>
</defs>
</svg>
