<svg width="20" height="20" viewBox="0 0 20 20" fill="none" xmlns="http://www.w3.org/2000/svg">
<g clip-path="url(#clip0_458_15656)">
<path d="M13.1083 2.5H6.89167L2.5 6.89167V13.1083L6.89167 17.5H13.1083L17.5 13.1083V6.89167L13.1083 2.5ZM15.8333 12.4167L12.4167 15.8333H7.58333L4.16667 12.4167V7.58333L7.58333 4.16667H12.4167L15.8333 7.58333V12.4167Z" fill="#5E6278"/>
<path d="M9.99935 14.1667C10.4596 14.1667 10.8327 13.7936 10.8327 13.3333C10.8327 12.8731 10.4596 12.5 9.99935 12.5C9.53911 12.5 9.16602 12.8731 9.16602 13.3333C9.16602 13.7936 9.53911 14.1667 9.99935 14.1667Z" fill="#5E6278"/>
<path d="M9.16602 5.8335H10.8327V11.6668H9.16602V5.8335Z" fill="#5E6278"/>
</g>
<defs>
<clipPath id="clip0_458_15656">
<rect width="20" height="20" fill="white"/>
</clipPath>
</defs>
</svg>
