<?xml version="1.0" standalone="no"?>
<!DOCTYPE svg PUBLIC "-//W3C//DTD SVG 20010904//EN"
 "http://www.w3.org/TR/2001/REC-SVG-20010904/DTD/svg10.dtd">
<svg version="1.0" xmlns="http://www.w3.org/2000/svg"
 width="512.000000pt" height="512.000000pt" viewBox="0 0 512.000000 512.000000"
 preserveAspectRatio="xMidYMid meet">

<g transform="translate(0.000000,512.000000) scale(0.100000,-0.100000)"
fill="#000000" stroke="none">
<path d="M3361 3715 l-122 -145 -929 0 -930 0 0 -1010 0 -1010 1005 0 1005 0
0 404 0 404 136 164 c75 89 142 170 150 178 12 12 14 -87 14 -718 l0 -732
-1307 0 -1308 0 620 -619 620 -619 119 -7 c307 -19 704 41 1001 150 149 55
385 174 520 262 445 292 784 705 981 1195 89 220 154 498 173 738 l8 105 -536
537 -536 537 -527 -652 c-289 -359 -622 -762 -739 -895 l-212 -244 -523 523
-524 524 147 147 c81 82 151 148 156 148 5 0 124 -113 265 -252 141 -139 300
-294 352 -345 l96 -94 544 656 c300 361 547 661 549 666 3 11 -127 149 -140
149 -4 0 -62 -65 -128 -145z"/>
</g>
</svg>
