<svg width="20" height="20" viewBox="0 0 20 20" fill="none" xmlns="http://www.w3.org/2000/svg">
<g clip-path="url(#clip0_458_19283)">
<path d="M7.03273 16.9998C8.26119 17.0081 9.47897 16.7537 10.6154 16.2513C11.7519 15.749 12.7844 15.0086 13.653 14.0732C14.5217 13.1378 15.2093 12.026 15.6758 10.8023C16.1424 9.57858 16.3786 8.26728 16.3709 6.94447V6.48243C17.0077 5.98004 17.5589 5.36269 18 4.65775C17.4004 4.94014 16.7659 5.12743 16.1164 5.21377C16.805 4.77191 17.3217 4.07641 17.5709 3.25595C16.9291 3.67057 16.2253 3.96204 15.4909 4.11739C14.9963 3.54991 14.3418 3.17377 13.6287 3.04716C12.9156 2.92055 12.1836 3.05054 11.546 3.417C10.9084 3.78347 10.4007 4.36599 10.1015 5.07443C9.80234 5.78287 9.72832 6.57773 9.89091 7.33603C8.5862 7.26708 7.30961 6.90298 6.14426 6.26746C4.97891 5.63195 3.95094 4.73925 3.12727 3.64751C2.71194 4.42373 2.58606 5.34089 2.7751 6.21329C2.96414 7.08569 3.45399 7.84814 4.14545 8.34627C3.63535 8.32508 3.13706 8.17484 2.69091 7.90772V7.94687C2.68638 8.75806 2.94016 9.54642 3.40997 10.1806C3.87977 10.8147 4.53722 11.2563 5.27273 11.4318C4.79828 11.5692 4.3013 11.5906 3.81818 11.4944C4.03112 12.1862 4.43759 12.7902 4.98185 13.2234C5.52612 13.6566 6.18152 13.898 6.85818 13.9143C5.70124 14.9171 4.26334 15.4691 2.77818 15.4805C2.51778 15.4724 2.258 15.4489 2 15.4101C3.50324 16.4414 5.25033 16.9851 7.03273 16.9763" fill="#A1A5B7"/>
</g>
<defs>
<clipPath id="clip0_458_19283">
<rect width="20" height="20" fill="white"/>
</clipPath>
</defs>
</svg>
