<svg width="76" height="76" viewBox="0 0 76 76" fill="none" xmlns="http://www.w3.org/2000/svg">
<path d="M74 0H2C0.89543 0 0 0.895432 0 2V74C0 75.1046 0.895432 76 2 76H74C75.1046 76 76 75.1046 76 74V2C76 0.89543 75.1046 0 74 0Z" fill="#F8FBFF"/>
<path d="M38.0418 16.4666C31.7681 16.4666 26.6641 21.5706 26.6641 27.8443C26.6641 34.118 31.7681 39.222 38.0418 39.222C44.3155 39.222 49.4195 34.118 49.4195 27.8443C49.4195 21.5706 44.3155 16.4666 38.0418 16.4666Z" fill="#DCE5F1"/>
<path d="M52.1972 46.6551C49.0822 43.4923 44.9527 41.7505 40.5694 41.7505H35.5127C31.1294 41.7505 26.9999 43.4923 23.885 46.6551C20.7853 49.8024 19.0781 53.9569 19.0781 58.3535C19.0781 59.0517 19.6442 59.6178 20.3423 59.6178H55.7398C56.438 59.6178 57.004 59.0517 57.004 58.3535C57.004 53.9569 55.2969 49.8024 52.1972 46.6551Z" fill="#DCE5F1"/>
</svg>
