<svg width="24" height="24" viewBox="0 0 24 24" fill="none" xmlns="http://www.w3.org/2000/svg">
<g clip-path="url(#clip0_458_21329)">
<path d="M21.1783 15.3L21.2064 15.2062C21.9317 13.1303 21.9317 10.8697 21.2064 8.79375L21.1783 8.7C20.4941 6.81373 19.2467 5.18333 17.605 4.02963C15.9633 2.87593 14.0067 2.25467 12.0002 2.25C9.99301 2.25197 8.03518 2.87218 6.39298 4.02624C4.75079 5.18031 3.50394 6.81222 2.82205 8.7L2.79392 8.79375C2.06869 10.8697 2.06869 13.1303 2.79392 15.2062L2.82205 15.3C3.50394 17.1878 4.75079 18.8197 6.39298 19.9738C8.03518 21.1278 9.99301 21.748 12.0002 21.75C14.0073 21.748 15.9652 21.1278 17.6074 19.9738C19.2496 18.8197 20.4964 17.1878 21.1783 15.3ZM9.60955 15.75H14.3908C13.9104 17.2413 13.0923 18.6016 12.0002 19.725C10.9081 18.6016 10.09 17.2413 9.60955 15.75ZM9.2158 14.25C8.92837 12.7638 8.92837 11.2362 9.2158 9.75H14.7845C14.9273 10.4915 14.9995 11.2449 15.0002 12C14.9999 12.7551 14.9277 13.5086 14.7845 14.25H9.2158ZM3.75017 12C3.75177 11.2395 3.85583 10.4827 4.05955 9.75H7.68767C7.43767 11.2396 7.43767 12.7604 7.68767 14.25H4.05955C3.85583 13.5173 3.75177 12.7605 3.75017 12ZM14.3908 8.25H9.60955C10.09 6.75871 10.9081 5.39841 12.0002 4.275C13.0923 5.39841 13.9104 6.75871 14.3908 8.25ZM16.3127 9.75H19.9408C20.3534 11.2216 20.3534 12.7784 19.9408 14.25H16.3127C16.5627 12.7604 16.5627 11.2396 16.3127 9.75ZM19.3502 8.25H15.9752C15.5241 6.6706 14.7553 5.19994 13.7158 3.92813C14.916 4.18728 16.0438 4.7093 17.0181 5.45661C17.9924 6.20393 18.7888 7.15795 19.3502 8.25ZM10.2845 3.92813C9.24509 5.19994 8.47627 6.6706 8.02517 8.25H4.65017C5.2115 7.15795 6.00797 6.20393 6.98223 5.45661C7.9565 4.7093 9.08433 4.18728 10.2845 3.92813ZM4.65017 15.75H8.02517C8.47627 17.3294 9.24509 18.8001 10.2845 20.0719C9.08359 19.8146 7.95494 19.2933 6.98041 18.5458C6.00588 17.7983 5.2099 16.8432 4.65017 15.75ZM13.7158 20.0719C14.7553 18.8001 15.5241 17.3294 15.9752 15.75H19.3502C18.7904 16.8432 17.9945 17.7983 17.0199 18.5458C16.0454 19.2933 14.9168 19.8146 13.7158 20.0719Z" fill="#A1A5B7"/>
</g>
<defs>
<clipPath id="clip0_458_21329">
<rect width="24" height="24" fill="white"/>
</clipPath>
</defs>
</svg>
