<svg width="24" height="24" viewBox="0 0 24 24" fill="none" xmlns="http://www.w3.org/2000/svg">
<path opacity="0.5" d="M16.6066 6.70712L6.70711 16.6066C6.31658 16.9971 6.31658 17.6303 6.70711 18.0208C7.09763 18.4114 7.7308 18.4114 8.12132 18.0208L18.0208 8.12133C18.4113 7.73081 18.4113 7.09764 18.0208 6.70712C17.6303 6.31659 16.9971 6.31659 16.6066 6.70712Z" fill="#A1A5B7"/>
<path d="M18.0207 16.6066L8.12117 6.70711C7.73064 6.31658 7.09748 6.31658 6.70696 6.70711C6.31643 7.09763 6.31643 7.7308 6.70696 8.12132L16.6065 18.0208C16.997 18.4113 17.6301 18.4113 18.0207 18.0208C18.4112 17.6303 18.4112 16.9971 18.0207 16.6066Z" fill="#A1A5B7"/>
</svg>
