<svg width="287" height="56" viewBox="0 0 287 56" fill="none" xmlns="http://www.w3.org/2000/svg">
<g clip-path="url(#clip0_344_11567)">
<path d="M70.8438 43V12.0877H75.6132V24.9384H76.3197L87.8456 12.0877H94.0722L80.1175 27.323L94.558 43H88.1547L76.3197 29.8843H75.6132V43H70.8438ZM105.031 43.6182C103.471 43.6182 102.073 43.3533 100.836 42.8234C99.629 42.2934 98.6575 41.5133 97.9214 40.4829C97.2149 39.4524 96.8616 38.2012 96.8616 36.7292C96.8616 35.2278 97.2149 33.9913 97.9214 33.0197C98.6575 32.0188 99.6437 31.268 100.88 30.7675C102.146 30.2671 103.574 30.0168 105.164 30.0168H111.788V28.6037C111.788 27.3378 111.405 26.3221 110.64 25.5566C109.874 24.7912 108.697 24.4084 107.107 24.4084C105.546 24.4084 104.354 24.7764 103.53 25.5125C102.705 26.2485 102.161 27.2053 101.896 28.3829L97.6565 27.0139C98.0098 25.8363 98.5691 24.7764 99.3346 23.8344C100.129 22.8628 101.175 22.0827 102.47 21.4938C103.765 20.905 105.326 20.6106 107.151 20.6106C109.977 20.6106 112.2 21.3319 113.819 22.7745C115.438 24.2171 116.248 26.2632 116.248 28.9128V37.8774C116.248 38.7606 116.66 39.2022 117.485 39.2022H119.339V43H115.939C114.909 43 114.069 42.735 113.422 42.2051C112.774 41.6752 112.45 40.9539 112.45 40.0412V39.9088H111.788C111.552 40.3504 111.199 40.8656 110.728 41.4544C110.257 42.0432 109.565 42.5584 108.652 43C107.74 43.4122 106.533 43.6182 105.031 43.6182ZM105.694 39.8646C107.519 39.8646 108.991 39.3494 110.11 38.319C111.228 37.2591 111.788 35.8166 111.788 33.9913V33.5497H105.429C104.222 33.5497 103.25 33.8146 102.514 34.3445C101.778 34.845 101.41 35.5958 101.41 36.5967C101.41 37.5977 101.793 38.3926 102.558 38.9814C103.324 39.5702 104.369 39.8646 105.694 39.8646ZM123.762 43V21.2289H128.222V23.7902H128.929C129.341 23.0247 130.003 22.3476 130.916 21.7588C131.829 21.17 133.065 20.8756 134.625 20.8756C136.245 20.8756 137.54 21.2142 138.511 21.8913C139.512 22.539 140.263 23.378 140.764 24.4084H141.47C141.971 23.4075 142.692 22.5684 143.634 21.8913C144.606 21.2142 145.975 20.8756 147.741 20.8756C149.154 20.8756 150.405 21.17 151.495 21.7588C152.584 22.3182 153.452 23.1719 154.1 24.3201C154.748 25.4389 155.072 26.8373 155.072 28.5154V43H150.523V28.8686C150.523 27.5438 150.155 26.5281 149.419 25.8216C148.713 25.0856 147.697 24.7176 146.372 24.7176C144.959 24.7176 143.825 25.1739 142.972 26.0865C142.118 26.9992 141.691 28.3093 141.691 30.0168V43H137.143V28.8686C137.143 27.5438 136.775 26.5281 136.038 25.8216C135.332 25.0856 134.316 24.7176 132.991 24.7176C131.578 24.7176 130.445 25.1739 129.591 26.0865C128.737 26.9992 128.31 28.3093 128.31 30.0168V43H123.762ZM171.827 43.6182C169.649 43.6182 167.705 43.1766 165.998 42.2934C164.32 41.3808 162.995 40.0854 162.023 38.4073C161.052 36.7292 160.566 34.742 160.566 32.4456V31.7832C160.566 29.4869 161.052 27.5144 162.023 25.8657C162.995 24.1876 164.32 22.8923 165.998 21.9796C167.705 21.067 169.649 20.6106 171.827 20.6106C174.006 20.6106 175.949 21.067 177.656 21.9796C179.364 22.8923 180.703 24.1876 181.675 25.8657C182.646 27.5144 183.132 29.4869 183.132 31.7832V32.4456C183.132 34.742 182.646 36.7292 181.675 38.4073C180.703 40.0854 179.364 41.3808 177.656 42.2934C175.949 43.1766 174.006 43.6182 171.827 43.6182ZM171.827 39.5555C173.829 39.5555 175.448 38.9225 176.685 37.6566C177.951 36.3612 178.584 34.5801 178.584 32.3132V31.9157C178.584 29.6488 177.965 27.8824 176.729 26.6165C175.492 25.3211 173.858 24.6734 171.827 24.6734C169.855 24.6734 168.235 25.3211 166.969 26.6165C165.733 27.8824 165.115 29.6488 165.115 31.9157V32.3132C165.115 34.5801 165.733 36.3612 166.969 37.6566C168.235 38.9225 169.855 39.5555 171.827 39.5555ZM196.189 43C194.864 43 193.804 42.6026 193.009 41.8077C192.244 41.0128 191.861 39.9529 191.861 38.6281V25.0708H185.855V21.2289H191.861V14.0307H196.409V21.2289H202.901V25.0708H196.409V37.8332C196.409 38.7164 196.821 39.158 197.646 39.158H202.194V43H196.189ZM217.669 43.6182C215.491 43.6182 213.548 43.1766 211.84 42.2934C210.162 41.3808 208.837 40.0854 207.866 38.4073C206.894 36.7292 206.409 34.742 206.409 32.4456V31.7832C206.409 29.4869 206.894 27.5144 207.866 25.8657C208.837 24.1876 210.162 22.8923 211.84 21.9796C213.548 21.067 215.491 20.6106 217.669 20.6106C219.848 20.6106 221.791 21.067 223.499 21.9796C225.206 22.8923 226.546 24.1876 227.517 25.8657C228.489 27.5144 228.975 29.4869 228.975 31.7832V32.4456C228.975 34.742 228.489 36.7292 227.517 38.4073C226.546 40.0854 225.206 41.3808 223.499 42.2934C221.791 43.1766 219.848 43.6182 217.669 43.6182ZM217.669 39.5555C219.671 39.5555 221.291 38.9225 222.527 37.6566C223.793 36.3612 224.426 34.5801 224.426 32.3132V31.9157C224.426 29.6488 223.808 27.8824 222.571 26.6165C221.335 25.3211 219.701 24.6734 217.669 24.6734C215.697 24.6734 214.078 25.3211 212.812 26.6165C211.575 27.8824 210.957 29.6488 210.957 31.9157V32.3132C210.957 34.5801 211.575 36.3612 212.812 37.6566C214.078 38.9225 215.697 39.5555 217.669 39.5555Z" fill="#C2D24B"/>
<path d="M232.209 43L241.041 12.0877H249.431L258.219 43H253.317L251.286 35.7135H239.186L237.155 43H232.209ZM240.378 31.2975H250.094L245.589 15.0464H244.883L240.378 31.2975ZM262.407 43V12.0877H267.176V43H262.407ZM276.49 43.6182C275.46 43.6182 274.591 43.2797 273.885 42.6026C273.208 41.9254 272.869 41.0569 272.869 39.9971C272.869 38.9372 273.208 38.0835 273.885 37.4358C274.591 36.7587 275.46 36.4201 276.49 36.4201C277.521 36.4201 278.374 36.7587 279.051 37.4358C279.758 38.1129 280.111 38.9667 280.111 39.9971C280.111 41.0569 279.758 41.9254 279.051 42.6026C278.374 43.2797 277.521 43.6182 276.49 43.6182Z" fill="white"/>
<rect x="9.66029" y="4.13978" width="48.3005" height="48.3005" rx="9.6601" stroke="#C2D24B" stroke-width="2.76003"/>
<path d="M27.0023 10.9972C24.9447 11.3914 23.2878 12.6741 22.3659 14.5981C22.0185 15.333 21.8381 16.0612 21.7913 16.9565L21.7513 17.698L21.1767 17.845C19.7403 18.1991 18.3173 19.1812 17.5023 20.3837C17.1148 20.9582 16.7206 21.7933 16.5469 22.428C16.3398 23.1963 16.3398 24.7997 16.5469 25.5546C16.7206 26.1893 17.1148 27.0511 17.4889 27.5989L17.7695 28.0065L17.4956 28.4073C17.1081 28.9752 16.7206 29.8103 16.5469 30.445C16.3398 31.2132 16.3398 32.8166 16.5469 33.5849C17.1616 35.8363 18.9654 37.6268 21.1767 38.1679L21.7513 38.3149L21.7913 39.0565C21.9183 41.4682 23.2812 43.4858 25.4858 44.5214C26.4278 44.9623 26.9289 45.0625 28.118 45.0625C28.9665 45.0625 29.2471 45.0358 29.688 44.9222C30.3628 44.7418 31.425 44.214 32.0129 43.7731L32.4605 43.4257V28.0065V12.5872L32.0129 12.2398C31.4183 11.7922 30.3561 11.2711 29.688 11.0974C28.9999 10.917 27.6704 10.8703 27.0023 10.9972Z" fill="#C2D24B"/>
<path d="M37.6917 10.9975C36.6027 11.2046 35.5939 11.6856 34.7187 12.4005L34.4648 12.6076V16.4624V20.3239H35.5538H36.6361L36.8031 19.9698C37.0169 19.5155 37.6716 18.8675 38.1526 18.6336C39.9631 17.7651 42.0876 18.8675 42.4283 20.8517C42.7022 22.4551 41.5866 23.9983 39.9498 24.2789C38.7205 24.486 37.4244 23.858 36.8632 22.7624L36.6361 22.3281H35.5538H34.4648V24.6664V27.0047H36.89H39.3084L39.4754 26.6506C39.6892 26.1963 40.3439 25.5483 40.8249 25.3144C42.3014 24.6063 44.0785 25.2009 44.8134 26.6573C45.7286 28.4678 44.6263 30.6123 42.6154 30.9597C41.3928 31.1668 40.0967 30.5321 39.5356 29.4432L39.3084 29.0089H36.89H34.4648V31.3472V33.6854H35.5538H36.6361L36.8031 33.3314C37.0169 32.8771 37.6716 32.229 38.1526 31.9952C39.9631 31.1267 42.0876 32.229 42.4283 34.2132C42.7022 35.8166 41.5866 37.3599 39.9498 37.6405C38.7205 37.8476 37.4244 37.2196 36.8632 36.1239L36.6361 35.6897H35.5538H34.4648V39.5445V43.406L34.7187 43.6131C35.4269 44.1943 36.3755 44.6887 37.2374 44.9158C38.0324 45.1363 39.5489 45.1363 40.3439 44.9225C42.2613 44.4014 43.7311 43.1722 44.5595 41.4084C44.9136 40.6535 45.0873 39.932 45.134 39.0568L45.1741 38.3152L45.7487 38.1682C47.96 37.6271 49.7638 35.8367 50.3718 33.5852C50.5922 32.7902 50.5922 31.2737 50.3785 30.4787C50.1914 29.7972 49.8173 28.9755 49.4365 28.4143L49.1559 28.0068L49.4365 27.5993C49.8173 27.0381 50.1914 26.2163 50.3785 25.5349C50.5922 24.7399 50.5922 23.2233 50.3718 22.4283C49.7638 20.1769 47.96 18.3865 45.7487 17.8453L45.1741 17.6983L45.134 16.9568C45.0472 15.3534 44.4125 13.9103 43.2902 12.7746C42.5285 12.0063 41.4329 11.3783 40.3773 11.0977C39.6892 10.9174 38.3664 10.8706 37.6917 10.9975Z" fill="#C2D24B"/>
<path d="M38.9947 20.4642C38.7075 20.6112 38.4736 21.0053 38.4736 21.326C38.4736 21.66 38.7075 22.0409 39.0081 22.1945C39.1484 22.268 39.3622 22.3281 39.4757 22.3281C39.5893 22.3281 39.8031 22.268 39.9434 22.1945C40.244 22.0409 40.4779 21.66 40.4779 21.326C40.4779 20.992 40.244 20.6112 39.9434 20.4575C39.616 20.2905 39.3154 20.2905 38.9947 20.4642Z" fill="#C2D24B"/>
<path d="M41.6656 27.1458C41.3784 27.2928 41.1445 27.687 41.1445 28.0076C41.1445 28.3417 41.3784 28.7225 41.679 28.8762C41.8193 28.9496 42.0331 29.0098 42.1466 29.0098C42.4807 29.0098 42.8615 28.7759 43.0151 28.4753C43.0886 28.335 43.1488 28.1212 43.1488 28.0076C43.1488 27.6736 42.9149 27.2928 42.6143 27.1391C42.2869 26.9721 41.9863 26.9721 41.6656 27.1458Z" fill="#C2D24B"/>
<path d="M38.9947 33.8255C38.7075 33.9725 38.4736 34.3667 38.4736 34.6873C38.4736 34.8009 38.5338 35.0147 38.6072 35.155C38.7609 35.4556 39.1417 35.6895 39.4757 35.6895C39.9835 35.6895 40.4779 35.1951 40.4779 34.6873C40.4779 34.3533 40.244 33.9725 39.9434 33.8188C39.616 33.6518 39.3154 33.6518 38.9947 33.8255Z" fill="#C2D24B"/>
</g>
<defs>
<clipPath id="clip0_344_11567">
<rect width="286.829" height="56" fill="white"/>
</clipPath>
</defs>
</svg>
