<svg width="20" height="18" viewBox="0 0 20 18" fill="none" xmlns="http://www.w3.org/2000/svg">
<path d="M14.9019 15.0808C13.4362 16.0105 11.7358 16.5028 10.0002 16.5C5.50688 16.5 1.76854 13.2667 0.984375 9C1.34273 7.05893 2.31907 5.28574 3.76771 3.94499L1.16021 1.33999L2.33938 0.160828L18.8385 16.6608L17.6594 17.8392L14.901 15.0808H14.9019ZM4.94604 5.12499C3.81355 6.15465 3.02464 7.50731 2.68604 9C2.94629 10.1387 3.46876 11.2009 4.21188 12.1022C4.95499 13.0034 5.89823 13.7187 6.9665 14.1911C8.03477 14.6635 9.19858 14.88 10.3653 14.8234C11.532 14.7668 12.6694 14.4386 13.6869 13.865L11.9969 12.175C11.2775 12.6282 10.4254 12.8234 9.58041 12.7287C8.73544 12.634 7.94774 12.2549 7.34652 11.6537C6.74529 11.0525 6.36623 10.2648 6.27151 9.4198C6.17679 8.57483 6.37203 7.72275 6.82521 7.00333L4.94604 5.12499ZM10.7619 10.94L8.06021 8.23833C7.91193 8.61577 7.87703 9.02829 7.9598 9.42528C8.04256 9.82227 8.23939 10.1865 8.52614 10.4732C8.81289 10.76 9.1771 10.9568 9.57409 11.0396C9.97108 11.1223 10.3836 11.0874 10.761 10.9392L10.7619 10.94ZM17.3394 12.8267L16.1469 11.635C16.7039 10.8411 17.1005 9.94598 17.3144 9C17.0879 8.0081 16.6621 7.07262 16.0628 6.25041C15.4636 5.4282 14.7034 4.73643 13.8284 4.21716C12.9535 3.6979 11.9821 3.36197 10.9733 3.2298C9.96452 3.09763 8.93938 3.17198 7.96021 3.44833L6.64521 2.13333C7.68438 1.72499 8.81688 1.49999 10.0002 1.49999C14.4935 1.49999 18.2319 4.73333 19.016 9C18.7607 10.3881 18.1868 11.698 17.3394 12.8267ZM9.76937 5.25666C10.2998 5.22388 10.8311 5.30422 11.3282 5.49234C11.8252 5.68047 12.2766 5.97209 12.6523 6.34787C13.0281 6.72365 13.3197 7.17502 13.5079 7.67204C13.696 8.16907 13.7763 8.7004 13.7435 9.23083L9.76854 5.25666H9.76937Z" fill="#A1A5B7"/>
</svg>
