<svg width="18" height="22" viewBox="0 0 18 22" fill="none" xmlns="http://www.w3.org/2000/svg">
<path d="M3.85714 2H11.7364C12.0911 2 12.4343 2.12568 12.7051 2.35474L17.4687 6.38394C17.8057 6.66895 18 7.08788 18 7.5292V20.0833C18 21.8739 17.9796 22 16.1429 22H3.85714C2.02045 22 2 21.8739 2 20.0833V3.91667C2 2.12612 2.02045 2 3.85714 2ZM5 11C4.44772 11 4 11.4477 4 12C4 12.5523 4.44772 13 5 13H12C12.5523 13 13 12.5523 13 12C13 11.4477 12.5523 11 12 11H5ZM5 15C4.44772 15 4 15.4477 4 16C4 16.5523 4.44772 17 5 17H8C8.55228 17 9 16.5523 9 16C9 15.4477 8.55228 15 8 15H5Z" fill="#4776E6"/>
<path opacity="0.3" d="M1.85714 0H8.73641C9.0911 0 9.43431 0.125684 9.70511 0.35474L14.4687 4.38394C14.8057 4.66895 15 5.08788 15 5.5292V18.0833C15 19.8739 14.9796 20 13.1429 20H1.85714C0.020448 20 0 19.8739 0 18.0833V1.91667C0 0.126125 0.020448 0 1.85714 0ZM5 11C4.44772 11 4 11.4477 4 12C4 12.5523 4.44772 13 5 13H12C12.5523 13 13 12.5523 13 12C13 11.4477 12.5523 11 12 11H5ZM5 15C4.44772 15 4 15.4477 4 16C4 16.5523 4.44772 17 5 17H8C8.55228 17 9 16.5523 9 16C9 15.4477 8.55228 15 8 15H5Z" fill="#4776E6"/>
</svg>
