<svg width="120" height="120" viewBox="0 0 120 120" fill="none" xmlns="http://www.w3.org/2000/svg">
<g clip-path="url(#clip0_4034_17302)">
<path d="M118 0H2C0.895431 0 0 0.895429 0 2V118C0 119.105 0.895429 120 2 120H118C119.105 120 120 119.105 120 118V2C120 0.895431 119.105 0 118 0Z" fill="#F8FBFF"/>
<path d="M60.0664 26C50.1605 26 42.1016 34.0591 42.1016 43.9648C42.1016 53.8707 50.1605 61.9297 60.0664 61.9297C69.9722 61.9297 78.0312 53.8707 78.0312 43.9648C78.0312 34.0591 69.9722 26 60.0664 26Z" fill="#A1A5B7"/>
<path d="M82.4182 73.666C77.4998 68.6721 70.9797 65.9219 64.0586 65.9219H56.0743C49.1534 65.9219 42.6331 68.6721 37.7147 73.666C32.8205 78.6355 30.125 85.1952 30.125 92.1372C30.125 93.2396 31.0187 94.1333 32.1211 94.1333H88.0118C89.1142 94.1333 90.0079 93.2396 90.0079 92.1372C90.0079 85.1952 87.3125 78.6355 82.4182 73.666Z" fill="#A1A5B7"/>
</g>
<defs>
<clipPath id="clip0_4034_17302">
<rect width="120" height="120" fill="white"/>
</clipPath>
</defs>
</svg>
