<svg width="20" height="20" viewBox="0 0 20 20" fill="none" xmlns="http://www.w3.org/2000/svg">
<path opacity="0.5" d="M10.7617 14.2644V6.1677C10.7617 5.76119 10.4205 5.43164 9.9996 5.43164C9.57869 5.43164 9.23748 5.76119 9.23748 6.1677V14.2644C9.23748 14.6709 9.57869 15.0005 9.9996 15.0005C10.4205 15.0005 10.7617 14.6709 10.7617 14.2644Z" fill="#50CD89"/>
<path d="M10.4311 7.31969L13.6201 10.3996C13.9357 10.7045 14.4476 10.7045 14.7632 10.3996C15.0789 10.0947 15.0789 9.60039 14.7632 9.29551L10.5389 5.21559C10.2413 4.92814 9.75872 4.92814 9.46111 5.21559L5.23676 9.29551C4.92108 9.60039 4.92108 10.0947 5.23676 10.3996C5.55244 10.7045 6.06426 10.7045 6.37994 10.3996L9.56887 7.31969C9.80696 7.08973 10.193 7.08973 10.4311 7.31969Z" fill="#50CD89"/>
</svg>
