<svg width="18" height="18" viewBox="0 0 18 18" fill="none" xmlns="http://www.w3.org/2000/svg">
<path d="M15.3374 15.3372H12.6702V11.1604C12.6702 10.1643 12.6525 8.88219 11.2831 8.88219C9.89393 8.88219 9.6814 9.96737 9.6814 11.0878V15.3369H7.01427V6.74765H9.57471V7.92147H9.61055C9.86679 7.48335 10.2371 7.12293 10.6819 6.8786C11.1268 6.63427 11.6296 6.51518 12.1368 6.53401C14.8401 6.53401 15.3385 8.31209 15.3385 10.6253L15.3374 15.3372ZM4.00486 5.57357C3.69874 5.57362 3.39948 5.4829 3.14492 5.31287C2.89036 5.14285 2.69193 4.90116 2.57474 4.61836C2.45754 4.33557 2.42683 4.02437 2.4865 3.72412C2.54617 3.42387 2.69353 3.14806 2.90995 2.93156C3.12637 2.71507 3.40213 2.56761 3.70235 2.50783C4.00258 2.44806 4.31379 2.47865 4.59663 2.59575C4.87947 2.71284 5.12123 2.91118 5.29135 3.16568C5.46146 3.42018 5.55229 3.7194 5.55235 4.02552C5.55238 4.22878 5.51239 4.43005 5.43464 4.61785C5.35689 4.80565 5.24291 4.97629 5.09921 5.12004C4.95552 5.26379 4.78491 5.37783 4.59714 5.45564C4.40937 5.53346 4.20811 5.57353 4.00486 5.57357ZM5.33842 15.3372H2.66852V6.74765H5.33842V15.3372ZM16.667 0.00122592H1.32829C0.980139 -0.00270291 0.644674 0.131747 0.395607 0.37503C0.146541 0.618314 0.00424894 0.950527 0 1.29867V16.701C0.00410351 17.0493 0.146304 17.3818 0.395362 17.6253C0.64442 17.8688 0.979966 18.0036 1.32829 17.9999H16.667C17.0161 18.0042 17.3525 17.8699 17.6026 17.6264C17.8526 17.3828 17.9958 17.05 18.0006 16.701V1.29756C17.9956 0.948726 17.8524 0.616135 17.6023 0.372857C17.3523 0.12958 17.0159 -0.00448606 16.667 0.000114616" fill="#0A66C2"/>
</svg>
