<svg width="20" height="17" viewBox="0 0 20 17" fill="none" xmlns="http://www.w3.org/2000/svg">
<path d="M6.28978 16.2541C13.8373 16.2541 17.9648 10.0013 17.9648 4.57913C17.9648 4.40155 17.9612 4.22478 17.9532 4.04874C18.7562 3.46766 19.4493 2.74815 20 1.92393C19.2648 2.25078 18.4736 2.47077 17.6437 2.56997C18.4908 2.06192 19.1412 1.25837 19.448 0.300399C18.6425 0.778262 17.7613 1.11511 16.8424 1.29643C16.0936 0.498852 15.0277 0 13.8472 0C11.5812 0 9.74363 1.83763 9.74363 4.10276C9.74363 4.42477 9.77967 4.73799 9.85007 5.03839C6.43971 4.86678 3.41566 3.23398 1.39179 0.751198C1.02728 1.37735 0.835541 2.08906 0.836163 2.81359C0.836163 4.23719 1.56058 5.49395 2.66218 6.22918C2.01058 6.2093 1.37327 6.0333 0.803815 5.71596C0.803211 5.73321 0.803211 5.74999 0.803211 5.76838C0.803211 7.7556 2.21762 9.41477 4.09518 9.79074C3.74254 9.8868 3.37867 9.93537 3.01318 9.93517C2.75435 9.93499 2.49612 9.9102 2.24198 9.86114C2.76439 11.4915 4.2792 12.6779 6.07515 12.7111C4.67074 13.8119 2.90157 14.4675 0.978779 14.4675C0.647978 14.4675 0.321204 14.4487 0 14.4107C1.81602 15.5748 3.97236 16.2539 6.28998 16.2539" fill="#1DA1F2"/>
</svg>
