<svg width="24" height="24" viewBox="0 0 24 24" fill="none" xmlns="http://www.w3.org/2000/svg">
<g clip-path="url(#clip0_344_30767)">
<path d="M11.1602 2.14761C11.7031 1.9508 12.2969 1.9508 12.8438 2.14761L20.3438 4.84787C21.3359 5.20606 22 6.15469 22 7.22141V16.7786C22 17.8414 21.3359 18.7939 20.3398 19.1521L12.8398 21.8524C12.2969 22.0492 11.7031 22.0492 11.1562 21.8524L3.65625 19.1521C2.66406 18.7939 2 17.8453 2 16.7786V7.22141C2 6.15863 2.66406 5.20606 3.66016 4.84787L11.1602 2.14761ZM12 4.52116L5.21484 6.96162L12 9.40209L18.7852 6.96162L12 4.52116ZM13.25 19.0301L19.5 16.7825V9.38241L13.25 11.63V19.0301Z" fill="white" fill-opacity="0.4"/>
</g>
<defs>
<clipPath id="clip0_344_30767">
<rect width="24" height="24" fill="white"/>
</clipPath>
</defs>
</svg>
