<svg width="24" height="24" viewBox="0 0 24 24" fill="none" xmlns="http://www.w3.org/2000/svg">
<g clip-path="url(#clip0_344_30755)">
<path d="M2 6.87467V17.9397C2 18.5826 2.35069 19.1897 2.9375 19.4148C5.95833 20.5755 8.97917 19.7826 12 18.9897C14.7708 18.2647 17.5417 17.5361 20.309 18.3147C21.1076 18.5397 22 17.9754 22 17.1218V6.06033C22 5.41743 21.6493 4.81025 21.0625 4.58524C18.0417 3.42445 15.0208 4.21736 12 5.01027C9.22917 5.73531 6.45833 6.46036 3.69097 5.68174C2.88889 5.45672 2 6.02104 2 6.87467ZM6.44444 17.7147H4.22222V15.4288C5.44792 15.4288 6.44444 16.4539 6.44444 17.7147ZM4.22222 10.8571V8.57121H6.44444C6.44444 9.832 5.44792 10.8571 4.22222 10.8571ZM17.5556 15.4288C17.5556 14.168 18.5521 13.1429 19.7778 13.1429V15.4288H17.5556ZM19.7778 8.57121C18.5521 8.57121 17.5556 7.54614 17.5556 6.28535H19.7778V8.57121ZM15.3333 12C15.3333 14.2109 13.8403 16.0003 12 16.0003C10.1597 16.0003 8.66667 14.2109 8.66667 12C8.66667 9.78914 10.1597 7.99974 12 7.99974C13.8403 7.99974 15.3333 9.78914 15.3333 12Z" fill="white" fill-opacity="0.4"/>
</g>
<defs>
<clipPath id="clip0_344_30755">
<rect width="24" height="24" fill="white"/>
</clipPath>
</defs>
</svg>
