<svg width="311" height="208" viewBox="0 0 311 208" fill="none" xmlns="http://www.w3.org/2000/svg">
<g clip-path="url(#clip0_4152_18599)">
<path d="M64.9052 39.9185H0V58.5077H64.9052V39.9185Z" fill="#E2EAFF"/>
<path d="M120.416 24.0425C120.246 24.0425 120.08 24.0561 119.916 24.0753C119.505 22.4206 118.853 20.8621 117.995 19.4393C118.125 19.3375 118.252 19.2288 118.372 19.1088C119.982 17.4994 119.982 14.8894 118.372 13.2788C116.761 11.6693 114.151 11.6693 112.541 13.2788C112.421 13.3987 112.312 13.5255 112.21 13.6557C110.787 12.7989 109.229 12.1458 107.573 11.7361C107.593 11.572 107.606 11.4056 107.606 11.2358C107.606 8.95967 105.76 7.11365 103.482 7.11365C101.205 7.11365 99.3592 8.95967 99.3592 11.2358C99.3592 11.4056 99.3728 11.572 99.392 11.7361C97.7373 12.1469 96.1776 12.7989 94.7549 13.6557C94.653 13.5255 94.5444 13.3987 94.4244 13.2788C92.8138 11.6693 90.2038 11.6693 88.5932 13.2788C86.9826 14.8882 86.9826 17.4982 88.5932 19.1088C88.7131 19.2288 88.8399 19.3363 88.9701 19.4393C88.1133 20.8621 87.4602 22.4206 87.0493 24.0753C86.8852 24.055 86.7188 24.0425 86.5491 24.0425C84.2718 24.0425 82.4258 25.8885 82.4258 28.1647C82.4258 30.4408 84.2718 32.2868 86.5491 32.2868C86.7188 32.2868 86.8852 32.2732 87.0493 32.254C87.4602 33.9087 88.1121 35.4673 88.9701 36.89C88.8399 36.9919 88.7131 37.1005 88.5932 37.2205C86.9826 38.83 86.9826 41.44 88.5932 43.0506C90.2038 44.6601 92.8138 44.6601 94.4244 43.0506C94.5444 42.9306 94.653 42.8038 94.7549 42.6737C96.1776 43.5305 97.7361 44.1836 99.392 44.5933C99.3716 44.7574 99.3592 44.9238 99.3592 45.0935C99.3592 47.3697 101.205 49.2157 103.482 49.2157C105.76 49.2157 107.606 47.3697 107.606 45.0935C107.606 44.9238 107.592 44.7574 107.573 44.5933C109.228 44.1824 110.787 43.5305 112.21 42.6737C112.312 42.8038 112.421 42.9306 112.541 43.0506C114.151 44.6601 116.761 44.6601 118.372 43.0506C119.982 41.4411 119.982 38.8311 118.372 37.2205C118.252 37.1005 118.125 36.993 117.995 36.89C118.853 35.4673 119.505 33.9087 119.916 32.254C120.08 32.2744 120.246 32.2868 120.416 32.2868C122.693 32.2868 124.539 30.4408 124.539 28.1647C124.539 25.8885 122.693 24.0425 120.416 24.0425ZM103.485 35.8204C99.2562 35.8204 95.8279 32.3932 95.8279 28.1647C95.8279 23.9361 99.2562 20.5089 103.485 20.5089C107.713 20.5089 111.142 23.9361 111.142 28.1647C111.142 32.3932 107.713 35.8204 103.485 35.8204Z" fill="white"/>
<path d="M103.484 49.4622C101.073 49.4622 99.112 47.5007 99.112 45.091C99.112 44.9926 99.1165 44.8884 99.1244 44.7798C97.6111 44.3836 96.1635 43.7849 94.8144 42.9949C94.7431 43.0786 94.6729 43.1544 94.6027 43.2246C92.8982 44.9292 90.124 44.9292 88.4195 43.2246C87.5933 42.3995 87.1394 41.3016 87.1394 40.1336C87.1394 38.9655 87.5944 37.8688 88.4195 37.0425C88.4897 36.9724 88.5655 36.9022 88.6493 36.8309C87.8592 35.484 87.2605 34.0364 86.8644 32.522C86.7546 32.531 86.6516 32.5344 86.552 32.5344C84.1412 32.5344 82.1797 30.573 82.1797 28.1633C82.1797 25.7536 84.1412 23.7921 86.552 23.7921C86.6527 23.7921 86.7546 23.7967 86.8644 23.8046C87.2605 22.2913 87.8604 20.8437 88.6493 19.4957C88.5655 19.4244 88.4897 19.3542 88.4195 19.2852C87.5933 18.4589 87.1383 17.361 87.1383 16.1941C87.1383 15.0272 87.5933 13.9293 88.4184 13.1031C90.1229 11.3985 92.897 11.3985 94.6016 13.1031C94.6718 13.1732 94.7419 13.2491 94.8132 13.3328C96.1613 12.5439 97.6089 11.9441 99.1233 11.5479C99.1142 11.4381 99.1108 11.3351 99.1108 11.2355C99.1108 8.82472 101.072 6.86438 103.483 6.86438C105.894 6.86438 107.855 8.82472 107.855 11.2355C107.855 11.334 107.851 11.4381 107.843 11.5479C109.357 11.9441 110.805 12.5428 112.153 13.3328C112.224 13.2491 112.294 13.1732 112.365 13.1031C114.069 11.3985 116.843 11.3985 118.548 13.1031C119.374 13.9282 119.828 15.0261 119.828 16.1941C119.828 17.3622 119.373 18.4589 118.548 19.2852C118.477 19.3565 118.402 19.4255 118.318 19.4968C119.108 20.8448 119.708 22.2924 120.103 23.8057C120.213 23.7967 120.315 23.7933 120.415 23.7933C122.826 23.7933 124.788 25.7547 124.788 28.1644C124.788 30.5741 122.826 32.5356 120.415 32.5356C120.317 32.5356 120.213 32.531 120.103 32.5231C119.707 34.0364 119.107 35.484 118.318 36.832C118.402 36.9033 118.478 36.9735 118.548 37.0437C119.374 37.8688 119.828 38.9667 119.828 40.1347C119.828 41.3028 119.373 42.3995 118.548 43.2258C116.843 44.9303 114.069 44.9303 112.365 43.2258C112.294 43.1556 112.224 43.0798 112.153 42.996C110.805 43.7849 109.357 44.3848 107.843 44.7809C107.852 44.8907 107.855 44.9937 107.855 45.0922C107.855 47.503 105.894 49.4633 103.483 49.4633L103.484 49.4622ZM94.7578 42.4222C94.8019 42.4222 94.8461 42.4335 94.8857 42.4584C96.3061 43.314 97.842 43.9501 99.4538 44.3497C99.576 44.3802 99.6564 44.4968 99.6405 44.6213C99.619 44.7956 99.6088 44.9495 99.6088 45.091C99.6088 47.2268 101.347 48.9642 103.483 48.9642C105.619 48.9642 107.357 47.2268 107.357 45.091C107.357 44.9495 107.347 44.7956 107.326 44.6213C107.311 44.4968 107.391 44.3802 107.512 44.3497C109.124 43.9501 110.661 43.3129 112.081 42.4584C112.189 42.3927 112.327 42.4199 112.405 42.5184C112.514 42.6564 112.615 42.773 112.715 42.8726C114.227 44.3825 116.684 44.3825 118.195 42.8726C118.926 42.1415 119.329 41.1681 119.329 40.1336C119.329 39.0991 118.926 38.1268 118.195 37.3945C118.093 37.2938 117.981 37.1942 117.839 37.0844C117.74 37.0063 117.715 36.8671 117.779 36.7596C118.635 35.3403 119.272 33.8032 119.672 32.1926C119.702 32.0704 119.821 31.99 119.943 32.0059C120.118 32.0274 120.272 32.0376 120.414 32.0376C122.55 32.0376 124.289 30.3002 124.289 28.1644C124.289 26.0286 122.55 24.2913 120.414 24.2913C120.272 24.2913 120.122 24.3015 119.943 24.323C119.818 24.3388 119.702 24.2573 119.672 24.1362C119.272 22.5256 118.636 20.9897 117.779 19.5692C117.715 19.4617 117.74 19.3225 117.839 19.2444C117.981 19.1335 118.093 19.035 118.195 18.9343C118.926 18.2031 119.329 17.2297 119.329 16.1952C119.329 15.1607 118.926 14.1885 118.195 13.4562C116.684 11.9463 114.227 11.9463 112.715 13.4562C112.615 13.5569 112.513 13.6735 112.405 13.8116C112.327 13.9101 112.189 13.9372 112.081 13.8716C110.661 13.0159 109.124 12.3798 107.512 11.9803C107.39 11.9497 107.31 11.8331 107.326 11.7086C107.347 11.5321 107.357 11.3827 107.357 11.2389C107.357 9.10315 105.619 7.36578 103.483 7.36578C101.347 7.36578 99.6088 9.10315 99.6088 11.2389C99.6088 11.3827 99.619 11.5321 99.6405 11.7086C99.6552 11.8331 99.5749 11.9497 99.4538 11.9803C97.842 12.3798 96.305 13.0159 94.8857 13.8716C94.7782 13.9372 94.6389 13.9101 94.5608 13.8116C94.4533 13.6735 94.3515 13.5581 94.2507 13.4573C92.7409 11.9475 90.2825 11.9475 88.7715 13.4573C88.0403 14.1885 87.6374 15.1619 87.6374 16.1964C87.6374 17.2309 88.0403 18.2031 88.7715 18.9354C88.8722 19.0361 88.9877 19.1369 89.1269 19.2455C89.2265 19.3236 89.2514 19.4629 89.1869 19.5704C88.3312 20.9897 87.694 22.5267 87.2945 24.1373C87.2639 24.2596 87.1496 24.3399 87.0228 24.3241C86.8451 24.3026 86.6957 24.2924 86.552 24.2924C84.4162 24.2924 82.6777 26.0298 82.6777 28.1655C82.6777 30.3013 84.4151 32.0387 86.552 32.0387C86.6957 32.0387 86.8451 32.0285 87.0228 32.007C87.1462 31.9923 87.2639 32.0726 87.2945 32.1937C87.694 33.8055 88.3312 35.3425 89.1869 36.7607C89.2514 36.8682 89.2265 37.0074 89.1269 37.0855C88.9888 37.1931 88.8734 37.2949 88.7715 37.3957C88.0403 38.1268 87.6374 39.0991 87.6374 40.1347C87.6374 41.1703 88.0403 42.1415 88.7715 42.8738C90.2825 44.3836 92.7397 44.3836 94.2507 42.8738C94.3515 42.773 94.4533 42.6576 94.5608 42.5195C94.6095 42.4572 94.6831 42.4244 94.7567 42.4244L94.7578 42.4222ZM103.484 36.068C99.1244 36.068 95.5784 32.522 95.5784 28.1633C95.5784 23.8046 99.1255 20.2585 103.484 20.2585C107.843 20.2585 111.39 23.8046 111.39 28.1633C111.39 32.522 107.843 36.068 103.484 36.068ZM103.484 20.7577C99.3994 20.7577 96.0764 24.0796 96.0764 28.1633C96.0764 32.2469 99.3994 35.5689 103.484 35.5689C107.569 35.5689 110.892 32.2469 110.892 28.1633C110.892 24.0796 107.569 20.7577 103.484 20.7577Z" fill="black"/>
<path d="M67.985 17.816C66.2409 17.6315 64.6767 18.8969 64.4922 20.6422C64.4786 20.7723 64.4752 20.9013 64.4775 21.0281C63.1759 21.2092 61.9286 21.5827 60.7696 22.1249C60.7017 22.0162 60.6292 21.9109 60.5477 21.8091C59.4442 20.4441 57.4442 20.2336 56.0804 21.3371C54.7165 22.4406 54.5049 24.4417 55.6084 25.8056C55.691 25.9075 55.7793 26.0003 55.871 26.0897C55.0991 27.1106 54.4732 28.2526 54.0238 29.4875C53.8993 29.4592 53.7737 29.4354 53.6435 29.4218C51.8994 29.2373 50.3352 30.5027 50.1507 32.248C49.9662 33.9933 51.2305 35.5575 52.9758 35.742C53.1059 35.7556 53.2338 35.759 53.3617 35.7567C53.5417 37.0583 53.9163 38.3067 54.4573 39.4657C54.3498 39.5336 54.2434 39.6061 54.1415 39.6887C52.7777 40.7922 52.566 42.7933 53.6696 44.1572C54.7731 45.5222 56.7731 45.7327 58.1369 44.6292C58.2388 44.5465 58.3316 44.4583 58.4199 44.3666C59.4408 45.1385 60.5817 45.7655 61.8165 46.2137C61.7882 46.3382 61.7645 46.4639 61.7509 46.594C61.5664 48.3393 62.8307 49.9035 64.5759 50.088C66.3201 50.2725 67.8843 49.0071 68.0688 47.2618C68.0824 47.1317 68.0858 47.0026 68.0835 46.8759C69.3851 46.6948 70.6324 46.3213 71.7914 45.7791C71.8593 45.8878 71.9318 45.993 72.0132 46.0949C73.1168 47.4599 75.1167 47.6704 76.4806 46.5669C77.8445 45.4633 78.0561 43.4622 76.9526 42.0984C76.87 41.9965 76.7817 41.9037 76.69 41.8143C77.4619 40.7934 78.0878 39.6513 78.5371 38.4165C78.6617 38.4448 78.7873 38.4686 78.9174 38.4822C80.6616 38.6666 82.2258 37.4013 82.4103 35.656C82.5948 33.9107 81.3305 32.3465 79.5852 32.162C79.4551 32.1484 79.3272 32.145 79.1993 32.1473C79.0193 30.8457 78.6447 29.5972 78.1037 28.4382C78.2112 28.3703 78.3176 28.2979 78.4194 28.2153C79.7833 27.1117 79.995 25.1106 78.8914 23.7468C77.7879 22.3818 75.7879 22.1713 74.4241 23.2748C74.3222 23.3574 74.2294 23.4457 74.1411 23.5374C73.1202 22.7655 71.9793 22.1384 70.7445 21.6902C70.7727 21.5657 70.7965 21.4401 70.8101 21.3099C70.9946 19.5646 69.7303 18.0004 67.985 17.816ZM66.8996 28.084C70.1401 28.4269 72.4886 31.3312 72.1457 34.5728C71.8027 37.8132 68.8984 40.1641 65.6591 39.8211C62.4187 39.4782 60.0701 36.5739 60.4131 33.3323C60.756 30.0919 63.6603 27.741 66.8996 28.084Z" fill="white"/>
<path d="M64.9118 50.3553C64.7919 50.3553 64.6708 50.3485 64.5497 50.336C62.6719 50.1368 61.3047 48.447 61.5039 46.5682C61.5107 46.5048 61.5197 46.4403 61.531 46.3723C60.4298 45.9513 59.3919 45.3876 58.4423 44.6927C58.3925 44.7391 58.3427 44.7821 58.2929 44.8217C57.5809 45.3967 56.6891 45.6604 55.7779 45.5653C54.8679 45.4691 54.0496 45.0243 53.4746 44.3124C52.2873 42.8433 52.516 40.6815 53.984 39.493C54.0326 39.4534 54.0847 39.4138 54.1413 39.3742C53.6603 38.3001 53.3252 37.1671 53.1453 36.0013C53.0762 35.9991 53.0117 35.9934 52.9483 35.9877C52.0383 35.8915 51.22 35.4467 50.645 34.7348C50.0701 34.0229 49.8052 33.1299 49.9026 32.2199C49.9988 31.3099 50.4436 30.4916 51.1544 29.9154C51.8663 29.3393 52.7582 29.0756 53.6693 29.1718C53.7316 29.1786 53.7972 29.1877 53.8651 29.199C54.2862 28.0977 54.8498 27.0598 55.5448 26.1091C55.4984 26.0581 55.4553 26.0095 55.4157 25.9597C54.2284 24.4906 54.4559 22.3287 55.9251 21.1403C56.637 20.5642 57.53 20.3016 58.44 20.3967C59.35 20.4929 60.1683 20.9377 60.7433 21.6496C60.7829 21.6983 60.8225 21.7515 60.8621 21.807C61.9362 21.3259 63.0681 20.9909 64.2339 20.8098C64.2361 20.7408 64.2407 20.6763 64.2475 20.6129C64.4467 18.734 66.1376 17.3668 68.0142 17.5648C69.8919 17.7629 71.2592 19.4539 71.06 21.3327C71.0532 21.3961 71.0441 21.4606 71.0328 21.5285C72.1341 21.9485 73.1708 22.5132 74.1216 23.2082C74.1714 23.1618 74.2212 23.1188 74.271 23.0792C74.9829 22.5031 75.8737 22.2393 76.7859 22.3355C77.6959 22.4317 78.5142 22.8766 79.0892 23.5885C80.2765 25.0576 80.0479 27.2194 78.5799 28.4078C78.5312 28.4475 78.4792 28.4871 78.4226 28.5267C78.9036 29.6019 79.2386 30.7338 79.4186 31.8996C79.4876 31.9018 79.5521 31.9075 79.6155 31.9131C80.5255 32.0093 81.3438 32.4542 81.9188 33.1661C82.4938 33.878 82.7586 34.771 82.6613 35.681C82.5651 36.591 82.1203 37.4093 81.4095 37.9854C80.6976 38.5604 79.8045 38.8241 78.8946 38.7291C78.8312 38.7223 78.7666 38.7132 78.6987 38.7019C78.2788 39.8032 77.7152 40.8411 77.0191 41.7918C77.0655 41.8416 77.1085 41.8914 77.1481 41.9412C78.3365 43.4103 78.1079 45.5721 76.6388 46.7606C75.9269 47.3367 75.0339 47.6004 74.1239 47.5042C73.2139 47.408 72.3955 46.9632 71.8206 46.2512C71.781 46.2014 71.7413 46.1494 71.7017 46.0939C70.6265 46.5749 69.4946 46.91 68.33 47.0911C68.3277 47.1601 68.3232 47.2246 68.3164 47.288C68.1308 49.0457 66.6402 50.3553 64.9118 50.3553ZM58.4196 44.1177C58.4728 44.1177 58.5249 44.1347 58.5702 44.1687C59.5832 44.936 60.7048 45.545 61.9023 45.9807C62.02 46.0237 62.0879 46.1482 62.0596 46.2705C62.0302 46.3995 62.0098 46.5138 61.9985 46.6214C61.8287 48.2274 62.9968 49.6716 64.6017 49.8414C66.2044 50.0135 67.6509 48.8431 67.8207 47.2371C67.832 47.1295 67.8365 47.0164 67.8342 46.8805C67.832 46.7549 67.9248 46.6474 68.0493 46.6304C69.3102 46.455 70.5337 46.0939 71.6859 45.5552C71.8013 45.502 71.936 45.5427 72.0028 45.6491C72.073 45.7623 72.1397 45.8574 72.2077 45.94C72.7 46.5478 73.3984 46.9281 74.1759 47.0107C74.9546 47.0933 75.7164 46.867 76.3253 46.3757C77.5805 45.3605 77.7752 43.5122 76.761 42.257C76.6931 42.1732 76.6139 42.0883 76.5188 41.9955C76.4283 41.9084 76.4181 41.7669 76.4939 41.6662C77.2613 40.652 77.8702 39.5304 78.3049 38.3329C78.3479 38.2141 78.4746 38.1473 78.5946 38.1756C78.7248 38.205 78.8391 38.2254 78.9466 38.2367C79.7242 38.3193 80.487 38.093 81.0948 37.6017C81.7026 37.1094 82.0829 36.4111 82.1656 35.6324C82.2482 34.8548 82.0218 34.0908 81.5306 33.483C81.0382 32.8752 80.3399 32.4949 79.5623 32.4123C79.4559 32.401 79.3405 32.3964 79.2069 32.3987C79.0722 32.401 78.9738 32.3082 78.9568 32.1836C78.7814 30.9217 78.4203 29.6981 77.8816 28.5459C77.8284 28.4316 77.868 28.2958 77.9755 28.229C78.0898 28.1566 78.1826 28.0921 78.2664 28.0241C79.5216 27.0089 79.7174 25.1606 78.7021 23.9054C78.2098 23.2976 77.5114 22.9173 76.7339 22.8347C75.9574 22.7521 75.1934 22.9784 74.5856 23.4696C74.5019 23.5375 74.417 23.6168 74.3242 23.7119C74.2359 23.8024 74.0956 23.8126 73.9948 23.7368C72.9807 22.9694 71.8602 22.3593 70.6627 21.9247C70.545 21.8817 70.4771 21.7572 70.5054 21.6349C70.5359 21.5025 70.5552 21.3905 70.5665 21.2829C70.7363 19.6769 69.5682 18.2326 67.9633 18.0629C66.3617 17.8919 64.9141 19.0611 64.7443 20.6672C64.733 20.7747 64.7285 20.8879 64.7307 21.0237C64.733 21.1494 64.6402 21.2569 64.5157 21.2739C63.2537 21.4493 62.0302 21.8104 60.8791 22.3491C60.7637 22.4023 60.629 22.3616 60.5622 22.2552C60.4909 22.1409 60.4252 22.0481 60.3573 21.9643C59.8661 21.3565 59.1666 20.9762 58.3891 20.8936C57.6104 20.8098 56.8486 21.0373 56.2397 21.5285C54.9845 22.5438 54.7898 24.3921 55.804 25.6473C55.8719 25.731 55.9488 25.8148 56.0462 25.9087C56.1367 25.9959 56.1469 26.1374 56.0711 26.2381C55.3037 27.2522 54.6948 28.3739 54.259 29.5714C54.216 29.6902 54.0892 29.757 53.9692 29.7287C53.838 29.6981 53.7259 29.6789 53.6184 29.6676C52.8431 29.585 52.078 29.8102 51.4702 30.3025C50.8624 30.7949 50.4821 31.4944 50.3994 32.2719C50.3168 33.0495 50.5432 33.8135 51.0344 34.4213C51.5267 35.0291 52.2251 35.4094 53.0027 35.492C53.1102 35.5033 53.2245 35.5079 53.3581 35.5056H53.3615C53.486 35.5056 53.5912 35.5973 53.6082 35.7206C53.7836 36.9826 54.1447 38.2061 54.6834 39.3584C54.7366 39.4727 54.697 39.6085 54.5895 39.6753C54.4763 39.7466 54.3812 39.8134 54.2986 39.8801C53.0434 40.8954 52.8476 42.7437 53.8629 43.9989C54.3541 44.6067 55.0535 44.987 55.8311 45.0696C56.6087 45.1534 57.3715 44.9259 57.9793 44.4346C58.0631 44.3667 58.148 44.2875 58.2408 44.1924C58.2895 44.1426 58.354 44.1166 58.4196 44.1166V44.1177ZM66.2859 40.1031C66.0708 40.1031 65.8535 40.0918 65.6351 40.0692C64.0018 39.896 62.5339 39.098 61.5016 37.8202C60.4694 36.5435 59.9951 34.9397 60.1683 33.3064C60.3404 31.6732 61.1394 30.2041 62.4161 29.1707C63.6929 28.1373 65.2944 27.6642 66.9288 27.8363C70.3005 28.1928 72.7532 31.2261 72.3967 34.599C72.0628 37.7523 69.3894 40.1031 66.287 40.1031H66.2859ZM66.2712 28.3003C64.9831 28.3003 63.7438 28.7372 62.7285 29.5589C61.5548 30.5085 60.8214 31.8577 60.6629 33.3596C60.5045 34.8616 60.9391 36.3341 61.8887 37.5078C62.8383 38.6815 64.1875 39.415 65.6883 39.5734C68.7816 39.9016 71.5727 37.6459 71.9009 34.5469C72.228 31.448 69.9745 28.6591 66.8756 28.332C66.673 28.3105 66.4715 28.3003 66.2712 28.3003Z" fill="black"/>
<path d="M96.2665 141.166C93.2728 141.166 91.3283 138.736 91.9236 135.738L117.748 5.67707C118.343 2.67883 121.252 0.248779 124.245 0.248779H305.758C308.752 0.248779 310.696 2.67883 310.101 5.67707L284.423 135.007C283.747 138.409 280.448 141.166 277.051 141.166H96.2665Z" fill="white"/>
<path d="M277.05 141.415H96.2662C94.7632 141.415 93.4581 140.832 92.5889 139.774C91.6947 138.685 91.3722 137.235 91.68 135.689L117.503 5.6285C118.119 2.525 121.144 -0.00012207 124.245 -0.00012207H305.758C307.261 -0.00012207 308.566 0.582774 309.435 1.64104C310.329 2.72987 310.652 4.17975 310.344 5.72584L284.666 135.056C283.97 138.563 280.554 141.415 277.05 141.415ZM124.245 0.497886C121.369 0.497886 118.563 2.84305 117.992 5.72584L92.169 135.786C91.8917 137.183 92.178 138.487 92.9749 139.458C93.7468 140.399 94.9159 140.917 96.2674 140.917H277.051C280.329 140.917 283.526 138.245 284.178 134.96L309.856 5.6285C310.133 4.23181 309.847 2.92794 309.05 1.95682C308.278 1.01627 307.109 0.497886 305.758 0.497886H124.245Z" fill="black"/>
<path d="M268.61 159.355H47.7763C39.669 159.355 34.4026 152.783 36.012 144.676H286.203C284.594 152.783 276.717 159.355 268.61 159.355Z" fill="white"/>
<path d="M268.611 159.603H47.7775C43.8342 159.603 40.4115 158.08 38.1411 155.314C35.8072 152.472 34.9652 148.677 35.7699 144.627C35.7925 144.51 35.8955 144.427 36.0144 144.427H286.206C286.28 144.427 286.351 144.46 286.398 144.517C286.446 144.575 286.465 144.651 286.45 144.723C284.821 152.928 276.819 159.602 268.612 159.602L268.611 159.603ZM36.2181 144.925C35.5107 148.749 36.3256 152.319 38.5248 154.998C40.7002 157.646 43.9848 159.105 47.7764 159.105H268.61C276.492 159.105 284.18 152.772 285.897 144.925H36.2181Z" fill="black"/>
<path d="M146.812 28.1647H137.859C134.677 28.1647 131.576 30.7679 130.966 33.9495L129.25 42.9034C128.64 46.085 130.745 48.6883 133.927 48.6883H142.88C146.062 48.6883 149.163 46.085 149.773 42.9034L151.489 33.9495C152.099 30.7679 149.994 28.1647 146.812 28.1647Z" fill="#E2EAFF"/>
<path d="M141.488 55.9647H132.534C129.352 55.9647 126.251 58.5679 125.641 61.7495L123.925 70.7035C123.316 73.8851 125.42 76.4883 128.602 76.4883H137.556C140.738 76.4883 143.839 73.8851 144.449 70.7035L146.165 61.7495C146.775 58.5679 144.67 55.9647 141.488 55.9647Z" fill="#E2EAFF"/>
<path d="M136.059 84.3025H127.105C123.923 84.3025 120.822 86.9057 120.212 90.0873L118.496 99.0413C117.886 102.223 119.991 104.826 123.173 104.826H132.127C135.308 104.826 138.409 102.223 139.019 99.0413L140.735 90.0873C141.345 86.9057 139.24 84.3025 136.059 84.3025Z" fill="#E2EAFF"/>
<path d="M130.789 111.803H121.835C118.653 111.803 115.552 114.406 114.942 117.588L113.226 126.542C112.616 129.723 114.721 132.326 117.903 132.326H126.857C130.039 132.326 133.14 129.723 133.75 126.542L135.466 117.588C136.076 114.406 133.971 111.803 130.789 111.803Z" fill="#E2EAFF"/>
<path d="M280.896 30.6038L279.746 36.607H159.613L160.763 30.6038H280.896Z" fill="#E2EAFF"/>
<path d="M243.891 40.2446L242.74 46.2479H157.762L158.913 40.2446H243.891Z" fill="#E2EAFF"/>
<path d="M275.567 58.4037L274.417 64.4069H154.285L155.435 58.4037H275.567Z" fill="#E2EAFF"/>
<path d="M238.566 68.0447L237.416 74.0491H152.438L153.587 68.0447H238.566Z" fill="#E2EAFF"/>
<path d="M270.139 86.7406L268.989 92.745H148.855L150.007 86.7406H270.139Z" fill="#E2EAFF"/>
<path d="M208.227 96.3828L207.077 102.386H147.012L148.162 96.3828H208.227Z" fill="#E2EAFF"/>
<path d="M264.872 114.242L263.722 120.245H143.59L144.74 114.242H264.872Z" fill="#E2EAFF"/>
<path d="M227.87 123.883L226.72 129.886H141.742L142.892 123.883H227.87Z" fill="#E2EAFF"/>
<path d="M256.768 22.7905H170.425C168.725 22.7905 167.693 21.4119 168.12 19.7119L169.231 15.2887C169.658 13.5887 171.383 12.2101 173.083 12.2101H259.426C261.126 12.2101 262.158 13.5887 261.732 15.2887L260.62 19.7119C260.193 21.4119 258.469 22.7905 256.768 22.7905Z" fill="#4776E6"/>
<path d="M300.642 147.368C298.388 147.368 296.555 145.535 296.555 143.28C296.555 141.026 298.388 139.192 300.642 139.192C302.895 139.192 304.73 141.026 304.73 143.28C304.73 145.535 302.896 147.368 300.642 147.368ZM300.642 139.691C298.662 139.691 297.053 141.302 297.053 143.28C297.053 145.259 298.663 146.869 300.642 146.869C302.62 146.869 304.232 145.259 304.232 143.28C304.232 141.302 302.621 139.691 300.642 139.691Z" fill="black"/>
<path d="M300.642 158.571C298.388 158.571 296.555 156.738 296.555 154.483C296.555 152.229 298.388 150.395 300.642 150.395C302.895 150.395 304.73 152.229 304.73 154.483C304.73 156.738 302.896 158.571 300.642 158.571ZM300.642 150.894C298.662 150.894 297.053 152.505 297.053 154.483C297.053 156.462 298.663 158.072 300.642 158.072C302.62 158.072 304.232 156.462 304.232 154.483C304.232 152.505 302.621 150.894 300.642 150.894Z" fill="black"/>
<path d="M302.112 169.232C304.071 168.421 305.001 166.176 304.189 164.217C303.378 162.259 301.133 161.329 299.175 162.14C297.216 162.951 296.286 165.196 297.098 167.155C297.909 169.113 300.154 170.043 302.112 169.232Z" fill="#4776E6"/>
<path d="M300.64 135.532C300.502 135.532 300.391 135.419 300.391 135.283V106.518C300.391 106.38 300.502 106.269 300.64 106.269C300.778 106.269 300.889 106.381 300.889 106.518V135.283C300.889 135.421 300.778 135.532 300.64 135.532Z" fill="black"/>
<path d="M301.085 207.109H68.4678C68.3297 207.109 68.2188 206.997 68.2188 206.86C68.2188 206.723 68.3297 206.611 68.4678 206.611H300.836V172.162C300.836 172.024 300.947 171.913 301.085 171.913C301.223 171.913 301.334 172.025 301.334 172.162V206.86C301.334 206.998 301.223 207.109 301.085 207.109Z" fill="black"/>
<path d="M80.8953 80.5845C80.8953 80.5845 83.0707 98.9451 75.8767 99.1726C70.3228 99.3481 64.4259 95.5077 64.3297 95.0788C64.2335 94.6509 63.8555 83.3099 63.8555 83.3099L80.8941 80.5845H80.8953Z" fill="white"/>
<path d="M75.5063 99.4271C70.0089 99.4271 64.2332 95.7735 64.0894 95.1329C63.991 94.6938 63.648 84.4812 63.6095 83.3177C63.605 83.192 63.6956 83.0834 63.8189 83.063L80.8576 80.3375C80.9244 80.3262 80.9923 80.3443 81.0466 80.3851C81.1009 80.4258 81.136 80.4869 81.1439 80.5549C81.2062 81.0846 82.638 93.58 78.8871 97.9376C78.0721 98.8849 77.0625 99.3841 75.8866 99.4203C75.7598 99.4248 75.6319 99.426 75.5051 99.426L75.5063 99.4271ZM64.5716 94.9994C65.013 95.5834 70.4345 98.9291 75.5153 98.9291C75.6342 98.9291 75.7519 98.9268 75.8707 98.9234C76.9007 98.8906 77.7892 98.4503 78.509 97.6128C81.831 93.7532 80.8633 82.7042 80.6765 80.8718L64.1132 83.5203C64.2615 87.9457 64.4969 94.4142 64.5705 94.9982L64.5716 94.9994Z" fill="black"/>
<path d="M74.4876 94.5805L70.3688 107.555L56.668 104.482L64.0623 85.4229L74.4876 94.5805Z" fill="white"/>
<path d="M70.3676 107.804C70.3495 107.804 70.3314 107.802 70.3133 107.798L56.6124 104.725C56.5411 104.71 56.4811 104.663 56.4471 104.6C56.4132 104.535 56.4087 104.461 56.4347 104.393L63.829 85.3349C63.8788 85.207 64.0237 85.1425 64.1516 85.1923C64.2795 85.2421 64.344 85.3858 64.2942 85.5148L57.0051 104.303L70.2001 107.263L74.2498 94.5061C74.2917 94.3748 74.4309 94.3024 74.5622 94.3443C74.6935 94.3862 74.7659 94.5265 74.724 94.6567L70.6053 107.631C70.5725 107.736 70.474 107.804 70.3676 107.804Z" fill="black"/>
<path d="M74.2695 85.7683C74.2695 85.7683 76.5479 84.8844 75.4987 88.7779L74.2695 85.7683Z" fill="white"/>
<path d="M75.4988 89.0256C75.4773 89.0256 75.4558 89.0233 75.4332 89.0165C75.3008 88.9803 75.2215 88.8445 75.2578 88.7109C75.749 86.8887 75.4536 86.2854 75.2329 86.0873C74.9092 85.7976 74.3647 85.9968 74.3591 85.9991C74.2312 86.0489 74.0863 85.9855 74.0365 85.8564C73.9867 85.7285 74.0501 85.5837 74.1791 85.5339C74.2119 85.5203 75.0122 85.2192 75.5656 85.7161C76.1078 86.2039 76.1655 87.2543 75.7388 88.84C75.7094 88.9509 75.6086 89.0245 75.4988 89.0245V89.0256Z" fill="black"/>
<path d="M70.949 169.457L33.1694 175.428C28.8367 176.113 25.3609 172.658 25.8272 168.297C27.3733 153.805 31.6754 128.342 41.6005 112.12C51.2675 96.3193 81.7308 100.864 91.4748 115.668C95.7328 122.136 102.424 131.834 107.853 139.633C112.384 146.145 109.679 155.178 102.314 158.13C97.3524 160.119 91.674 158.687 88.2491 154.583L87.1535 153.27L89.6096 161.98L70.9512 169.459L70.949 169.457Z" fill="#4776E6"/>
<path d="M87.1536 153.518C87.0698 153.518 86.9872 153.475 86.9408 153.398L71.9112 128.661C71.8399 128.544 71.8772 128.391 71.9949 128.32C72.1126 128.248 72.2654 128.286 72.3367 128.403L87.3664 153.14C87.4377 153.257 87.4003 153.41 87.2826 153.481C87.2419 153.506 87.1977 153.518 87.1536 153.518Z" fill="black"/>
<path d="M32.8086 175.115L36.1543 184.121C43.5791 204.142 67.1089 212.835 85.7717 202.449L132.907 174.486C139.466 170.595 141.835 162.255 138.303 155.498C134.883 148.957 127.058 146.077 120.212 148.838L71.179 168.62L32.8086 175.115Z" fill="white"/>
<path d="M68.8318 207.1C64.7267 207.1 60.6079 206.379 56.6634 204.921C47.0474 201.368 39.4878 193.819 35.9237 184.209L32.578 175.203C32.5304 175.074 32.5961 174.93 32.7251 174.882C32.8541 174.835 32.9979 174.9 33.0454 175.03L36.3911 184.036C39.9043 193.509 47.3564 200.952 56.8366 204.454C66.3169 207.957 76.8215 207.148 85.6543 202.232L132.784 174.272C139.229 170.449 141.557 162.253 138.085 155.614C134.709 149.157 127.067 146.343 120.309 149.07L79.0365 165.72C78.9097 165.772 78.7637 165.71 78.7127 165.582C78.6618 165.454 78.7229 165.309 78.8508 165.258L120.123 148.608C127.119 145.785 135.032 148.698 138.528 155.383C142.123 162.258 139.711 170.742 133.039 174.701L85.9033 202.664C80.6154 205.607 74.7377 207.1 68.8341 207.1H68.8318Z" fill="black"/>
<path d="M88.8262 201.434C85.8789 193.262 101.115 190.461 109.179 182.588C117.987 173.988 128.42 176.663 131.455 184.078C134.306 191.045 128.247 198.385 118.661 202.317C108.488 206.49 92.0825 210.463 88.8262 201.434Z" fill="white"/>
<path d="M99.2333 207.126C96.8203 207.126 94.6381 206.789 92.869 206.004C90.7683 205.072 89.3298 203.563 88.5929 201.519C86.6609 196.162 92.139 193.091 98.4818 189.535C102.206 187.448 106.055 185.29 109.006 182.409C113.391 178.127 118.662 176.243 123.463 177.238C127.256 178.024 130.254 180.483 131.686 183.983C134.422 190.668 129.105 198.302 118.758 202.547C112.717 205.024 105.257 207.125 99.2333 207.125V207.126ZM120.9 177.476C116.969 177.476 112.875 179.328 109.353 182.767C106.356 185.694 102.302 187.965 98.7251 189.971C92.5793 193.416 87.2721 196.391 89.0604 201.35C89.7497 203.262 91.0988 204.674 93.0705 205.549C99.1122 208.231 110.202 205.519 118.567 202.087C128.644 197.954 133.848 190.587 131.225 184.174C129.856 180.829 126.991 178.479 123.361 177.727C122.553 177.559 121.73 177.476 120.9 177.476Z" fill="black"/>
<path d="M116.342 200.447C116.261 200.447 116.181 200.407 116.133 200.334L107.693 187.388C107.618 187.272 107.65 187.118 107.765 187.043C107.879 186.968 108.035 187 108.11 187.115L116.55 200.061C116.625 200.176 116.593 200.33 116.478 200.406C116.436 200.433 116.389 200.447 116.342 200.447Z" fill="black"/>
<path d="M121.666 197.786C121.585 197.786 121.505 197.746 121.458 197.674L112.498 184.092C112.422 183.977 112.454 183.822 112.57 183.747C112.685 183.671 112.839 183.702 112.915 183.817L121.874 197.399C121.95 197.513 121.919 197.668 121.803 197.744C121.761 197.772 121.714 197.785 121.666 197.785V197.786Z" fill="black"/>
<path d="M110.563 202.354C110.482 202.354 110.403 202.315 110.354 202.243L102.479 190.366C102.403 190.251 102.434 190.096 102.549 190.021C102.664 189.945 102.819 189.976 102.894 190.091L110.77 201.968C110.846 202.083 110.815 202.238 110.7 202.313C110.658 202.342 110.609 202.355 110.563 202.355V202.354Z" fill="black"/>
<path d="M104.638 204.338C104.557 204.338 104.478 204.299 104.43 204.226L97.1389 193.173C97.063 193.058 97.0947 192.903 97.2102 192.827C97.3256 192.752 97.4796 192.783 97.5554 192.899L104.847 203.952C104.923 204.066 104.891 204.222 104.775 204.297C104.734 204.326 104.685 204.338 104.638 204.338Z" fill="black"/>
<path d="M79.5941 159.287C80.7611 158.814 82.0649 159.179 82.8867 160.098C82.5867 158.686 83.2896 157.239 84.6218 156.7C85.9392 156.167 87.4321 156.697 88.2074 157.891C88.1486 156.651 88.9205 155.424 90.0059 154.995C92.1722 154.118 93.4988 156.096 94.0126 157.364C93.8824 156.065 94.5763 154.801 95.802 154.305C97.3051 153.697 99.0368 154.473 99.6707 156.038L100.915 159.108C101.548 160.673 100.844 162.435 99.3424 163.044C98.1936 163.51 96.9112 163.163 96.0873 162.276C96.4585 163.728 95.7568 165.246 94.3839 165.802C93.0664 166.335 91.5735 165.805 90.7982 164.611C90.857 165.851 90.1734 167.032 88.9997 167.507C87.7173 168.027 86.2708 167.536 85.4797 166.409C85.5725 167.678 84.8843 168.899 83.6846 169.385C82.1815 169.994 80.4498 169.217 79.816 167.652L78.022 163.223C77.3882 161.658 78.0922 159.896 79.5941 159.287Z" fill="white"/>
<path d="M82.6252 169.838C81.3439 169.838 80.1114 169.043 79.5851 167.743L77.7911 163.314C77.4606 162.497 77.4549 161.605 77.7753 160.802C78.0978 159.995 78.7102 159.375 79.5002 159.054C80.5166 158.642 81.6801 158.817 82.5686 159.472C82.5573 158.161 83.3122 156.96 84.5278 156.468C85.7253 155.984 87.0937 156.307 87.998 157.232C88.1802 156.138 88.9171 155.155 89.9142 154.761C91.6561 154.056 92.9951 155.031 93.81 156.393C94.0149 155.353 94.7075 154.477 95.7081 154.072C97.3357 153.412 99.2168 154.252 99.9015 155.942L101.145 159.011C101.476 159.828 101.482 160.72 101.161 161.524C100.839 162.331 100.226 162.951 99.4363 163.271C98.4313 163.679 97.313 163.528 96.4313 162.904C96.4879 164.252 95.7262 165.524 94.4778 166.029C93.2825 166.513 91.9164 166.189 91.011 165.269C90.8389 166.372 90.1225 167.318 89.0925 167.734C87.9278 168.206 86.6172 167.922 85.7106 167.055C85.568 168.197 84.8436 169.18 83.7774 169.612C83.4005 169.765 83.01 169.837 82.624 169.837L82.6252 169.838ZM80.6479 159.33C80.323 159.33 79.9971 159.392 79.6869 159.516C79.0237 159.784 78.5087 160.307 78.237 160.986C77.9643 161.67 77.9688 162.431 78.2518 163.128L80.0457 167.557C80.6275 168.992 82.2177 169.708 83.5906 169.151C84.6591 168.719 85.3178 167.623 85.2307 166.425C85.2227 166.313 85.2895 166.21 85.3948 166.172C85.5 166.135 85.6178 166.172 85.6823 166.264C86.4282 167.326 87.7535 167.741 88.9046 167.275C89.9425 166.855 90.6035 165.788 90.548 164.622C90.5424 164.51 90.6137 164.408 90.7201 164.373C90.8265 164.339 90.9442 164.38 91.0053 164.475C91.7285 165.586 93.1082 166.047 94.2888 165.57C95.5202 165.071 96.1891 163.681 95.8439 162.337C95.8156 162.226 95.8654 162.11 95.9661 162.056C96.0657 162.002 96.1914 162.022 96.2683 162.106C97.0527 162.95 98.2219 163.228 99.2473 162.813C99.9106 162.545 100.426 162.022 100.697 161.342C100.97 160.658 100.965 159.897 100.682 159.2L99.4386 156.131C98.8568 154.696 97.2666 153.979 95.8937 154.536C94.7924 154.982 94.136 156.108 94.2593 157.34C94.2718 157.463 94.1914 157.576 94.0714 157.605C93.9503 157.636 93.827 157.572 93.7806 157.457C93.4761 156.707 92.3114 154.33 90.0976 155.225C89.1072 155.617 88.4009 156.757 88.4541 157.878C88.4598 157.99 88.3885 158.092 88.2821 158.127C88.1757 158.161 88.058 158.12 87.9969 158.025C87.2736 156.913 85.8928 156.453 84.7134 156.93C83.5148 157.415 82.8493 158.725 83.1288 160.046C83.1526 160.157 83.0983 160.269 82.9976 160.32C82.8968 160.371 82.7746 160.348 82.6999 160.263C82.1589 159.659 81.4039 159.33 80.6467 159.33H80.6479Z" fill="black"/>
<path d="M85.4797 166.657C85.3801 166.657 85.2851 166.596 85.2477 166.497L83.2161 161.218C83.1663 161.091 83.2308 160.946 83.3587 160.897C83.4877 160.847 83.6314 160.912 83.6812 161.04L85.7129 166.318C85.7627 166.446 85.6982 166.591 85.5703 166.64C85.5409 166.651 85.5103 166.657 85.4809 166.657H85.4797Z" fill="black"/>
<path d="M90.804 164.882C90.7043 164.882 90.6093 164.821 90.5719 164.723L88.5403 159.444C88.4905 159.316 88.555 159.171 88.6829 159.123C88.8108 159.074 88.9557 159.137 89.0055 159.265L91.0371 164.544C91.0869 164.672 91.0224 164.817 90.8945 164.866C90.8651 164.877 90.8345 164.882 90.8051 164.882H90.804Z" fill="black"/>
<path d="M96.0628 162.504C95.9654 162.504 95.8726 162.447 95.833 162.35L93.738 157.308C93.6848 157.181 93.7459 157.035 93.8727 156.982C93.9994 156.93 94.1454 156.99 94.1986 157.117L96.2937 162.159C96.3469 162.286 96.2857 162.432 96.159 162.485C96.1284 162.498 96.0956 162.504 96.0639 162.504H96.0628Z" fill="black"/>
<path d="M78.4589 71.8182C82.4837 72.1317 86.6251 79.5893 76.1817 85.0052C76.1817 85.0052 74.6899 83.1999 72.8835 84.9271C71.0771 86.6543 73.5898 90.3429 73.5898 90.3429C73.5898 90.3429 48.2072 124.056 58.9846 131.474C65.1259 135.7 37.3099 138.049 29.833 124.762C21.883 110.633 27.5535 99.3116 33.3077 94.5024C44.0851 85.4953 49.7974 85.9073 57.7475 76.7235C61.6591 72.2041 71.351 65.7742 78.4578 71.8182H78.4589Z" fill="black"/>
<path d="M282.908 186.279H186.21C186.072 186.279 185.961 186.166 185.961 186.03C185.961 185.893 186.072 185.781 186.21 185.781H282.908C283.046 185.781 283.157 185.893 283.157 186.03C283.157 186.166 283.046 186.279 282.908 186.279Z" fill="black"/>
<path d="M253.127 192.375H236.776C236.638 192.375 236.527 192.263 236.527 192.126C236.527 191.989 236.638 191.877 236.776 191.877H253.127C253.265 191.877 253.376 191.989 253.376 192.126C253.376 192.263 253.265 192.375 253.127 192.375Z" fill="black"/>
<path d="M225.734 192.375H176.585C176.447 192.375 176.336 192.263 176.336 192.126C176.336 191.989 176.447 191.877 176.585 191.877H225.734C225.872 191.877 225.983 191.989 225.983 192.126C225.983 192.263 225.872 192.375 225.734 192.375Z" fill="black"/>
<path d="M213.074 198.338H141.741C141.603 198.338 141.492 198.226 141.492 198.089C141.492 197.952 141.603 197.84 141.741 197.84H213.074C213.212 197.84 213.323 197.952 213.323 198.089C213.323 198.226 213.212 198.338 213.074 198.338Z" fill="black"/>
</g>
<defs>
<clipPath id="clip0_4152_18599">
<rect width="310.457" height="207.126" fill="white"/>
</clipPath>
</defs>
</svg>
