<svg width="311" height="208" viewBox="0 0 311 208" fill="none" xmlns="http://www.w3.org/2000/svg">
<g clip-path="url(#clip0_344_18780)">
<path d="M120.415 24.0422C120.245 24.0422 120.079 24.0557 119.915 24.075C119.504 22.4202 118.852 20.8617 117.994 19.439C118.124 19.3371 118.251 19.2285 118.371 19.1085C119.981 17.499 119.981 14.889 118.371 13.2784C116.76 11.6689 114.15 11.6689 112.54 13.2784C112.42 13.3984 112.311 13.5251 112.209 13.6553C110.786 12.7985 109.228 12.1454 107.572 11.7357C107.592 11.5716 107.605 11.4052 107.605 11.2354C107.605 8.95931 105.759 7.11328 103.481 7.11328C101.204 7.11328 99.3582 8.95931 99.3582 11.2354C99.3582 11.4052 99.3718 11.5716 99.391 11.7357C97.7363 12.1466 96.1766 12.7985 94.7539 13.6553C94.652 13.5251 94.5434 13.3984 94.4234 13.2784C92.8128 11.6689 90.2028 11.6689 88.5922 13.2784C86.9816 14.8879 86.9816 17.4979 88.5922 19.1085C88.7122 19.2285 88.8389 19.336 88.9691 19.439C88.1123 20.8617 87.4592 22.4202 87.0484 24.075C86.8842 24.0546 86.7179 24.0422 86.5481 24.0422C84.2708 24.0422 82.4248 25.8882 82.4248 28.1643C82.4248 30.4404 84.2708 32.2865 86.5481 32.2865C86.7179 32.2865 86.8842 32.2729 87.0484 32.2536C87.4592 33.9084 88.1112 35.4669 88.9691 36.8896C88.8389 36.9915 88.7122 37.1002 88.5922 37.2201C86.9816 38.8296 86.9816 41.4396 88.5922 43.0502C90.2028 44.6597 92.8128 44.6597 94.4234 43.0502C94.5434 42.9302 94.652 42.8035 94.7539 42.6733C96.1766 43.5301 97.7352 44.1832 99.391 44.5929C99.3707 44.757 99.3582 44.9234 99.3582 45.0932C99.3582 47.3693 101.204 49.2153 103.481 49.2153C105.759 49.2153 107.605 47.3693 107.605 45.0932C107.605 44.9234 107.591 44.757 107.572 44.5929C109.227 44.1821 110.786 43.5301 112.209 42.6733C112.311 42.8035 112.42 42.9302 112.54 43.0502C114.15 44.6597 116.76 44.6597 118.371 43.0502C119.981 41.4407 119.981 38.8307 118.371 37.2201C118.251 37.1002 118.124 36.9926 117.994 36.8896C118.852 35.4669 119.504 33.9084 119.915 32.2536C120.079 32.274 120.245 32.2865 120.415 32.2865C122.692 32.2865 124.538 30.4404 124.538 28.1643C124.538 25.8882 122.692 24.0422 120.415 24.0422ZM103.484 35.82C99.2552 35.82 95.8269 32.3928 95.8269 28.1643C95.8269 23.9358 99.2552 20.5086 103.484 20.5086C107.712 20.5086 111.141 23.9358 111.141 28.1643C111.141 32.3928 107.712 35.82 103.484 35.82Z" fill="#1A1B25"/>
<path d="M103.483 49.463C101.072 49.463 99.111 47.5016 99.111 45.0919C99.111 44.9934 99.1155 44.8893 99.1234 44.7806C97.6102 44.3845 96.1625 43.7857 94.8134 42.9957C94.7421 43.0795 94.6719 43.1553 94.6017 43.2255C92.8972 44.93 90.1231 44.93 88.4185 43.2255C87.5923 42.4004 87.1384 41.3025 87.1384 40.1344C87.1384 38.9664 87.5934 37.8696 88.4185 37.0434C88.4887 36.9732 88.5645 36.903 88.6483 36.8317C87.8583 35.4848 87.2595 34.0372 86.8634 32.5228C86.7536 32.5319 86.6506 32.5353 86.551 32.5353C84.1402 32.5353 82.1787 30.5738 82.1787 28.1641C82.1787 25.7545 84.1402 23.793 86.551 23.793C86.6517 23.793 86.7536 23.7975 86.8634 23.8054C87.2595 22.2922 87.8594 20.8445 88.6483 19.4965C88.5645 19.4252 88.4887 19.355 88.4185 19.286C87.5923 18.4598 87.1373 17.3619 87.1373 16.195C87.1373 15.028 87.5923 13.9302 88.4174 13.1039C90.1219 11.3994 92.8961 11.3994 94.6006 13.1039C94.6708 13.1741 94.741 13.2499 94.8123 13.3337C96.1603 12.5448 97.6079 11.9449 99.1223 11.5488C99.1132 11.439 99.1099 11.336 99.1099 11.2364C99.1099 8.82557 101.071 6.86523 103.482 6.86523C105.893 6.86523 107.854 8.82557 107.854 11.2364C107.854 11.3349 107.85 11.439 107.842 11.5488C109.356 11.9449 110.804 12.5437 112.152 13.3337C112.223 13.2499 112.293 13.1741 112.364 13.1039C114.068 11.3994 116.842 11.3994 118.547 13.1039C119.373 13.929 119.827 15.0269 119.827 16.195C119.827 17.363 119.372 18.4598 118.547 19.286C118.476 19.3573 118.401 19.4264 118.317 19.4977C119.107 20.8457 119.707 22.2933 120.102 23.8066C120.212 23.7975 120.314 23.7941 120.414 23.7941C122.825 23.7941 124.787 25.7556 124.787 28.1653C124.787 30.5749 122.825 32.5364 120.414 32.5364C120.316 32.5364 120.212 32.5319 120.102 32.524C119.706 34.0372 119.106 35.4849 118.317 36.8329C118.401 36.9042 118.477 36.9743 118.547 37.0445C119.373 37.8696 119.827 38.9675 119.827 40.1356C119.827 41.3036 119.372 42.4004 118.547 43.2266C116.842 44.9312 114.068 44.9312 112.364 43.2266C112.293 43.1564 112.223 43.0806 112.152 42.9968C110.804 43.7857 109.356 44.3856 107.842 44.7818C107.851 44.8915 107.854 44.9945 107.854 45.093C107.854 47.5038 105.893 49.4642 103.482 49.4642L103.483 49.463ZM94.7568 42.423C94.801 42.423 94.8451 42.4343 94.8847 42.4592C96.3052 43.3149 97.8411 43.951 99.4528 44.3505C99.575 44.3811 99.6554 44.4977 99.6396 44.6222C99.618 44.7965 99.6079 44.9504 99.6079 45.0919C99.6079 47.2277 101.346 48.965 103.482 48.965C105.618 48.965 107.356 47.2277 107.356 45.0919C107.356 44.9504 107.346 44.7965 107.325 44.6222C107.31 44.4977 107.39 44.3811 107.511 44.3505C109.123 43.951 110.66 43.3138 112.08 42.4592C112.188 42.3936 112.326 42.4207 112.404 42.5192C112.513 42.6573 112.614 42.7739 112.715 42.8735C114.226 44.3834 116.683 44.3834 118.194 42.8735C118.925 42.1423 119.328 41.1689 119.328 40.1344C119.328 39.0999 118.925 38.1277 118.194 37.3954C118.092 37.2947 117.98 37.1951 117.838 37.0853C117.739 37.0072 117.714 36.868 117.778 36.7604C118.634 35.3411 119.271 33.8041 119.671 32.1935C119.701 32.0712 119.82 31.9909 119.942 32.0067C120.117 32.0282 120.271 32.0384 120.413 32.0384C122.549 32.0384 124.288 30.301 124.288 28.1653C124.288 26.0295 122.549 24.2921 120.413 24.2921C120.271 24.2921 120.121 24.3023 119.942 24.3238C119.817 24.3397 119.701 24.2582 119.671 24.1371C119.271 22.5265 118.635 20.9906 117.778 19.5701C117.714 19.4626 117.739 19.3234 117.838 19.2453C117.98 19.1343 118.092 19.0359 118.194 18.9351C118.925 18.204 119.328 17.2306 119.328 16.1961C119.328 15.1616 118.925 14.1893 118.194 13.457C116.683 11.9472 114.226 11.9472 112.715 13.457C112.614 13.5578 112.512 13.6744 112.404 13.8124C112.326 13.9109 112.188 13.9381 112.08 13.8724C110.66 13.0168 109.123 12.3807 107.511 11.9811C107.389 11.9506 107.309 11.834 107.325 11.7095C107.346 11.5329 107.356 11.3835 107.356 11.2398C107.356 9.10401 105.618 7.36664 103.482 7.36664C101.346 7.36664 99.6079 9.10401 99.6079 11.2398C99.6079 11.3835 99.618 11.5329 99.6396 11.7095C99.6543 11.834 99.5739 11.9506 99.4528 11.9811C97.8411 12.3807 96.304 13.0168 94.8847 13.8724C94.7772 13.9381 94.638 13.9109 94.5599 13.8124C94.4523 13.6744 94.3505 13.5589 94.2497 13.4582C92.7399 11.9483 90.2815 11.9483 88.7705 13.4582C88.0394 14.1893 87.6364 15.1627 87.6364 16.1972C87.6364 17.2317 88.0394 18.204 88.7705 18.9363C88.8713 19.037 88.9867 19.1377 89.1259 19.2464C89.2255 19.3245 89.2504 19.4637 89.1859 19.5712C88.3302 20.9906 87.693 22.5276 87.2935 24.1382C87.2629 24.2604 87.1486 24.3408 87.0218 24.3249C86.8441 24.3034 86.6947 24.2933 86.551 24.2933C84.4152 24.2933 82.6767 26.0306 82.6767 28.1664C82.6767 30.3022 84.4141 32.0395 86.551 32.0395C86.6947 32.0395 86.8441 32.0294 87.0218 32.0079C87.1452 31.9931 87.2629 32.0735 87.2935 32.1946C87.693 33.8063 88.3302 35.3434 89.1859 36.7616C89.2504 36.8691 89.2255 37.0083 89.1259 37.0864C88.9878 37.1939 88.8724 37.2958 88.7705 37.3965C88.0394 38.1277 87.6364 39.0999 87.6364 40.1356C87.6364 41.1712 88.0394 42.1423 88.7705 42.8746C90.2815 44.3845 92.7387 44.3845 94.2497 42.8746C94.3505 42.7739 94.4523 42.6584 94.5599 42.5203C94.6085 42.4581 94.6821 42.4253 94.7557 42.4253L94.7568 42.423ZM103.483 36.0689C99.1234 36.0689 95.5774 32.5228 95.5774 28.1641C95.5774 23.8054 99.1246 20.2594 103.483 20.2594C107.842 20.2594 111.389 23.8054 111.389 28.1641C111.389 32.5228 107.842 36.0689 103.483 36.0689ZM103.483 20.7585C99.3985 20.7585 96.0754 24.0805 96.0754 28.1641C96.0754 32.2478 99.3985 35.5697 103.483 35.5697C107.568 35.5697 110.891 32.2478 110.891 28.1641C110.891 24.0805 107.568 20.7585 103.483 20.7585Z" fill="white"/>
<path d="M67.9831 17.8167C66.2389 17.6322 64.6747 18.8976 64.4902 20.6429C64.4767 20.773 64.4733 20.9021 64.4755 21.0288C63.1739 21.2099 61.9266 21.5834 60.7676 22.1256C60.6997 22.0169 60.6273 21.9117 60.5458 21.8098C59.4422 20.4448 57.4423 20.2343 56.0784 21.3378C54.7146 22.4414 54.5029 24.4425 55.6065 25.8063C55.6891 25.9082 55.7774 26.001 55.869 26.0904C55.0971 27.1113 54.4712 28.2534 54.0219 29.4882C53.8974 29.4599 53.7717 29.4361 53.6416 29.4225C51.8974 29.2381 50.3332 30.5034 50.1487 32.2487C49.9642 33.994 51.2285 35.5582 52.9738 35.7427C53.104 35.7563 53.2319 35.7597 53.3598 35.7574C53.5397 37.059 53.9144 38.3075 54.4554 39.4665C54.3479 39.5344 54.2415 39.6068 54.1396 39.6894C52.7757 40.793 52.5641 42.7941 53.6676 44.1579C54.7712 45.5229 56.7711 45.7334 58.135 44.6299C58.2368 44.5473 58.3297 44.459 58.4179 44.3673C59.4389 45.1392 60.5797 45.7663 61.8146 46.2145C61.7863 46.339 61.7625 46.4646 61.7489 46.5948C61.5644 48.3401 62.8287 49.9043 64.574 50.0887C66.3181 50.2732 67.8824 49.0078 68.0668 47.2625C68.0804 47.1324 68.0838 47.0034 68.0816 46.8766C69.3832 46.6955 70.6304 46.322 71.7894 45.7798C71.8574 45.8885 71.9298 45.9938 72.0113 46.0956C73.1148 47.4606 75.1148 47.6711 76.4786 46.5676C77.8425 45.4641 78.0542 43.463 76.9506 42.0991C76.868 41.9972 76.7797 41.9044 76.688 41.815C77.46 40.7941 78.0859 39.6521 78.5352 38.4172C78.6597 38.4455 78.7853 38.4693 78.9155 38.4829C80.6597 38.6674 82.2238 37.402 82.4083 35.6567C82.5928 33.9114 81.3286 32.3472 79.5833 32.1627C79.4531 32.1491 79.3252 32.1457 79.1973 32.148C79.0174 30.8464 78.6427 29.598 78.1017 28.439C78.2092 28.3711 78.3156 28.2986 78.4175 28.216C79.7813 27.1125 79.993 25.1114 78.8895 23.7475C77.7859 22.3825 75.786 22.172 74.4221 23.2755C74.3202 23.3582 74.2274 23.4464 74.1391 23.5381C73.1182 22.7662 71.9773 22.1392 70.7425 21.691C70.7708 21.5665 70.7946 21.4408 70.8081 21.3107C70.9926 19.5654 69.7284 18.0012 67.9831 17.8167ZM66.8977 28.0847C70.1381 28.4277 72.4867 31.3319 72.1437 34.5735C71.8008 37.814 68.8965 40.1648 65.6572 39.8219C62.4167 39.4789 60.0682 36.5746 60.4111 33.333C60.754 30.0926 63.6583 27.7418 66.8977 28.0847Z" fill="#1A1B25"/>
<path d="M64.9099 50.3564C64.7899 50.3564 64.6688 50.3496 64.5477 50.3371C62.67 50.1379 61.3027 48.4481 61.5019 46.5693C61.5087 46.5059 61.5178 46.4414 61.5291 46.3734C60.4278 45.9524 59.3899 45.3887 58.4403 44.6938C58.3905 44.7402 58.3407 44.7832 58.2909 44.8228C57.579 45.3978 56.6871 45.6615 55.776 45.5664C54.866 45.4702 54.0477 45.0254 53.4727 44.3135C52.2854 42.8444 52.514 40.6826 53.982 39.4941C54.0307 39.4545 54.0827 39.4149 54.1393 39.3753C53.6583 38.3012 53.3233 37.1682 53.1433 36.0024C53.0743 36.0002 53.0098 35.9945 52.9464 35.9888C52.0364 35.8926 51.2181 35.4478 50.6431 34.7359C50.0681 34.024 49.8033 33.131 49.9006 32.221C49.9968 31.311 50.4416 30.4927 51.1524 29.9165C51.8643 29.3404 52.7562 29.0767 53.6674 29.1729C53.7296 29.1797 53.7953 29.1888 53.8632 29.2001C54.2842 28.0988 54.8479 27.0609 55.5428 26.1102C55.4964 26.0592 55.4534 26.0106 55.4138 25.9608C54.2265 24.4917 54.454 22.3298 55.9231 21.1414C56.635 20.5653 57.5281 20.3027 58.438 20.3978C59.348 20.494 60.1664 20.9388 60.7413 21.6507C60.7809 21.6994 60.8206 21.7526 60.8602 21.8081C61.9343 21.327 63.0661 20.992 64.2319 20.8109C64.2342 20.7419 64.2387 20.6774 64.2455 20.614C64.4447 18.7351 66.1357 17.3679 68.0123 17.5659C69.89 17.764 71.2572 19.455 71.058 21.3338C71.0512 21.3972 71.0422 21.4617 71.0309 21.5296C72.1321 21.9496 73.1689 22.5143 74.1196 23.2093C74.1694 23.1629 74.2192 23.1199 74.269 23.0803C74.981 22.5041 75.8717 22.2404 76.784 22.3366C77.694 22.4328 78.5123 22.8777 79.0873 23.5896C80.2746 25.0587 80.0459 27.2205 78.5779 28.4089C78.5293 28.4486 78.4772 28.4882 78.4206 28.5278C78.9016 29.603 79.2367 30.7349 79.4166 31.9007C79.4857 31.9029 79.5502 31.9086 79.6136 31.9142C80.5236 32.0104 81.3419 32.4553 81.9169 33.1672C82.4918 33.8791 82.7567 34.7721 82.6593 35.6821C82.5631 36.5921 82.1183 37.4104 81.4075 37.9865C80.6956 38.5615 79.8026 38.8252 78.8926 38.7302C78.8292 38.7234 78.7647 38.7143 78.6968 38.703C78.2769 39.8043 77.7132 40.8422 77.0171 41.7929C77.0635 41.8427 77.1066 41.8925 77.1462 41.9423C78.3346 43.4114 78.106 45.5732 76.6368 46.7617C75.9249 47.3378 75.0319 47.6015 74.1219 47.5053C73.2119 47.4091 72.3936 46.9643 71.8186 46.2523C71.779 46.2025 71.7394 46.1505 71.6998 46.095C70.6245 46.576 69.4927 46.9111 68.328 47.0922C68.3258 47.1612 68.3212 47.2257 68.3145 47.2891C68.1288 49.0468 66.6382 50.3564 64.9099 50.3564ZM58.4177 44.1188C58.4709 44.1188 58.5229 44.1358 58.5682 44.1698C59.5812 44.9371 60.7029 45.5461 61.9003 45.9818C62.018 46.0248 62.086 46.1493 62.0577 46.2716C62.0282 46.4006 62.0079 46.5149 61.9965 46.6224C61.8268 48.2285 62.9948 49.6727 64.5998 49.8425C66.2024 50.0146 67.6489 48.8442 67.8187 47.2382C67.83 47.1306 67.8346 47.0175 67.8323 46.8816C67.83 46.756 67.9228 46.6485 68.0473 46.6315C69.3082 46.4561 70.5317 46.095 71.6839 45.5563C71.7994 45.5031 71.9341 45.5438 72.0008 45.6502C72.071 45.7634 72.1378 45.8585 72.2057 45.9411C72.6981 46.5489 73.3964 46.9292 74.174 47.0118C74.9527 47.0944 75.7144 46.8681 76.3233 46.3768C77.5785 45.3616 77.7732 43.5133 76.7591 42.2581C76.6912 42.1743 76.6119 42.0894 76.5169 41.9966C76.4263 41.9095 76.4161 41.768 76.492 41.6673C77.2594 40.6531 77.8683 39.5315 78.3029 38.334C78.3459 38.2152 78.4727 38.1484 78.5927 38.1767C78.7228 38.2061 78.8371 38.2265 78.9447 38.2378C79.7222 38.3204 80.4851 38.0941 81.0929 37.6028C81.7007 37.1105 82.081 36.4122 82.1636 35.6335C82.2462 34.8559 82.0199 34.0919 81.5286 33.4841C81.0363 32.8763 80.3379 32.496 79.5604 32.4134C79.454 32.4021 79.3385 32.3975 79.205 32.3998C79.0703 32.4021 78.9718 32.3092 78.9548 32.1847C78.7794 30.9227 78.4184 29.6992 77.8796 28.547C77.8264 28.4327 77.866 28.2969 77.9735 28.2301C78.0879 28.1577 78.1807 28.0932 78.2644 28.0252C79.5196 27.01 79.7154 25.1617 78.7002 23.9065C78.2078 23.2987 77.5095 22.9184 76.7319 22.8358C75.9555 22.7532 75.1915 22.9795 74.5837 23.4707C74.4999 23.5386 74.4151 23.6179 74.3222 23.713C74.234 23.8035 74.0936 23.8137 73.9929 23.7379C72.9787 22.9705 71.8582 22.3604 70.6607 21.9258C70.543 21.8828 70.4751 21.7583 70.5034 21.636C70.534 21.5036 70.5532 21.3916 70.5645 21.284C70.7343 19.678 69.5663 18.2337 67.9613 18.064C66.3598 17.893 64.9122 19.0622 64.7424 20.6683C64.7311 20.7758 64.7265 20.889 64.7288 21.0248C64.7311 21.1505 64.6382 21.258 64.5137 21.275C63.2517 21.4504 62.0282 21.8115 60.8772 22.3502C60.7617 22.4034 60.627 22.3627 60.5602 22.2563C60.4889 22.142 60.4233 22.0492 60.3554 21.9654C59.8642 21.3576 59.1647 20.9773 58.3871 20.8947C57.6084 20.8109 56.8467 21.0384 56.2378 21.5296C54.9826 22.5449 54.7879 24.3932 55.802 25.6484C55.8699 25.7321 55.9469 25.8159 56.0442 25.9098C56.1348 25.997 56.1449 26.1385 56.0691 26.2392C55.3017 27.2533 54.6928 28.375 54.257 29.5725C54.214 29.6913 54.0873 29.7581 53.9673 29.7298C53.836 29.6992 53.7239 29.68 53.6164 29.6687C52.8411 29.586 52.076 29.8113 51.4682 30.3036C50.8604 30.796 50.4801 31.4955 50.3975 32.273C50.3149 33.0506 50.5412 33.8146 51.0324 34.4224C51.5248 35.0302 52.2231 35.4105 53.0007 35.4931C53.1082 35.5044 53.2225 35.509 53.3561 35.5067H53.3595C53.484 35.5067 53.5893 35.5984 53.6062 35.7217C53.7817 36.9837 54.1427 38.2072 54.6815 39.3595C54.7347 39.4738 54.6951 39.6096 54.5875 39.6764C54.4744 39.7477 54.3793 39.8145 54.2967 39.8812C53.0415 40.8965 52.8456 42.7448 53.8609 44C54.3521 44.6078 55.0516 44.9881 55.8292 45.0707C56.6067 45.1545 57.3696 44.927 57.9774 44.4357C58.0611 44.3678 58.146 44.2886 58.2388 44.1935C58.2875 44.1437 58.352 44.1177 58.4177 44.1177V44.1188ZM66.2839 40.1042C66.0689 40.1042 65.8516 40.0929 65.6331 40.0702C63.9999 39.8971 62.5319 39.0991 61.4997 37.8213C60.4674 36.5446 59.9932 34.9408 60.1664 33.3075C60.3384 31.6743 61.1375 30.2052 62.4142 29.1718C63.6909 28.1384 65.2924 27.6653 66.9268 27.8374C70.2986 28.1939 72.7512 31.2272 72.3947 34.6001C72.0608 37.7534 69.3874 40.1042 66.2851 40.1042H66.2839ZM66.2692 28.3014C64.9812 28.3014 63.7418 28.7383 62.7266 29.56C61.5529 30.5096 60.8194 31.8588 60.661 33.3607C60.5025 34.8627 60.9371 36.3352 61.8868 37.5089C62.8364 38.6826 64.1855 39.416 65.6863 39.5745C68.7796 39.9027 71.5707 37.647 71.899 34.548C72.2261 31.4491 69.9726 28.6602 66.8736 28.3331C66.671 28.3116 66.4696 28.3014 66.2692 28.3014Z" fill="white"/>
<path d="M96.2665 141.165C93.2728 141.165 91.3283 138.735 91.9236 135.737L117.748 5.67633C118.343 2.6781 121.252 0.248047 124.245 0.248047H305.758C308.752 0.248047 310.696 2.6781 310.101 5.67633L284.423 135.007C283.747 138.408 280.448 141.165 277.051 141.165H96.2665Z" fill="#1A1B25"/>
<path d="M277.05 141.415H96.2662C94.7632 141.415 93.4581 140.832 92.5889 139.774C91.6947 138.685 91.3722 137.235 91.68 135.689L117.503 5.62862C118.119 2.52513 121.144 0 124.245 0H305.758C307.261 0 308.566 0.582896 309.435 1.64116C310.329 2.72999 310.652 4.17987 310.344 5.72596L284.666 135.056C283.97 138.563 280.554 141.415 277.05 141.415ZM124.245 0.498008C121.369 0.498008 118.563 2.84317 117.992 5.72596L92.169 135.786C91.8917 137.183 92.178 138.487 92.9749 139.458C93.7468 140.399 94.9159 140.917 96.2674 140.917H277.051C280.329 140.917 283.526 138.245 284.178 134.96L309.856 5.62862C310.133 4.23194 309.847 2.92806 309.05 1.95695C308.278 1.01639 307.109 0.498008 305.758 0.498008H124.245Z" fill="white"/>
<path d="M268.61 159.355H47.7763C39.669 159.355 34.4026 152.783 36.012 144.676H286.203C284.594 152.783 276.717 159.355 268.61 159.355Z" fill="#1A1B25"/>
<path d="M268.611 159.603H47.7775C43.8342 159.603 40.4115 158.079 38.1411 155.313C35.8072 152.471 34.9652 148.676 35.7699 144.626C35.7925 144.51 35.8955 144.426 36.0144 144.426H286.206C286.28 144.426 286.351 144.46 286.398 144.516C286.446 144.574 286.465 144.65 286.45 144.722C284.821 152.927 276.819 159.601 268.612 159.601L268.611 159.603ZM36.2181 144.924C35.5107 148.748 36.3256 152.318 38.5248 154.997C40.7002 157.646 43.9848 159.105 47.7764 159.105H268.61C276.492 159.105 284.18 152.771 285.897 144.924H36.2181Z" fill="white"/>
<path d="M146.812 28.1641H137.859C134.677 28.1641 131.576 30.7673 130.966 33.9489L129.25 42.9028C128.64 46.0844 130.745 48.6877 133.927 48.6877H142.88C146.062 48.6877 149.163 46.0844 149.773 42.9028L151.489 33.9489C152.099 30.7673 149.994 28.1641 146.812 28.1641Z" fill="#C2D24B"/>
<path d="M141.486 55.9648H132.532C129.35 55.9648 126.249 58.5681 125.639 61.7497L123.923 70.7036C123.314 73.8852 125.418 76.4884 128.6 76.4884H137.554C140.736 76.4884 143.837 73.8852 144.447 70.7036L146.163 61.7497C146.773 58.5681 144.668 55.9648 141.486 55.9648Z" fill="#C2D24B"/>
<path d="M136.06 84.3027H127.106C123.924 84.3027 120.823 86.906 120.213 90.0875L118.497 99.0415C117.887 102.223 119.992 104.826 123.174 104.826H132.128C135.309 104.826 138.41 102.223 139.02 99.0415L140.736 90.0875C141.346 86.906 139.241 84.3027 136.06 84.3027Z" fill="#C2D24B"/>
<path d="M130.789 111.803H121.835C118.653 111.803 115.552 114.406 114.942 117.588L113.226 126.542C112.616 129.723 114.721 132.326 117.903 132.326H126.857C130.039 132.326 133.14 129.723 133.75 126.542L135.466 117.588C136.076 114.406 133.971 111.803 130.789 111.803Z" fill="#C2D24B"/>
<path d="M280.894 30.6035L279.744 36.6068H159.611L160.761 30.6035H280.894Z" fill="white"/>
<path d="M243.892 40.2441L242.741 46.2474H157.763L158.914 40.2441H243.892Z" fill="white"/>
<path d="M275.567 58.4043L274.417 64.4076H154.285L155.435 58.4043H275.567Z" fill="white"/>
<path d="M238.565 68.0449L237.415 74.0493H152.437L153.586 68.0449H238.565Z" fill="white"/>
<path d="M270.138 86.7402L268.988 92.7446H148.854L150.006 86.7402H270.138Z" fill="white"/>
<path d="M208.225 96.3828L207.075 102.386H147.01L148.16 96.3828H208.225Z" fill="white"/>
<path d="M264.87 114.242L263.72 120.245H143.588L144.738 114.242H264.87Z" fill="white"/>
<path d="M227.87 123.883L226.72 129.886H141.742L142.892 123.883H227.87Z" fill="white"/>
<path d="M256.768 22.7913H170.424C168.724 22.7913 167.692 21.4128 168.119 19.7127L169.23 15.2895C169.657 13.5895 171.382 12.2109 173.082 12.2109H259.425C261.125 12.2109 262.157 13.5895 261.731 15.2895L260.619 19.7127C260.192 21.4128 258.468 22.7913 256.768 22.7913Z" fill="#C2D24B"/>
<path d="M300.64 147.368C298.386 147.368 296.553 145.534 296.553 143.28C296.553 141.025 298.386 139.191 300.64 139.191C302.893 139.191 304.728 141.025 304.728 143.28C304.728 145.534 302.894 147.368 300.64 147.368ZM300.64 139.691C298.66 139.691 297.051 141.301 297.051 143.28C297.051 145.258 298.661 146.869 300.64 146.869C302.618 146.869 304.23 145.258 304.23 143.28C304.23 141.301 302.619 139.691 300.64 139.691Z" fill="white"/>
<path d="M300.64 158.571C298.386 158.571 296.553 156.737 296.553 154.483C296.553 152.228 298.386 150.395 300.64 150.395C302.893 150.395 304.728 152.228 304.728 154.483C304.728 156.737 302.894 158.571 300.64 158.571ZM300.64 150.894C298.66 150.894 297.051 152.504 297.051 154.483C297.051 156.461 298.661 158.072 300.64 158.072C302.618 158.072 304.23 156.461 304.23 154.483C304.23 152.504 302.619 150.894 300.64 150.894Z" fill="white"/>
<path d="M302.112 169.232C304.071 168.421 305.001 166.176 304.189 164.218C303.378 162.259 301.133 161.329 299.175 162.141C297.216 162.952 296.286 165.197 297.098 167.155C297.909 169.114 300.154 170.044 302.112 169.232Z" fill="#C2D24B"/>
<path d="M300.641 135.532C300.503 135.532 300.392 135.42 300.392 135.283V106.519C300.392 106.38 300.503 106.27 300.641 106.27C300.779 106.27 300.89 106.382 300.89 106.519V135.283C300.89 135.421 300.779 135.532 300.641 135.532Z" fill="white"/>
<path d="M301.085 207.11H68.4678C68.3297 207.11 68.2188 206.998 68.2188 206.861C68.2188 206.724 68.3297 206.612 68.4678 206.612H300.836V172.163C300.836 172.025 300.947 171.914 301.085 171.914C301.223 171.914 301.334 172.026 301.334 172.163V206.861C301.334 206.999 301.223 207.11 301.085 207.11Z" fill="white"/>
<path d="M80.8943 80.584C80.8943 80.584 83.0697 98.9446 75.8757 99.1721C70.3218 99.3476 64.4249 95.5072 64.3287 95.0783C64.2325 94.6504 63.8545 83.3094 63.8545 83.3094L80.8932 80.584H80.8943Z" fill="#1A1B25"/>
<path d="M75.5053 99.4269C70.008 99.4269 64.2322 95.7733 64.0885 95.1327C63.99 94.6935 63.647 84.481 63.6086 83.3174C63.604 83.1918 63.6946 83.0831 63.818 83.0628L80.8566 80.3373C80.9234 80.326 80.9913 80.3441 81.0456 80.3848C81.1 80.4256 81.135 80.4867 81.143 80.5546C81.2052 81.0843 82.637 93.5798 78.8861 97.9374C78.0712 98.8847 77.0616 99.3838 75.8856 99.4201C75.7588 99.4246 75.6309 99.4257 75.5042 99.4257L75.5053 99.4269ZM64.5706 94.9991C65.012 95.5831 70.4335 98.9288 75.5143 98.9288C75.6332 98.9288 75.7509 98.9266 75.8697 98.9232C76.8997 98.8904 77.7882 98.4501 78.5081 97.6125C81.83 93.753 80.8623 82.704 80.6755 80.8715L64.1122 83.52C64.2605 87.9455 64.4959 94.414 64.5695 94.998L64.5706 94.9991Z" fill="white"/>
<path d="M74.4857 94.5815L70.3669 107.556L56.666 104.483L64.0603 85.4238L74.4857 94.5815Z" fill="#1A1B25"/>
<path d="M70.3656 107.804C70.3475 107.804 70.3294 107.802 70.3113 107.799L56.6104 104.726C56.5391 104.71 56.4791 104.664 56.4452 104.6C56.4112 104.536 56.4067 104.461 56.4327 104.393L63.827 85.3352C63.8768 85.2073 64.0217 85.1428 64.1496 85.1926C64.2775 85.2424 64.342 85.3862 64.2922 85.5152L57.0032 104.304L70.1981 107.263L74.2478 94.5065C74.2897 94.3752 74.4289 94.3028 74.5602 94.3446C74.6915 94.3865 74.764 94.5269 74.7221 94.657L70.6033 107.631C70.5705 107.737 70.472 107.804 70.3656 107.804Z" fill="white"/>
<path d="M74.2676 85.7678C74.2676 85.7678 76.546 84.8839 75.4968 88.7774L74.2676 85.7678Z" fill="#1A1B25"/>
<path d="M75.4969 89.0261C75.4754 89.0261 75.4539 89.0238 75.4312 89.017C75.2988 88.9808 75.2196 88.845 75.2558 88.7114C75.747 86.8892 75.4516 86.2859 75.2309 86.0878C74.9072 85.7981 74.3628 85.9973 74.3571 85.9995C74.2292 86.0493 74.0844 85.986 74.0346 85.8569C73.9848 85.729 74.0481 85.5842 74.1772 85.5344C74.21 85.5208 75.0102 85.2197 75.5637 85.7166C76.1058 86.2044 76.1635 87.2547 75.7368 88.8405C75.7074 88.9514 75.6067 89.0249 75.4969 89.0249V89.0261Z" fill="white"/>
<path d="M70.95 169.457L33.1704 175.427C28.8377 176.112 25.3618 172.658 25.8282 168.297C27.3743 153.805 31.6764 128.342 41.6014 112.119C51.2684 96.3188 81.7318 100.863 91.4758 115.668C95.7338 122.136 102.425 131.834 107.853 139.633C112.385 146.144 109.68 155.178 102.315 158.129C97.3534 160.118 91.675 158.686 88.2501 154.582L87.1545 153.269L89.6105 161.98L70.9522 169.458L70.95 169.457Z" fill="#C2D24B"/>
<path d="M87.1517 153.517C87.0679 153.517 86.9853 153.474 86.9389 153.397L71.9092 128.661C71.8379 128.543 71.8753 128.391 71.993 128.319C72.1107 128.248 72.2635 128.285 72.3348 128.403L87.3644 153.139C87.4357 153.257 87.3984 153.41 87.2807 153.481C87.2399 153.506 87.1958 153.517 87.1517 153.517Z" fill="white"/>
<path d="M32.8076 175.115L36.1533 184.121C43.5782 204.142 67.1079 212.834 85.7708 202.448L132.906 174.485C139.465 170.594 141.834 162.255 138.302 155.498C134.882 148.957 127.057 146.076 120.211 148.838L71.178 168.619L32.8076 175.115Z" fill="#1A1B25"/>
<path d="M68.8308 207.1C64.7257 207.1 60.6069 206.379 56.6625 204.922C47.0464 201.369 39.4869 193.819 35.9227 184.209L32.577 175.203C32.5295 175.074 32.5951 174.93 32.7241 174.883C32.8532 174.835 32.9969 174.901 33.0444 175.03L36.3902 184.036C39.9034 193.509 47.3554 200.952 56.8356 204.454C66.3159 207.957 76.8205 207.148 85.6533 202.232L132.783 174.273C139.228 170.449 141.556 162.254 138.085 155.614C134.708 149.157 127.066 146.343 120.308 149.07L79.0355 165.721C78.9087 165.773 78.7627 165.71 78.7118 165.582C78.6608 165.455 78.722 165.31 78.8499 165.259L120.122 148.608C127.118 145.785 135.031 148.699 138.527 155.383C142.122 162.258 139.71 170.742 133.038 174.702L85.9023 202.665C80.6144 205.608 74.7368 207.1 68.8331 207.1H68.8308Z" fill="white"/>
<path d="M88.8262 201.435C85.8789 193.263 101.115 190.462 109.179 182.589C117.987 173.989 128.42 176.664 131.455 184.079C134.306 191.046 128.247 198.386 118.661 202.318C108.488 206.491 92.0825 210.464 88.8262 201.435Z" fill="#1A1B25"/>
<path d="M99.2333 207.125C96.8203 207.125 94.6381 206.788 92.869 206.004C90.7683 205.071 89.3298 203.562 88.5929 201.518C86.6609 196.161 92.139 193.091 98.4818 189.534C102.206 187.447 106.055 185.289 109.006 182.408C113.391 178.127 118.662 176.242 123.463 177.237C127.256 178.024 130.254 180.482 131.686 183.983C134.422 190.667 129.105 198.302 118.758 202.546C112.717 205.024 105.257 207.124 99.2333 207.124V207.125ZM120.9 177.476C116.969 177.476 112.875 179.327 109.353 182.766C106.356 185.693 102.302 187.964 98.7251 189.97C92.5793 193.415 87.2721 196.39 89.0604 201.35C89.7497 203.261 91.0988 204.674 93.0705 205.549C99.1122 208.23 110.202 205.518 118.567 202.086C128.644 197.953 133.848 190.586 131.225 184.173C129.856 180.828 126.991 178.479 123.361 177.726C122.553 177.558 121.73 177.476 120.9 177.476Z" fill="white"/>
<path d="M116.342 200.447C116.261 200.447 116.181 200.407 116.133 200.333L107.693 187.388C107.618 187.272 107.65 187.118 107.765 187.042C107.879 186.968 108.035 186.999 108.11 187.115L116.55 200.061C116.625 200.176 116.593 200.33 116.478 200.406C116.436 200.433 116.389 200.447 116.342 200.447Z" fill="white"/>
<path d="M121.666 197.786C121.585 197.786 121.505 197.746 121.458 197.674L112.498 184.092C112.422 183.977 112.454 183.822 112.57 183.746C112.685 183.671 112.839 183.702 112.915 183.817L121.874 197.399C121.95 197.513 121.919 197.668 121.803 197.744C121.761 197.772 121.714 197.785 121.666 197.785V197.786Z" fill="white"/>
<path d="M110.563 202.353C110.482 202.353 110.403 202.314 110.354 202.242L102.479 190.365C102.403 190.251 102.434 190.096 102.549 190.02C102.664 189.944 102.819 189.976 102.894 190.09L110.77 201.967C110.846 202.082 110.815 202.237 110.7 202.313C110.658 202.341 110.609 202.355 110.563 202.355V202.353Z" fill="white"/>
<path d="M104.638 204.339C104.557 204.339 104.478 204.299 104.43 204.227L97.1389 193.174C97.063 193.059 97.0947 192.904 97.2102 192.828C97.3256 192.752 97.4796 192.784 97.5554 192.9L104.847 203.953C104.923 204.067 104.891 204.223 104.775 204.298C104.734 204.327 104.685 204.339 104.638 204.339Z" fill="white"/>
<path d="M79.5922 159.286C80.7591 158.813 82.063 159.179 82.8847 160.098C82.5848 158.685 83.2876 157.239 84.6198 156.7C85.9373 156.167 87.4302 156.697 88.2055 157.891C88.1466 156.65 88.9185 155.423 90.004 154.995C92.1703 154.117 93.4968 156.096 94.0107 157.363C93.8805 156.065 94.5743 154.801 95.8001 154.305C97.3032 153.696 99.0349 154.473 99.6687 156.038L100.913 159.108C101.546 160.673 100.842 162.435 99.3405 163.044C98.1917 163.509 96.9093 163.163 96.0853 162.276C96.4566 163.728 95.7548 165.246 94.3819 165.801C93.0644 166.334 91.5715 165.805 90.7962 164.611C90.8551 165.851 90.1715 167.032 88.9978 167.507C87.7154 168.026 86.2689 167.535 85.4777 166.409C85.5705 167.678 84.8824 168.899 83.6826 169.385C82.1796 169.994 80.4479 169.217 79.814 167.652L78.0201 163.223C77.3862 161.658 78.0902 159.895 79.5922 159.286Z" fill="#1A1B25"/>
<path d="M82.6262 169.839C81.3449 169.839 80.1124 169.044 79.586 167.744L77.7921 163.315C77.4616 162.498 77.4559 161.606 77.7762 160.803C78.0988 159.996 78.7111 159.376 79.5012 159.055C80.5175 158.643 81.6811 158.818 82.5696 159.473C82.5582 158.162 83.3132 156.961 84.5288 156.469C85.7263 155.985 87.0946 156.308 87.999 157.233C88.1812 156.138 88.918 155.156 89.9152 154.762C91.6571 154.057 92.996 155.032 93.811 156.394C94.0158 155.354 94.7085 154.478 95.7091 154.073C97.3366 153.413 99.2177 154.253 99.9025 155.943L101.146 159.012C101.477 159.829 101.483 160.721 101.162 161.525C100.84 162.332 100.227 162.952 99.4373 163.272C98.4322 163.68 97.314 163.529 96.4323 162.905C96.4889 164.253 95.7272 165.525 94.4787 166.03C93.2835 166.514 91.9174 166.19 91.0119 165.27C90.8399 166.373 90.1234 167.319 89.0935 167.735C87.9288 168.207 86.6181 167.923 85.7115 167.056C85.5689 168.198 84.8446 169.181 83.7784 169.613C83.4015 169.766 83.011 169.838 82.625 169.838L82.6262 169.839ZM80.6488 159.331C80.324 159.331 79.998 159.393 79.6879 159.517C79.0247 159.785 78.5097 160.308 78.238 160.987C77.9653 161.671 77.9698 162.431 78.2527 163.129L80.0467 167.558C80.6285 168.993 82.2187 169.709 83.5916 169.152C84.6601 168.72 85.3188 167.624 85.2316 166.426C85.2237 166.314 85.2905 166.211 85.3958 166.173C85.501 166.136 85.6187 166.173 85.6832 166.265C86.4291 167.327 87.7545 167.742 88.9056 167.276C89.9435 166.856 90.6045 165.789 90.549 164.623C90.5434 164.511 90.6147 164.409 90.7211 164.374C90.8274 164.34 90.9452 164.381 91.0063 164.476C91.7295 165.587 93.1092 166.048 94.2897 165.571C95.5212 165.072 96.1901 163.682 95.8449 162.338C95.8166 162.227 95.8664 162.111 95.9671 162.057C96.0667 162.003 96.1923 162.023 96.2693 162.107C97.0537 162.951 98.2229 163.229 99.2483 162.814C99.9116 162.546 100.427 162.023 100.698 161.343C100.971 160.659 100.966 159.898 100.683 159.201L99.4396 156.132C98.8578 154.697 97.2676 153.98 95.8947 154.537C94.7934 154.983 94.1369 156.109 94.2603 157.34C94.2728 157.464 94.1924 157.577 94.0724 157.606C93.9513 157.637 93.8279 157.573 93.7815 157.458C93.4771 156.708 92.3124 154.331 90.0985 155.226C89.1082 155.618 88.4019 156.758 88.4551 157.879C88.4608 157.991 88.3895 158.093 88.2831 158.128C88.1767 158.162 88.059 158.121 87.9978 158.026C87.2746 156.914 85.8938 156.454 84.7144 156.931C83.5158 157.416 82.8503 158.726 83.1298 160.047C83.1536 160.158 83.0993 160.27 82.9985 160.321C82.8978 160.372 82.7756 160.349 82.7009 160.264C82.1598 159.66 81.4049 159.331 80.6477 159.331H80.6488Z" fill="white"/>
<path d="M85.4807 166.658C85.3811 166.658 85.286 166.596 85.2487 166.498L83.217 161.219C83.1672 161.091 83.2318 160.946 83.3596 160.898C83.4887 160.848 83.6324 160.912 83.6822 161.04L85.7139 166.319C85.7637 166.447 85.6992 166.592 85.5713 166.641C85.5418 166.652 85.5113 166.658 85.4818 166.658H85.4807Z" fill="white"/>
<path d="M90.803 164.882C90.7034 164.882 90.6083 164.821 90.5709 164.722L88.5393 159.443C88.4895 159.315 88.554 159.171 88.6819 159.122C88.8098 159.073 88.9547 159.137 89.0045 159.264L91.0361 164.543C91.0859 164.671 91.0214 164.816 90.8935 164.865C90.8641 164.876 90.8335 164.882 90.8041 164.882H90.803Z" fill="white"/>
<path d="M96.0637 162.504C95.9664 162.504 95.8736 162.446 95.834 162.35L93.739 157.308C93.6858 157.181 93.7469 157.035 93.8736 156.982C94.0004 156.93 94.1464 156.99 94.1996 157.116L96.2946 162.159C96.3478 162.285 96.2867 162.431 96.1599 162.485C96.1294 162.497 96.0966 162.504 96.0649 162.504H96.0637Z" fill="white"/>
<path d="M78.457 71.8174C82.4818 72.1309 86.6232 79.5886 76.1797 85.0044C76.1797 85.0044 74.688 83.1992 72.8816 84.9264C71.0751 86.6535 73.5878 90.3422 73.5878 90.3422C73.5878 90.3422 48.2053 124.055 58.9826 131.473C65.124 135.699 37.3079 138.048 29.831 124.761C21.881 110.633 27.5515 99.3109 33.3058 94.5017C44.0831 85.4945 49.7955 85.9065 57.7455 76.7228C61.6571 72.2034 71.349 65.7734 78.4558 71.8174H78.457Z" fill="white"/>
<path d="M282.908 186.279H186.21C186.072 186.279 185.961 186.167 185.961 186.03C185.961 185.893 186.072 185.781 186.21 185.781H282.908C283.046 185.781 283.157 185.893 283.157 186.03C283.157 186.167 283.046 186.279 282.908 186.279Z" fill="white"/>
<path d="M253.126 192.375H236.775C236.637 192.375 236.526 192.263 236.526 192.126C236.526 191.989 236.637 191.877 236.775 191.877H253.126C253.264 191.877 253.375 191.989 253.375 192.126C253.375 192.263 253.264 192.375 253.126 192.375Z" fill="white"/>
<path d="M225.735 192.375H176.586C176.448 192.375 176.337 192.263 176.337 192.126C176.337 191.989 176.448 191.877 176.586 191.877H225.735C225.873 191.877 225.984 191.989 225.984 192.126C225.984 192.263 225.873 192.375 225.735 192.375Z" fill="white"/>
<path d="M213.074 198.338H141.741C141.603 198.338 141.492 198.226 141.492 198.089C141.492 197.952 141.603 197.84 141.741 197.84H213.074C213.212 197.84 213.323 197.952 213.323 198.089C213.323 198.226 213.212 198.338 213.074 198.338Z" fill="white"/>
</g>
<defs>
<clipPath id="clip0_344_18780">
<rect width="310.457" height="207.126" fill="white"/>
</clipPath>
</defs>
</svg>
