<svg width="24" height="29" viewBox="0 0 24 29" fill="none" xmlns="http://www.w3.org/2000/svg">
<path d="M9.43467 12.668C10.2347 12.668 10.8827 13.268 10.868 14.0013C10.868 14.7346 10.236 15.3346 9.43467 15.3346C8.648 15.3346 8 14.7346 8 14.0013C8 13.268 8.63333 12.668 9.43467 12.668ZM14.5653 12.668C15.3667 12.668 16 13.268 16 14.0013C16 14.7346 15.3667 15.3346 14.5653 15.3346C13.7787 15.3346 13.132 14.7346 13.132 14.0013C13.132 13.268 13.764 12.668 14.5653 12.668ZM21.188 0.667969C22.7387 0.667969 24 1.95597 24 3.55197V28.668L21.052 26.008L19.392 24.44L17.636 22.7733L18.364 25.364H2.812C1.26133 25.364 0 24.076 0 22.48V3.55197C0 1.95597 1.26133 0.667969 2.812 0.667969H21.1867H21.188ZM15.8947 18.952C18.9253 18.8546 20.092 16.824 20.092 16.824C20.092 12.316 18.116 8.6613 18.116 8.6613C16.1427 7.15063 14.2627 7.19197 14.2627 7.19197L14.0707 7.41597C16.4027 8.14397 17.4853 9.19464 17.4853 9.19464C16.2121 8.47729 14.8089 8.02042 13.3573 7.85064C12.4366 7.74664 11.5066 7.7556 10.588 7.8773C10.5053 7.8773 10.436 7.89197 10.3547 7.9053C9.87467 7.94797 8.708 8.1293 7.24133 8.78797C6.73467 9.0253 6.432 9.19464 6.432 9.19464C6.432 9.19464 7.57067 8.08797 10.0387 7.35997L9.90133 7.19197C9.90133 7.19197 8.02267 7.15063 6.048 8.66263C6.048 8.66263 4.07333 12.316 4.07333 16.824C4.07333 16.824 5.22533 18.8533 8.256 18.952C8.256 18.952 8.76267 18.3226 9.176 17.7906C7.43333 17.2573 6.776 16.1373 6.776 16.1373C6.776 16.1373 6.912 16.236 7.15867 16.376C7.172 16.3893 7.18533 16.404 7.21333 16.4173C7.25467 16.4466 7.296 16.46 7.33733 16.488C7.68 16.684 8.02267 16.8373 8.33733 16.964C8.9 17.188 9.572 17.412 10.3547 17.5666C11.5271 17.7964 12.7325 17.801 13.9067 17.58C14.5906 17.4579 15.2578 17.2561 15.8947 16.9786C16.3747 16.796 16.9093 16.5293 17.472 16.152C17.472 16.152 16.7867 17.3 14.9893 17.8186C15.4013 18.3506 15.896 18.952 15.896 18.952H15.8947Z" fill="#C2D24B"/>
</svg>
