<svg width="24" height="24" viewBox="0 0 24 24" fill="none" xmlns="http://www.w3.org/2000/svg">
<path fill-rule="evenodd" clip-rule="evenodd" d="M1.772 0H22.2213C23.2 0 24 0.773333 24 1.72933V22.2707C24 23.2267 23.2 24 22.2213 24H1.77067C0.792 24 0 23.2267 0 22.2707V1.72933C0 0.773333 0.790667 0 1.772 0ZM3.87672 6.82847C4.26383 7.21583 4.78916 7.43322 5.33677 7.43269L5.33611 7.43269H5.33744L5.33677 7.43269C6.47638 7.43306 7.4007 6.50971 7.40144 5.37002C7.40218 4.23011 6.47869 3.30542 5.33877 3.30469C4.19886 3.30395 3.27418 4.22744 3.27344 5.36735C3.27238 5.91521 3.48945 6.44095 3.87672 6.82847ZM16.8942 20.4523H20.4476H20.4489V14.1656C20.4489 11.0816 19.7822 8.71094 16.1822 8.71094C14.4489 8.71094 13.2889 9.6616 12.8116 10.5603H12.7649V9.00027H9.35156V20.4523H12.9062V14.7856C12.9062 13.2909 13.1889 11.8456 15.0409 11.8456C16.8676 11.8456 16.8942 13.5549 16.8942 14.8829V20.4523ZM3.55469 20.452V9H7.12002V20.452H7.11869H3.55469Z" fill="#4776E6"/>
</svg>
