<svg width="28" height="28" viewBox="0 0 28 28" fill="none" xmlns="http://www.w3.org/2000/svg">
<path fill-rule="evenodd" clip-rule="evenodd" d="M0.664062 14.0013C0.664062 21.3653 6.6334 27.3346 13.9974 27.3346C21.3614 27.3346 27.3307 21.3653 27.3307 14.0013C27.3307 6.6373 21.3614 0.667969 13.9974 0.667969C6.6334 0.667969 0.664062 6.6373 0.664062 14.0013ZM9.87007 15.5513L9.85273 15.5607V15.562L6.5234 14.522C5.8034 14.302 5.79807 13.806 6.6834 13.4513L19.6607 8.43801C20.4141 8.12868 20.8407 8.51801 20.5967 9.48868L18.3874 19.918C18.2327 20.6593 17.7861 20.8367 17.1647 20.494L13.7647 17.9767L12.1807 19.5073C12.1748 19.513 12.1689 19.5187 12.163 19.5243C12.007 19.6743 11.8757 19.8006 11.6341 19.8327C11.3847 19.8673 11.1794 19.7927 11.0301 19.378L9.87007 15.5513Z" fill="#C2D24B"/>
</svg>
