<svg width="28" height="24" viewBox="0 0 28 24" fill="none" xmlns="http://www.w3.org/2000/svg">
<path d="M27.5523 3.54142C26.5344 3.99168 25.4549 4.28739 24.3497 4.41876C25.5147 3.722 26.3866 2.62544 26.803 1.33342C25.7097 1.98409 24.511 2.44009 23.2617 2.68676C21.5361 0.840516 18.7847 0.385542 16.5567 1.57803C14.3287 2.77051 13.1812 5.31228 13.7603 7.77209C9.27636 7.54735 5.09866 5.42942 2.267 1.94542C1.77139 2.79669 1.51094 3.76439 1.51233 4.74942C1.51233 6.68276 2.49633 8.39076 3.99233 9.39076C3.10701 9.36288 2.24118 9.1238 1.467 8.69342V8.76276C1.46755 11.4175 3.33835 13.7043 5.94033 14.2308C5.11849 14.4535 4.25674 14.4863 3.42033 14.3268C4.14984 16.599 6.2436 18.1558 8.62967 18.2001C6.29359 20.0348 3.32399 20.8656 0.375 20.5094C2.92393 22.1487 5.89113 23.0189 8.92167 23.0161C19.179 23.0161 24.7883 14.5188 24.7883 7.14942C24.7883 6.90942 24.7817 6.66676 24.771 6.42942C25.8628 5.64031 26.8051 4.66278 27.5537 3.54276L27.5523 3.54142Z" fill="#C2D24B"/>
</svg>
