<svg width="26" height="26" viewBox="0 0 26 26" fill="none" xmlns="http://www.w3.org/2000/svg">
<path d="M23.8796 6.12C20.0396 0.2 12.1996 -1.56 6.11965 2.12C0.199647 5.8 -1.72035 13.8 2.11965 19.72L2.43965 20.2L1.15965 25L5.95965 23.72L6.43965 24.04C8.51965 25.16 10.7596 25.8 12.9996 25.8C15.3996 25.8 17.7996 25.16 19.8796 23.88C25.7996 20.04 27.5596 12.2 23.8796 6.12ZM20.5196 18.44C19.8796 19.4 19.0796 20.04 17.9596 20.2C17.3196 20.2 16.5196 20.52 13.3196 19.24C10.5996 17.96 8.35965 15.88 6.75965 13.48C5.79965 12.36 5.31965 10.92 5.15965 9.48C5.15965 8.2 5.63965 7.08 6.43965 6.28C6.75965 5.96 7.07965 5.8 7.39965 5.8H8.19965C8.51965 5.8 8.83965 5.8 8.99965 6.44C9.31965 7.24 10.1196 9.16 10.1196 9.32C10.2796 9.48 10.2796 9.8 10.1196 9.96C10.2796 10.28 10.1196 10.6 9.95965 10.76C9.79965 10.92 9.63965 11.24 9.47965 11.4C9.15965 11.56 8.99965 11.88 9.15965 12.2C9.79965 13.16 10.5996 14.12 11.3996 14.92C12.3596 15.72 13.3196 16.36 14.4396 16.84C14.7596 17 15.0796 17 15.2396 16.68C15.3996 16.36 16.1996 15.56 16.5196 15.24C16.8396 14.92 16.9996 14.92 17.3196 15.08L19.8796 16.36C20.1996 16.52 20.5196 16.68 20.6796 16.84C20.8396 17.32 20.8396 17.96 20.5196 18.44Z" fill="#4776E6"/>
</svg>
