<svg width="244" height="34" viewBox="0 0 244 34" fill="none" xmlns="http://www.w3.org/2000/svg">
<g clip-path="url(#clip0_1212_49)">
<path fill-rule="evenodd" clip-rule="evenodd" d="M32.4566 1.43258H1.42771V32.5674H32.4566V1.43258ZM0 0V34H33.8844V0H0Z" fill="#4776E6"/>
<path fill-rule="evenodd" clip-rule="evenodd" d="M27.5071 6.3984H6.37693V27.6007H27.5071V6.3984ZM4.94922 4.96582V29.0332H28.9347V4.96582H4.94922Z" fill="#4776E6"/>
<path fill-rule="evenodd" clip-rule="evenodd" d="M6.78083 28.2943L1.59157 33.5013L0.582031 32.4882L5.77128 27.2812L6.78083 28.2943Z" fill="#4776E6"/>
<path fill-rule="evenodd" clip-rule="evenodd" d="M32.9347 1.81508L27.9819 6.78138L26.9727 5.76805L31.9254 0.801758L32.9347 1.81508Z" fill="#4776E6"/>
<path fill-rule="evenodd" clip-rule="evenodd" d="M23.8889 6.30302L6.18533 24.0671L5.17578 23.0541L22.8794 5.29004L23.8889 6.30302Z" fill="#4776E6"/>
<path fill-rule="evenodd" clip-rule="evenodd" d="M28.9357 12.0335L12.279 28.747L11.2695 27.7341L27.9262 11.0205L28.9357 12.0335Z" fill="#4776E6"/>
<path fill-rule="evenodd" clip-rule="evenodd" d="M28.4587 27.4102L33.8874 32.8572L32.8778 33.8703L27.4492 28.4231L28.4587 27.4102Z" fill="#4776E6"/>
<path fill-rule="evenodd" clip-rule="evenodd" d="M1.61892 0.381836L7.04756 5.829L6.03802 6.842L0.609375 1.39482L1.61892 0.381836Z" fill="#4776E6"/>
<path fill-rule="evenodd" clip-rule="evenodd" d="M16.1815 13.4658H6.1875V12.0332H16.1815V13.4658Z" fill="#4776E6"/>
<path fill-rule="evenodd" clip-rule="evenodd" d="M27.9815 22.3487H18.5586V20.916H27.9815V22.3487Z" fill="#4776E6"/>
</g>
<path d="M43.2852 30.4989V4.10064L45.1507 3.2207H56.3083V3.39669L54.8828 6.42369H46.805V14.9064H56.3083V15.0824L54.8828 18.1094H46.805V28.915L43.4612 30.4989H43.2852Z" fill="#33353A"/>
<path d="M65.436 26.6274H69.4837C70.657 26.6274 71.2435 25.9234 71.2435 24.5155V15.7161C71.2435 14.3082 70.657 13.6043 69.4837 13.6043H65.436C64.2627 13.6043 63.676 14.3082 63.676 15.7161V24.5155C63.676 25.9234 64.2627 26.6274 65.436 26.6274ZM65.436 29.7952C61.9162 29.7952 60.1562 28.0353 60.1562 24.5155V15.7161C60.1562 12.1963 61.9162 10.4365 65.436 10.4365H69.4837C73.0035 10.4365 74.7634 12.1963 74.7634 15.7161V24.5155C74.7634 28.0353 73.0035 29.7952 69.4837 29.7952H65.436Z" fill="#33353A"/>
<path d="M84.2405 29.7951C80.7207 29.7951 78.9609 28.0352 78.9609 24.5154V11.3163L82.3046 9.73242H82.4806V24.5154C82.4806 25.9233 83.0673 26.6273 84.2405 26.6273H88.2882C89.4615 26.6273 90.0481 25.9233 90.0481 24.5154V11.3163L93.3919 9.73242H93.5679V24.5154C93.5679 28.0352 91.808 29.7951 88.2882 29.7951H84.2405Z" fill="#33353A"/>
<path d="M97.7656 30.4991V15.7161C97.7656 12.1963 99.5255 10.4365 103.045 10.4365H107.093C110.613 10.4365 112.372 12.1963 112.372 15.7161V28.9152L109.029 30.4991H108.853V15.7161C108.853 14.3082 108.266 13.6043 107.093 13.6043H103.045C101.872 13.6043 101.285 14.3082 101.285 15.7161V28.9152L97.9416 30.4991H97.7656Z" fill="#33353A"/>
<path d="M121.854 29.7958C118.334 29.7958 116.574 28.0359 116.574 24.5161V15.7167C116.574 12.1969 118.334 10.4371 121.854 10.4371H125.901C126.699 10.4371 127.286 10.6189 127.661 10.9826V4.10147L131.005 2.51758H131.181V24.5161C131.181 28.0359 129.421 29.7958 125.901 29.7958H121.854ZM121.854 26.628H125.901C127.075 26.628 127.661 25.924 127.661 24.5161V15.7167C127.661 14.3088 127.075 13.6049 125.901 13.6049H121.854C120.68 13.6049 120.094 14.3088 120.094 15.7167V24.5161C120.094 25.924 120.68 26.628 121.854 26.628Z" fill="#33353A"/>
<path d="M141.538 29.7952C138.018 29.7952 136.258 28.0353 136.258 24.5155V15.7161C136.258 12.1963 138.018 10.4365 141.538 10.4365H145.586C149.105 10.4365 150.865 12.1963 150.865 15.7161V16.6489L139.831 25.1843C139.995 26.1464 140.564 26.6274 141.538 26.6274H145.586C146.759 26.6274 147.345 25.9234 147.345 24.5155V23.5828L150.689 21.9989H150.865V24.5155C150.865 28.0353 149.105 29.7952 145.586 29.7952H141.538ZM139.778 21.5061L147.328 15.4169C147.257 14.2085 146.677 13.6043 145.586 13.6043H141.538C140.365 13.6043 139.778 14.3082 139.778 15.7161V21.5061Z" fill="#33353A"/>
<path d="M155.062 30.4991V15.7161C155.062 12.1963 156.823 10.4365 160.342 10.4365H164.742V10.6125L163.334 13.6043H160.342C159.169 13.6043 158.581 14.3082 158.581 15.7161V28.9152L155.239 30.4991H155.062Z" fill="#33353A"/>
<path fill-rule="evenodd" clip-rule="evenodd" d="M42.5664 31.2197V3.64365L44.9913 2.49985H57.0313V3.55793L55.3422 7.14454H47.5279V14.1855H57.0313V15.2435L55.3422 18.8302H47.5279V29.3712L43.6254 31.2197H42.5664ZM46.807 18.1093H54.8849L56.3104 15.0823V14.9063H46.807V6.42369H54.8849L56.3104 3.39669V3.2207H45.1528L43.2873 4.10064V30.4989H43.4633L46.807 28.915V18.1093ZM65.4365 25.9063H69.4842C69.9217 25.9063 70.1306 25.7813 70.2503 25.6377C70.391 25.4689 70.5232 25.1369 70.5232 24.5153V15.7159C70.5232 15.0943 70.391 14.7623 70.2503 14.5934C70.1306 14.4498 69.9217 14.3249 69.4842 14.3249H65.4365C64.999 14.3249 64.79 14.4498 64.6703 14.5934C64.5297 14.7623 64.3974 15.0943 64.3974 15.7159V24.5153C64.3974 25.1369 64.5297 25.4689 64.6703 25.6377C64.79 25.7813 64.999 25.9063 65.4365 25.9063ZM60.967 28.9847C59.9042 27.9219 59.436 26.3863 59.436 24.5153V15.7159C59.436 13.8449 59.9042 12.3092 60.967 11.2464C62.0298 10.1836 63.5655 9.71538 65.4365 9.71538H69.4842C71.3552 9.71538 72.8908 10.1836 73.9537 11.2464C75.0165 12.3092 75.4847 13.8449 75.4847 15.7159V24.5153C75.4847 26.3863 75.0165 27.9219 73.9537 28.9847C72.8908 30.0475 71.3552 30.5158 69.4842 30.5158H65.4365C63.5655 30.5158 62.0298 30.0475 60.967 28.9847ZM78.2414 10.86L82.1439 9.01142H83.2028V24.5153C83.2028 25.1369 83.3351 25.4689 83.4757 25.6377C83.5954 25.7813 83.8044 25.9063 84.2419 25.9063H88.2896C88.7271 25.9063 88.9361 25.7813 89.0558 25.6377C89.1964 25.4689 89.3286 25.1369 89.3286 24.5153V10.86L93.2312 9.01142H94.2901V24.5153C94.2901 26.3863 93.8219 27.9219 92.7591 28.9847C91.6963 30.0475 90.1606 30.5158 88.2896 30.5158H84.2419C82.3709 30.5158 80.8352 30.0475 79.7724 28.9847C78.7096 27.9219 78.2414 26.3863 78.2414 24.5153V10.86ZM93.5693 24.5153C93.5693 28.035 91.8094 29.7949 88.2896 29.7949H84.2419C80.7221 29.7949 78.9622 28.035 78.9622 24.5153V11.3162L82.306 9.73227H82.482V24.5153C82.482 25.9232 83.0686 26.6271 84.2419 26.6271H88.2896C89.4629 26.6271 90.0495 25.9232 90.0495 24.5153V11.3162L93.3933 9.73227H93.5693V24.5153ZM97.0468 31.2197V15.7159C97.0468 13.8449 97.515 12.3092 98.5778 11.2464C99.6406 10.1836 101.176 9.71538 103.047 9.71538H107.095C108.966 9.71538 110.502 10.1836 111.564 11.2464C112.627 12.3092 113.096 13.8449 113.096 15.7159V29.3712L109.193 31.2197H108.134V15.7159C108.134 15.0943 108.002 14.7623 107.861 14.5934C107.741 14.4498 107.532 14.3249 107.095 14.3249H103.047C102.61 14.3249 102.401 14.4498 102.281 14.5934C102.14 14.7623 102.008 15.0943 102.008 15.7159V29.3712L98.1057 31.2197H97.0468ZM97.7676 15.7159C97.7676 12.1961 99.5275 10.4362 103.047 10.4362H107.095C110.615 10.4362 112.375 12.1961 112.375 15.7159V28.915L109.031 30.4989H108.855V15.7159C108.855 14.308 108.268 13.604 107.095 13.604H103.047C101.874 13.604 101.287 14.308 101.287 15.7159V28.915L97.9436 30.4989H97.7676V15.7159ZM131.18 24.5153C131.18 28.035 129.42 29.7949 125.9 29.7949H121.853C118.333 29.7949 116.573 28.035 116.573 24.5153V15.7159C116.573 12.1961 118.333 10.4362 121.853 10.4362H125.9C126.3 10.4362 126.646 10.4818 126.939 10.5728C127.232 10.6638 127.473 10.8001 127.66 10.9818V4.10064L131.004 2.51675H131.18V24.5153ZM126.939 9.82615V3.64447L130.842 1.7959H131.901V24.5153C131.901 26.3863 131.433 27.9219 130.37 28.9847C129.307 30.0475 127.771 30.5158 125.9 30.5158H121.853C119.982 30.5158 118.446 30.0475 117.383 28.9847C116.32 27.9219 115.852 26.3863 115.852 24.5153V15.7159C115.852 13.8449 116.32 12.3092 117.383 11.2464C118.446 10.1836 119.982 9.71538 121.853 9.71538H125.9C126.264 9.71538 126.614 9.74893 126.939 9.82615ZM121.853 25.9063H125.9C126.338 25.9063 126.547 25.7813 126.667 25.6377C126.807 25.4689 126.939 25.1369 126.939 24.5153V15.7159C126.939 15.0943 126.807 14.7623 126.667 14.5934C126.547 14.4498 126.338 14.3249 125.9 14.3249H121.853C121.415 14.3249 121.206 14.4498 121.087 14.5934C120.946 14.7623 120.814 15.0943 120.814 15.7159V24.5153C120.814 25.1369 120.946 25.4689 121.087 25.6377C121.206 25.7813 121.415 25.9063 121.853 25.9063ZM151.586 17.0023L140.657 25.4565C140.714 25.5793 140.781 25.6605 140.846 25.7159C140.965 25.8164 141.168 25.9063 141.538 25.9063H145.586C146.023 25.9063 146.232 25.7813 146.352 25.6377C146.493 25.4689 146.625 25.1369 146.625 24.5153V23.1264L150.527 21.2778H151.586V24.5153C151.586 26.3863 151.118 27.9219 150.055 28.9847C148.992 30.0475 147.457 30.5158 145.586 30.5158H141.538C139.667 30.5158 138.131 30.0475 137.069 28.9847C136.006 27.9219 135.538 26.3863 135.538 24.5153V15.7159C135.538 13.8449 136.006 12.3092 137.069 11.2464C138.131 10.1836 139.667 9.71538 141.538 9.71538H145.586C147.457 9.71538 148.992 10.1836 150.055 11.2464C151.118 12.3092 151.586 13.8449 151.586 15.7159V17.0023ZM139.831 25.184L150.865 16.6486V15.7159C150.865 12.1961 149.106 10.4362 145.586 10.4362H141.538C138.018 10.4362 136.258 12.1961 136.258 15.7159V24.5153C136.258 28.035 138.018 29.7949 141.538 29.7949H145.586C149.106 29.7949 150.865 28.035 150.865 24.5153V21.9986H150.689L147.346 23.5825V24.5153C147.346 25.9232 146.759 26.6271 145.586 26.6271H141.538C140.564 26.6271 139.995 26.1461 139.831 25.184ZM146.566 15.1055L140.499 19.9984V15.7159C140.499 15.0943 140.631 14.7623 140.772 14.5934C140.892 14.4498 141.101 14.3249 141.538 14.3249H145.586C145.997 14.3249 146.203 14.4352 146.32 14.5567C146.414 14.6547 146.51 14.822 146.566 15.1055ZM139.778 21.5059V15.7159C139.778 14.308 140.365 13.604 141.538 13.604H145.586C146.677 13.604 147.258 14.2082 147.328 15.4167L139.778 21.5059ZM154.343 31.2197V15.7159C154.343 13.8449 154.811 12.3092 155.874 11.2464C156.937 10.1836 158.472 9.71538 160.343 9.71538H165.464V10.7733L163.793 14.3249H160.343C159.906 14.3249 159.697 14.4498 159.577 14.5934C159.437 14.7623 159.304 15.0943 159.304 15.7159V29.3712L155.402 31.2197H154.343ZM155.064 15.7159C155.064 12.1961 156.824 10.4362 160.343 10.4362H164.743V10.6122L163.335 13.604H160.343C159.17 13.604 158.584 14.308 158.584 15.7159V28.915L155.24 30.4989H155.064V15.7159ZM69.4842 26.6271H65.4365C64.2632 26.6271 63.6766 25.9232 63.6766 24.5153V15.7159C63.6766 14.308 64.2632 13.604 65.4365 13.604H69.4842C70.6575 13.604 71.2441 14.308 71.2441 15.7159V24.5153C71.2441 25.9232 70.6575 26.6271 69.4842 26.6271ZM60.1568 24.5153C60.1568 28.035 61.9167 29.7949 65.4365 29.7949H69.4842C73.004 29.7949 74.7639 28.035 74.7639 24.5153V15.7159C74.7639 12.1961 73.004 10.4362 69.4842 10.4362H65.4365C61.9167 10.4362 60.1568 12.1961 60.1568 15.7159V24.5153ZM125.9 26.6271H121.853C120.679 26.6271 120.093 25.9232 120.093 24.5153V15.7159C120.093 14.308 120.679 13.604 121.853 13.604H125.9C127.074 13.604 127.66 14.308 127.66 15.7159V24.5153C127.66 25.9232 127.074 26.6271 125.9 26.6271Z" fill="#33353A"/>
<path d="M173.592 30.3958C170.072 30.3958 168.312 28.6359 168.312 25.1161V16.3167C168.312 12.797 170.072 11.0371 173.592 11.0371H177.641C181.161 11.0371 182.92 12.797 182.92 16.3167V17.2495L179.577 18.8334H179.4V16.3167C179.4 14.9088 178.814 14.2049 177.641 14.2049H173.592C172.419 14.2049 171.833 14.9088 171.833 16.3167V25.1161C171.833 26.5241 172.419 27.228 173.592 27.228H177.641C178.814 27.228 179.4 26.5241 179.4 25.1161V24.1834L182.743 22.5995H182.92V25.1161C182.92 28.6359 181.161 30.3958 177.641 30.3958H173.592Z" fill="#33353A"/>
<path d="M187.121 31.0997V16.3167C187.121 12.797 188.881 11.0371 192.401 11.0371H196.8V11.2131L195.392 14.2049H192.401C191.227 14.2049 190.641 14.9088 190.641 16.3167V29.5159L187.297 31.0997H187.121Z" fill="#33353A"/>
<path d="M203.107 27.228H206.803C207.976 27.228 208.563 26.5241 208.563 25.1161V22.7051C208.563 21.2972 207.976 20.5932 206.803 20.5932H203.107C201.934 20.5932 201.348 21.2972 201.348 22.7051V25.1161C201.348 26.5241 201.934 27.228 203.107 27.228ZM203.107 30.3958C199.588 30.3958 197.828 28.6359 197.828 25.1161V22.7051C197.828 19.1853 199.588 17.4255 203.107 17.4255H206.803C207.413 17.4255 208 17.6014 208.563 17.9534V16.3167C208.563 14.9088 207.976 14.2049 206.803 14.2049H200.503V14.0289L201.911 11.0371H206.803C210.323 11.0371 212.083 12.797 212.083 16.3167V29.5159L208.739 31.0997H208.563V29.8678C208.117 30.2198 207.531 30.3958 206.803 30.3958H203.107Z" fill="#33353A"/>
<path d="M218.605 31.0993V14.2397H214.082V14.0637L215.508 11.0367H218.605V4.70109L221.949 3.11719H222.125V11.0367H226.648V11.2127L225.222 14.2397H222.125V29.5155L218.781 31.0993H218.605Z" fill="#33353A"/>
<path d="M233.928 30.3958C230.408 30.3958 228.648 28.6359 228.648 25.1161V16.3167C228.648 12.797 230.408 11.0371 233.928 11.0371H237.976C241.496 11.0371 243.256 12.797 243.256 16.3167V17.2495L232.221 25.7849C232.385 26.747 232.954 27.228 233.928 27.228H237.976C239.149 27.228 239.736 26.5241 239.736 25.1161V24.1834L243.08 22.5995H243.256V25.1161C243.256 28.6359 241.496 30.3958 237.976 30.3958H233.928ZM232.168 22.1067L239.718 16.0175C239.648 14.8091 239.067 14.2049 237.976 14.2049H233.928C232.755 14.2049 232.168 14.9088 232.168 16.3167V22.1067Z" fill="#33353A"/>
<defs>
<clipPath id="clip0_1212_49">
<rect width="34" height="34" fill="white"/>
</clipPath>
</defs>
</svg>
