<svg width="418" height="74" viewBox="0 0 418 74" fill="none" xmlns="http://www.w3.org/2000/svg">
<path fill-rule="evenodd" clip-rule="evenodd" d="M56.4822 10.0967H2.48456V63.9059H56.4822V10.0967ZM0 7.62085V66.3818H58.9668V7.62085H0Z" fill="#4776E6"/>
<path fill-rule="evenodd" clip-rule="evenodd" d="M47.8693 18.6798H11.0978V55.3229H47.8693V18.6798ZM8.61328 16.2039V57.7988H50.3538V16.2039H8.61328Z" fill="#4776E6"/>
<path fill-rule="evenodd" clip-rule="evenodd" d="M11.803 56.5208L2.77247 65.5198L1.01562 63.7691L10.0462 54.7701L11.803 56.5208Z" fill="#4776E6"/>
<path fill-rule="evenodd" clip-rule="evenodd" d="M57.3166 10.757L48.6977 19.34L46.9414 17.5887L55.5603 9.00568L57.3166 10.757Z" fill="#4776E6"/>
<path fill-rule="evenodd" clip-rule="evenodd" d="M41.5751 18.5147L10.7666 49.2157L9.00977 47.465L39.8183 16.764L41.5751 18.5147Z" fill="#4776E6"/>
<path fill-rule="evenodd" clip-rule="evenodd" d="M50.3537 28.4183L21.3672 57.3036L19.6104 55.5529L48.5968 26.6675L50.3537 28.4183Z" fill="#4776E6"/>
<path fill-rule="evenodd" clip-rule="evenodd" d="M49.5255 54.9928L58.9727 64.4069L57.2158 66.1577L47.7687 56.7435L49.5255 54.9928Z" fill="#4776E6"/>
<path fill-rule="evenodd" clip-rule="evenodd" d="M2.81559 8.28106L12.2627 17.6952L10.5059 19.4459L1.05874 10.0318L2.81559 8.28106Z" fill="#4776E6"/>
<path fill-rule="evenodd" clip-rule="evenodd" d="M28.1585 30.8942L10.7666 30.8942V28.4183L28.1585 28.4183V30.8942Z" fill="#4776E6"/>
<path fill-rule="evenodd" clip-rule="evenodd" d="M48.6969 46.2446H32.2988V43.7687H48.6969V46.2446Z" fill="#4776E6"/>
<path d="M72.5107 58.5322V14.4662L75.6356 12.9973H94.3261V13.2911L91.9382 18.344H78.4068V32.5039H94.3261V32.7976L91.9382 37.8505H78.4068V55.8882L72.8055 58.5322H72.5107Z" fill="white"/>
<path d="M109.613 52.0692H116.394C118.359 52.0692 119.342 50.8941 119.342 48.5439V33.8552C119.342 31.505 118.359 30.3299 116.394 30.3299H109.613C107.648 30.3299 106.665 31.505 106.665 33.8552V48.5439C106.665 50.8941 107.648 52.0692 109.613 52.0692ZM109.613 57.3571C103.717 57.3571 100.769 54.4194 100.769 48.5439V33.8552C100.769 27.9798 103.717 25.042 109.613 25.042H116.394C122.29 25.042 125.238 27.9798 125.238 33.8552V48.5439C125.238 54.4194 122.29 57.3571 116.394 57.3571H109.613Z" fill="white"/>
<path d="M141.115 57.3571C135.219 57.3571 132.271 54.4194 132.271 48.5439V26.5109L137.872 23.8669H138.167V48.5439C138.167 50.8941 139.149 52.0692 141.115 52.0692H147.895C149.861 52.0692 150.843 50.8941 150.843 48.5439V26.5109L156.445 23.8669H156.739V48.5439C156.739 54.4194 153.791 57.3571 147.895 57.3571H141.115Z" fill="white"/>
<path d="M163.772 58.5322V33.8552C163.772 27.9798 166.72 25.042 172.616 25.042H179.397C185.293 25.042 188.241 27.9798 188.241 33.8552V55.8882L182.639 58.5322H182.345V33.8552C182.345 31.505 181.362 30.3299 179.397 30.3299H172.616C170.651 30.3299 169.668 31.505 169.668 33.8552V55.8882L164.067 58.5322H163.772Z" fill="white"/>
<path d="M204.118 57.3571C198.222 57.3571 195.274 54.4194 195.274 48.5439V33.8552C195.274 27.9798 198.222 25.042 204.118 25.042H210.898C212.235 25.042 213.217 25.3456 213.846 25.9527V14.4662L219.447 11.8222H219.742V48.5439C219.742 54.4194 216.794 57.3571 210.898 57.3571H204.118ZM204.118 52.0692H210.898C212.863 52.0692 213.846 50.8941 213.846 48.5439V33.8552C213.846 31.505 212.863 30.3299 210.898 30.3299H204.118C202.152 30.3299 201.17 31.505 201.17 33.8552V48.5439C201.17 50.8941 202.152 52.0692 204.118 52.0692Z" fill="white"/>
<path d="M237.093 57.3571C231.197 57.3571 228.249 54.4194 228.249 48.5439V33.8552C228.249 27.9798 231.197 25.042 237.093 25.042H243.873C249.77 25.042 252.718 27.9798 252.718 33.8552V35.4122L234.233 49.6602C234.509 51.2662 235.462 52.0692 237.093 52.0692H243.873C245.839 52.0692 246.822 50.8941 246.822 48.5439V46.9869L252.423 44.3429H252.718V48.5439C252.718 54.4194 249.77 57.3571 243.873 57.3571H237.093ZM234.145 43.5204L246.792 33.3558C246.674 31.3386 245.701 30.3299 243.873 30.3299H237.093C235.128 30.3299 234.145 31.505 234.145 33.8552V43.5204Z" fill="white"/>
<path d="M259.75 58.5322V33.8552C259.75 27.9798 262.698 25.042 268.594 25.042H275.965V25.3358L273.606 30.3299H268.594C266.629 30.3299 265.646 31.505 265.646 33.8552V55.8882L260.045 58.5322H259.75Z" fill="white"/>
<path fill-rule="evenodd" clip-rule="evenodd" d="M71.3027 59.7356V13.7034L75.3647 11.7941H95.5331V13.5603L92.7038 19.5473H79.6138V31.3006H95.5331V33.0669L92.7038 39.0539H79.6138V56.6498L73.0766 59.7356H71.3027ZM78.4063 37.8506H91.9377L94.3256 32.7977V32.5039H78.4063V18.344H91.9377L94.3256 13.2911V12.9973H75.6352L72.5102 14.4662V58.5323H72.805L78.4063 55.8883V37.8506ZM109.613 50.8659H116.393C117.126 50.8659 117.476 50.6574 117.677 50.4176C117.912 50.1358 118.134 49.5816 118.134 48.544V33.8553C118.134 32.8176 117.912 32.2634 117.677 31.9816C117.476 31.7419 117.126 31.5333 116.393 31.5333H109.613C108.88 31.5333 108.53 31.7419 108.33 31.9816C108.094 32.2634 107.872 32.8176 107.872 33.8553V48.544C107.872 49.5816 108.094 50.1358 108.33 50.4176C108.53 50.6574 108.88 50.8659 109.613 50.8659ZM102.126 56.0047C100.346 54.2306 99.5613 51.6672 99.5613 48.544V33.8553C99.5613 30.7321 100.346 28.1686 102.126 26.3945C103.906 24.6204 106.479 23.8388 109.613 23.8388H116.393C119.528 23.8388 122.1 24.6204 123.88 26.3945C125.661 28.1686 126.445 30.7321 126.445 33.8553V48.544C126.445 51.6672 125.661 54.2306 123.88 56.0047C122.1 57.7788 119.528 58.5605 116.393 58.5605H109.613C106.479 58.5605 103.906 57.7788 102.126 56.0047ZM131.063 25.7495L137.6 22.6637H139.374V48.544C139.374 49.5816 139.595 50.1358 139.831 50.4176C140.031 50.6574 140.382 50.8659 141.114 50.8659H147.895C148.628 50.8659 148.978 50.6574 149.178 50.4176C149.414 50.1358 149.635 49.5816 149.635 48.544V25.7495L156.173 22.6637H157.946V48.544C157.946 51.6672 157.162 54.2306 155.382 56.0047C153.601 57.7788 151.029 58.5605 147.895 58.5605H141.114C137.98 58.5605 135.408 57.7788 133.627 56.0047C131.847 54.2306 131.063 51.6672 131.063 48.544V25.7495ZM156.739 48.544C156.739 54.4194 153.791 57.3572 147.895 57.3572H141.114C135.218 57.3572 132.27 54.4194 132.27 48.544V26.5109L137.871 23.867H138.166V48.544C138.166 50.8941 139.149 52.0692 141.114 52.0692H147.895C149.86 52.0692 150.843 50.8941 150.843 48.544V26.5109L156.444 23.867H156.739V48.544ZM162.564 59.7356V33.8553C162.564 30.7321 163.348 28.1686 165.129 26.3945C166.909 24.6204 169.482 23.8388 172.616 23.8388H179.396C182.53 23.8388 185.103 24.6204 186.883 26.3945C188.663 28.1686 189.448 30.7321 189.448 33.8553V56.6498L182.911 59.7356H181.137V33.8553C181.137 32.8176 180.915 32.2634 180.68 31.9816C180.479 31.7419 180.129 31.5333 179.396 31.5333H172.616C171.883 31.5333 171.533 31.7419 171.332 31.9816C171.097 32.2634 170.875 32.8176 170.875 33.8553V56.6498L164.338 59.7356H162.564ZM163.772 33.8553C163.772 27.9798 166.72 25.0421 172.616 25.0421H179.396C185.292 25.0421 188.24 27.9798 188.24 33.8553V55.8883L182.639 58.5323H182.344V33.8553C182.344 31.5051 181.362 30.33 179.396 30.33H172.616C170.65 30.33 169.668 31.5051 169.668 33.8553V55.8883L164.066 58.5323H163.772V33.8553ZM219.742 48.544C219.742 54.4194 216.794 57.3572 210.898 57.3572H204.117C198.221 57.3572 195.273 54.4194 195.273 48.544V33.8553C195.273 27.9798 198.221 25.0421 204.117 25.0421H210.898C211.566 25.0421 212.147 25.1181 212.638 25.2701C213.129 25.4219 213.531 25.6494 213.846 25.9528V14.4662L219.447 11.8223H219.742V48.544ZM212.638 24.0237V13.7047L219.175 10.619H220.949V48.544C220.949 51.6672 220.165 54.2306 218.384 56.0047C216.604 57.7788 214.032 58.5605 210.898 58.5605H204.117C200.983 58.5605 198.411 57.7788 196.63 56.0047C194.85 54.2306 194.066 51.6672 194.066 48.544V33.8553C194.066 30.7321 194.85 28.1686 196.63 26.3945C198.411 24.6204 200.983 23.8388 204.117 23.8388H210.898C211.507 23.8388 212.093 23.8948 212.638 24.0237ZM204.117 50.8659H210.898C211.63 50.8659 211.98 50.6574 212.181 50.4176C212.417 50.1358 212.638 49.5816 212.638 48.544V33.8553C212.638 32.8176 212.417 32.2634 212.181 31.9816C211.98 31.7419 211.63 31.5333 210.898 31.5333H204.117C203.384 31.5333 203.034 31.7419 202.834 31.9816C202.598 32.2634 202.377 32.8176 202.377 33.8553V48.544C202.377 49.5816 202.598 50.1358 202.834 50.4176C203.034 50.6574 203.384 50.8659 204.117 50.8659ZM253.925 36.0028L235.617 50.1151C235.712 50.32 235.824 50.4557 235.934 50.5481C236.133 50.7159 236.473 50.8659 237.093 50.8659H243.873C244.606 50.8659 244.956 50.6574 245.156 50.4176C245.392 50.1358 245.614 49.5816 245.614 48.544V46.2255L252.151 43.1397H253.925V48.544C253.925 51.6672 253.14 54.2306 251.36 56.0047C249.58 57.7788 247.007 58.5605 243.873 58.5605H237.093C233.958 58.5605 231.386 57.7788 229.606 56.0047C227.825 54.2306 227.041 51.6672 227.041 48.544V33.8553C227.041 30.7321 227.825 28.1686 229.606 26.3945C231.386 24.6204 233.958 23.8388 237.093 23.8388H243.873C247.007 23.8388 249.58 24.6204 251.36 26.3945C253.14 28.1686 253.925 30.7321 253.925 33.8553V36.0028ZM234.233 49.6603L252.717 35.4123V33.8553C252.717 27.9798 249.769 25.0421 243.873 25.0421H237.093C231.197 25.0421 228.248 27.9798 228.248 33.8553V48.544C228.248 54.4194 231.197 57.3572 237.093 57.3572H243.873C249.769 57.3572 252.717 54.4194 252.717 48.544V44.343H252.422L246.821 46.987V48.544C246.821 50.8941 245.838 52.0692 243.873 52.0692H237.093C235.461 52.0692 234.508 51.2663 234.233 49.6603ZM245.514 32.8364L235.352 41.0041V33.8553C235.352 32.8176 235.574 32.2634 235.809 31.9816C236.01 31.7419 236.36 31.5333 237.093 31.5333H243.873C244.562 31.5333 244.907 31.7176 245.103 31.9203C245.261 32.084 245.421 32.3631 245.514 32.8364ZM234.145 43.5204V33.8553C234.145 31.5051 235.127 30.33 237.093 30.33H243.873C245.701 30.33 246.674 31.3386 246.792 33.3559L234.145 43.5204ZM258.542 59.7356V33.8553C258.542 30.7321 259.327 28.1686 261.107 26.3945C262.887 24.6204 265.46 23.8388 268.594 23.8388H277.172V25.6048L274.372 31.5333H268.594C267.861 31.5333 267.511 31.7419 267.311 31.9816C267.075 32.2634 266.853 32.8176 266.853 33.8553V56.6498L260.316 59.7356H258.542ZM259.75 33.8553C259.75 27.9798 262.698 25.0421 268.594 25.0421H275.964V25.3358L273.606 30.33H268.594C266.629 30.33 265.646 31.5051 265.646 33.8553V55.8883L260.045 58.5323H259.75V33.8553ZM116.393 52.0692H109.613C107.648 52.0692 106.665 50.8941 106.665 48.544V33.8553C106.665 31.5051 107.648 30.33 109.613 30.33H116.393C118.359 30.33 119.341 31.5051 119.341 33.8553V48.544C119.341 50.8941 118.359 52.0692 116.393 52.0692ZM100.769 48.544C100.769 54.4194 103.717 57.3572 109.613 57.3572H116.393C122.289 57.3572 125.237 54.4194 125.237 48.544V33.8553C125.237 27.9798 122.289 25.0421 116.393 25.0421H109.613C103.717 25.0421 100.769 27.9798 100.769 33.8553V48.544ZM210.898 52.0692H204.117C202.152 52.0692 201.169 50.8941 201.169 48.544V33.8553C201.169 31.5051 202.152 30.33 204.117 30.33H210.898C212.863 30.33 213.846 31.5051 213.846 33.8553V48.544C213.846 50.8941 212.863 52.0692 210.898 52.0692Z" fill="white"/>
<path d="M290.792 58.3599C284.896 58.3599 281.948 55.4221 281.948 49.5467V34.858C281.948 28.9825 284.896 26.0448 290.792 26.0448H297.573C303.469 26.0448 306.417 28.9825 306.417 34.858V36.415L300.816 39.0589H300.521V34.858C300.521 32.5078 299.538 31.3327 297.573 31.3327H290.792C288.827 31.3327 287.844 32.5078 287.844 34.858V49.5467C287.844 51.8968 288.827 53.0719 290.792 53.0719H297.573C299.538 53.0719 300.521 51.8968 300.521 49.5467V47.9897L306.122 45.3457H306.417V49.5467C306.417 55.4221 303.469 58.3599 297.573 58.3599H290.792Z" fill="white"/>
<path d="M313.45 59.535V34.858C313.45 28.9825 316.398 26.0448 322.294 26.0448H329.664V26.3385L327.305 31.3327H322.294C320.328 31.3327 319.346 32.5078 319.346 34.858V56.891L313.744 59.535H313.45Z" fill="white"/>
<path d="M340.234 53.0719H346.425C348.39 53.0719 349.373 51.8968 349.373 49.5467V45.522C349.373 43.1718 348.39 41.9967 346.425 41.9967H340.234C338.269 41.9967 337.286 43.1718 337.286 45.522V49.5467C337.286 51.8968 338.269 53.0719 340.234 53.0719ZM340.234 58.3599C334.338 58.3599 331.39 55.4221 331.39 49.5467V45.522C331.39 39.6465 334.338 36.7087 340.234 36.7087H346.425C347.447 36.7087 348.43 37.0025 349.373 37.5901V34.858C349.373 32.5078 348.39 31.3327 346.425 31.3327H335.871V31.0389L338.23 26.0448H346.425C352.321 26.0448 355.269 28.9825 355.269 34.858V56.891L349.668 59.535H349.373V57.4785C348.626 58.0661 347.644 58.3599 346.425 58.3599H340.234Z" fill="white"/>
<path d="M366.193 59.535V31.3914H358.617V31.0977L361.005 26.0448H366.193V15.4689L371.795 12.825H372.089V26.0448H379.666V26.3385L377.278 31.3914H372.089V56.891L366.488 59.535H366.193Z" fill="white"/>
<path d="M391.858 58.3599C385.962 58.3599 383.014 55.4221 383.014 49.5467V34.858C383.014 28.9825 385.962 26.0448 391.858 26.0448H398.638C404.534 26.0448 407.482 28.9825 407.482 34.858V36.415L388.998 50.663C389.273 52.269 390.226 53.0719 391.858 53.0719H398.638C400.603 53.0719 401.586 51.8968 401.586 49.5467V47.9897L407.187 45.3457H407.482V49.5467C407.482 55.4221 404.534 58.3599 398.638 58.3599H391.858ZM388.91 44.5231L401.557 34.3586C401.439 32.3413 400.466 31.3327 398.638 31.3327H391.858C389.892 31.3327 388.91 32.5078 388.91 34.858V44.5231Z" fill="white"/>
<path d="M407.999 12.2335V6.30906H405.979V5.64807H410.795V6.30906H408.78V12.2335H407.999Z" fill="white"/>
<path d="M411.603 12.2335L411.672 5.64807H412.581L413.873 9.22721L414.355 10.5933H414.394L414.866 9.22721L416.143 5.64807H417.047L417.121 12.2335H416.379L416.369 8.50747C416.369 8.22022 416.376 7.90034 416.389 7.54781C416.402 7.19201 416.418 6.8705 416.438 6.58325H416.399L415.878 8.04722L414.59 11.5627H414.119L412.831 8.04722L412.306 6.58325H412.266C412.283 6.8705 412.296 7.19201 412.306 7.54781C412.319 7.90034 412.325 8.22022 412.325 8.50747V12.2335H411.603Z" fill="white"/>
</svg>
