<svg width="415" height="228" viewBox="0 0 415 228" fill="none" xmlns="http://www.w3.org/2000/svg">
<path d="M90 107.5C93.5899 107.5 96.5 104.59 96.5 101C96.5 97.4101 93.5899 94.5 90 94.5C86.4101 94.5 83.5 97.4101 83.5 101C83.5 104.59 86.4101 107.5 90 107.5Z" stroke="#777777" stroke-width="3"/>
<path d="M409 144C411.761 144 414 141.761 414 139C414 136.239 411.761 134 409 134C406.239 134 404 136.239 404 139C404 141.761 406.239 144 409 144Z" stroke="#777777" stroke-width="2"/>
<path d="M106 17C108.761 17 111 14.7614 111 12C111 9.23858 108.761 7 106 7C103.239 7 101 9.23858 101 12C101 14.7614 103.239 17 106 17Z" stroke="#777777" stroke-width="2"/>
<path d="M361 40.5C364.59 40.5 367.5 37.5899 367.5 34C367.5 30.4101 364.59 27.5 361 27.5C357.41 27.5 354.5 30.4101 354.5 34C354.5 37.5899 357.41 40.5 361 40.5Z" stroke="#777777" stroke-width="3"/>
<path d="M4 90.5C5.933 90.5 7.5 88.933 7.5 87C7.5 85.067 5.933 83.5 4 83.5C2.067 83.5 0.5 85.067 0.5 87C0.5 88.933 2.067 90.5 4 90.5Z" stroke="#777777"/>
<path d="M231 7.5C232.933 7.5 234.5 5.933 234.5 4C234.5 2.067 232.933 0.5 231 0.5C229.067 0.5 227.5 2.067 227.5 4C227.5 5.933 229.067 7.5 231 7.5Z" stroke="#777777"/>
<path d="M33 25.5C34.933 25.5 36.5 23.933 36.5 22C36.5 20.067 34.933 18.5 33 18.5C31.067 18.5 29.5 20.067 29.5 22C29.5 23.933 31.067 25.5 33 25.5Z" stroke="#777777"/>
<path opacity="0.3" d="M343.932 100.391L339.696 98.5671L338.8 94.0422C338.764 93.859 338.677 93.6897 338.549 93.5534C338.422 93.4171 338.258 93.3192 338.078 93.2708C337.898 93.2225 337.708 93.2256 337.529 93.2798C337.35 93.334 337.19 93.4371 337.067 93.5775L334.021 97.0454L329.442 96.5063C329.256 96.4845 329.069 96.515 328.9 96.5944C328.731 96.6737 328.588 96.7988 328.486 96.9553C328.385 97.1119 328.329 97.2937 328.325 97.4803C328.322 97.6668 328.37 97.8507 328.466 98.011L330.82 101.975L328.888 106.165C328.81 106.335 328.781 106.522 328.804 106.707C328.828 106.892 328.902 107.067 329.02 107.212C329.137 107.357 329.292 107.466 329.468 107.527C329.644 107.588 329.834 107.599 330.016 107.558L334.517 106.542L337.906 109.674C338.043 109.8 338.213 109.885 338.396 109.92C338.579 109.956 338.768 109.939 338.942 109.872C339.116 109.805 339.268 109.691 339.38 109.543C339.493 109.394 339.562 109.218 339.579 109.032L340.003 104.437L344.024 102.182C344.187 102.091 344.321 101.957 344.411 101.793C344.501 101.63 344.544 101.445 344.535 101.258C344.525 101.072 344.463 100.892 344.357 100.739C344.25 100.585 344.103 100.465 343.932 100.391ZM338.581 103.513L338.179 107.883L334.955 104.906L330.675 105.871L332.511 101.885L330.265 98.1156L334.625 98.6311L337.524 95.3276L338.382 99.6352L342.413 101.373L338.581 103.513Z" fill="#777777"/>
<path opacity="0.5" d="M185.56 27.5053L180.98 28.0447L177.941 24.575C177.818 24.4346 177.658 24.3315 177.479 24.2773C177.3 24.2231 177.11 24.22 176.93 24.2683C176.749 24.3167 176.586 24.4146 176.459 24.5509C176.331 24.6872 176.244 24.8565 176.208 25.0397L175.305 29.5664L171.07 31.3903C170.899 31.4642 170.752 31.5845 170.645 31.7377C170.539 31.8909 170.477 32.0709 170.467 32.2572C170.458 32.4436 170.501 32.6289 170.591 32.7922C170.681 32.9556 170.815 33.0904 170.978 33.1815L174.999 35.4364L175.423 40.0311C175.44 40.2166 175.509 40.3935 175.622 40.5419C175.734 40.6904 175.886 40.8043 176.06 40.8711C176.234 40.9378 176.423 40.9545 176.607 40.9195C176.79 40.8845 176.959 40.799 177.096 40.6727L180.485 37.541L184.986 38.5572C185.168 38.598 185.358 38.5872 185.534 38.5259C185.71 38.4647 185.865 38.3556 185.982 38.2108C186.1 38.066 186.174 37.8913 186.198 37.7064C186.221 37.5215 186.192 37.3338 186.114 37.1645L184.182 32.9743L186.536 29.0101C186.632 28.8497 186.68 28.6659 186.677 28.4793C186.673 28.2927 186.618 28.1109 186.516 27.9544C186.414 27.7978 186.271 27.6728 186.102 27.5934C185.933 27.5141 185.746 27.4836 185.56 27.5053ZM182.489 32.8847L184.327 36.8702L180.047 35.9055L176.823 38.8821L176.419 34.5122L172.588 32.3718L176.621 30.6372L177.478 26.3267L180.376 29.6273L184.736 29.1149L182.489 32.8847Z" fill="#777777"/>
<path opacity="0.5" d="M30.6848 144.364L27.8211 144.701L25.9202 142.535C25.8431 142.448 25.7431 142.384 25.6316 142.35C25.52 142.317 25.4013 142.315 25.2888 142.345C25.1763 142.375 25.0744 142.436 24.9946 142.521C24.9149 142.606 24.8604 142.711 24.8373 142.826L24.2739 145.652L21.6257 146.793C21.5186 146.839 21.4266 146.914 21.36 147.01C21.2934 147.106 21.2549 147.218 21.2488 147.335C21.2428 147.451 21.2694 147.567 21.3257 147.669C21.3821 147.771 21.4658 147.855 21.5675 147.912L24.0825 149.321L24.3471 152.193C24.3581 152.309 24.4012 152.42 24.4716 152.512C24.542 152.605 24.6369 152.676 24.7456 152.718C24.8543 152.76 24.9725 152.77 25.0868 152.748C25.2011 152.726 25.3071 152.673 25.3928 152.594L27.5114 150.637L30.3252 151.272C30.4388 151.297 30.5572 151.29 30.6671 151.252C30.7771 151.214 30.8741 151.146 30.9474 151.055C31.0206 150.965 31.0672 150.856 31.0818 150.74C31.0964 150.625 31.0784 150.507 31.0299 150.401L29.8224 147.782L31.2952 145.304C31.3547 145.204 31.3851 145.089 31.3828 144.973C31.3805 144.856 31.3456 144.742 31.2821 144.645C31.2186 144.547 31.129 144.469 31.0235 144.419C30.9179 144.37 30.8006 144.351 30.6848 144.364ZM28.7657 147.726L29.9122 150.214L27.2371 149.614L25.2221 151.475L24.9701 148.747L22.5754 147.404L25.0958 146.319L25.6321 143.627L27.4432 145.69L30.1682 145.368L28.7657 147.726Z" fill="#777777"/>
<path opacity="0.3" d="M292.412 17.793L289.764 16.6523L289.201 13.8259C289.178 13.7117 289.124 13.6062 289.044 13.5213C288.964 13.4364 288.862 13.3755 288.75 13.3453C288.637 13.3151 288.519 13.317 288.407 13.3506C288.295 13.3842 288.195 13.4482 288.118 13.5355L286.216 15.7012L283.353 15.3641C283.237 15.3505 283.12 15.3696 283.014 15.4191C282.909 15.4687 282.819 15.5468 282.755 15.6446C282.692 15.7424 282.657 15.856 282.655 15.9726C282.653 16.0891 282.683 16.204 282.742 16.3043L284.215 18.7824L283.008 21.4014C282.959 21.5073 282.941 21.6245 282.956 21.74C282.97 21.8555 283.017 21.9646 283.09 22.0551C283.163 22.1456 283.261 22.2138 283.37 22.252C283.48 22.2903 283.599 22.2971 283.712 22.2717L286.526 21.6366L288.645 23.5942C288.73 23.673 288.836 23.7264 288.951 23.7482C289.065 23.7701 289.183 23.7596 289.292 23.7179C289.401 23.6762 289.496 23.605 289.566 23.5123C289.636 23.4196 289.679 23.3091 289.69 23.1932L289.955 20.3214L292.47 18.9124C292.572 18.8554 292.656 18.7711 292.712 18.669C292.768 18.5669 292.795 18.4511 292.789 18.3347C292.783 18.2182 292.744 18.1058 292.678 18.0101C292.611 17.9144 292.519 17.8392 292.412 17.793ZM289.068 19.744L288.816 22.4721L286.8 20.6136L284.125 21.2173L285.271 18.729L283.869 16.3683L286.594 16.6899L288.406 14.6273L288.942 17.3193L291.462 18.404L289.068 19.744Z" fill="#777777"/>
<path d="M208 228C263.228 228 308 225.314 308 222C308 218.686 263.228 216 208 216C152.772 216 108 218.686 108 222C108 225.314 152.772 228 208 228Z" fill="url(#paint0_radial_0_1)"/>
<path d="M269.481 194.85L268.778 193.753C267.625 193.837 266.5 193.837 265.347 193.753L264.644 194.878C263.013 197.466 259.834 198.647 256.909 197.719C253.028 196.509 250.441 195.244 247.263 192.628C244.731 190.547 244.113 186.919 245.744 184.078L246.447 182.869C245.8 181.912 245.238 180.928 244.731 179.887H242.172C238.909 179.887 236.153 177.581 235.534 174.375C234.803 170.522 234.775 167.569 235.563 163.547C236.153 160.369 238.966 158.062 242.2 158.062H244.731C245.238 157.022 245.8 156.037 246.447 155.081L245.716 153.816C244.084 151.003 244.703 147.431 247.178 145.294C250.159 142.734 252.719 141.272 256.6 139.95C259.638 138.909 262.984 140.147 264.616 142.931L265.347 144.169C266.5 144.084 267.625 144.084 268.778 144.169L269.509 142.931C271.141 140.147 274.488 138.909 277.553 139.978C281.294 141.244 283.825 142.678 286.975 145.35C289.45 147.459 290.041 151.031 288.409 153.844L287.678 155.081C288.325 156.037 288.888 157.022 289.394 158.062H290.828C294.091 158.062 296.847 160.369 297.466 163.575C298.197 167.428 298.225 170.381 297.438 174.403C296.847 177.581 294.034 179.887 290.8 179.887H289.394C288.888 180.928 288.325 181.912 287.678 182.869L288.381 184.078C290.041 186.947 289.366 190.575 286.834 192.656C283.825 195.131 281.238 196.425 277.272 197.691C274.319 198.591 271.113 197.437 269.481 194.85ZM272.913 185.119L275.894 190.266C277.778 189.478 279.522 188.466 281.153 187.228L278.172 182.081L279.972 179.972C281.322 178.369 282.391 176.569 283.066 174.6L283.994 171.984H289.928C290.181 169.987 290.181 167.934 289.928 165.937H283.994L283.066 163.322C282.363 161.353 281.322 159.553 279.972 157.95L278.172 155.841L281.153 150.694C279.55 149.456 277.778 148.444 275.894 147.656L272.913 152.803L270.184 152.297C268.131 151.903 266.022 151.903 263.969 152.297L261.241 152.803L258.259 147.656C256.375 148.444 254.631 149.456 253 150.694L255.981 155.841L254.181 157.95C252.831 159.553 251.763 161.353 251.088 163.322L250.159 165.937H244.225C243.972 167.934 243.972 169.987 244.225 171.984H250.159L251.088 174.6C251.791 176.569 252.831 178.369 254.181 179.972L255.981 182.081L253 187.228C254.603 188.466 256.375 189.478 258.259 190.266L261.241 185.119L263.969 185.625C266.022 186.019 268.131 186.019 270.184 185.625L272.913 185.119ZM275.5 168.75C275.5 163.772 271.478 159.75 266.5 159.75C261.522 159.75 257.5 163.772 257.5 168.75C257.5 173.728 261.522 177.75 266.5 177.75C271.478 177.75 275.5 173.728 275.5 168.75Z" fill="#A0A5AA"/>
<path d="M269.481 109.237L268.778 108.141C267.625 108.225 266.5 108.225 265.347 108.141L264.644 109.266C263.013 111.853 259.834 113.034 256.909 112.106C253.028 110.897 250.441 109.631 247.263 107.016C244.731 104.934 244.113 101.306 245.744 98.4656L246.447 97.2562C245.8 96.3 245.238 95.3156 244.731 94.275H242.172C238.909 94.275 236.153 91.9687 235.534 88.7625C234.803 84.9094 234.775 81.9562 235.563 77.9344C236.153 74.7562 238.966 72.45 242.2 72.45H244.731C245.238 71.4094 245.8 70.425 246.447 69.4687L245.716 68.2031C244.084 65.3906 244.703 61.8187 247.178 59.6812C250.159 57.1219 252.719 55.6594 256.6 54.3375C259.638 53.2969 262.984 54.5344 264.616 57.3187L265.347 58.5562C266.5 58.4719 267.625 58.4719 268.778 58.5562L269.509 57.3187C271.141 54.5344 274.488 53.2969 277.553 54.3656C281.294 55.6312 283.825 57.0656 286.975 59.7375C289.45 61.8469 290.041 65.4187 288.409 68.2312L287.678 69.4687C288.325 70.425 288.888 71.4094 289.394 72.45H290.828C294.091 72.45 296.847 74.7562 297.466 77.9625C298.197 81.8156 298.225 84.7687 297.438 88.7906C296.847 91.9687 294.034 94.275 290.8 94.275H289.394C288.888 95.3156 288.325 96.3 287.678 97.2562L288.381 98.4656C290.041 101.334 289.366 104.962 286.834 107.044C283.825 109.519 281.238 110.812 277.272 112.078C274.319 113.006 271.113 111.853 269.481 109.237ZM272.913 99.5344L275.894 104.681C277.778 103.894 279.522 102.881 281.153 101.644L278.172 96.4969L279.972 94.3875C281.322 92.7844 282.391 90.9844 283.066 89.0156L283.994 86.4H289.928C290.181 84.4031 290.181 82.35 289.928 80.3531H283.994L283.066 77.7375C282.363 75.7687 281.322 73.9687 279.972 72.3656L278.172 70.2562L281.125 65.0812C279.522 63.8437 277.75 62.8312 275.866 62.0437L272.884 67.1906L270.156 66.6844C268.103 66.2906 265.994 66.2906 263.941 66.6844L261.213 67.1906L258.231 62.0437C256.375 62.8031 254.603 63.8437 253 65.0812L255.981 70.2281L254.181 72.3375C252.831 73.9406 251.763 75.7406 251.088 77.7094L250.159 80.325H244.225C243.972 82.3219 243.972 84.375 244.225 86.3719H250.159L251.088 88.9875C251.791 90.9562 252.831 92.7562 254.181 94.3594L255.981 96.4687L253 101.644C254.603 102.881 256.375 103.894 258.259 104.681L261.241 99.5344L263.969 100.041C266.022 100.434 268.131 100.434 270.184 100.041L272.913 99.5344ZM275.5 83.1656C275.5 78.1875 271.478 74.1656 266.5 74.1656C261.522 74.1656 257.5 78.1875 257.5 83.1656C257.5 88.1437 261.522 92.1656 266.5 92.1656C271.478 92.1656 275.5 88.1156 275.5 83.1656Z" fill="#00A0D2"/>
<path d="M159.457 179.912V171.167C155.777 169.645 152.296 167.68 149.071 165.328L141.225 169.728C138.429 171.277 134.919 170.752 132.751 168.455C125.846 161.177 121.765 154.756 118.313 144.074C117.343 141.113 118.627 137.903 121.394 136.326L129.184 131.925C128.699 128.051 128.699 124.149 129.184 120.275L121.394 115.902C118.627 114.353 117.343 111.115 118.313 108.154C121.765 97.5271 125.789 91.1068 132.751 83.7733C134.919 81.4764 138.457 80.9506 141.225 82.5003L149.043 86.9004C152.267 84.5482 155.748 82.611 159.429 81.0613V72.3164C159.429 69.1893 161.654 66.5049 164.793 65.8408C174.694 63.6822 182.483 63.4332 193.811 65.8408C196.949 66.5049 199.203 69.217 199.203 72.3164V81.0613C202.884 82.5833 206.365 84.5482 209.589 86.8727L217.407 82.5003C220.204 80.9506 223.742 81.4764 225.91 83.7733C233.585 91.9647 237.751 99.2429 240.776 108.264C241.746 111.17 240.547 114.325 237.865 115.93L230.732 120.303C231.217 124.177 231.217 128.079 230.732 131.953L238.75 136.796C241.204 138.29 242.459 141.113 241.831 143.853C239.863 152.515 232.416 161.73 225.882 168.538C223.713 170.807 220.204 171.305 217.436 169.755L209.589 165.355C206.365 167.707 202.884 169.645 199.203 171.194V179.939C199.203 183.039 196.978 185.751 193.839 186.415C183.139 188.712 175.321 188.684 164.764 186.415C161.683 185.723 159.457 183.011 159.457 179.912ZM168.588 178.196C175.664 179.579 182.997 179.579 190.073 178.196V164.995L193.126 163.944C197.919 162.311 202.342 159.821 206.222 156.61L208.676 154.563L220.489 161.177C225.282 155.891 230.19 149.747 232.501 143.133L220.689 136.519L221.288 133.448C222.201 128.577 222.201 123.623 221.288 118.753L220.689 115.681L232.501 109.067C230.19 102.453 225.282 96.2818 220.489 91.0238L208.676 97.6378L206.222 95.59C202.342 92.3521 197.948 89.8892 193.126 88.2564L190.073 87.2048V74.0322C182.997 72.6485 175.664 72.6485 168.588 74.0322V87.2325L165.535 88.2841C160.741 89.9169 156.319 92.4075 152.438 95.6176L149.984 97.6655L138.172 91.0515C133.394 96.3189 129.739 102.451 127.415 109.095L139.227 115.709L138.628 118.78C137.715 123.651 137.715 128.605 138.628 133.475L139.227 136.547L127.415 143.161C129.726 149.775 133.378 155.946 138.172 161.204L149.984 154.59L152.438 156.638C156.319 159.876 160.713 162.339 165.535 163.972L168.588 165.023V178.196ZM179.544 149.055C166.505 149.055 155.891 138.761 155.891 126.114C155.891 113.467 166.505 103.173 179.544 103.173C192.584 103.173 203.198 113.467 203.198 126.114C203.198 138.761 192.584 149.055 179.544 149.055ZM179.544 112.028C171.555 112.028 165.021 118.338 165.021 126.114C165.021 133.89 171.527 140.2 179.544 140.2C187.534 140.2 194.068 133.89 194.068 126.114C194.068 118.338 187.562 112.028 179.544 112.028Z" fill="#0073AA"/>
<defs>
<radialGradient id="paint0_radial_0_1" cx="0" cy="0" r="1" gradientUnits="userSpaceOnUse" gradientTransform="translate(208 222) scale(100 6)">
<stop stop-color="#DDDDDD"/>
<stop offset="1" stop-color="white"/>
</radialGradient>
</defs>
</svg>