<svg width="18" height="19" viewBox="0 0 18 19" fill="none" xmlns="http://www.w3.org/2000/svg">
<path fill-rule="evenodd" clip-rule="evenodd" d="M14.4173 10H16.0423C16.9398 10 17.6673 10.7275 17.6673 11.625C17.6673 12.5225 16.9398 13.25 16.0423 13.25H1.95898C1.06152 13.25 0.333984 12.5225 0.333984 11.625C0.333984 10.7275 1.06152 10 1.95898 10H3.58398L4.18878 4.55683C4.46121 2.10495 6.53368 0.25 9.00065 0.25C11.4676 0.25 13.5401 2.10495 13.8125 4.55683L14.4173 10Z" fill="#A1A5B7"/>
<path opacity="0.3" d="M11.1673 16.5C11.1673 15.3034 10.1973 14.3333 9.00065 14.3333C7.80403 14.3333 6.83398 15.3034 6.83398 16.5C6.83398 17.6966 7.80403 18.6667 9.00065 18.6667C10.1973 18.6667 11.1673 17.6966 11.1673 16.5Z" fill="#A1A5B7"/>
</svg>
