<svg width="311" height="208" viewBox="0 0 311 208" fill="none" xmlns="http://www.w3.org/2000/svg">
<path d="M64.9052 39.9185H0V58.5077H64.9052V39.9185Z" fill="#E2EAFF"/>
<path d="M120.416 24.0426C120.246 24.0426 120.08 24.0562 119.916 24.0755C119.505 22.4207 118.853 20.8622 117.995 19.4395C118.125 19.3376 118.252 19.2289 118.372 19.109C119.982 17.4995 119.982 14.8895 118.372 13.2789C116.761 11.6694 114.151 11.6694 112.541 13.2789C112.421 13.3989 112.312 13.5256 112.21 13.6558C110.787 12.799 109.229 12.1459 107.573 11.7362C107.593 11.5721 107.606 11.4057 107.606 11.2359C107.606 8.95979 105.76 7.11377 103.482 7.11377C101.205 7.11377 99.3592 8.95979 99.3592 11.2359C99.3592 11.4057 99.3728 11.5721 99.392 11.7362C97.7373 12.147 96.1776 12.799 94.7549 13.6558C94.653 13.5256 94.5444 13.3989 94.4244 13.2789C92.8138 11.6694 90.2038 11.6694 88.5932 13.2789C86.9826 14.8884 86.9826 17.4984 88.5932 19.109C88.7131 19.2289 88.8399 19.3365 88.9701 19.4395C88.1133 20.8622 87.4602 22.4207 87.0493 24.0755C86.8852 24.0551 86.7188 24.0426 86.5491 24.0426C84.2718 24.0426 82.4258 25.8887 82.4258 28.1648C82.4258 30.4409 84.2718 32.2869 86.5491 32.2869C86.7188 32.2869 86.8852 32.2734 87.0493 32.2541C87.4602 33.9089 88.1121 35.4674 88.9701 36.8901C88.8399 36.992 88.7131 37.1006 88.5932 37.2206C86.9826 38.8301 86.9826 41.4401 88.5932 43.0507C90.2038 44.6602 92.8138 44.6602 94.4244 43.0507C94.5444 42.9307 94.653 42.804 94.7549 42.6738C96.1776 43.5306 97.7361 44.1837 99.392 44.5934C99.3716 44.7575 99.3592 44.9239 99.3592 45.0937C99.3592 47.3698 101.205 49.2158 103.482 49.2158C105.76 49.2158 107.606 47.3698 107.606 45.0937C107.606 44.9239 107.592 44.7575 107.573 44.5934C109.228 44.1825 110.787 43.5306 112.21 42.6738C112.312 42.804 112.421 42.9307 112.541 43.0507C114.151 44.6602 116.761 44.6602 118.372 43.0507C119.982 41.4412 119.982 38.8312 118.372 37.2206C118.252 37.1006 118.125 36.9931 117.995 36.8901C118.853 35.4674 119.505 33.9089 119.916 32.2541C120.08 32.2745 120.246 32.2869 120.416 32.2869C122.693 32.2869 124.539 30.4409 124.539 28.1648C124.539 25.8887 122.693 24.0426 120.416 24.0426ZM103.485 35.8205C99.2562 35.8205 95.8279 32.3933 95.8279 28.1648C95.8279 23.9363 99.2562 20.5091 103.485 20.5091C107.713 20.5091 111.142 23.9363 111.142 28.1648C111.142 32.3933 107.713 35.8205 103.485 35.8205Z" fill="white"/>
<path d="M103.484 49.4621C101.073 49.4621 99.112 47.5006 99.112 45.0909C99.112 44.9924 99.1165 44.8883 99.1244 44.7796C97.6111 44.3835 96.1635 43.7848 94.8144 42.9947C94.7431 43.0785 94.6729 43.1543 94.6027 43.2245C92.8982 44.929 90.124 44.929 88.4195 43.2245C87.5933 42.3994 87.1394 41.3015 87.1394 40.1335C87.1394 38.9654 87.5944 37.8687 88.4195 37.0424C88.4897 36.9722 88.5655 36.9021 88.6493 36.8308C87.8592 35.4839 87.2605 34.0363 86.8644 32.5219C86.7546 32.5309 86.6516 32.5343 86.552 32.5343C84.1412 32.5343 82.1797 30.5728 82.1797 28.1632C82.1797 25.7535 84.1412 23.792 86.552 23.792C86.6527 23.792 86.7546 23.7965 86.8644 23.8045C87.2605 22.2912 87.8604 20.8436 88.6493 19.4956C88.5655 19.4242 88.4897 19.3541 88.4195 19.285C87.5933 18.4588 87.1383 17.3609 87.1383 16.194C87.1383 15.0271 87.5933 13.9292 88.4184 13.1029C90.1229 11.3984 92.897 11.3984 94.6016 13.1029C94.6718 13.1731 94.7419 13.2489 94.8132 13.3327C96.1613 12.5438 97.6089 11.9439 99.1233 11.5478C99.1142 11.438 99.1108 11.335 99.1108 11.2354C99.1108 8.8246 101.072 6.86426 103.483 6.86426C105.894 6.86426 107.855 8.8246 107.855 11.2354C107.855 11.3339 107.851 11.438 107.843 11.5478C109.357 11.9439 110.805 12.5427 112.153 13.3327C112.224 13.2489 112.294 13.1731 112.365 13.1029C114.069 11.3984 116.843 11.3984 118.548 13.1029C119.374 13.928 119.828 15.0259 119.828 16.194C119.828 17.362 119.373 18.4588 118.548 19.285C118.477 19.3563 118.402 19.4254 118.318 19.4967C119.108 20.8447 119.708 22.2923 120.103 23.8056C120.213 23.7965 120.315 23.7931 120.415 23.7931C122.826 23.7931 124.788 25.7546 124.788 28.1643C124.788 30.574 122.826 32.5354 120.415 32.5354C120.317 32.5354 120.213 32.5309 120.103 32.523C119.707 34.0363 119.107 35.4839 118.318 36.8319C118.402 36.9032 118.478 36.9734 118.548 37.0435C119.374 37.8687 119.828 38.9665 119.828 40.1346C119.828 41.3026 119.373 42.3994 118.548 43.2256C116.843 44.9302 114.069 44.9302 112.365 43.2256C112.294 43.1555 112.224 43.0796 112.153 42.9959C110.805 43.7848 109.357 44.3846 107.843 44.7808C107.852 44.8906 107.855 44.9936 107.855 45.092C107.855 47.5028 105.894 49.4632 103.483 49.4632L103.484 49.4621ZM94.7578 42.422C94.8019 42.422 94.8461 42.4333 94.8857 42.4583C96.3061 43.3139 97.842 43.95 99.4538 44.3495C99.576 44.3801 99.6564 44.4967 99.6405 44.6212C99.619 44.7955 99.6088 44.9494 99.6088 45.0909C99.6088 47.2267 101.347 48.964 103.483 48.964C105.619 48.964 107.357 47.2267 107.357 45.0909C107.357 44.9494 107.347 44.7955 107.326 44.6212C107.311 44.4967 107.391 44.3801 107.512 44.3495C109.124 43.95 110.661 43.3128 112.081 42.4583C112.189 42.3926 112.327 42.4198 112.405 42.5182C112.514 42.6563 112.615 42.7729 112.715 42.8725C114.227 44.3824 116.684 44.3824 118.195 42.8725C118.926 42.1413 119.329 41.168 119.329 40.1335C119.329 39.099 118.926 38.1267 118.195 37.3944C118.093 37.2937 117.981 37.1941 117.839 37.0843C117.74 37.0062 117.715 36.867 117.779 36.7595C118.635 35.3401 119.272 33.8031 119.672 32.1925C119.702 32.0703 119.821 31.9899 119.943 32.0057C120.118 32.0272 120.272 32.0374 120.414 32.0374C122.55 32.0374 124.289 30.3001 124.289 28.1643C124.289 26.0285 122.55 24.2911 120.414 24.2911C120.272 24.2911 120.122 24.3013 119.943 24.3228C119.818 24.3387 119.702 24.2572 119.672 24.1361C119.272 22.5255 118.636 20.9896 117.779 19.5691C117.715 19.4616 117.74 19.3224 117.839 19.2443C117.981 19.1334 118.093 19.0349 118.195 18.9342C118.926 18.203 119.329 17.2296 119.329 16.1951C119.329 15.1606 118.926 14.1884 118.195 13.4561C116.684 11.9462 114.227 11.9462 112.715 13.4561C112.615 13.5568 112.513 13.6734 112.405 13.8115C112.327 13.9099 112.189 13.9371 112.081 13.8715C110.661 13.0158 109.124 12.3797 107.512 11.9802C107.39 11.9496 107.31 11.833 107.326 11.7085C107.347 11.532 107.357 11.3825 107.357 11.2388C107.357 9.10303 105.619 7.36566 103.483 7.36566C101.347 7.36566 99.6088 9.10303 99.6088 11.2388C99.6088 11.3825 99.619 11.532 99.6405 11.7085C99.6552 11.833 99.5749 11.9496 99.4538 11.9802C97.842 12.3797 96.305 13.0158 94.8857 13.8715C94.7782 13.9371 94.6389 13.9099 94.5608 13.8115C94.4533 13.6734 94.3515 13.5579 94.2507 13.4572C92.7409 11.9473 90.2825 11.9473 88.7715 13.4572C88.0403 14.1884 87.6374 15.1618 87.6374 16.1962C87.6374 17.2307 88.0403 18.203 88.7715 18.9353C88.8722 19.036 88.9877 19.1368 89.1269 19.2454C89.2265 19.3235 89.2514 19.4627 89.1869 19.5703C88.3312 20.9896 87.694 22.5266 87.2945 24.1372C87.2639 24.2594 87.1496 24.3398 87.0228 24.324C86.8451 24.3025 86.6957 24.2923 86.552 24.2923C84.4162 24.2923 82.6777 26.0296 82.6777 28.1654C82.6777 30.3012 84.4151 32.0386 86.552 32.0386C86.6957 32.0386 86.8451 32.0284 87.0228 32.0069C87.1462 31.9922 87.2639 32.0725 87.2945 32.1936C87.694 33.8054 88.3312 35.3424 89.1869 36.7606C89.2514 36.8681 89.2265 37.0073 89.1269 37.0854C88.9888 37.1929 88.8734 37.2948 88.7715 37.3955C88.0403 38.1267 87.6374 39.099 87.6374 40.1346C87.6374 41.1702 88.0403 42.1413 88.7715 42.8736C90.2825 44.3835 92.7397 44.3835 94.2507 42.8736C94.3515 42.7729 94.4533 42.6575 94.5608 42.5194C94.6095 42.4571 94.6831 42.4243 94.7567 42.4243L94.7578 42.422ZM103.484 36.0679C99.1244 36.0679 95.5784 32.5219 95.5784 28.1632C95.5784 23.8045 99.1255 20.2584 103.484 20.2584C107.843 20.2584 111.39 23.8045 111.39 28.1632C111.39 32.5219 107.843 36.0679 103.484 36.0679ZM103.484 20.7575C99.3994 20.7575 96.0764 24.0795 96.0764 28.1632C96.0764 32.2468 99.3994 35.5688 103.484 35.5688C107.569 35.5688 110.892 32.2468 110.892 28.1632C110.892 24.0795 107.569 20.7575 103.484 20.7575Z" fill="black"/>
<path d="M67.985 17.8162C66.2409 17.6317 64.6767 18.8971 64.4922 20.6424C64.4786 20.7726 64.4752 20.9016 64.4775 21.0284C63.1759 21.2094 61.9286 21.583 60.7696 22.1251C60.7017 22.0164 60.6292 21.9112 60.5477 21.8093C59.4442 20.4443 57.4442 20.2338 56.0804 21.3373C54.7165 22.4409 54.5049 24.442 55.6084 25.8058C55.691 25.9077 55.7793 26.0005 55.871 26.0899C55.0991 27.1108 54.4732 28.2529 54.0238 29.4877C53.8993 29.4594 53.7737 29.4356 53.6435 29.4221C51.8994 29.2376 50.3352 30.503 50.1507 32.2483C49.9662 33.9935 51.2305 35.5577 52.9758 35.7422C53.1059 35.7558 53.2338 35.7592 53.3617 35.7569C53.5417 37.0586 53.9163 38.307 54.4573 39.466C54.3498 39.5339 54.2434 39.6063 54.1415 39.6889C52.7777 40.7925 52.566 42.7936 53.6696 44.1574C54.7731 45.5224 56.7731 45.7329 58.1369 44.6294C58.2388 44.5468 58.3316 44.4585 58.4199 44.3668C59.4408 45.1387 60.5817 45.7658 61.8165 46.214C61.7882 46.3385 61.7645 46.4641 61.7509 46.5943C61.5664 48.3396 62.8307 49.9038 64.5759 50.0883C66.3201 50.2727 67.8843 49.0073 68.0688 47.2621C68.0824 47.1319 68.0858 47.0029 68.0835 46.8761C69.3851 46.695 70.6324 46.3215 71.7914 45.7794C71.8593 45.888 71.9318 45.9933 72.0132 46.0951C73.1168 47.4601 75.1167 47.6706 76.4806 46.5671C77.8445 45.4636 78.0561 43.4625 76.9526 42.0986C76.87 41.9968 76.7817 41.9039 76.69 41.8145C77.4619 40.7936 78.0878 39.6516 78.5371 38.4168C78.6617 38.4451 78.7873 38.4688 78.9174 38.4824C80.6616 38.6669 82.2258 37.4015 82.4103 35.6562C82.5948 33.9109 81.3305 32.3467 79.5852 32.1622C79.4551 32.1486 79.3272 32.1453 79.1993 32.1475C79.0193 30.8459 78.6447 29.5975 78.1037 28.4385C78.2112 28.3706 78.3176 28.2981 78.4194 28.2155C79.7833 27.112 79.995 25.1109 78.8914 23.747C77.7879 22.382 75.7879 22.1715 74.4241 23.2751C74.3222 23.3577 74.2294 23.446 74.1411 23.5376C73.1202 22.7657 71.9793 22.1387 70.7445 21.6905C70.7727 21.566 70.7965 21.4403 70.8101 21.3102C70.9946 19.5649 69.7303 18.0007 67.985 17.8162ZM66.8996 28.0842C70.1401 28.4272 72.4886 31.3315 72.1457 34.573C71.8027 37.8135 68.8984 40.1643 65.6591 39.8214C62.4187 39.4784 60.0701 36.5741 60.4131 33.3325C60.756 30.0921 63.6603 27.7413 66.8996 28.0842Z" fill="white"/>
<path d="M64.9118 50.3554C64.7919 50.3554 64.6708 50.3486 64.5497 50.3362C62.6719 50.137 61.3047 48.4471 61.5039 46.5683C61.5107 46.5049 61.5197 46.4404 61.531 46.3725C60.4298 45.9514 59.3919 45.3878 58.4423 44.6928C58.3925 44.7392 58.3427 44.7822 58.2929 44.8219C57.5809 45.3968 56.6891 45.6605 55.7779 45.5655C54.8679 45.4693 54.0496 45.0245 53.4746 44.3125C52.2873 42.8434 52.516 40.6816 53.984 39.4932C54.0326 39.4536 54.0847 39.4139 54.1413 39.3743C53.6603 38.3002 53.3252 37.1672 53.1453 36.0015C53.0762 35.9992 53.0117 35.9935 52.9483 35.9879C52.0383 35.8917 51.22 35.4469 50.645 34.7349C50.0701 34.023 49.8052 33.13 49.9026 32.22C49.9988 31.31 50.4436 30.4917 51.1544 29.9156C51.8663 29.3395 52.7582 29.0757 53.6693 29.172C53.7316 29.1787 53.7972 29.1878 53.8651 29.1991C54.2862 28.0978 54.8498 27.0599 55.5448 26.1092C55.4984 26.0583 55.4553 26.0096 55.4157 25.9598C54.2284 24.4907 54.4559 22.3289 55.9251 21.1404C56.637 20.5643 57.53 20.3018 58.44 20.3968C59.35 20.493 60.1683 20.9378 60.7433 21.6498C60.7829 21.6984 60.8225 21.7516 60.8621 21.8071C61.9362 21.3261 63.0681 20.991 64.2339 20.8099C64.2361 20.7409 64.2407 20.6764 64.2475 20.613C64.4467 18.7342 66.1376 17.3669 68.0142 17.565C69.8919 17.763 71.2592 19.454 71.06 21.3329C71.0532 21.3962 71.0441 21.4608 71.0328 21.5287C72.1341 21.9486 73.1708 22.5134 74.1216 23.2083C74.1714 23.1619 74.2212 23.1189 74.271 23.0793C74.9829 22.5032 75.8737 22.2395 76.7859 22.3357C77.6959 22.4319 78.5142 22.8767 79.0892 23.5886C80.2765 25.0577 80.0479 27.2195 78.5799 28.408C78.5312 28.4476 78.4792 28.4872 78.4226 28.5268C78.9036 29.602 79.2386 30.7339 79.4186 31.8997C79.4876 31.9019 79.5521 31.9076 79.6155 31.9133C80.5255 32.0095 81.3438 32.4543 81.9188 33.1662C82.4938 33.8781 82.7586 34.7711 82.6613 35.6811C82.5651 36.5911 82.1203 37.4095 81.4095 37.9856C80.6976 38.5605 79.8045 38.8243 78.8946 38.7292C78.8312 38.7224 78.7666 38.7133 78.6987 38.702C78.2788 39.8033 77.7152 40.8412 77.0191 41.7919C77.0655 41.8417 77.1085 41.8915 77.1481 41.9413C78.3365 43.4105 78.1079 45.5723 76.6388 46.7607C75.9269 47.3368 75.0339 47.6005 74.1239 47.5043C73.2139 47.4081 72.3955 46.9633 71.8206 46.2514C71.781 46.2016 71.7413 46.1495 71.7017 46.094C70.6265 46.5751 69.4946 46.9101 68.33 47.0912C68.3277 47.1602 68.3232 47.2247 68.3164 47.2881C68.1308 49.0459 66.6402 50.3554 64.9118 50.3554ZM58.4196 44.1179C58.4728 44.1179 58.5249 44.1348 58.5702 44.1688C59.5832 44.9362 60.7048 45.5451 61.9023 45.9809C62.02 46.0239 62.0879 46.1484 62.0596 46.2706C62.0302 46.3996 62.0098 46.514 61.9985 46.6215C61.8287 48.2276 62.9968 49.6718 64.6017 49.8415C66.2044 50.0136 67.6509 48.8433 67.8207 47.2372C67.832 47.1297 67.8365 47.0165 67.8342 46.8807C67.832 46.755 67.9248 46.6475 68.0493 46.6305C69.3102 46.4551 70.5337 46.094 71.6859 45.5553C71.8013 45.5021 71.936 45.5428 72.0028 45.6492C72.073 45.7624 72.1397 45.8575 72.2077 45.9401C72.7 46.5479 73.3984 46.9282 74.1759 47.0108C74.9546 47.0935 75.7164 46.8671 76.3253 46.3759C77.5805 45.3606 77.7752 43.5123 76.761 42.2571C76.6931 42.1734 76.6139 42.0885 76.5188 41.9957C76.4283 41.9085 76.4181 41.767 76.4939 41.6663C77.2613 40.6522 77.8702 39.5305 78.3049 38.333C78.3479 38.2142 78.4746 38.1474 78.5946 38.1757C78.7248 38.2051 78.8391 38.2255 78.9466 38.2368C79.7242 38.3195 80.487 38.0931 81.0948 37.6019C81.7026 37.1095 82.0829 36.4112 82.1656 35.6325C82.2482 34.8549 82.0218 34.0909 81.5306 33.4831C81.0382 32.8753 80.3399 32.495 79.5623 32.4124C79.4559 32.4011 79.3405 32.3966 79.2069 32.3988C79.0722 32.4011 78.9738 32.3083 78.9568 32.1838C78.7814 30.9218 78.4203 29.6983 77.8816 28.546C77.8284 28.4317 77.868 28.2959 77.9755 28.2291C78.0898 28.1567 78.1826 28.0922 78.2664 28.0243C79.5216 27.009 79.7174 25.1607 78.7021 23.9055C78.2098 23.2977 77.5114 22.9174 76.7339 22.8348C75.9574 22.7522 75.1934 22.9785 74.5856 23.4698C74.5019 23.5377 74.417 23.6169 74.3242 23.712C74.2359 23.8025 74.0956 23.8127 73.9948 23.7369C72.9807 22.9695 71.8602 22.3594 70.6627 21.9248C70.545 21.8818 70.4771 21.7573 70.5054 21.6351C70.5359 21.5026 70.5552 21.3906 70.5665 21.2831C70.7363 19.677 69.5682 18.2328 67.9633 18.063C66.3617 17.8921 64.9141 19.0613 64.7443 20.6673C64.733 20.7749 64.7285 20.888 64.7307 21.0239C64.733 21.1495 64.6402 21.257 64.5157 21.274C63.2537 21.4494 62.0302 21.8105 60.8791 22.3492C60.7637 22.4024 60.629 22.3617 60.5622 22.2553C60.4909 22.141 60.4252 22.0482 60.3573 21.9644C59.8661 21.3566 59.1666 20.9763 58.3891 20.8937C57.6104 20.8099 56.8486 21.0374 56.2397 21.5287C54.9845 22.5439 54.7898 24.3922 55.804 25.6474C55.8719 25.7312 55.9488 25.8149 56.0462 25.9089C56.1367 25.996 56.1469 26.1375 56.0711 26.2382C55.3037 27.2524 54.6948 28.374 54.259 29.5715C54.216 29.6903 54.0892 29.7571 53.9692 29.7288C53.838 29.6983 53.7259 29.679 53.6184 29.6677C52.8431 29.5851 52.078 29.8103 51.4702 30.3027C50.8624 30.795 50.4821 31.4945 50.3994 32.2721C50.3168 33.0496 50.5432 33.8136 51.0344 34.4214C51.5267 35.0292 52.2251 35.4095 53.0027 35.4921C53.1102 35.5034 53.2245 35.508 53.3581 35.5057H53.3615C53.486 35.5057 53.5912 35.5974 53.6082 35.7208C53.7836 36.9828 54.1447 38.2063 54.6834 39.3585C54.7366 39.4728 54.697 39.6086 54.5895 39.6754C54.4763 39.7467 54.3812 39.8135 54.2986 39.8803C53.0434 40.8955 52.8476 42.7438 53.8629 43.999C54.3541 44.6068 55.0535 44.9871 55.8311 45.0697C56.6087 45.1535 57.3715 44.926 57.9793 44.4348C58.0631 44.3669 58.148 44.2876 58.2408 44.1926C58.2895 44.1428 58.354 44.1167 58.4196 44.1167V44.1179ZM66.2859 40.1032C66.0708 40.1032 65.8535 40.0919 65.6351 40.0693C64.0018 39.8961 62.5339 39.0982 61.5016 37.8203C60.4694 36.5436 59.9951 34.9398 60.1683 33.3066C60.3404 31.6733 61.1394 30.2042 62.4161 29.1708C63.6929 28.1375 65.2944 27.6643 66.9288 27.8364C70.3005 28.1929 72.7532 31.2262 72.3967 34.5991C72.0628 37.7524 69.3894 40.1032 66.287 40.1032H66.2859ZM66.2712 28.3004C64.9831 28.3004 63.7438 28.7373 62.7285 29.559C61.5548 30.5087 60.8214 31.8578 60.6629 33.3597C60.5045 34.8617 60.9391 36.3342 61.8887 37.5079C62.8383 38.6816 64.1875 39.4151 65.6883 39.5735C68.7816 39.9018 71.5727 37.646 71.9009 34.547C72.228 31.4481 69.9745 28.6592 66.8756 28.3321C66.673 28.3106 66.4715 28.3004 66.2712 28.3004Z" fill="black"/>
<path d="M96.2665 141.166C93.2728 141.166 91.3283 138.736 91.9236 135.738L117.748 5.67731C118.343 2.67908 121.252 0.249023 124.245 0.249023H305.758C308.752 0.249023 310.696 2.67908 310.101 5.67731L284.423 135.008C283.747 138.409 280.448 141.166 277.051 141.166H96.2665Z" fill="white"/>
<path d="M277.05 141.415H96.2662C94.7632 141.415 93.4581 140.832 92.5889 139.774C91.6947 138.685 91.3722 137.235 91.68 135.689L117.503 5.62862C118.119 2.52513 121.144 0 124.245 0H305.758C307.261 0 308.566 0.582896 309.435 1.64116C310.329 2.72999 310.652 4.17987 310.344 5.72596L284.666 135.056C283.97 138.563 280.554 141.415 277.05 141.415ZM124.245 0.498008C121.369 0.498008 118.563 2.84317 117.992 5.72596L92.169 135.786C91.8917 137.183 92.178 138.487 92.9749 139.458C93.7468 140.399 94.9159 140.917 96.2674 140.917H277.051C280.329 140.917 283.526 138.245 284.178 134.96L309.856 5.62862C310.133 4.23194 309.847 2.92806 309.05 1.95695C308.278 1.01639 307.109 0.498008 305.758 0.498008H124.245Z" fill="black"/>
<path d="M268.61 159.355H47.7763C39.669 159.355 34.4026 152.783 36.012 144.676H286.203C284.594 152.783 276.717 159.355 268.61 159.355Z" fill="white"/>
<path d="M268.611 159.604H47.7775C43.8342 159.604 40.4115 158.08 38.1411 155.314C35.8072 152.472 34.9652 148.677 35.7699 144.627C35.7925 144.511 35.8955 144.427 36.0144 144.427H286.206C286.28 144.427 286.351 144.461 286.398 144.517C286.446 144.575 286.465 144.651 286.45 144.723C284.821 152.928 276.819 159.602 268.612 159.602L268.611 159.604ZM36.2181 144.925C35.5107 148.749 36.3256 152.319 38.5248 154.998C40.7002 157.647 43.9848 159.106 47.7764 159.106H268.61C276.492 159.106 284.18 152.772 285.897 144.925H36.2181Z" fill="black"/>
<path d="M146.812 28.165H137.859C134.677 28.165 131.576 30.7683 130.966 33.9499L129.25 42.9038C128.64 46.0854 130.745 48.6886 133.927 48.6886H142.88C146.062 48.6886 149.163 46.0854 149.773 42.9038L151.489 33.9499C152.099 30.7683 149.994 28.165 146.812 28.165Z" fill="#E2EAFF"/>
<path d="M141.488 55.9648H132.534C129.352 55.9648 126.251 58.5681 125.641 61.7497L123.925 70.7036C123.316 73.8852 125.42 76.4884 128.602 76.4884H137.556C140.738 76.4884 143.839 73.8852 144.449 70.7036L146.165 61.7497C146.775 58.5681 144.67 55.9648 141.488 55.9648Z" fill="#E2EAFF"/>
<path d="M136.059 84.3027H127.105C123.923 84.3027 120.822 86.906 120.212 90.0875L118.496 99.0415C117.886 102.223 119.991 104.826 123.173 104.826H132.127C135.308 104.826 138.409 102.223 139.019 99.0415L140.735 90.0875C141.345 86.906 139.24 84.3027 136.059 84.3027Z" fill="#E2EAFF"/>
<path d="M130.789 111.803H121.835C118.653 111.803 115.552 114.406 114.942 117.588L113.226 126.542C112.616 129.723 114.721 132.326 117.903 132.326H126.857C130.039 132.326 133.14 129.723 133.75 126.542L135.466 117.588C136.076 114.406 133.971 111.803 130.789 111.803Z" fill="#E2EAFF"/>
<path d="M280.896 30.604L279.746 36.6073H159.613L160.763 30.604H280.896Z" fill="#E2EAFF"/>
<path d="M243.891 40.2446L242.74 46.2479H157.762L158.913 40.2446H243.891Z" fill="#E2EAFF"/>
<path d="M275.567 58.4038L274.417 64.4071H154.285L155.435 58.4038H275.567Z" fill="#E2EAFF"/>
<path d="M238.566 68.0449L237.416 74.0493H152.438L153.587 68.0449H238.566Z" fill="#E2EAFF"/>
<path d="M270.139 86.7407L268.989 92.7451H148.855L150.007 86.7407H270.139Z" fill="#E2EAFF"/>
<path d="M208.227 96.3828L207.077 102.386H147.012L148.162 96.3828H208.227Z" fill="#E2EAFF"/>
<path d="M264.872 114.242L263.722 120.245H143.59L144.74 114.242H264.872Z" fill="#E2EAFF"/>
<path d="M227.87 123.883L226.72 129.886H141.742L142.892 123.883H227.87Z" fill="#E2EAFF"/>
<path d="M256.768 22.7904H170.425C168.725 22.7904 167.693 21.4118 168.12 19.7118L169.231 15.2886C169.658 13.5885 171.383 12.21 173.083 12.21H259.426C261.126 12.21 262.158 13.5885 261.732 15.2886L260.62 19.7118C260.193 21.4118 258.469 22.7904 256.768 22.7904Z" fill="#4776E6"/>
<path d="M300.642 147.368C298.388 147.368 296.555 145.535 296.555 143.28C296.555 141.025 298.388 139.192 300.642 139.192C302.895 139.192 304.73 141.025 304.73 143.28C304.73 145.535 302.896 147.368 300.642 147.368ZM300.642 139.691C298.662 139.691 297.053 141.302 297.053 143.28C297.053 145.259 298.663 146.869 300.642 146.869C302.62 146.869 304.232 145.259 304.232 143.28C304.232 141.302 302.621 139.691 300.642 139.691Z" fill="black"/>
<path d="M300.642 158.571C298.388 158.571 296.555 156.738 296.555 154.483C296.555 152.229 298.388 150.395 300.642 150.395C302.895 150.395 304.73 152.229 304.73 154.483C304.73 156.738 302.896 158.571 300.642 158.571ZM300.642 150.894C298.662 150.894 297.053 152.505 297.053 154.483C297.053 156.462 298.663 158.072 300.642 158.072C302.62 158.072 304.232 156.462 304.232 154.483C304.232 152.505 302.621 150.894 300.642 150.894Z" fill="black"/>
<path d="M302.112 169.232C304.071 168.421 305.001 166.176 304.189 164.217C303.378 162.259 301.133 161.329 299.175 162.14C297.216 162.951 296.286 165.196 297.098 167.155C297.909 169.113 300.154 170.043 302.112 169.232Z" fill="#4776E6"/>
<path d="M300.64 135.532C300.502 135.532 300.391 135.419 300.391 135.283V106.518C300.391 106.38 300.502 106.269 300.64 106.269C300.778 106.269 300.889 106.381 300.889 106.518V135.283C300.889 135.421 300.778 135.532 300.64 135.532Z" fill="black"/>
<path d="M301.085 207.109H68.4678C68.3297 207.109 68.2188 206.997 68.2188 206.86C68.2188 206.723 68.3297 206.611 68.4678 206.611H300.836V172.163C300.836 172.024 300.947 171.914 301.085 171.914C301.223 171.914 301.334 172.026 301.334 172.163V206.86C301.334 206.998 301.223 207.109 301.085 207.109Z" fill="black"/>
<path d="M80.8953 80.5845C80.8953 80.5845 83.0707 98.9451 75.8767 99.1726C70.3228 99.3481 64.4259 95.5077 64.3297 95.0788C64.2335 94.6509 63.8555 83.3099 63.8555 83.3099L80.8941 80.5845H80.8953Z" fill="white"/>
<path d="M75.5063 99.4273C70.0089 99.4273 64.2332 95.7738 64.0894 95.1332C63.991 94.694 63.648 84.4814 63.6095 83.3179C63.605 83.1923 63.6956 83.0836 63.8189 83.0633L80.8576 80.3378C80.9244 80.3265 80.9923 80.3446 81.0466 80.3853C81.1009 80.4261 81.136 80.4872 81.1439 80.5551C81.2062 81.0848 82.638 93.5803 78.8871 97.9378C78.0721 98.8852 77.0625 99.3843 75.8866 99.4206C75.7598 99.4251 75.6319 99.4262 75.5051 99.4262L75.5063 99.4273ZM64.5716 94.9996C65.013 95.5836 70.4345 98.9293 75.5153 98.9293C75.6342 98.9293 75.7519 98.9271 75.8707 98.9237C76.9007 98.8909 77.7892 98.4506 78.509 97.613C81.831 93.7534 80.8633 82.7045 80.6765 80.872L64.1132 83.5205C64.2615 87.946 64.4969 94.4144 64.5705 94.9985L64.5716 94.9996Z" fill="black"/>
<path d="M74.4876 94.5805L70.3688 107.555L56.668 104.482L64.0623 85.4229L74.4876 94.5805Z" fill="white"/>
<path d="M70.3676 107.804C70.3495 107.804 70.3314 107.802 70.3133 107.798L56.6124 104.725C56.5411 104.71 56.4811 104.663 56.4471 104.6C56.4132 104.535 56.4087 104.461 56.4347 104.393L63.829 85.3347C63.8788 85.2068 64.0237 85.1423 64.1516 85.1921C64.2795 85.2419 64.344 85.3857 64.2942 85.5147L57.0051 104.303L70.2001 107.263L74.2498 94.506C74.2917 94.3747 74.4309 94.3023 74.5622 94.3442C74.6935 94.386 74.7659 94.5264 74.724 94.6565L70.6053 107.631C70.5725 107.736 70.474 107.804 70.3676 107.804Z" fill="black"/>
<path d="M74.2695 85.7683C74.2695 85.7683 76.5479 84.8844 75.4987 88.7779L74.2695 85.7683Z" fill="white"/>
<path d="M75.4988 89.0256C75.4773 89.0256 75.4558 89.0233 75.4332 89.0165C75.3008 88.9803 75.2215 88.8445 75.2578 88.7109C75.749 86.8887 75.4536 86.2854 75.2329 86.0873C74.9092 85.7976 74.3647 85.9968 74.3591 85.9991C74.2312 86.0489 74.0863 85.9855 74.0365 85.8564C73.9867 85.7285 74.0501 85.5837 74.1791 85.5339C74.2119 85.5203 75.0122 85.2192 75.5656 85.7161C76.1078 86.2039 76.1655 87.2543 75.7388 88.84C75.7094 88.9509 75.6086 89.0245 75.4988 89.0245V89.0256Z" fill="black"/>
<path d="M70.949 169.457L33.1694 175.428C28.8367 176.113 25.3609 172.658 25.8272 168.297C27.3733 153.805 31.6754 128.342 41.6005 112.12C51.2675 96.3193 81.7308 100.864 91.4748 115.668C95.7328 122.136 102.424 131.834 107.853 139.633C112.384 146.145 109.679 155.178 102.314 158.13C97.3524 160.119 91.674 158.687 88.2491 154.583L87.1535 153.27L89.6096 161.98L70.9512 169.459L70.949 169.457Z" fill="#4776E6"/>
<path d="M87.1536 153.518C87.0698 153.518 86.9872 153.475 86.9408 153.398L71.9112 128.662C71.8399 128.544 71.8772 128.391 71.9949 128.32C72.1126 128.249 72.2654 128.286 72.3367 128.404L87.3664 153.14C87.4377 153.258 87.4003 153.41 87.2826 153.482C87.2419 153.507 87.1977 153.518 87.1536 153.518Z" fill="black"/>
<path d="M32.8086 175.116L36.1543 184.122C43.5791 204.143 67.1089 212.835 85.7717 202.449L132.907 174.486C139.466 170.595 141.835 162.256 138.303 155.499C134.883 148.958 127.058 146.077 120.212 148.839L71.179 168.62L32.8086 175.116Z" fill="white"/>
<path d="M68.8318 207.1C64.7267 207.1 60.6079 206.379 56.6634 204.921C47.0474 201.368 39.4878 193.819 35.9237 184.209L32.578 175.203C32.5304 175.074 32.5961 174.93 32.7251 174.882C32.8541 174.835 32.9979 174.9 33.0454 175.029L36.3911 184.035C39.9043 193.509 47.3564 200.952 56.8366 204.454C66.3169 207.957 76.8215 207.148 85.6543 202.232L132.784 174.272C139.229 170.449 141.557 162.253 138.085 155.614C134.709 149.157 127.067 146.343 120.309 149.07L79.0365 165.72C78.9097 165.772 78.7637 165.71 78.7127 165.582C78.6618 165.454 78.7229 165.309 78.8508 165.258L120.123 148.608C127.119 145.785 135.032 148.698 138.528 155.383C142.123 162.258 139.711 170.742 133.039 174.701L85.9033 202.664C80.6154 205.607 74.7377 207.1 68.8341 207.1H68.8318Z" fill="black"/>
<path d="M88.8262 201.434C85.8789 193.262 101.115 190.461 109.179 182.588C117.987 173.988 128.42 176.663 131.455 184.078C134.306 191.045 128.247 198.385 118.661 202.317C108.488 206.49 92.0825 210.463 88.8262 201.434Z" fill="white"/>
<path d="M99.2333 207.126C96.8203 207.126 94.6381 206.789 92.869 206.005C90.7683 205.072 89.3298 203.563 88.5929 201.519C86.6609 196.162 92.139 193.092 98.4818 189.535C102.206 187.448 106.055 185.29 109.006 182.409C113.391 178.128 118.662 176.243 123.463 177.238C127.256 178.025 130.254 180.483 131.686 183.984C134.422 190.668 129.105 198.302 118.758 202.547C112.717 205.024 105.257 207.125 99.2333 207.125V207.126ZM120.9 177.477C116.969 177.477 112.875 179.328 109.353 182.767C106.356 185.694 102.302 187.965 98.7251 189.971C92.5793 193.416 87.2721 196.391 89.0604 201.351C89.7497 203.262 91.0988 204.675 93.0705 205.55C99.1122 208.231 110.202 205.519 118.567 202.087C128.644 197.954 133.848 190.587 131.225 184.174C129.856 180.829 126.991 178.48 123.361 177.727C122.553 177.559 121.73 177.477 120.9 177.477Z" fill="black"/>
<path d="M116.342 200.447C116.261 200.447 116.181 200.408 116.133 200.334L107.693 187.388C107.618 187.273 107.65 187.119 107.765 187.043C107.879 186.968 108.035 187 108.11 187.115L116.55 200.061C116.625 200.177 116.593 200.331 116.478 200.406C116.436 200.434 116.389 200.447 116.342 200.447Z" fill="black"/>
<path d="M121.666 197.786C121.585 197.786 121.505 197.747 121.458 197.674L112.498 184.092C112.422 183.978 112.454 183.823 112.57 183.747C112.685 183.671 112.839 183.703 112.915 183.817L121.874 197.399C121.95 197.513 121.919 197.668 121.803 197.744C121.761 197.773 121.714 197.785 121.666 197.785V197.786Z" fill="black"/>
<path d="M110.563 202.354C110.482 202.354 110.403 202.315 110.354 202.243L102.479 190.366C102.403 190.252 102.434 190.097 102.549 190.021C102.664 189.945 102.819 189.977 102.894 190.091L110.77 201.968C110.846 202.083 110.815 202.238 110.7 202.314C110.658 202.342 110.609 202.356 110.563 202.356V202.354Z" fill="black"/>
<path d="M104.638 204.338C104.557 204.338 104.478 204.299 104.43 204.226L97.1389 193.173C97.063 193.058 97.0947 192.903 97.2102 192.827C97.3256 192.752 97.4796 192.783 97.5554 192.899L104.847 203.952C104.923 204.066 104.891 204.222 104.775 204.297C104.734 204.326 104.685 204.338 104.638 204.338Z" fill="black"/>
<path d="M79.5941 159.287C80.7611 158.814 82.0649 159.179 82.8867 160.098C82.5867 158.686 83.2896 157.239 84.6218 156.701C85.9392 156.168 87.4321 156.697 88.2074 157.891C88.1486 156.651 88.9205 155.424 90.0059 154.995C92.1722 154.118 93.4988 156.096 94.0126 157.364C93.8824 156.066 94.5763 154.801 95.802 154.306C97.3051 153.697 99.0368 154.473 99.6707 156.039L100.915 159.108C101.548 160.673 100.844 162.436 99.3424 163.045C98.1936 163.51 96.9112 163.163 96.0873 162.276C96.4585 163.728 95.7568 165.246 94.3839 165.802C93.0664 166.335 91.5735 165.805 90.7982 164.611C90.857 165.852 90.1734 167.032 88.9997 167.507C87.7173 168.027 86.2708 167.536 85.4797 166.41C85.5725 167.678 84.8843 168.9 83.6846 169.385C82.1815 169.994 80.4498 169.218 79.816 167.652L78.022 163.223C77.3882 161.658 78.0922 159.896 79.5941 159.287Z" fill="white"/>
<path d="M82.6252 169.838C81.3439 169.838 80.1114 169.043 79.5851 167.743L77.7911 163.314C77.4606 162.497 77.4549 161.605 77.7753 160.802C78.0978 159.995 78.7102 159.375 79.5002 159.054C80.5166 158.642 81.6801 158.817 82.5686 159.472C82.5573 158.161 83.3122 156.96 84.5278 156.468C85.7253 155.984 87.0937 156.307 87.998 157.232C88.1802 156.138 88.9171 155.155 89.9142 154.761C91.6561 154.056 92.9951 155.031 93.81 156.393C94.0149 155.353 94.7075 154.477 95.7081 154.072C97.3357 153.412 99.2168 154.252 99.9015 155.942L101.145 159.011C101.476 159.828 101.482 160.72 101.161 161.524C100.839 162.331 100.226 162.951 99.4363 163.271C98.4313 163.679 97.313 163.528 96.4313 162.904C96.4879 164.252 95.7262 165.524 94.4778 166.029C93.2825 166.513 91.9164 166.189 91.011 165.269C90.8389 166.372 90.1225 167.318 89.0925 167.734C87.9278 168.206 86.6172 167.922 85.7106 167.055C85.568 168.197 84.8436 169.18 83.7774 169.612C83.4005 169.765 83.01 169.837 82.624 169.837L82.6252 169.838ZM80.6479 159.33C80.323 159.33 79.9971 159.392 79.6869 159.516C79.0237 159.784 78.5087 160.307 78.237 160.986C77.9643 161.67 77.9688 162.431 78.2518 163.128L80.0457 167.557C80.6275 168.992 82.2177 169.708 83.5906 169.151C84.6591 168.719 85.3178 167.623 85.2307 166.425C85.2227 166.313 85.2895 166.21 85.3948 166.172C85.5 166.135 85.6178 166.172 85.6823 166.264C86.4282 167.326 87.7535 167.741 88.9046 167.275C89.9425 166.855 90.6035 165.788 90.548 164.622C90.5424 164.51 90.6137 164.408 90.7201 164.373C90.8265 164.339 90.9442 164.38 91.0053 164.475C91.7285 165.586 93.1082 166.047 94.2888 165.57C95.5202 165.071 96.1891 163.681 95.8439 162.337C95.8156 162.226 95.8654 162.11 95.9661 162.056C96.0657 162.002 96.1914 162.022 96.2683 162.106C97.0527 162.95 98.2219 163.228 99.2473 162.813C99.9106 162.545 100.426 162.022 100.697 161.342C100.97 160.658 100.965 159.897 100.682 159.2L99.4386 156.131C98.8568 154.696 97.2666 153.979 95.8937 154.536C94.7924 154.982 94.136 156.108 94.2593 157.34C94.2718 157.463 94.1914 157.576 94.0714 157.605C93.9503 157.636 93.827 157.572 93.7806 157.457C93.4761 156.707 92.3114 154.33 90.0976 155.225C89.1072 155.617 88.4009 156.757 88.4541 157.878C88.4598 157.99 88.3885 158.092 88.2821 158.127C88.1757 158.161 88.058 158.12 87.9969 158.025C87.2736 156.913 85.8928 156.453 84.7134 156.93C83.5148 157.415 82.8493 158.725 83.1288 160.046C83.1526 160.157 83.0983 160.269 82.9976 160.32C82.8968 160.371 82.7746 160.348 82.6999 160.263C82.1589 159.659 81.4039 159.33 80.6467 159.33H80.6479Z" fill="black"/>
<path d="M85.4797 166.657C85.3801 166.657 85.2851 166.596 85.2477 166.498L83.2161 161.219C83.1663 161.091 83.2308 160.946 83.3587 160.897C83.4877 160.847 83.6314 160.912 83.6812 161.04L85.7129 166.319C85.7627 166.447 85.6982 166.591 85.5703 166.64C85.5409 166.651 85.5103 166.657 85.4809 166.657H85.4797Z" fill="black"/>
<path d="M90.804 164.883C90.7043 164.883 90.6093 164.822 90.5719 164.723L88.5403 159.444C88.4905 159.316 88.555 159.171 88.6829 159.123C88.8108 159.074 88.9557 159.138 89.0055 159.265L91.0371 164.544C91.0869 164.672 91.0224 164.817 90.8945 164.866C90.8651 164.877 90.8345 164.883 90.8051 164.883H90.804Z" fill="black"/>
<path d="M96.0628 162.504C95.9654 162.504 95.8726 162.447 95.833 162.35L93.738 157.308C93.6848 157.181 93.7459 157.035 93.8727 156.982C93.9994 156.93 94.1454 156.99 94.1986 157.117L96.2937 162.159C96.3469 162.286 96.2857 162.432 96.159 162.485C96.1284 162.498 96.0956 162.504 96.0639 162.504H96.0628Z" fill="black"/>
<path d="M78.4589 71.8184C82.4837 72.1319 86.6251 79.5896 76.1817 85.0054C76.1817 85.0054 74.6899 83.2001 72.8835 84.9273C71.0771 86.6545 73.5898 90.3432 73.5898 90.3432C73.5898 90.3432 48.2072 124.056 58.9846 131.474C65.1259 135.7 37.3099 138.049 29.833 124.762C21.883 110.634 27.5535 99.3118 33.3077 94.5027C44.0851 85.4955 49.7974 85.9075 57.7475 76.7238C61.6591 72.2044 71.351 65.7744 78.4578 71.8184H78.4589Z" fill="black"/>
<path d="M282.908 186.279H186.21C186.072 186.279 185.961 186.167 185.961 186.03C185.961 185.893 186.072 185.781 186.21 185.781H282.908C283.046 185.781 283.157 185.893 283.157 186.03C283.157 186.167 283.046 186.279 282.908 186.279Z" fill="black"/>
<path d="M253.127 192.375H236.776C236.638 192.375 236.527 192.263 236.527 192.126C236.527 191.989 236.638 191.877 236.776 191.877H253.127C253.265 191.877 253.376 191.989 253.376 192.126C253.376 192.263 253.265 192.375 253.127 192.375Z" fill="black"/>
<path d="M225.734 192.375H176.585C176.447 192.375 176.336 192.263 176.336 192.126C176.336 191.989 176.447 191.877 176.585 191.877H225.734C225.872 191.877 225.983 191.989 225.983 192.126C225.983 192.263 225.872 192.375 225.734 192.375Z" fill="black"/>
<path d="M213.074 198.338H141.741C141.603 198.338 141.492 198.226 141.492 198.089C141.492 197.952 141.603 197.84 141.741 197.84H213.074C213.212 197.84 213.323 197.952 213.323 198.089C213.323 198.226 213.212 198.338 213.074 198.338Z" fill="black"/>
</svg>
