<svg width="317" height="301" viewBox="0 0 317 301" fill="none" xmlns="http://www.w3.org/2000/svg">
<path d="M274.341 240.029C274.272 239.88 267.366 225.081 258.687 222.355C256.195 221.571 253.767 221.857 251.471 223.203C245.894 226.473 241.979 227.365 239.503 225.932C235.949 223.874 236.006 217.415 236.062 211.168C236.114 205.336 236.163 199.826 233.322 198.44C228.092 195.887 223.238 201.307 218.544 206.547C214.756 210.777 211.178 214.773 207.354 215.007C202.7 215.28 198.146 210.475 192.867 204.898C185.426 197.037 176.167 187.257 163.199 188.938C163.112 188.95 163.032 188.889 163.021 188.801C163.01 188.715 163.071 188.635 163.158 188.624C176.284 186.917 185.606 196.767 193.097 204.68C198.322 210.2 202.836 214.958 207.335 214.69C211.029 214.464 214.565 210.516 218.308 206.336C223.081 201.007 228.015 195.497 233.461 198.155C236.481 199.629 236.432 205.236 236.379 211.171C236.324 217.327 236.268 223.693 239.662 225.658C242.029 227.027 245.84 226.136 251.311 222.929C253.687 221.536 256.2 221.241 258.783 222.052C267.595 224.821 274.559 239.746 274.629 239.896C274.666 239.976 274.631 240.07 274.551 240.106C274.476 240.142 274.379 240.111 274.341 240.029ZM42.4142 239.746C42.3302 239.654 42.3371 239.51 42.4297 239.426C68.6457 215.628 94.8223 173.774 95.0837 173.354C95.1496 173.248 95.2893 173.215 95.3954 173.281C95.5016 173.347 95.5341 173.487 95.468 173.593C95.2064 174.013 68.9973 215.921 42.734 239.762C42.6408 239.846 42.4981 239.838 42.4142 239.746ZM89.264 262.773C89.2593 262.773 89.2547 262.773 89.25 262.772C89.1253 262.765 89.0302 262.657 89.0378 262.533C91.5541 220.742 108.746 180.797 108.919 180.399C108.969 180.283 109.103 180.233 109.217 180.281C109.332 180.331 109.384 180.465 109.335 180.579C109.161 180.977 92.0012 220.852 89.4897 262.56C89.4824 262.68 89.3827 262.773 89.264 262.773ZM83.7742 236.689C83.6499 236.676 83.5599 236.564 83.5732 236.439C84.7537 225.424 89.6275 212.266 89.6766 212.134C89.7201 212.017 89.8513 211.958 89.9678 212.001C90.085 212.045 90.1445 212.175 90.1007 212.293C90.0518 212.423 85.1978 225.529 84.0234 236.488C84.0101 236.612 83.8986 236.702 83.7742 236.689ZM72.8596 220.482C72.7658 220.4 72.757 220.256 72.8397 220.163C76.9114 215.551 89.551 193.096 89.6781 192.87C89.7394 192.761 89.8771 192.721 89.9866 192.784C90.0956 192.845 90.1343 192.983 90.073 193.092C89.9455 193.319 77.2825 215.815 73.1793 220.463C73.0958 220.556 72.9532 220.565 72.8596 220.482Z" fill="black"/>
<path d="M114.405 173.223L110.478 180.74C103.644 179.57 97.8908 177.188 94.3555 172.318L98.283 164.8L114.405 173.223Z" fill="#4776E6"/>
<path d="M110.478 180.967C110.465 180.967 110.452 180.966 110.439 180.964C102.58 179.617 97.4111 176.913 94.1721 172.451C94.1217 172.381 94.1148 172.289 94.1546 172.213L98.0822 164.695C98.1426 164.58 98.2809 164.544 98.3878 164.599L114.51 173.022C114.621 173.08 114.664 173.216 114.606 173.327L110.678 180.845C110.639 180.921 110.561 180.967 110.478 180.967ZM94.6214 172.298C97.7693 176.56 102.776 179.167 110.353 180.489L114.1 173.319L98.3787 165.105L94.6214 172.298Z" fill="black"/>
<path d="M137.827 178.765L116.344 203.581C126.728 185.454 118.499 171.859 118.499 171.859L130.55 152.925L135.359 145.367L141.971 155.569C148.569 166.406 137.827 178.765 137.827 178.765Z" fill="white"/>
<path d="M116.343 203.808C116.298 203.808 116.252 203.794 116.213 203.767C116.118 203.699 116.089 203.57 116.147 203.469C126.347 185.663 118.387 172.111 118.306 171.976C118.261 171.903 118.262 171.81 118.308 171.738L135.168 145.245C135.21 145.18 135.281 145.141 135.358 145.141C135.416 145.143 135.507 145.179 135.549 145.244L142.161 155.447C148.767 166.296 138.125 178.767 137.998 178.913L116.515 203.73C116.47 203.781 116.407 203.808 116.343 203.808ZM118.764 171.866C119.518 173.23 125.867 185.626 117.538 201.856L137.656 178.617L137.656 178.617C137.763 178.494 148.212 166.256 141.777 155.687L135.361 145.786L118.764 171.866Z" fill="black"/>
<path d="M116.344 203.581C126.728 185.454 118.499 171.859 118.499 171.859L130.55 152.925C130.55 152.925 140.73 173.951 116.344 203.581Z" fill="#4776E6"/>
<path d="M116.343 203.808C116.298 203.808 116.252 203.794 116.213 203.767C116.118 203.699 116.089 203.57 116.147 203.469C126.347 185.663 118.387 172.111 118.306 171.976C118.261 171.903 118.262 171.81 118.308 171.738L135.168 145.245C135.21 145.18 135.281 145.141 135.358 145.141C135.416 145.143 135.507 145.179 135.549 145.244L142.161 155.447C148.767 166.296 138.125 178.767 137.998 178.913L116.515 203.73C116.47 203.781 116.407 203.808 116.343 203.808ZM118.764 171.866C119.518 173.23 125.867 185.626 117.538 201.856L137.656 178.617L137.656 178.617C137.763 178.494 148.212 166.256 141.777 155.687L135.361 145.786L118.764 171.866Z" fill="black"/>
<path d="M103.934 131.758L101.194 143.329L96.6881 162.335C96.6881 162.335 81.2638 165.931 75.5352 186.024L78.3021 153.31C78.3021 153.31 79.6516 136.993 92.0146 134.154L103.934 131.758Z" fill="white"/>
<path d="M75.4982 186.247C75.3834 186.226 75.3034 186.121 75.3133 186.005L78.0802 153.291C78.0937 153.126 79.5865 136.777 91.9676 133.933L103.893 131.536C104.054 131.503 104.196 131.65 104.158 131.81L96.9121 162.387C96.8924 162.471 96.8269 162.536 96.7433 162.556C96.5903 162.592 81.3798 166.363 75.7567 186.086C75.7269 186.191 75.6234 186.267 75.4982 186.247ZM103.636 132.05L92.0629 134.376C80.0069 137.145 78.5448 153.167 78.5315 153.328L75.9404 183.964C81.7416 166.668 95.0029 162.563 96.5028 162.151L103.636 132.05Z" fill="black"/>
<path d="M101.194 143.329L96.6881 162.335C96.6881 162.335 81.2638 165.931 75.5352 186.024C80.9151 144.878 101.194 143.329 101.194 143.329Z" fill="#4776E6"/>
<path d="M75.4982 186.247C75.3834 186.226 75.3034 186.121 75.3133 186.005L78.0802 153.291C78.0937 153.126 79.5865 136.777 91.9676 133.933L103.893 131.536C104.054 131.503 104.196 131.65 104.158 131.81L96.9121 162.387C96.8924 162.471 96.8269 162.536 96.7433 162.556C96.5903 162.592 81.3798 166.363 75.7567 186.086C75.7269 186.191 75.6234 186.267 75.4982 186.247ZM103.636 132.05L92.0629 134.376C80.0069 137.145 78.5448 153.167 78.5315 153.328L75.9404 183.964C81.7416 166.668 95.0029 162.563 96.5028 162.151L103.636 132.05Z" fill="black"/>
<path d="M151.816 119.063L119.508 173.94C114.928 174.537 110.244 173.532 105.51 171.689C100.885 169.587 96.8875 166.962 94.1172 163.266L110.85 101.794C113.153 87.0306 121.978 76.2042 131.108 68.7185C142.63 59.2742 154.634 55.1501 154.634 55.1501C154.64 55.197 172.105 91.9898 151.816 119.063Z" fill="white"/>
<path d="M105.428 171.9C100.125 169.49 96.4769 166.791 93.936 163.402C93.894 163.346 93.8802 163.274 93.8986 163.207L110.631 101.735C112.589 89.1741 119.432 77.9987 130.965 68.5435C142.385 59.1816 154.44 54.9772 154.561 54.9361C154.67 54.8981 154.79 54.9494 154.839 55.0533C154.893 55.1683 160.301 66.7338 161.574 81.4464C162.858 96.2996 159.639 108.997 152.005 119.188L119.703 174.055C119.668 174.115 119.607 174.155 119.537 174.164C114.771 174.785 109.947 173.659 105.428 171.9ZM119.508 173.94H119.513H119.508ZM94.3647 163.218C96.8557 166.503 100.43 169.132 105.603 171.483C110.787 173.501 115.297 174.238 119.369 173.729L151.621 118.948C151.625 118.941 151.63 118.934 151.635 118.927C159.205 108.826 162.397 96.2288 161.123 81.4853C159.945 67.8713 155.212 56.9757 154.515 55.4332C152.925 56.0116 141.817 60.2324 131.252 68.8937C119.808 78.2764 113.019 89.3572 111.073 101.829L94.3647 163.218Z" fill="black"/>
<path d="M136.099 106.104C132.425 105.777 129.222 103.103 128.378 99.2938C127.52 95.4253 129.363 91.5966 132.641 89.7924C135.423 88.2547 138.919 88.3478 141.679 90.2546C146.251 93.4007 146.736 99.9925 142.742 103.776C140.904 105.526 138.451 106.306 136.099 106.104Z" fill="white"/>
<path d="M136.079 106.329C132.189 105.983 129.006 103.175 128.156 99.3428C127.302 95.4904 129.101 91.4814 132.531 89.5939C135.513 87.9464 139.111 88.2057 141.807 90.0685C149.332 95.2471 145.031 107.113 136.079 106.329ZM132.75 89.9906C129.494 91.7822 127.787 95.5872 128.598 99.2446C129.405 102.883 132.427 105.549 136.118 105.878C144.608 106.618 148.7 95.3621 141.55 90.4413C139.011 88.6865 135.598 88.4168 132.75 89.9906Z" fill="black"/>
<path d="M161.349 81.4674C148.034 81.4579 138.409 76.6124 131.105 68.7191C131.134 68.6954 131.157 68.6765 131.186 68.6577C142.684 59.2545 154.635 55.1497 154.635 55.1497C154.635 55.1497 154.635 55.1545 154.639 55.1591C154.805 55.5084 160.079 66.8553 161.349 81.4674Z" fill="white"/>
<path d="M161.348 81.6937C161.348 81.6937 161.348 81.6937 161.348 81.6937C148.861 81.6848 138.914 77.4915 130.939 68.873C130.852 68.7791 130.86 68.6301 130.959 68.5462C130.995 68.5162 131.024 68.4936 131.059 68.4697C142.44 59.1614 154.441 54.9769 154.561 54.9357C154.672 54.8977 154.791 54.9499 154.839 55.0534C154.841 55.056 154.842 55.0591 154.844 55.0622C154.898 55.1772 160.296 66.733 161.574 81.4478C161.585 81.5799 161.481 81.6937 161.348 81.6937ZM131.438 68.7439C139.241 77.0873 148.949 81.1767 161.101 81.2399C159.881 67.7113 155.192 56.9298 154.516 55.4328C152.936 56.0073 141.948 60.1816 131.438 68.7439Z" fill="black"/>
<path d="M161.349 81.4672C148.034 81.4578 138.409 76.6123 131.105 68.7189C131.134 68.6953 131.157 68.6764 131.186 68.6575C139.098 70.6485 150.879 73.352 154.002 72.682C158.754 71.6583 154.757 55.6307 154.639 55.1589C154.805 55.5082 160.079 66.8551 161.349 81.4672Z" fill="#4776E6"/>
<path d="M122.037 145.502L94.8828 192.359L112.717 141.573C114.675 136.929 123.994 140.857 122.037 145.502Z" fill="white"/>
<path d="M94.788 192.565C94.6819 192.517 94.6304 192.395 94.6691 192.284L112.503 141.498C113.577 138.949 116.588 138.856 118.933 139.845C121.278 140.834 123.314 143.053 122.245 145.59C122.241 145.599 122.237 145.607 122.232 145.615L95.0786 192.473C95.0192 192.575 94.8926 192.614 94.788 192.565ZM112.925 141.661L95.8941 190.163L121.833 145.401C122.769 143.156 120.897 141.165 118.757 140.262C116.561 139.338 113.86 139.443 112.925 141.661ZM122.036 145.502H122.041H122.036Z" fill="black"/>
<path d="M206.098 268.858C208.347 262.248 204.227 259.191 194.151 259.425C184.074 259.66 189.251 252.862 189.251 252.862L174.501 251.889C174.501 251.889 171.628 259.212 171.75 264.013C171.778 265.135 172.663 266.048 173.781 266.141L206.098 268.858Z" fill="white"/>
<path d="M206.079 269.084L173.762 266.367C172.517 266.262 171.555 265.253 171.523 264.019C171.402 259.227 174.172 252.107 174.29 251.806C174.326 251.714 174.419 251.653 174.516 251.663L189.266 252.636C189.447 252.648 189.54 252.856 189.431 252.999C189.412 253.024 187.48 255.6 188.393 257.387C189.044 258.663 190.982 259.272 194.145 259.199C200.277 259.059 204.244 260.157 205.941 262.471C207.106 264.058 207.231 266.232 206.312 268.931C206.281 269.023 206.191 269.091 206.079 269.084ZM174.652 252.126C174.244 253.205 171.867 259.689 171.976 264.007C172.001 265.01 172.786 265.83 173.8 265.916L205.94 268.617C206.747 266.144 206.625 264.168 205.576 262.739C203.971 260.551 200.132 259.509 194.156 259.652C190.803 259.731 188.726 259.037 187.989 257.592C187.15 255.947 188.309 253.867 188.837 253.061L174.652 252.126Z" fill="black"/>
<path d="M171.742 263.658C171.742 263.78 171.742 263.897 171.747 264.014C171.779 265.133 172.665 266.045 173.779 266.141L206.096 268.856C206.313 268.209 206.478 267.594 206.573 267.01L173.036 264.189C172.543 264.146 172.098 263.955 171.742 263.658Z" fill="black"/>
<path d="M206.077 269.081L173.761 266.366C172.519 266.26 171.557 265.251 171.522 264.02C171.516 263.904 171.516 263.784 171.516 263.658C171.516 263.57 171.567 263.49 171.647 263.453C171.727 263.416 171.82 263.428 171.888 263.484C172.218 263.76 172.622 263.925 173.056 263.963L206.593 266.785C206.725 266.796 206.819 266.917 206.797 267.047C206.704 267.616 206.545 268.232 206.311 268.928C206.28 269.021 206.19 269.089 206.077 269.081ZM171.979 264.096C172.051 265.058 172.818 265.831 173.799 265.915L205.937 268.615C206.102 268.108 206.224 267.646 206.307 267.215L173.018 264.414C172.647 264.382 172.295 264.273 171.979 264.096ZM195.259 158.3C195.259 158.3 190.073 161.88 176.809 160.365C163.545 158.851 141.754 147.97 141.754 147.97L181.169 139.651L195.259 158.3Z" fill="black"/>
<path d="M181.749 197.167C183.436 211.196 168.778 251.714 168.778 251.714L193.23 253.125C193.23 253.125 209.505 208.99 210.74 194.526C212.21 177.336 193.2 152.222 185.34 145.072L162.23 145.608C162.23 145.608 164.092 149.867 166.665 155.982C171.836 168.271 179.893 188.055 181.51 195.793C181.622 196.308 181.701 196.764 181.749 197.167Z" fill="white"/>
<path d="M193.23 253.351C164.202 251.676 169.496 251.982 168.766 251.939C168.615 251.931 168.514 251.779 168.566 251.637C168.712 251.232 183.185 211.009 181.524 197.194C181.524 197.194 181.524 197.194 181.524 197.194C181.478 196.799 181.401 196.357 181.289 195.841C179.655 188.022 171.294 167.567 166.456 156.07C163.914 150.025 162.042 145.741 162.023 145.698C161.958 145.551 162.065 145.385 162.225 145.381L185.335 144.845C185.393 144.849 185.449 144.864 185.492 144.904C193.34 152.042 212.441 177.291 210.966 194.545C209.742 208.874 193.605 252.761 193.442 253.203C193.409 253.292 193.324 253.351 193.23 253.351ZM169.094 251.505L193.075 252.889C194.142 249.978 209.333 208.343 210.515 194.506C211.972 177.458 193.096 152.478 185.254 145.3L162.573 145.826C163.046 146.914 164.719 150.773 166.873 155.894C171.718 167.406 180.09 187.892 181.732 195.747C181.846 196.275 181.926 196.731 181.974 197.14C183.573 210.442 170.397 247.848 169.094 251.505Z" fill="black"/>
<path d="M166.664 155.982C171.835 168.271 179.892 188.055 181.51 195.793C186.655 179.192 181.589 153.155 181.589 153.155L166.664 155.982Z" fill="black"/>
<path d="M146.437 141.54C146.437 141.54 147.201 183.024 141.921 190.965C134.095 202.732 94.8086 219.665 94.8086 219.665L113.203 235.263C113.203 235.263 156.478 217.989 165.761 206.829C178.229 191.839 182.71 158.02 181.375 147.476L146.437 141.54Z" fill="white"/>
<path d="M113.202 235.49C113.15 235.49 113.098 235.471 113.056 235.436L94.6621 219.837C94.6022 219.787 94.573 219.709 94.5845 219.631C94.5962 219.554 94.6469 219.488 94.7189 219.457C95.1112 219.288 134.033 202.417 141.732 190.839C146.913 183.048 146.219 141.959 146.211 141.544C146.209 141.402 146.337 141.292 146.475 141.317L181.413 147.252C181.511 147.269 181.587 147.348 181.6 147.447C182.965 158.235 178.463 191.911 165.935 206.974C156.722 218.051 113.72 235.3 113.287 235.474C113.259 235.484 113.231 235.49 113.202 235.49ZM95.2322 219.727L113.245 235.002C115.841 233.956 156.693 217.377 165.587 206.684C177.973 191.793 182.462 158.575 181.171 147.671L146.668 141.809C146.732 145.727 147.202 183.432 142.109 191.09C134.721 202.2 99.0803 218.04 95.2322 219.727Z" fill="black"/>
<path d="M109.01 254.935C115.27 251.841 114.51 246.768 107.208 239.82C99.9062 232.872 108.652 231.552 108.652 231.552L97.1264 221.706C97.1264 221.706 90.8292 224.12 87.8803 227.477C87.2498 228.195 87.2585 229.273 87.8763 230.002L109.01 254.935Z" fill="white"/>
<path d="M108.839 255.081L87.7045 230.148C87.0126 229.332 87.0155 228.119 87.7113 227.327C90.6629 223.967 96.7871 221.594 97.0462 221.494C97.1243 221.464 97.2116 221.48 97.2744 221.534L108.8 231.38C108.868 231.438 108.895 231.529 108.871 231.614C108.847 231.699 108.775 231.763 108.687 231.776C108.653 231.781 105.268 232.317 104.631 234.341C104.195 235.726 105.115 237.514 107.365 239.655C111.807 243.882 113.841 247.464 113.41 250.301C113.114 252.247 111.668 253.874 109.112 255.138C109.02 255.183 108.907 255.162 108.839 255.081ZM97.0838 221.966C96.1876 222.326 90.7022 224.608 88.0514 227.626C87.5028 228.251 87.5022 229.209 88.0499 229.855L109.069 254.653C111.386 253.471 112.696 251.985 112.962 250.232C113.369 247.55 111.381 244.102 107.053 239.983C104.666 237.713 103.706 235.768 104.199 234.204C104.774 232.382 107.131 231.654 108.151 231.421L97.0838 221.966Z" fill="black"/>
<path d="M87.8808 230.004L109.012 254.938C109.802 254.545 110.476 254.126 111.043 253.67L88.3899 226.943C88.2149 227.118 88.0452 227.299 87.8861 227.479C87.2549 228.195 87.2603 229.272 87.8808 230.004Z" fill="black"/>
<path d="M108.836 255.084L87.7047 230.15C87.012 229.333 87.0155 228.12 87.7129 227.329C87.8752 227.145 88.0481 226.962 88.2266 226.783C88.3176 226.692 88.4716 226.694 88.5594 226.797L111.212 253.524C111.296 253.621 111.28 253.768 111.181 253.847C110.601 254.313 109.923 254.736 109.109 255.141C109.018 255.186 108.905 255.165 108.836 255.084ZM88.3745 227.279C88.2637 227.395 88.1558 227.512 88.0526 227.629C87.5029 228.253 87.5018 229.21 88.0501 229.857L109.066 254.655C109.697 254.333 110.24 253.997 110.715 253.637L88.3745 227.279Z" fill="black"/>
<path d="M141.801 147.967C143.636 148.401 147.2 148.152 149.014 148.306C161.975 149.317 174.541 145.139 195.625 156.66C195.625 156.66 212.253 132.845 205.448 102.745C202.844 91.2356 180.796 85.6487 166.799 101.102C157.679 111.17 141.939 142.238 141.801 147.967Z" fill="white"/>
<path d="M195.517 156.858C174.503 145.376 161.953 149.545 148.996 148.532C148.33 148.475 147.415 148.474 146.446 148.472C144.797 148.469 142.928 148.466 141.749 148.187C141.644 148.162 141.572 148.068 141.574 147.961C141.709 142.349 157.129 111.44 166.631 100.95C175.182 91.5087 186.232 90.2447 193.721 92.211C200.001 93.8592 204.579 97.8765 205.669 102.695C212.418 132.547 195.978 156.55 195.811 156.789C195.744 156.885 195.616 156.913 195.517 156.858ZM163.499 148.127C172.199 148.127 182.207 149.11 195.553 156.362C197.001 154.177 211.635 131.138 205.227 102.795C204.174 98.1419 199.722 94.2541 193.606 92.6488C186.247 90.7184 175.383 91.9624 166.967 101.254C157.77 111.407 142.497 141.975 142.037 147.786C143.174 148.014 144.908 148.016 146.446 148.019C147.425 148.021 148.35 148.023 149.033 148.08C153.914 148.461 158.398 148.127 163.499 148.127Z" fill="black"/>
<path d="M187.514 92.4384L187.042 83.2424C186.736 82.3303 186.56 81.3538 186.538 80.3283C186.429 75.4013 189.89 71.323 194.283 71.2287C198.676 71.1284 202.322 75.0425 202.429 79.9753C202.531 84.4779 199.647 88.2647 195.796 88.9628L195.802 93.4707" fill="white"/>
<path d="M195.802 93.6973C195.677 93.6973 195.576 93.5961 195.575 93.4713L195.569 88.9631C195.569 88.8534 195.648 88.7592 195.755 88.7398C199.528 88.0556 202.3 84.2899 202.203 79.9807C202.1 75.2646 198.63 71.3532 194.288 71.4551C189.84 71.5507 186.663 75.7299 186.764 80.3234C186.786 81.3035 186.951 82.2614 187.257 83.1702C187.263 83.1896 187.267 83.21 187.268 83.2308L187.74 92.4268C187.747 92.5515 187.65 92.6581 187.525 92.6642C187.407 92.6704 187.294 92.5749 187.288 92.4498L186.818 83.2847C186.504 82.3414 186.334 81.3486 186.311 80.3332C186.204 75.4488 189.611 71.1022 194.278 71.0023C198.944 70.9165 202.549 75.0601 202.656 79.9705C202.756 84.4297 199.917 88.3382 196.022 89.1493L196.028 93.4705C196.028 93.5956 195.927 93.6973 195.802 93.6973H195.802Z" fill="black"/>
<path d="M200.386 74.2046C200.386 74.2046 197.422 71.3925 193.402 74.36C189.382 77.3275 190.494 80.7533 186.555 81.0679C182.616 81.3826 183.372 81.8681 183.372 81.8681C183.372 81.8681 176.015 70.724 186.363 72.446C186.363 72.446 187.82 73.1849 190.293 69.8477C192.766 66.5105 194.223 68.3686 194.223 68.3686C194.223 68.3686 194.632 65.3924 197.318 65.779C200.005 66.1656 199.166 69.747 199.166 69.747C199.166 69.747 201.386 66.8701 203.346 68.7958C205.306 70.7215 200.386 74.2046 200.386 74.2046Z" fill="black"/>
<path d="M188.967 81.5641C188.998 82.9628 187.883 84.1281 186.484 84.1592C185.076 84.1906 183.911 83.076 183.88 81.6773C183.848 80.2689 184.963 79.113 186.371 79.0817C187.77 79.0506 188.935 80.1557 188.967 81.5641Z" fill="white"/>
<path d="M183.653 81.6822C183.619 80.1517 184.828 78.8902 186.366 78.8554C187.911 78.8244 189.159 80.0344 189.193 81.5592C189.227 83.084 188.015 84.3518 186.489 84.3856C184.943 84.4178 183.687 83.1984 183.653 81.6822ZM186.376 79.3082C185.095 79.3365 184.077 80.3867 184.106 81.6725C184.134 82.9587 185.204 83.9558 186.479 83.9328C187.749 83.9045 188.768 82.8489 188.74 81.569C188.711 80.2814 187.633 79.276 186.376 79.3082ZM197.438 81.5836C197.422 81.4593 197.51 81.3461 197.635 81.331C197.741 81.3178 197.846 81.3005 197.948 81.2766C198.682 81.1029 198.54 80.8682 198.284 80.4899C197.814 79.7942 197.496 79.0632 197.337 78.3145C197.311 78.1924 197.389 78.0722 197.511 78.0461C197.632 78.0204 197.754 78.0982 197.78 78.2203C197.927 78.912 198.222 79.589 198.657 80.233C199.205 81.0426 198.901 81.5175 198.052 81.7176C197.934 81.7454 197.813 81.7653 197.69 81.7804C197.573 81.797 197.453 81.7122 197.438 81.5836ZM198.49 85.244C198.443 85.1883 197.309 83.8943 195.962 85.0061C195.865 85.0861 195.723 85.072 195.643 84.9756C195.564 84.8792 195.577 84.7363 195.674 84.6567C197.368 83.2592 198.821 84.934 198.835 84.9508C198.916 85.0459 198.904 85.1883 198.809 85.2692C198.715 85.3499 198.572 85.3389 198.49 85.244ZM198.653 76.6132C198.546 76.5482 198.512 76.4089 198.578 76.3019C199.06 75.5116 200.097 75.2608 200.89 75.7451C200.997 75.8101 201.031 75.9494 200.966 76.056C200.901 76.163 200.761 76.1966 200.654 76.1316C200.075 75.7791 199.316 75.9604 198.964 76.538C198.899 76.6454 198.758 76.6779 198.653 76.6132ZM199.785 78.3388C199.67 78.2897 199.617 78.1566 199.666 78.0416L200.006 77.2505C200.073 77.0938 200.279 77.0686 200.386 77.1921L200.92 77.8126C201.002 77.9072 200.991 78.05 200.896 78.1319C200.802 78.2123 200.659 78.2031 200.577 78.108L200.279 77.7621L200.082 78.2203C200.032 78.337 199.897 78.3881 199.785 78.3388ZM193.173 77.3663C193.066 77.3013 193.033 77.162 193.098 77.055C193.58 76.2643 194.618 76.0144 195.411 76.4987C195.517 76.5637 195.551 76.703 195.486 76.81C195.421 76.9166 195.281 76.9502 195.175 76.8852C194.595 76.5327 193.837 76.7136 193.484 77.2912C193.419 77.3986 193.278 77.431 193.173 77.3663ZM194.305 79.092C194.19 79.0429 194.137 78.9098 194.186 78.7948L194.526 78.0036C194.592 77.8518 194.795 77.8166 194.906 77.9452L195.44 78.5657C195.522 78.6603 195.511 78.8032 195.416 78.885C195.322 78.9659 195.179 78.9562 195.097 78.8611L194.799 78.5153L194.603 78.9734C194.552 79.0907 194.416 79.1408 194.305 79.092ZM195.795 88.9629C195.795 88.9629 193.96 88.8891 191.383 87.6627C191.383 87.6627 191.929 90.5279 195.769 91.3762L195.795 88.9629Z" fill="black"/>
<path d="M195.723 91.5973C191.783 90.727 191.188 87.8281 191.164 87.7051C191.13 87.5223 191.319 87.3779 191.484 87.4584C193.99 88.6506 195.789 88.736 195.807 88.7364C195.93 88.7418 196.026 88.843 196.025 88.9655L195.999 91.3788C195.997 91.5199 195.866 91.6286 195.723 91.5973ZM191.754 88.0802C192.068 88.8656 192.999 90.436 195.549 91.0901L195.57 89.1716C195.045 89.1181 193.631 88.9054 191.754 88.0802ZM140.354 209.891C138.335 198.454 145.291 192.762 152.655 186.736C154.562 185.175 156.534 183.561 158.373 181.826C160.487 179.83 161.5 177.557 161.383 175.071C161.1 169.02 154.237 163.594 154.168 163.54L154.447 163.182C154.736 163.409 161.543 168.794 161.836 175.05C161.958 177.674 160.898 180.065 158.683 182.155C156.834 183.902 154.855 185.521 152.942 187.086C145.683 193.026 138.827 198.637 140.8 209.812L140.354 209.891ZM191.487 230.761C191.321 230.461 187.516 223.204 196.707 204.223C199.87 197.691 200.592 191.931 198.852 187.103C196.738 181.236 191.643 178.855 191.591 178.831L191.779 178.419C191.832 178.443 197.1 180.905 199.278 186.949C201.06 191.896 200.333 197.774 197.115 204.42C188.048 223.146 191.844 230.469 191.884 230.541L191.487 230.761Z" fill="black"/>
<path d="M102.971 215.83L102.695 216.189L122.581 231.447L122.857 231.088L102.971 215.83Z" fill="black"/>
<path d="M171.241 244.731L171.223 245.184L195.936 246.165L195.954 245.712L171.241 244.731Z" fill="black"/>
<path d="M102.951 238.885C102.828 238.862 102.747 238.744 102.769 238.621C102.792 238.498 102.91 238.415 103.034 238.44C105.182 238.842 105.853 236.987 105.88 236.908C105.921 236.79 106.05 236.729 106.168 236.768C106.286 236.808 106.349 236.937 106.309 237.055C105.91 238.249 104.64 239.2 102.951 238.885ZM104.502 240.627C104.379 240.604 104.298 240.486 104.32 240.363C104.343 240.24 104.46 240.159 104.585 240.182C106.733 240.582 107.404 238.728 107.431 238.649C107.472 238.532 107.601 238.47 107.719 238.509C107.837 238.55 107.9 238.678 107.859 238.796C107.464 239.981 106.197 240.943 104.502 240.627ZM106.053 242.369C105.93 242.346 105.849 242.228 105.872 242.105C105.894 241.982 106.01 241.9 106.136 241.924C108.285 242.324 108.955 240.47 108.982 240.391C109.023 240.274 109.153 240.213 109.27 240.251C109.388 240.292 109.451 240.42 109.411 240.538C109.016 241.723 107.748 242.685 106.053 242.369ZM191.507 261.373C191.441 261.267 191.473 261.128 191.579 261.061C193.439 259.894 192.667 258.082 192.633 258.006C192.582 257.891 192.634 257.758 192.749 257.707C192.864 257.657 192.997 257.709 193.047 257.823C193.057 257.845 194.008 260.072 191.819 261.445C191.714 261.511 191.574 261.48 191.507 261.373ZM193.828 261.603C193.761 261.497 193.794 261.357 193.899 261.29C195.752 260.129 194.987 258.311 194.954 258.235C194.904 258.12 194.956 257.987 195.07 257.937C195.184 257.885 195.318 257.938 195.368 258.052C195.378 258.075 196.329 260.301 194.14 261.674C194.035 261.74 193.895 261.709 193.828 261.603ZM196.149 261.832C196.083 261.726 196.115 261.586 196.221 261.52C198.081 260.352 197.309 258.541 197.275 258.464C197.224 258.35 197.276 258.216 197.391 258.166C197.506 258.115 197.639 258.168 197.689 258.281C197.699 258.304 198.65 260.53 196.461 261.903C196.356 261.969 196.216 261.938 196.149 261.832ZM183.44 140.51C183.354 140.419 183.357 140.276 183.448 140.19C199.917 124.453 193.399 103.606 193.331 103.398C193.293 103.279 193.358 103.151 193.477 103.112C193.595 103.073 193.723 103.138 193.762 103.258C193.831 103.469 200.433 124.586 183.76 140.517C183.67 140.603 183.527 140.6 183.44 140.51Z" fill="black"/>
<path d="M196.261 109.988C196.261 110.765 196.887 111.39 197.663 111.39C198.439 111.39 199.065 110.765 199.065 109.988C199.065 109.212 198.439 108.586 197.663 108.586C196.887 108.586 196.261 109.212 196.261 109.988ZM196.543 117.072C196.543 117.849 197.168 118.474 197.944 118.474C198.721 118.474 199.346 117.849 199.346 117.072C199.346 116.296 198.721 115.67 197.944 115.67C197.168 115.67 196.543 116.296 196.543 117.072ZM195.141 123.73C195.141 124.507 195.766 125.132 196.543 125.132C197.319 125.132 197.945 124.507 197.945 123.73C197.945 122.954 197.319 122.328 196.543 122.328C195.766 122.328 195.141 122.954 195.141 123.73Z" fill="black"/>
<path d="M192.469 130.943C192.469 131.719 193.094 132.345 193.871 132.345C194.647 132.345 195.273 131.719 195.273 130.943C195.273 130.167 194.647 129.541 193.871 129.541C193.094 129.541 192.469 130.167 192.469 130.943Z" fill="black"/>
<path d="M189.262 137.169C189.262 137.946 189.887 138.571 190.664 138.571C191.44 138.571 192.066 137.946 192.066 137.169C192.066 136.393 191.44 135.767 190.664 135.767C189.887 135.767 189.262 136.393 189.262 137.169Z" fill="black"/>
<path d="M187.49 91.9444C186.379 91.3182 184.501 91.7615 182.641 92.1791L184.584 100.773L191.386 94.8585L187.49 91.9444Z" fill="black"/>
<path d="M195.803 92.2673L199.347 94.8378L198.005 100.772L191.203 94.8586L195.803 92.2673Z" fill="black"/>
<path d="M136.587 122.803C128.614 125.463 124.354 130.078 125.335 130.439C125.791 130.608 126.897 130.22 127.952 129.754C125.312 131.391 124.269 133.188 125.1 133.492C125.711 133.716 127.597 132.864 128.945 132.181C126.183 133.828 124.506 136.13 125.351 136.441C126.332 136.803 131.202 133.811 131.202 133.811C131.202 133.811 126.253 137.589 127.366 138.663C128.872 140.115 134.941 132.206 134.777 134.78C134.603 137.489 135.169 139.952 136.352 139.294C137.859 138.456 140.443 129.756 140.443 129.756L136.587 122.803Z" fill="white"/>
<path d="M134.62 134.769C134.635 134.549 134.595 134.449 134.554 134.429C134.247 134.275 132.986 135.386 131.97 136.275C130.087 137.924 128.14 139.628 127.258 138.777C127.105 138.63 127.035 138.438 127.048 138.207C127.099 137.328 128.479 135.93 129.618 134.92C128.079 135.777 125.965 136.841 125.298 136.59C125.11 136.521 124.996 136.371 124.977 136.168C124.92 135.553 125.819 134.312 127.302 133.127C126.169 133.602 125.413 133.774 125.047 133.641C124.826 133.56 124.692 133.388 124.668 133.156C124.608 132.57 125.301 131.511 126.732 130.405C126.042 130.632 125.564 130.692 125.282 130.588C125.125 130.531 125.037 130.396 125.04 130.219C125.057 129.073 129.42 125.028 136.539 122.653C136.612 122.63 136.691 122.66 136.727 122.727L140.583 129.679C140.604 129.716 140.609 129.76 140.597 129.801C140.49 130.159 137.977 138.574 136.431 139.432C134.828 140.324 134.489 136.824 134.62 134.769ZM134.506 134.103C134.575 134.103 134.638 134.116 134.694 134.144C134.969 134.279 134.945 134.664 134.937 134.79C134.839 136.32 135.047 139.839 136.277 139.156C137.456 138.5 139.543 132.224 140.274 129.774L136.514 122.996C129.347 125.416 125.37 129.351 125.357 130.224C125.356 130.278 125.372 130.283 125.392 130.291C125.586 130.363 126.169 130.369 127.89 129.609C127.966 129.575 128.055 129.607 128.094 129.68C128.133 129.754 128.108 129.845 128.037 129.889C125.841 131.251 124.929 132.6 124.983 133.123C124.994 133.236 125.048 133.304 125.156 133.343C125.356 133.418 126.119 133.437 128.875 132.04C128.952 132.002 129.045 132.031 129.085 132.105C129.127 132.18 129.101 132.274 129.028 132.318C126.663 133.728 125.236 135.523 125.293 136.139C125.301 136.221 125.334 136.266 125.407 136.293C126.071 136.537 129.263 134.818 131.121 133.676C131.193 133.632 131.286 133.651 131.334 133.721C131.382 133.791 131.367 133.886 131.3 133.937C130.227 134.756 127.428 137.124 127.364 138.226C127.357 138.362 127.394 138.468 127.478 138.549C128.151 139.199 130.237 137.371 131.761 136.037C133.133 134.836 133.998 134.103 134.506 134.103Z" fill="black"/>
<path d="M179.522 92.8374C179.522 92.8374 150.922 98.8378 132.867 121.386L142.439 136.867C142.439 136.867 155.544 120.035 180.435 112.612" fill="white"/>
<path d="M142.247 136.986L132.674 121.505C132.624 121.423 132.63 121.319 132.69 121.244C150.588 98.8912 179.189 92.6759 179.475 92.6157C179.597 92.5892 179.718 92.6683 179.743 92.7909C179.769 92.9134 179.691 93.0332 179.568 93.0589C179.284 93.1186 150.944 99.2821 133.144 121.403L142.464 136.477C144.228 134.346 157.35 119.26 180.37 112.395C180.491 112.36 180.616 112.428 180.652 112.547C180.688 112.667 180.62 112.793 180.5 112.829C155.969 120.144 142.749 136.838 142.618 137.006C142.52 137.131 142.328 137.118 142.247 136.986Z" fill="black"/>
<path d="M136.099 106.104C132.425 105.776 129.222 103.102 128.378 99.2936C127.52 95.4251 129.363 91.5964 132.641 89.7922C132.778 92.7429 132.261 96.0162 133.999 98.4724C137.373 103.242 140.027 103.242 142.742 103.776C140.904 105.526 138.451 106.306 136.099 106.104Z" fill="#4776E6"/>
<path d="M136.079 106.329C132.189 105.983 129.006 103.175 128.156 99.3428C127.302 95.4904 129.101 91.4814 132.531 89.5939C135.513 87.9464 139.111 88.2057 141.807 90.0685C149.332 95.2471 145.031 107.113 136.079 106.329ZM132.75 89.9906C129.494 91.7822 127.787 95.5872 128.598 99.2446C129.405 102.883 132.427 105.549 136.118 105.878C144.608 106.618 148.7 95.3621 141.55 90.4413C139.011 88.6865 135.598 88.4168 132.75 89.9906Z" fill="black"/>
<path d="M161.348 81.6937C161.348 81.6937 161.348 81.6937 161.348 81.6937C148.861 81.6848 138.914 77.4915 130.939 68.873C130.852 68.7791 130.86 68.6301 130.959 68.5462C130.995 68.5162 131.024 68.4936 131.059 68.4697C142.44 59.1614 154.441 54.9769 154.561 54.9357C154.672 54.8977 154.791 54.9499 154.839 55.0534C154.841 55.056 154.842 55.0591 154.844 55.0622C154.898 55.1772 160.296 66.733 161.574 81.4478C161.585 81.5799 161.481 81.6937 161.348 81.6937ZM131.438 68.7439C139.241 77.0873 148.949 81.1767 161.101 81.2399C159.881 67.7113 155.192 56.9298 154.516 55.4328C152.936 56.0073 141.948 60.1816 131.438 68.7439Z" fill="black"/>
<path d="M110.903 57.927H106.224C106.15 57.927 106.086 57.8757 106.07 57.8036C105.183 53.8719 102.28 50.7721 99.3256 53.3148C99.2434 53.3845 99.1153 53.3554 99.0748 53.2525C97.9137 50.2943 95.9729 48.7177 93.572 48.7743C90.8518 48.8552 88.2167 51.1704 87.1639 54.405C87.1187 54.5426 86.929 54.5516 86.8689 54.4218C86.2689 53.1134 85.5516 52.661 84.2721 53.3347C84.17 53.3884 84.0501 53.3196 84.0403 53.2082C83.7922 50.3761 82.5206 48.5771 80.5517 48.2733C78.2584 47.9203 74.8364 49.8454 72.7335 54.9087C72.701 54.987 72.6125 55.0268 72.5338 54.9971C71.2882 54.5518 70.2687 54.5766 69.5034 55.0714C68.2308 55.8936 68.0669 57.7625 68.0656 57.781C68.059 57.8637 67.9902 57.927 67.9075 57.927H62.8226C62.735 57.927 62.6641 57.8562 62.6641 57.7687C62.6641 57.6811 62.735 57.6103 62.8226 57.6103H67.766C67.8315 57.1261 68.1295 55.5827 69.3298 54.8061C70.1523 54.2741 71.2179 54.2219 72.4984 54.6495C74.6725 49.5314 78.2136 47.5882 80.5999 47.9601C82.6391 48.2746 84.024 50.1338 84.3335 52.9513C85.5377 52.403 86.3674 52.8009 86.987 53.9472C88.1547 50.7772 90.814 48.539 93.5627 48.4577C96.0083 48.3679 98.0791 50.0135 99.2884 52.9345C102.356 50.5121 105.388 53.5358 106.35 57.6103H110.903C110.99 57.6103 111.061 57.6811 111.061 57.7687C111.061 57.8562 110.99 57.927 110.903 57.927Z" fill="black"/>
<path d="M219.24 165.695C219.154 165.695 219.083 165.626 219.081 165.539C219.08 165.451 219.15 165.379 219.237 165.378C221.611 165.336 223.443 163.391 223.334 161.028C223.225 158.666 221.202 156.795 218.833 156.819C218.729 156.809 218.673 156.751 218.672 156.663C218.67 156.576 218.74 156.503 218.828 156.502C218.855 156.502 218.883 156.501 218.91 156.501C221.417 156.501 223.535 158.509 223.65 161.014C223.768 163.554 221.796 165.65 219.243 165.695C219.242 165.695 219.241 165.695 219.24 165.695Z" fill="black"/>
<path d="M85.386 100.558C82.9639 99.7845 81.5648 97.1731 82.2675 94.7368C82.9741 92.2883 85.5184 90.9415 87.9451 91.7189C88.0284 91.7454 88.0744 91.8348 88.0479 91.9179C88.0209 92.001 87.9314 92.047 87.8487 92.0205C85.5863 91.2976 83.2278 92.5516 82.5723 94.8243C81.9166 97.0975 83.2221 99.5342 85.4824 100.256C85.5658 100.283 85.6118 100.372 85.5853 100.455C85.5576 100.542 85.4643 100.584 85.386 100.558Z" fill="black"/>
<path d="M240.523 94.4297C240.475 94.3568 240.494 94.2586 240.567 94.2099C242.546 92.8972 243.044 90.2806 241.678 88.3577C240.313 86.4357 237.592 85.9395 235.613 87.2539C235.54 87.3025 235.442 87.2826 235.394 87.2092C235.345 87.1363 235.365 87.0381 235.438 86.9894C237.557 85.5835 240.473 86.1138 241.936 88.1738C243.404 90.2405 242.873 93.0605 240.743 94.4744C240.67 94.5221 240.571 94.5028 240.523 94.4297Z" fill="black"/>
</svg>
