<svg width="24" height="24" viewBox="0 0 24 24" fill="none" xmlns="http://www.w3.org/2000/svg">
<g clip-path="url(#clip0_344_30694)">
<path d="M15 3C15 2.20435 14.6839 1.44129 14.1213 0.87868C13.5587 0.316071 12.7956 0 12 0C11.2044 0 10.4413 0.316071 9.87868 0.87868C9.31607 1.44129 9 2.20435 9 3C9 3.79565 9.31607 4.55871 9.87868 5.12132C10.4413 5.68393 11.2044 6 12 6C12.7956 6 13.5587 5.68393 14.1213 5.12132C14.6839 4.55871 15 3.79565 15 3ZM10.5 7.5C8.84531 7.5 7.5 8.84531 7.5 10.5V12.75C7.5 13.5797 8.17031 14.25 9 14.25H9.08438L9.60469 18.9141C9.68906 19.6734 10.3312 20.25 11.0953 20.25H12.9094C13.6734 20.25 14.3156 19.6734 14.4 18.9141L14.9156 14.25H15C15.8297 14.25 16.5 13.5797 16.5 12.75V10.5C16.5 8.84531 15.1547 7.5 13.5 7.5H10.5ZM6.20156 18.4781C6.81094 18.3656 7.21875 17.7797 7.10625 17.1703C6.99375 16.5609 6.40781 16.1531 5.79844 16.2656C4.27969 16.5422 2.94375 16.9312 1.95469 17.4281C1.4625 17.6766 1.00312 17.9766 0.651562 18.3469C0.3 18.7266 0 19.2422 0 19.875C0 20.8781 0.726562 21.5672 1.36406 21.9844C2.05313 22.4344 2.97187 22.7953 4.00781 23.0812C6.10313 23.6578 8.925 24 12 24C15.075 24 17.8969 23.6578 19.9875 23.0812C21.0234 22.7953 21.9469 22.4344 22.6312 21.9844C23.2734 21.5672 23.9953 20.8781 23.9953 19.875C23.9953 19.2422 23.6953 18.7266 23.3391 18.3469C22.9875 17.9766 22.5281 17.6766 22.0359 17.4281C21.0516 16.9312 19.7156 16.5422 18.1922 16.2656C17.5828 16.1531 16.9969 16.5609 16.8844 17.1703C16.7719 17.7797 17.1797 18.3656 17.7891 18.4781C19.2047 18.7359 20.3062 19.0781 21.0234 19.4391C21.1734 19.5141 21.2953 19.5844 21.3937 19.65C21.5625 19.7625 21.5625 19.9875 21.3937 20.1C20.9812 20.3672 20.3109 20.6531 19.3781 20.9109C17.5453 21.4219 14.9297 21.75 12 21.75C9.07031 21.75 6.45469 21.4219 4.60781 20.9109C3.675 20.6531 3.00469 20.3672 2.59219 20.1C2.42344 19.9875 2.42344 19.7625 2.59219 19.65C2.69062 19.5844 2.81719 19.5141 2.9625 19.4391C3.67969 19.0781 4.78125 18.7406 6.19687 18.4781H6.20156Z" fill="#FFFFFF66"/>
</g>
<defs>
<clipPath id="clip0_344_30694">
<rect width="24" height="24" fill="white"/>
</clipPath>
</defs>
</svg>
