<svg width="24" height="24" viewBox="0 0 24 24" fill="none" xmlns="http://www.w3.org/2000/svg">
<g clip-path="url(#clip0_344_30730)">
<path d="M6.15609 6.28571H8.05V9.71429H3.99984L5.09234 7.00357C5.26484 6.57143 5.68531 6.28571 6.15609 6.28571ZM9.775 9.71429V6.28571H12.6931C13.0417 6.28571 13.3723 6.44286 13.5916 6.71429L16.0066 9.71429H9.775ZM18.9822 9.75L15.3884 5.28571C14.7344 4.47143 13.7425 4 12.6931 4H6.15609C4.74375 4 3.47516 4.85357 2.95406 6.15357L1.45906 9.87143C0.60375 10.2071 0 11.0321 0 12V16C0 16.6321 0.513906 17.1429 1.15 17.1429H2.34672C2.61984 18.7643 4.03937 20 5.75 20C7.46062 20 8.88016 18.7643 9.15328 17.1429H13.8467C14.1198 18.7643 15.5394 20 17.25 20C18.9606 20 20.3802 18.7643 20.6533 17.1429H21.85C22.4861 17.1429 23 16.6321 23 16V14.2857C23 11.9571 21.2463 10.0357 18.9822 9.75ZM15.622 16C15.6952 15.7849 15.8107 15.5863 15.9618 15.4159C16.1129 15.2455 16.2965 15.1066 16.5021 15.0073C16.7076 14.9081 16.9309 14.8504 17.1591 14.8376C17.3873 14.8248 17.6157 14.8572 17.8312 14.9329C18.0466 15.0086 18.2448 15.1261 18.4142 15.2786C18.5836 15.4311 18.7208 15.6155 18.8178 15.8211C18.9149 16.0267 18.9699 16.2494 18.9796 16.4763C18.9893 16.7032 18.9535 16.9298 18.8744 17.1429C18.8012 17.358 18.6857 17.5565 18.5346 17.727C18.3835 17.8974 18.1999 18.0362 17.9943 18.1355C17.7888 18.2348 17.5655 18.2925 17.3373 18.3053C17.1091 18.318 16.8807 18.2856 16.6652 18.2099C16.4498 18.1342 16.2516 18.0167 16.0822 17.8642C15.9128 17.7118 15.7756 17.5274 15.6786 17.3218C15.5815 17.1162 15.5265 16.8934 15.5168 16.6665C15.5071 16.4396 15.5429 16.2131 15.622 16ZM5.75 14.8571C6.2075 14.8571 6.64626 15.0378 6.96976 15.3592C7.29326 15.6807 7.475 16.1168 7.475 16.5714C7.475 17.0261 7.29326 17.4621 6.96976 17.7836C6.64626 18.1051 6.2075 18.2857 5.75 18.2857C5.2925 18.2857 4.85374 18.1051 4.53024 17.7836C4.20674 17.4621 4.025 17.0261 4.025 16.5714C4.025 16.1168 4.20674 15.6807 4.53024 15.3592C4.85374 15.0378 5.2925 14.8571 5.75 14.8571Z" fill="white" fill-opacity="0.4"/>
</g>
<defs>
<clipPath id="clip0_344_30730">
<rect width="24" height="24" fill="white"/>
</clipPath>
</defs>
</svg>
