<svg width="24" height="24" viewBox="0 0 24 24" fill="none" xmlns="http://www.w3.org/2000/svg">
<g clip-path="url(#clip0_344_30761)">
<path d="M10.2349 4.23393C10.4573 3.81908 10.2896 3.30931 9.86302 3.09486C9.43646 2.88041 8.90417 3.04212 8.68177 3.45345L5.2875 9.74996H2.16667C1.52135 9.74996 1 10.2527 1 10.875C1 11.4972 1.52135 12 2.16667 12L4.05885 19.2949C4.31771 20.2969 5.25104 21 6.32292 21H16.6771C17.749 21 18.6823 20.2969 18.9411 19.2949L20.8333 12C21.4786 12 22 11.4972 22 10.875C22 10.2527 21.4786 9.74996 20.8333 9.74996H17.7125L14.3182 3.45345C14.0958 3.04212 13.5672 2.88041 13.137 3.09486C12.7068 3.30931 12.5427 3.81908 12.7651 4.23393L15.7401 9.74996H7.2599L10.2349 4.23393ZM8 13.6875V17.0625C8 17.3719 7.7375 17.625 7.41667 17.625C7.09583 17.625 6.83333 17.3719 6.83333 17.0625V13.6875C6.83333 13.3781 7.09583 13.125 7.41667 13.125C7.7375 13.125 8 13.3781 8 13.6875ZM11.5 13.125C11.8208 13.125 12.0833 13.3781 12.0833 13.6875V17.0625C12.0833 17.3719 11.8208 17.625 11.5 17.625C11.1792 17.625 10.9167 17.3719 10.9167 17.0625V13.6875C10.9167 13.3781 11.1792 13.125 11.5 13.125ZM16.1667 13.6875V17.0625C16.1667 17.3719 15.9042 17.625 15.5833 17.625C15.2625 17.625 15 17.3719 15 17.0625V13.6875C15 13.3781 15.2625 13.125 15.5833 13.125C15.9042 13.125 16.1667 13.3781 16.1667 13.6875Z" fill="white" fill-opacity="0.4"/>
</g>
<defs>
<clipPath id="clip0_344_30761">
<rect width="24" height="24" fill="white"/>
</clipPath>
</defs>
</svg>
