<svg width="24" height="24" viewBox="0 0 24 24" fill="none" xmlns="http://www.w3.org/2000/svg">
<g clip-path="url(#clip0_344_30773)">
<path d="M9.11476 2.02664C9.20235 2.05916 9.49014 2.23675 11.1543 3.28977C11.6223 3.58742 12.1579 3.92509 12.343 4.04014C13.5968 4.82803 13.9197 5.03814 14.0122 5.12818C14.3451 5.44584 14.2925 6.00612 13.9071 6.27125C13.6994 6.41382 13.4241 6.44884 13.2039 6.3588C13.1614 6.34129 12.7109 6.06365 12.2029 5.74349C11.6949 5.42333 10.6488 4.7655 9.87804 4.28026C9.10725 3.79252 8.43156 3.3548 8.37651 3.30228C8.21885 3.1547 8.15128 2.99462 8.15128 2.76951C8.15378 2.46436 8.30644 2.21173 8.57421 2.07667C8.72686 1.99913 8.97962 1.97662 9.11476 2.02664Z" fill="white" fill-opacity="0.4"/>
<path d="M8.81696 4.54286C9.45761 4.95056 11.0367 5.95106 12.2054 6.69143C12.4106 6.82399 12.5958 6.94655 12.6133 6.96907C12.6409 6.99908 12.6459 7.07412 12.6359 7.28422C12.6133 7.74445 12.4206 8.38977 12.1078 9.0576C12.0453 9.19267 11.9927 9.31773 11.9927 9.33274C11.9927 9.34775 12.0402 9.38777 12.1003 9.42028C12.2004 9.47781 13.1614 10.0456 14.4577 10.811C15.0683 11.1737 18.1315 12.9846 19.5254 13.8075C21.3447 14.8805 21.3072 14.858 21.5624 15.0981C22.063 15.5733 22.1355 16.1511 21.7727 16.7614C21.4073 17.3767 20.7842 17.6269 20.151 17.4068C19.8757 17.3117 19.663 17.1791 18.199 16.1912C13.4442 12.9796 10.859 11.2412 10.8215 11.2337C10.7915 11.2262 10.7314 11.2837 10.6288 11.4163C10.4311 11.6714 9.84801 12.2567 9.63279 12.4143C9.40756 12.5819 9.21987 12.6919 9.07473 12.7494L8.9521 12.7945L7.82595 12.0891C7.20532 11.7014 6.18178 11.0586 5.54863 10.6634C4.91549 10.2657 4.38995 9.92804 4.37994 9.91303C4.35241 9.87301 4.35492 9.60538 4.38745 9.38277C4.49256 8.62739 4.923 7.6419 5.64373 6.50884C6.40701 5.30574 7.32294 4.36277 7.95609 4.12015L8.07871 4.07513L8.81696 4.54286Z" fill="white" fill-opacity="0.4"/>
<path d="M3.82188 10.5308C4.08715 10.6584 8.60426 13.5023 8.68684 13.5948C8.82698 13.7474 8.87703 13.885 8.87703 14.1126C8.87703 14.2877 8.86702 14.3302 8.80446 14.4453C8.60426 14.8029 8.16381 14.958 7.81095 14.7954C7.62576 14.7079 3.17122 11.9015 3.04109 11.7889C2.80084 11.5788 2.72577 11.2062 2.86841 10.916C2.99354 10.6559 3.23378 10.4958 3.52158 10.4808C3.66923 10.4733 3.71678 10.4808 3.82188 10.5308Z" fill="white" fill-opacity="0.4"/>
<path d="M11.5347 20.5183C11.6774 20.5709 11.855 20.7334 11.9376 20.8885C12.0052 21.0136 12.0052 21.0211 12.0052 21.5038V21.9916L7.06266 21.9991C4.34489 22.0016 2.0926 21.9991 2.06006 21.9916L2 21.9766L2.01251 21.5213C2.02753 20.9761 2.05756 20.8785 2.27278 20.6809C2.51552 20.4608 2.08008 20.4783 7.03513 20.4808C10.8465 20.4808 11.4446 20.4883 11.5347 20.5183Z" fill="white" fill-opacity="0.4"/>
</g>
<defs>
<clipPath id="clip0_344_30773">
<rect width="24" height="24" fill="white"/>
</clipPath>
</defs>
</svg>
