<svg width="24" height="24" viewBox="0 0 24 24" fill="none" xmlns="http://www.w3.org/2000/svg">
<g clip-path="url(#clip0_344_30718)">
<path d="M13.0881 2.70305C12.8873 2.27341 12.4631 2 11.9973 2C11.5314 2 11.111 2.27341 10.9065 2.70305L8.47114 7.87044L3.03233 8.69847C2.57783 8.76877 2.19909 9.09686 2.05895 9.54603C1.91881 9.9952 2.03244 10.4912 2.35816 10.8232L6.30471 14.8501L5.37299 20.5409C5.29724 21.0096 5.48661 21.4861 5.86157 21.7634C6.23653 22.0407 6.73269 22.0759 7.14174 21.8532L12.0011 19.1778L16.8604 21.8532C17.2694 22.0759 17.7656 22.0446 18.1406 21.7634C18.5155 21.4822 18.7049 21.0096 18.6291 20.5409L17.6936 14.8501L21.6402 10.8232C21.9659 10.4912 22.0833 9.9952 21.9394 9.54603C21.7955 9.09686 21.4205 8.76877 20.966 8.69847L15.5234 7.87044L13.0881 2.70305Z" fill="white" fill-opacity="0.4"/>
</g>
<defs>
<clipPath id="clip0_344_30718">
<rect width="24" height="24" fill="white"/>
</clipPath>
</defs>
</svg>
